<svg xmlns="http://www.w3.org/2000/svg" xmlns:xlink="http://www.w3.org/1999/xlink" width="147.353" height="92.615" viewBox="0 0 147.353 92.615"><defs><linearGradient id="a" y1="0.5" x2="1" y2="0.5" gradientUnits="objectBoundingBox"><stop offset="0" stop-color="#dae3fe"/><stop offset="1" stop-color="#e9effd"/></linearGradient><linearGradient id="b" x1="-1.682" y1="0.004" x2="-2.906" y2="0.994" gradientUnits="objectBoundingBox"><stop offset="0" stop-color="#2b3582"/><stop offset="1" stop-color="#150e42"/></linearGradient><linearGradient id="c" x1="0.085" y1="-0.198" x2="1.211" y2="1.7" gradientUnits="objectBoundingBox"><stop offset="0" stop-color="#4042e2"/><stop offset="1" stop-color="#4f52ff"/></linearGradient><linearGradient id="d" x1="0" y1="0.5" x2="1" y2="0.5" xlink:href="#a"/><linearGradient id="e" x1="28.319" y1="-0.483" x2="25.484" y2="6.019" xlink:href="#c"/><linearGradient id="f" x1="108.506" y1="0.501" x2="109.504" y2="0.501" gradientUnits="objectBoundingBox"><stop offset="0" stop-color="#ff928e"/><stop offset="1" stop-color="#feb3b1"/></linearGradient><linearGradient id="g" x1="33.067" y1="0.946" x2="33.735" y2="0.099" gradientUnits="objectBoundingBox"><stop offset="0" stop-color="#09005d"/><stop offset="1" stop-color="#1a0f91"/></linearGradient><linearGradient id="h" x1="70.676" y1="-2.23" x2="63.676" y2="5.395" xlink:href="#c"/><linearGradient id="i" x1="125.895" y1="0.499" x2="126.895" y2="0.499" xlink:href="#f"/><linearGradient id="j" x1="23.204" y1="0.916" x2="23.675" y2="0.085" xlink:href="#g"/><linearGradient id="k" x1="11.007" y1="0.775" x2="12.62" y2="-0.237" gradientUnits="objectBoundingBox"><stop offset="0" stop-color="#fe7062"/><stop offset="1" stop-color="#ff928e"/></linearGradient><linearGradient id="l" x1="21.278" y1="0.5" x2="22.278" y2="0.5" xlink:href="#f"/><linearGradient id="m" x1="188.419" y1="1.606" x2="190.414" y2="4.281" xlink:href="#f"/><linearGradient id="n" x1="-9.603" y1="5.847" x2="3.215" y2="-0.812" xlink:href="#f"/><linearGradient id="o" x1="27.734" y1="1.061" x2="31.783" y2="-1.522" xlink:href="#k"/><linearGradient id="p" x1="0.761" y1="-1.014" x2="0.111" y2="2.812" xlink:href="#f"/><linearGradient id="q" x1="-32.352" y1="43.931" x2="-33.789" y2="42.08" xlink:href="#f"/><linearGradient id="r" x1="-19.415" y1="-68.559" x2="-17.396" y2="-70.881" xlink:href="#g"/><linearGradient id="s" x1="-106.077" y1="211.895" x2="-110.758" y2="202.887" xlink:href="#f"/><linearGradient id="t" x1="56.764" y1="0.499" x2="57.764" y2="0.499" xlink:href="#g"/><linearGradient id="u" x1="78.559" y1="0.498" x2="79.558" y2="0.498" xlink:href="#c"/><linearGradient id="v" x1="56.762" y1="0.499" x2="57.762" y2="0.499" xlink:href="#g"/><linearGradient id="w" x1="78.559" y1="0.498" x2="79.559" y2="0.498" xlink:href="#c"/><linearGradient id="x" x1="34.185" y1="1.186" x2="32.611" y2="0.256" xlink:href="#f"/><linearGradient id="y" x1="38.217" y1="0.927" x2="36.411" y2="-1.637" xlink:href="#f"/></defs><g transform="translate(0 0)"><path d="M287.961,157.973c-2.351-2.585-5.124-5.1-5.852-8.618-1.253-6.073,4.1-11.255,5.858-17.185a15.473,15.473,0,0,0-1.656-12.353,13.723,13.723,0,0,0-10.086-6.391c-6.936-.675-13.717,4.287-20.549,2.851-5.469-1.15-9.794-6.228-15.34-6.774-6.534-.643-11.957,5.092-18.192,7.248-7.462,2.578-15.555-.117-22.887-3.078s-15.055-6.261-22.79-4.845c-8.612,1.578-15.828,9.554-16.977,18.75-1.143,9.119,8.43,16.438.286,27.388-2.546,3.423-4.241,8.183-3.111,12.379,1.091,4.079,5.748,6.651,5.78,10.892.026,3.345-2.942,6.008-3.182,9.346-.208,2.864,1.734,5.507,4.111,6.865s5.144,1.689,7.833,1.994c0,0,82.794.708,104.214.253a17.772,17.772,0,0,0,6.508-.955,6.654,6.654,0,0,0,4.2-4.988c.533-3.942-3.345-7.365-2.988-11.327.455-5.059,7.164-7.014,8.443-11.918C292.488,164.052,290.312,160.564,287.961,157.973Z" transform="translate(-152.857 -108.489)" fill="url(#a)"/><g transform="translate(0 27.009)"><g transform="translate(6.925)"><path d="M228.431,586.947c-4.15.831-9.443-3.7-11.151-8.631-1.754-5.085,1.461-7.216,1.442-14.269-.026-8.014-4.2-9.222-6.956-20.023-.623-2.435-4.222-16.542.24-19.185,4.124-2.442,15.717,4.572,17.75,13.548,1.448,6.4-3.027,9.093-1.318,16.548,1.5,6.54,5.443,6.638,6.956,12.951C237.225,575.562,233.874,585.856,228.431,586.947Z" transform="translate(-209.805 -524.348)" fill="#91b3fa"/><path d="M374.644,788.572c1.117-8.638-1.065-21.959-3.091-31.61-2.2-10.45-4.683-18.978-4.709-19.062l-.344.1c.026.084,2.513,8.6,4.7,19.042,2.02,9.625,4.2,22.907,3.085,31.486Z" transform="translate(-356.323 -724.03)" fill="url(#b)"/></g><g transform="translate(0 28.442)"><path d="M121.787,996.608c4.306-2.247,5.78-9.95,3.332-12.457-1.656-1.7-4.027.091-6.319-1.669-2.923-2.241-.773-6.462-3.072-11.931-1.955-4.657-6.644-9.06-9.385-8.157-2.871.948-4.377,7.969-1.929,12.2,1.591,2.747,4.033,2.884,4.559,5.443.617,2.968-2.351,4.319-2.371,7.2C106.583,992.386,116.091,999.576,121.787,996.608Z" transform="translate(-103.185 -962.275)" fill="#bdd0fb"/><path d="M244.486,1147.459a.174.174,0,0,0,.078-.02.183.183,0,0,0,.084-.234c-5.709-11.768-7.384-25.42-7.4-25.557a.176.176,0,0,0-.351.039c.019.136,1.7,13.847,7.436,25.667A.169.169,0,0,0,244.486,1147.459Z" transform="translate(-228.209 -1111.152)" fill="#91b3fa"/><path d="M125.686,997.116a.059.059,0,0,1-.052-.026,16.07,16.07,0,0,1-2.916-5.41,8.3,8.3,0,0,1-.195-3.923,6.216,6.216,0,0,1,1.7-3.2.069.069,0,1,1,.091.1,6.049,6.049,0,0,0-1.656,3.13c-.4,1.89-.182,5.02,3.085,9.216a.066.066,0,0,1-.013.1C125.719,997.11,125.7,997.116,125.686,997.116Z" transform="translate(-121.126 -983.099)" fill="#dce5fe"/><path d="M394.557,1308.721a.091.091,0,0,1-.039-.013.071.071,0,0,1-.019-.1,18.839,18.839,0,0,0,2.877-5.761,5.3,5.3,0,0,0-.084-3.377,3.919,3.919,0,0,0-2.747-2.15.069.069,0,1,1,.019-.136,4.053,4.053,0,0,1,2.851,2.228c.9,2.111-.039,5.235-2.806,9.268A.048.048,0,0,1,394.557,1308.721Z" transform="translate(-375.566 -1275.434)" fill="#dce5fe"/></g></g><g transform="translate(86.298 60.814)"><path d="M1453.88,1076.178s3.975-4.995,3.325-9.71-3.871-4.157-5.306-1.364-2.721,2.409-1.87-.214,1.922-4.332.156-6.943-1.948-3.722-.955-6.053,2.241-5.631-1.708-6.813-7.885,2.442-6.962,7.177,1.474,5.254.208,7.008-.74,2.474-.559,3.618-1.76,1.409-1.715-.2,2.507-5.4.825-7.177-4.981-1.792-5.826,2.306,1.864,5.936,1.728,7.417-1.585-.766-2.851.747.435,2.7,1.7,3.514,3.143,2.286,1.344,3.351-3.5.045-2.4,3.332h20.874Z" transform="translate(-1431.923 -1044.858)" fill="#91b3fa"/><path d="M1605.5,1100.9a2.7,2.7,0,0,0-.357.247,2.267,2.267,0,0,0-.305.305,3.7,3.7,0,0,0-.487.721,4.6,4.6,0,0,0-.455,1.682c-.006.072-.013.143-.013.221s-.006.143-.006.221v.221l.013.221.006.11.013.11.019.214c.02.143.039.286.065.429s.052.286.084.422l.045.214.052.2.2.818c.266,1.085.526,2.176.734,3.267a16.076,16.076,0,0,1,.305,3.286c-.006.273-.026.546-.058.812a5.481,5.481,0,0,1-.149.792,4.3,4.3,0,0,1-.26.753,5.6,5.6,0,0,0-.279.844,13.946,13.946,0,0,0-.279,1.7c-.059.565-.1,1.124-.143,1.689-.078,1.124-.143,2.241-.305,3.345-.02.136-.039.273-.065.409l-.078.409c-.026.136-.065.273-.1.4-.02.065-.039.136-.058.2s-.039.136-.058.2l-.065.195c-.02.065-.052.13-.078.195a3.932,3.932,0,0,1-.169.377,3.305,3.305,0,0,1-.468.688l.046.045a3.552,3.552,0,0,0,.533-.669,5.6,5.6,0,0,0,.377-.766,9.773,9.773,0,0,0,.468-1.637c.227-1.111.338-2.241.461-3.351.065-.559.117-1.117.195-1.669a12.923,12.923,0,0,1,.312-1.617,5.7,5.7,0,0,1,.266-.753,5.818,5.818,0,0,0,.3-.831,6.569,6.569,0,0,0,.175-.864,7.765,7.765,0,0,0,.078-.87,16.63,16.63,0,0,0-.286-3.416c-.195-1.117-.468-2.221-.766-3.306-.078-.273-.149-.546-.227-.812l-.058-.2-.052-.195c-.039-.13-.065-.266-.1-.4s-.052-.266-.084-.4l-.032-.2c-.013-.065-.02-.136-.026-.2a6.752,6.752,0,0,1-.052-.812,4.749,4.749,0,0,1,.065-.805,4.054,4.054,0,0,1,.208-.779,3.808,3.808,0,0,1,.169-.37,2.371,2.371,0,0,1,.208-.351,2.573,2.573,0,0,1,.545-.61Z" transform="translate(-1591.702 -1097.26)" fill="#dce5fe"/><path d="M1718.023,1361.3a25.58,25.58,0,0,1-.494,2.624c-.1.435-.214.864-.344,1.286-.033.1-.065.214-.1.318s-.065.208-.1.318c-.065.214-.143.422-.214.63s-.156.416-.24.617-.176.409-.26.61c-.188.4-.383.792-.6,1.176s-.461.753-.714,1.111a11.5,11.5,0,0,1-.851,1.026l.045.045a7.34,7.34,0,0,0,.968-.942,10.993,10.993,0,0,0,.805-1.091,13.134,13.134,0,0,0,.649-1.188c.091-.208.188-.409.273-.617s.162-.422.24-.63.15-.429.214-.643c.033-.1.065-.214.1-.325s.065-.214.091-.325c.117-.435.221-.87.305-1.312a16.062,16.062,0,0,0,.305-2.676Z" transform="translate(-1695.774 -1340.748)" fill="#dce5fe"/></g><g transform="translate(20.557 12.75)"><path d="M1067.567,1156.2l-2.267,20.341h26.31l-3.429-20.341Z" transform="translate(-1023.37 -1100.905)" fill="#21418e"/><path d="M419.7,310v46.58a7.071,7.071,0,0,0,6.884,7.066c17.016.442,76.521,1.5,92.712,1.266a5.193,5.193,0,0,0,5.118-5.053c.312-10.82.818-36.844-1.059-48.925a5.347,5.347,0,0,0-5.118-4.527c-14.256-.455-77.332-1.9-93.524-1.539A5.126,5.126,0,0,0,419.7,310Z" transform="translate(-419.7 -304.807)" fill="#21418e"/><path d="M464.7,335.741V380a4.1,4.1,0,0,0,4.033,4.092l90.309,1.117a3.993,3.993,0,0,0,4.046-3.968l.149-43.859a2.915,2.915,0,0,0-2.845-2.923l-92.459-1.87A3.157,3.157,0,0,0,464.7,335.741Z" transform="translate(-461.777 -330.78)" fill="url(#c)"/><path d="M498.2,380.093v39.02a3.729,3.729,0,0,0,3.786,3.592l85.061,1.422a3.731,3.731,0,0,0,3.91-3.455l1.065-38.812a2.631,2.631,0,0,0-2.656-2.624l-88.088-1.948A2.915,2.915,0,0,0,498.2,380.093Z" transform="translate(-493.102 -372.579)" opacity="0.12" fill="url(#d)"/><path d="M561.807,1142.568h0l-99.07-1.689a.139.139,0,0,1-.136-.143.137.137,0,0,1,.136-.136h0l99.07,1.689a.14.14,0,0,1,0,.279Z" transform="translate(-459.814 -1086.318)" fill="#91b3fa"/><path d="M979.282,1451.286H940.775c-1.046,0-1.832-.747-1.63-1.546l.494-1.955a1.6,1.6,0,0,1,1.565-1.046l37.124-1.156a1.641,1.641,0,0,1,1.689,1.013l.89,3.111C981.133,1450.52,980.347,1451.286,979.282,1451.286Z" transform="translate(-905.379 -1371.493)" fill="#21418e"/><path d="M1281.937,1467.505a.133.133,0,0,1-.136-.136.143.143,0,0,1,.136-.143l1.591-.026a.14.14,0,1,1,.006.279l-1.6.026Z" transform="translate(-1225.809 -1391.706)" fill="#91b3fa"/><path d="M959.608,1471.376h-.02a.138.138,0,0,1-.117-.156l.227-1.422a1.6,1.6,0,0,1,1.559-1.351l16.873-.247a.147.147,0,0,1,.143.136.143.143,0,0,1-.136.143l-16.873.247a1.317,1.317,0,0,0-1.286,1.117l-.227,1.422A.161.161,0,0,1,959.608,1471.376Z" transform="translate(-924.413 -1392.641)" fill="#91b3fa"/></g><g transform="translate(20.344 53.16)"><path d="M547.673,1498.3s-.136.773-.2,1.539a.531.531,0,0,0,.507.572c1.02.045,3.2.123,3.988.091a.169.169,0,0,0,.149-.234h0a.382.382,0,0,0-.195-.208l-3.6-1.656Z" transform="translate(-538.958 -1461.196)" fill="url(#e)"/><path d="M548.9,1489.243l.11.929a1.154,1.154,0,0,0,1.065-.039l-.26-1.033Z" transform="translate(-540.296 -1452.593)" fill="url(#f)"/><path d="M508.833,1223.2c-.045.24-.253,12.074,1.007,17.373a.184.184,0,0,1-.1.208,3.11,3.11,0,0,1-1.033.208.3.3,0,0,1-.305-.221,60.729,60.729,0,0,1-2.319-13.275c-.253-6.579,0-.221,0-.221l.149-4.066Z" transform="translate(-500.151 -1203.963)" fill="url(#g)"/><path d="M480.429,1504.6a5.388,5.388,0,0,0-.429,1.429.315.315,0,0,0,.286.383,12.443,12.443,0,0,0,1.273.071.317.317,0,0,0,.318-.357,2.727,2.727,0,0,0-.63-1.487Z" transform="translate(-475.865 -1467.087)" fill="url(#h)"/><path d="M483.8,1485.452l.26,1.4a.9.9,0,0,0,.753.052l-.123-1.507Z" transform="translate(-479.424 -1449.134)" fill="url(#i)"/><path d="M467.385,1219.45c-1.033,6.241.227,15.425.649,17.224a.285.285,0,0,0,.227.214,1.852,1.852,0,0,0,.812-.033.249.249,0,0,0,.182-.234c.058-1.455-.045-10.372.916-13.9a.775.775,0,0,1,.312-.442l1.87-1.331.143-2.15Z" transform="translate(-463.704 -1199.849)" fill="url(#j)"/><g transform="translate(3.29 2.972)"><path d="M474.046,1039.406a29.18,29.18,0,0,0-6.521.812,46.775,46.775,0,0,0-.162,11.606,9.734,9.734,0,0,0,5.1-.383c.4-2.254,2.26-8.592,2.26-8.592a10.2,10.2,0,0,0,3.786-1.2,6.566,6.566,0,0,1-1.312-2.747A10.109,10.109,0,0,1,474.046,1039.406Z" transform="translate(-467.069 -1034.604)" fill="url(#k)"/><path d="M629.195,973a.588.588,0,0,0-.688-.195c-.455,1.929-2.845,3.488-5.306,4.254a6.73,6.73,0,0,0,1.312,2.747A9.947,9.947,0,0,0,629.195,973Z" transform="translate(-613.06 -972.761)" fill="url(#l)"/></g><g transform="translate(18.733)"><path d="M705.472,930.306c.033.1-.338.253-.552-.156-.006-.2-.13-1.046-.006-1.208A15.522,15.522,0,0,1,706.771,927a.29.29,0,0,1,.039.4l-.591.617a2.967,2.967,0,0,1,.344.688.831.831,0,0,1-.084.61,6.457,6.457,0,0,1-.383.624A.852.852,0,0,1,705.472,930.306Z" transform="translate(-704.859 -927)" fill="url(#m)"/><path d="M711.508,948.9l-.539.461-.169.455.481.533a6.017,6.017,0,0,1,.286-1.1C711.683,949.049,711.618,948.952,711.508,948.9Z" transform="translate(-710.414 -947.478)" fill="url(#n)"/></g><path d="M426.859,1062.3l-1.189-3s-2.9,1.968-3.371,4.462a6.644,6.644,0,0,1,2.436.682A7.447,7.447,0,0,1,426.859,1062.3Z" transform="translate(-421.918 -1050.708)" fill="url(#o)"/><path d="M511.879,1008l-.987,2.851a.1.1,0,0,0,.045.123,2.312,2.312,0,0,0,2.4-.162.478.478,0,0,0,.221-.344l.318-2.468Z" transform="translate(-504.749 -1002.739)" fill="url(#p)"/><g transform="translate(5.265 1.139)"><path d="M522.826,967.3s1.085,2.039.942,2.864-1.481.766-2.65.1l-.818-2.2Z" transform="translate(-518.818 -965.822)" fill="url(#q)"/><path d="M499.833,947.9a.088.088,0,0,0,.039-.123,2.239,2.239,0,0,1-.3-.636s-.195-.123.494-.292,1.721-.422,1.935-1.007-.344-2.013-1.227-.864a.079.079,0,0,1-.13,0,.867.867,0,0,0-1.052-.344.8.8,0,0,0-.546.766.082.082,0,0,1-.1.084.967.967,0,0,0-1.13.526.775.775,0,0,0,.058.935.08.08,0,0,1-.039.136.51.51,0,0,0-.357.578c.033.533.624.487.792.461a.072.072,0,0,1,.071.026,2.852,2.852,0,0,0,1.507.929.086.086,0,0,0,.091-.11l-.305-.89a.088.088,0,0,1,.045-.1Z" transform="translate(-497.481 -944.54)" fill="url(#r)"/><path d="M523.679,994.443s-.773-.526-.825-.084.7.643,1.065.481Z" transform="translate(-521.203 -990.958)" fill="url(#s)"/></g><g transform="translate(3.811 18.354)"><path d="M605.374,1271.426a.216.216,0,0,1-.214-.175l-1.4-7.54a.218.218,0,1,1,.429-.078l1.4,7.54a.224.224,0,0,1-.175.253Z" transform="translate(-595.398 -1259.956)" fill="#21418e"/><path d="M574.064,1268.663H562.51a.429.429,0,1,1,0-.857h11.268l2.916-6.748H560.029a.429.429,0,0,1,0-.857h17.328a.441.441,0,0,1,.364.195.436.436,0,0,1,.032.409l-3.293,7.612A.452.452,0,0,1,574.064,1268.663Z" transform="translate(-554.112 -1256.914)" fill="#21418e"/><path d="M494.285,1228.9h-9.1a.44.44,0,0,1-.429-.318l-5.423-18.088h-3.786a.448.448,0,1,1,0-.9h4.124a.44.44,0,0,1,.429.318l5.423,18.088h8.768a.449.449,0,0,1,.448.448A.459.459,0,0,1,494.285,1228.9Z" transform="translate(-475.1 -1209.6)" fill="#21418e"/><path d="M653.064,1272.806a.212.212,0,0,1-.214-.214l-.149-7.476a.217.217,0,0,1,.214-.221.21.21,0,0,1,.221.214l.149,7.475a.228.228,0,0,1-.221.221Z" transform="translate(-641.165 -1261.304)" fill="#21418e"/><path d="M689.014,1272.965a.216.216,0,0,1-.214-.214v-7.437a.214.214,0,0,1,.429,0v7.437A.216.216,0,0,1,689.014,1272.965Z" transform="translate(-674.921 -1261.495)" fill="#21418e"/><path d="M728.514,1272.833h0a.212.212,0,0,1-.214-.214l.052-7.4a.216.216,0,0,1,.214-.214h0a.216.216,0,0,1,.214.214l-.052,7.4A.2.2,0,0,1,728.514,1272.833Z" transform="translate(-711.855 -1261.402)" fill="#21418e"/><path d="M754.336,1274.292a.083.083,0,0,1-.039-.006.214.214,0,0,1-.169-.253l1.4-7.235a.215.215,0,0,1,.422.084l-1.409,7.235A.214.214,0,0,1,754.336,1274.292Z" transform="translate(-736.001 -1262.919)" fill="#21418e"/><path d="M588.252,1292.428H572.314a.214.214,0,1,1,0-.429h15.938a.216.216,0,0,1,.214.214A.208.208,0,0,1,588.252,1292.428Z" transform="translate(-565.8 -1286.648)" fill="#21418e"/><path d="M597.677,1326.129H583.414a.214.214,0,0,1,0-.429h14.262a.214.214,0,0,1,0,.429Z" transform="translate(-576.179 -1318.16)" fill="#21418e"/><path d="M604.57,1357.329H591.814a.214.214,0,0,1,0-.429H604.57a.214.214,0,0,1,0,.429Z" transform="translate(-584.034 -1347.333)" fill="#21418e"/><g transform="translate(8.976 18.854)"><circle cx="1.124" cy="1.124" r="1.124" fill="url(#t)"/><path d="M619.324,1505.512a.812.812,0,1,1-.812-.812A.812.812,0,0,1,619.324,1505.512Z" transform="translate(-617.414 -1504.388)" fill="url(#u)"/></g><g transform="translate(17.484 18.854)"><circle cx="1.124" cy="1.124" r="1.124" fill="url(#v)"/><path d="M750.224,1505.512a.812.812,0,1,1-.812-.812A.812.812,0,0,1,750.224,1505.512Z" transform="translate(-748.321 -1504.388)" fill="url(#w)"/></g></g><path d="M416.82,1126.228s-1.981,4.507,2.858,5.163l.662-.552a2.878,2.878,0,0,1-1.1-3.955C419.236,1126.89,417.807,1125.676,416.82,1126.228Z" transform="translate(-416.419 -1113.154)" fill="url(#x)"/><path d="M467.162,1199.4h1.76s1.1,1.429.987,1.76-1.2.065-1.2.065l-.565-.948s-1.65.11-1.65-.331S467.162,1199.4,467.162,1199.4Z" transform="translate(-463.247 -1181.709)" fill="url(#y)"/><path d="M559.252,949.654c-.006,0-.013,0-.013-.007a.016.016,0,0,1,.007-.026.577.577,0,0,0,.247-.4,1.079,1.079,0,0,0-.247-.662.018.018,0,0,1,.026-.026,1.048,1.048,0,0,1,.26.688.609.609,0,0,1-.26.429A.05.05,0,0,1,559.252,949.654Z" transform="translate(-549.959 -947.127)" fill="#91b3fa"/></g><g transform="translate(105.566 3.501)"><g transform="translate(20.822)"><path d="M2049.252,170.363a.1.1,0,0,0,.078.1l1.254.383a5.765,5.765,0,0,0,.766,1.689l-.533,1.2a.111.111,0,0,0,.026.123l1.149,1.078a.109.109,0,0,0,.124.019l1.163-.617a5.75,5.75,0,0,0,1.734.649l.468,1.227a.111.111,0,0,0,.1.071l1.578-.052a.1.1,0,0,0,.1-.078l.383-1.253a5.768,5.768,0,0,0,1.689-.766l1.2.533a.111.111,0,0,0,.124-.026l1.078-1.15a.109.109,0,0,0,.02-.123l-.617-1.163a5.76,5.76,0,0,0,.65-1.734l1.227-.468a.111.111,0,0,0,.072-.1l-.052-1.578a.1.1,0,0,0-.078-.1l-1.253-.383a5.772,5.772,0,0,0-.766-1.689l.532-1.2a.111.111,0,0,0-.026-.123l-1.149-1.078a.109.109,0,0,0-.124-.019l-1.163.617a5.748,5.748,0,0,0-1.734-.649l-.468-1.228a.111.111,0,0,0-.1-.071l-1.578.052a.1.1,0,0,0-.1.078l-.383,1.253a5.769,5.769,0,0,0-1.688.766l-1.2-.533a.112.112,0,0,0-.124.026l-1.078,1.15a.109.109,0,0,0-.02.123l.617,1.163a5.76,5.76,0,0,0-.649,1.734l-1.228.468a.111.111,0,0,0-.071.1Zm5.527-1.318a1.4,1.4,0,1,1,1.072,1.663A1.4,1.4,0,0,1,2054.779,169.044Z" transform="translate(-2049.2 -162.4)" fill="#91b3fa"/></g><g transform="translate(0 12.742)"><path d="M1728.751,382.573a.328.328,0,0,0,.227.3l3.78,1.163a17.174,17.174,0,0,0,2.312,5.079l-1.611,3.611a.321.321,0,0,0,.078.37l3.468,3.234a.325.325,0,0,0,.377.052l3.494-1.851a17.166,17.166,0,0,0,5.222,1.961l1.416,3.689a.322.322,0,0,0,.312.208l4.741-.162a.328.328,0,0,0,.3-.227l1.162-3.78a17.172,17.172,0,0,0,5.079-2.312l3.611,1.611a.321.321,0,0,0,.37-.078l3.234-3.468a.325.325,0,0,0,.052-.377l-1.851-3.494a17.171,17.171,0,0,0,1.961-5.222l3.689-1.416a.322.322,0,0,0,.208-.312l-.162-4.741a.328.328,0,0,0-.227-.3l-3.773-1.163a17.174,17.174,0,0,0-2.312-5.079l1.611-3.611a.321.321,0,0,0-.078-.37l-3.468-3.234a.325.325,0,0,0-.377-.052l-3.494,1.851a17.167,17.167,0,0,0-5.222-1.961l-1.416-3.689a.322.322,0,0,0-.312-.208l-4.741.162a.328.328,0,0,0-.3.227l-1.163,3.773a17.174,17.174,0,0,0-5.079,2.312l-3.611-1.611a.321.321,0,0,0-.37.078l-3.234,3.468a.325.325,0,0,0-.052.377l1.851,3.494a17.165,17.165,0,0,0-1.961,5.222l-3.689,1.416a.322.322,0,0,0-.208.312Zm16.614-3.975a4.213,4.213,0,1,1,3.228,5.007A4.218,4.218,0,0,1,1745.365,378.6Z" transform="translate(-1728.595 -358.595)" fill="#91b3fa"/><g transform="translate(6.813 6.79)"><path d="M1890.339,524.814a.328.328,0,0,1-.266-.078l-.247-.214a.152.152,0,0,1,.2-.227l.247.214a.024.024,0,0,0,.02.007l.2-.11a.153.153,0,1,1,.149.266l-.188.11A.79.79,0,0,1,1890.339,524.814Zm-6.151.818a.325.325,0,0,1-.136-.006l-.39-.1a.154.154,0,1,1,.078-.3l.39.1c.013,0,.019,0,.026-.007l.084-.123a.154.154,0,0,1,.253.175l-.084.123A.318.318,0,0,1,1884.188,525.632Zm7.066-1.331a.158.158,0,0,1-.156-.078.146.146,0,0,1,.059-.208l.669-.383a.153.153,0,0,1,.149.266l-.669.383A.459.459,0,0,1,1891.254,524.3Zm-8.268,1.026a.242.242,0,0,1-.065-.007l-.747-.2a.154.154,0,1,1,.078-.3l.747.2a.153.153,0,0,1,.111.188A.145.145,0,0,1,1882.987,525.327Zm1.838-.533a.136.136,0,0,1-.11-.026.149.149,0,0,1-.039-.214l.429-.636a.154.154,0,0,1,.253.175l-.429.636A.152.152,0,0,1,1884.825,524.795Zm4.54-.74a.144.144,0,0,1-.123-.039l-.584-.507a.152.152,0,1,1,.2-.227l.585.507a.155.155,0,0,1-.078.266Zm3.228-.526a.158.158,0,0,1-.156-.078.146.146,0,0,1,.059-.208l.058-.033a.033.033,0,0,0,.013-.026l-.091-.474a.155.155,0,1,1,.305-.058l.091.468a.328.328,0,0,1-.162.351l-.059.032C1892.625,523.515,1892.605,523.522,1892.592,523.528Zm-11.086,1.37a.144.144,0,0,1-.136-.052.307.307,0,0,1-.071-.162v-.026l-.045-.656a.149.149,0,0,1,.143-.162.152.152,0,0,1,.162.143l.046.656a.162.162,0,0,1-.02.221A.178.178,0,0,1,1881.506,524.9Zm5.839-1.26a.154.154,0,0,1-.045-.305,7.487,7.487,0,0,0,.74-.156.154.154,0,0,1,.078.3c-.253.065-.513.117-.773.162Zm-.76.091h-.013c-.26.019-.526.032-.779.032a.156.156,0,1,1,0-.312c.247,0,.507-.013.76-.033a.159.159,0,0,1,.169.143A.169.169,0,0,1,1886.585,523.729Zm5.91-1.65a.153.153,0,0,1-.176-.123l-.149-.753a.159.159,0,0,1,.123-.182.154.154,0,0,1,.182.123l.149.753a.163.163,0,0,1-.13.182Zm-11.125,1.292h-.013a.153.153,0,0,1-.162-.143l-.045-.662a.153.153,0,0,1,.195-.227l.1.052.013.091.052.734A.16.16,0,0,1,1881.369,523.372Zm11.392-2.637a.164.164,0,0,1-.13-.039.155.155,0,0,1-.006-.221c.169-.182.338-.377.493-.572a.153.153,0,0,1,.24.188c-.162.2-.331.4-.513.591A.118.118,0,0,1,1892.761,520.735Zm-12.132,1.494a.142.142,0,0,1-.11-.026,7.529,7.529,0,0,1-.636-.455.153.153,0,0,1,.188-.24c.2.156.409.3.617.435a.156.156,0,0,1,.045.214A.141.141,0,0,1,1880.629,522.229Zm13.087-2.7a.136.136,0,0,1-.11-.026.156.156,0,0,1-.045-.214c.136-.208.273-.429.4-.649a.153.153,0,1,1,.266.149,7.065,7.065,0,0,1-.409.669A.121.121,0,0,1,1893.716,519.527Zm-6.9.909c-.058.006-.123.019-.182.026a.159.159,0,0,1-.175-.136.15.15,0,0,1,.136-.175,5.917,5.917,0,0,0,.74-.143.148.148,0,0,1,.188.11.153.153,0,0,1-.11.188A4.117,4.117,0,0,1,1886.818,520.437Zm-.948.078h-.026a6.375,6.375,0,0,1-.786-.045.154.154,0,1,1,.032-.305,5.763,5.763,0,0,0,.747.045.158.158,0,0,1,.156.156A.141.141,0,0,1,1885.87,520.515Zm2.26-.429a.15.15,0,0,1-.169-.1.155.155,0,0,1,.084-.2,6.439,6.439,0,0,0,.682-.312.154.154,0,1,1,.143.273,7.849,7.849,0,0,1-.715.331C1888.15,520.079,1888.137,520.086,1888.13,520.086Zm-8.722,1.2a.164.164,0,0,1-.13-.039c-.162-.149-.325-.305-.48-.468a.151.151,0,0,1-.13-.123.154.154,0,0,1,.123-.182l.123-.026.058.065c.162.175.338.344.513.507a.153.153,0,0,1,.013.214A.122.122,0,0,1,1879.408,521.287Zm16.951-2.7-.026.006a.153.153,0,0,1-.02-.305.017.017,0,0,0,.02-.019l.143-.533a.154.154,0,1,1,.3.078l-.143.533A.335.335,0,0,1,1896.359,518.586Zm-.786.058h-.013l-.766.052a.153.153,0,0,1-.162-.143.149.149,0,0,1,.143-.162l.766-.052a.153.153,0,0,1,.162.143A.155.155,0,0,1,1895.573,518.644Zm-11.229,1.682h-.058a.789.789,0,0,1-.117-.032c-.214-.058-.429-.13-.636-.208a.156.156,0,1,1,.11-.292,4.768,4.768,0,0,0,.61.195c.039.007.071.019.11.026a.153.153,0,0,1,.11.188A.151.151,0,0,1,1884.344,520.326Zm5.137-.968a.154.154,0,0,1-.11-.279,6.82,6.82,0,0,0,.584-.468.147.147,0,0,1,.214.013.155.155,0,0,1-.013.221,6.4,6.4,0,0,1-.617.494A.3.3,0,0,1,1889.481,519.359Zm-12.145,1.721a.153.153,0,0,1-.175-.123.159.159,0,0,1,.123-.182l.753-.149a.154.154,0,0,1,.182.123.16.16,0,0,1-.123.182l-.76.149Zm-.747.058a.161.161,0,0,1-.136-.045.351.351,0,0,1-.045-.058l-.364-.63a.153.153,0,0,1,.266-.149l.364.63a.155.155,0,0,1-.006.221A.217.217,0,0,1,1876.589,521.138Zm6.319-1.357a.171.171,0,0,1-.1-.013,6.442,6.442,0,0,1-.676-.409.154.154,0,0,1,.175-.253,5.841,5.841,0,0,0,.643.39.151.151,0,0,1,.065.208A.13.13,0,0,1,1882.909,519.781Zm7.709-1.455a.163.163,0,0,1-.124-.032.154.154,0,0,1-.019-.214,5.771,5.771,0,0,0,.454-.6.155.155,0,0,1,.26.169,6.444,6.444,0,0,1-.474.63A.33.33,0,0,1,1890.618,518.326Zm6.222-1.143a.244.244,0,0,1-.065-.007.153.153,0,0,1-.11-.188l.2-.747a.154.154,0,0,1,.3.078l-.2.747A.144.144,0,0,1,1896.84,517.183Zm-15.185,1.721a.164.164,0,0,1-.13-.039c-.1-.1-.208-.195-.312-.3a.156.156,0,1,1,.227-.214c.091.1.2.195.292.286a.155.155,0,0,1,.013.221A.239.239,0,0,1,1881.655,518.9Zm-5.839.9a.158.158,0,0,1-.156-.078l-.383-.669a.153.153,0,0,1,.266-.149l.383.669a.146.146,0,0,1-.058.208A.074.074,0,0,1,1875.816,519.807Zm15.652-2.767a.143.143,0,0,1-.091-.013.159.159,0,0,1-.071-.208,6.457,6.457,0,0,0,.292-.688.152.152,0,1,1,.286.1,5.942,5.942,0,0,1-.305.727A.139.139,0,0,1,1891.469,517.04Zm5.6-1.312a.136.136,0,0,1-.111-.026l-.636-.429a.154.154,0,1,1,.175-.253l.636.429a.149.149,0,0,1,.039.214A.151.151,0,0,1,1897.067,515.728Zm-21.634,2.76a.143.143,0,0,1-.123-.039.148.148,0,0,1-.013-.214l.507-.585a.152.152,0,0,1,.227.2l-.507.585A.185.185,0,0,1,1875.433,518.488Zm16.548-2.9h-.058a.15.15,0,0,1-.117-.182,7.332,7.332,0,0,0,.117-.74.153.153,0,1,1,.305.032,6.478,6.478,0,0,1-.123.779A.145.145,0,0,1,1891.982,515.592Zm3.806-.721a.136.136,0,0,1-.11-.026l-.559-.377v-.084a1.737,1.737,0,0,1,.007-.182.153.153,0,1,1,.305.006v.1l.416.279a.149.149,0,0,1,.039.214A.125.125,0,0,1,1895.788,514.871Zm-19.348,2.448a.144.144,0,0,1-.124-.039.148.148,0,0,1-.013-.214l.214-.247-.078-.273a.154.154,0,1,1,.3-.078c.032.117.065.227.1.344l.026.084-.325.377A.22.22,0,0,1,1876.44,517.319Zm18.841-3.728h-.013a.153.153,0,0,1-.162-.143c-.02-.253-.045-.507-.084-.753a.154.154,0,0,1,.13-.175h0a.154.154,0,0,1,.175.13c.039.26.072.52.084.779A.155.155,0,0,1,1895.281,513.591Zm-3.15.474h-.02a.152.152,0,0,1-.156-.149,5.842,5.842,0,0,0-.065-.747.154.154,0,0,1,.13-.175h0a.154.154,0,0,1,.175.13,6.376,6.376,0,0,1,.071.786A.173.173,0,0,1,1892.131,514.065Zm-15.685,1.844a.154.154,0,0,1-.175-.123c-.013-.065-.02-.13-.032-.195-.032-.188-.052-.383-.072-.578a.158.158,0,0,1,.136-.169.154.154,0,0,1,.169.136c.02.188.039.377.072.559.013.065.019.13.032.188a.157.157,0,0,1-.13.182Zm18.6-3.838a.157.157,0,0,1-.176-.117c-.045-.182-.091-.37-.149-.552l-.026-.084.182-.208a.152.152,0,1,1,.227.2l-.072.078c.046.162.091.325.13.487a.157.157,0,0,1-.117.188C1895.06,512.065,1895.054,512.065,1895.047,512.071Zm-3.15.474a.146.146,0,0,1-.169-.11,5.4,5.4,0,0,0-.247-.708.154.154,0,1,1,.286-.117,5.932,5.932,0,0,1,.26.747.149.149,0,0,1-.1.188Zm-12.314,1.4h-.032a.163.163,0,0,1-.15-.162,6.505,6.505,0,0,1,.084-.786.152.152,0,0,1,.3.052,5.865,5.865,0,0,0-.084.747A.137.137,0,0,1,1879.583,513.942Zm-3.286.442h-.02a.153.153,0,0,1-.156-.149v-.325l-.234-.156a.154.154,0,1,1,.175-.253l.377.253v.084c-.007.13-.007.266-.007.4A.159.159,0,0,1,1876.3,514.384Zm19.231-3.6a.144.144,0,0,1-.124-.039.148.148,0,0,1-.013-.214l.507-.585a.152.152,0,1,1,.227.2l-.506.584A.186.186,0,0,1,1895.528,510.785Zm-4.221.344a.158.158,0,0,1-.156-.078,6.5,6.5,0,0,0-.409-.63.153.153,0,0,1,.247-.182,6.431,6.431,0,0,1,.429.662.151.151,0,0,1-.058.208A.087.087,0,0,1,1891.306,511.13Zm-15.945,2.215a.136.136,0,0,1-.11-.026l-.636-.429a.154.154,0,0,1,.175-.253l.636.429a.149.149,0,0,1,.039.214A.178.178,0,0,1,1875.362,513.344Zm4.481-.916a.112.112,0,0,1-.065-.007.154.154,0,0,1-.1-.195,7.212,7.212,0,0,1,.273-.74.153.153,0,1,1,.279.123,6.977,6.977,0,0,0-.26.7A.161.161,0,0,1,1879.843,512.429Zm16.438-2.864a.159.159,0,0,1-.156-.078l-.383-.669a.153.153,0,0,1,.266-.149l.383.669a.146.146,0,0,1-.058.208A.074.074,0,0,1,1896.281,509.565Zm-5.891.331a.161.161,0,0,1-.136-.045,6.916,6.916,0,0,0-.552-.513.152.152,0,1,1,.195-.234,6.435,6.435,0,0,1,.578.539.155.155,0,0,1-.006.221A.167.167,0,0,1,1890.391,509.9Zm-15.88,2.4a.244.244,0,0,1-.065-.006.153.153,0,0,1-.11-.188l.2-.747a.154.154,0,1,1,.3.078l-.2.747A.152.152,0,0,1,1874.511,512.292Zm5.949-1.273a.15.15,0,0,1-.1-.019.157.157,0,0,1-.052-.214,5.745,5.745,0,0,1,.448-.649.153.153,0,1,1,.24.188,5.765,5.765,0,0,0-.422.617A.149.149,0,0,1,1880.46,511.019Zm15.048-2.786a.158.158,0,0,1-.156-.078l-.383-.669a.153.153,0,0,1,.266-.149l.383.669a.145.145,0,0,1-.058.208A.074.074,0,0,1,1895.508,508.233Zm-6.313.689a.151.151,0,0,1-.1-.02,7.146,7.146,0,0,0-.656-.357.155.155,0,0,1,.136-.279,7.166,7.166,0,0,1,.695.377.156.156,0,0,1,.046.214A.179.179,0,0,1,1889.2,508.922Zm-7.787.883a.143.143,0,0,1-.13-.045.161.161,0,0,1,0-.221,4.966,4.966,0,0,1,.591-.52.153.153,0,1,1,.188.24,6.732,6.732,0,0,0-.565.5A.138.138,0,0,1,1881.408,509.8Zm-6.5,1a.247.247,0,0,1-.065-.006.153.153,0,0,1-.11-.188l.2-.747a.327.327,0,0,1,.266-.24h.026l.221-.013a.153.153,0,0,1,.162.143.149.149,0,0,1-.143.162l-.221.013a.021.021,0,0,0-.02.02l-.2.747A.138.138,0,0,1,1874.907,510.8Zm17.73-3.046-.058-.065c-.117-.123-.234-.24-.357-.357a.156.156,0,1,1,.214-.227c.1.1.208.2.305.305l.169-.032a.154.154,0,0,1,.182.123.16.16,0,0,1-.123.182Zm1.091-.214a.153.153,0,0,1-.176-.123.16.16,0,0,1,.124-.182l.753-.149a.155.155,0,1,1,.058.305l-.76.149Zm-5.923.727a.136.136,0,0,1-.072-.006l-.331-.1c-.13-.032-.266-.065-.4-.091a.155.155,0,1,1,.058-.305c.136.026.279.058.416.1.117.032.234.065.344.1a.155.155,0,0,1,.1.195A.131.131,0,0,1,1887.806,508.272Zm-10.788,1.533h-.013l-.766.052a.153.153,0,0,1-.162-.143.149.149,0,0,1,.143-.162l.766-.052a.153.153,0,0,1,.162.143A.155.155,0,0,1,1877.018,509.8Zm5.6-.948a.165.165,0,0,1-.156-.071.158.158,0,0,1,.052-.214,5.989,5.989,0,0,1,.7-.364.153.153,0,0,1,.123.279,7.1,7.1,0,0,0-.662.344A.079.079,0,0,1,1882.616,508.857Zm-5.014.6a.15.15,0,0,1-.1-.019.158.158,0,0,1-.058-.208,7.52,7.52,0,0,1,.422-.656.154.154,0,1,1,.253.175c-.143.208-.279.422-.409.636A.136.136,0,0,1,1877.6,509.461Zm8.7-1.487h-.032a5.809,5.809,0,0,0-.753-.007.153.153,0,1,1-.02-.305,6.355,6.355,0,0,1,.786.007.153.153,0,0,1,.143.162A.137.137,0,0,1,1886.3,507.973Zm-2.28.26a.151.151,0,0,1-.169-.1.154.154,0,0,1,.1-.195,6.254,6.254,0,0,1,.766-.182.152.152,0,1,1,.052.3,6.993,6.993,0,0,0-.727.175A.049.049,0,0,1,1884.019,508.233Zm7.761-1.364a.179.179,0,0,1-.124-.033c-.195-.156-.4-.312-.611-.455a.154.154,0,0,1,.176-.253c.214.149.428.305.63.468a.154.154,0,0,1,.026.214A.144.144,0,0,1,1891.781,506.869Zm-13.295,1.331a.179.179,0,0,1-.124-.032.153.153,0,0,1-.019-.214c.169-.2.344-.4.526-.578a.156.156,0,0,1,.221.221q-.263.273-.506.565A.612.612,0,0,1,1878.486,508.2Zm12.021-2.2a.128.128,0,0,1-.1-.019l-.214-.117-.078-.039-.045-.6a.149.149,0,0,1,.143-.162.153.153,0,0,1,.162.143l.032.435c.052.026.1.052.149.084a.157.157,0,0,1,.059.208A.184.184,0,0,1,1890.507,506.005Zm-11.294.981a.153.153,0,0,1-.175-.123l-.149-.753a.159.159,0,0,1,.123-.182.154.154,0,0,1,.182.123l.149.753a.163.163,0,0,1-.13.182C1879.22,506.98,1879.213,506.98,1879.213,506.986Zm10.982-2.39h-.013a.152.152,0,0,1-.162-.143l-.052-.766a.149.149,0,0,1,.143-.162.153.153,0,0,1,.162.143l.052.766A.155.155,0,0,1,1890.2,504.6Zm-4.182.162h-.026c-.253-.007-.506,0-.76.013a.153.153,0,0,1-.02-.305c.26-.013.526-.019.779-.013a.153.153,0,0,1,.149.156A.142.142,0,0,1,1886.013,504.758Zm-3.02.357a.143.143,0,0,1-.123-.039l-.584-.507a.152.152,0,0,1,.2-.227l.584.507a.148.148,0,0,1,.013.214A.184.184,0,0,1,1882.993,505.116Zm.728-.13a.157.157,0,0,1-.175-.117.15.15,0,0,1,.117-.182c.253-.058.513-.1.766-.143a.154.154,0,0,1,.045.305h0a7.516,7.516,0,0,0-.747.136Zm-4.8.487a.153.153,0,0,1-.175-.123l-.052-.253a.323.323,0,0,1,.162-.351l.253-.143a.153.153,0,1,1,.149.266l-.253.143a.034.034,0,0,0-.013.026l.052.253a.155.155,0,0,1-.123.182Zm7.553-1.292a.136.136,0,0,1-.11-.026.149.149,0,0,1-.039-.214l.428-.636a.154.154,0,0,1,.253.175l-.429.636A.151.151,0,0,1,1886.474,504.18Zm3.1-.734a.244.244,0,0,1-.065-.007l-.747-.2a.154.154,0,0,1,.078-.3l.747.2a.157.157,0,0,1-.013.305Zm-9.7,1.052a.158.158,0,0,1-.156-.078.146.146,0,0,1,.058-.208l.669-.383a.153.153,0,1,1,.149.266l-.669.383A.453.453,0,0,0,1879.876,504.5Zm1.948-.4a.143.143,0,0,1-.123-.039l-.416-.357a.024.024,0,0,0-.019-.006l-.162-.266a.324.324,0,0,1,.383.039l.416.357a.148.148,0,0,1,.013.214A.11.11,0,0,1,1881.824,504.1Zm6.261-1.052a.242.242,0,0,1-.065-.007l-.6-.162a.164.164,0,0,1-.221-.045.154.154,0,0,1,.032-.214.349.349,0,0,1,.266-.045l.6.162a.153.153,0,0,1,.11.188A.144.144,0,0,1,1888.085,503.05Z" transform="translate(-1871.679 -500.007)" fill="#bdd0fb"/><path d="M2015.886,647.36a2.11,2.11,0,0,1-.572.02.153.153,0,0,1,.019-.305,2.041,2.041,0,0,0,.714-.065.154.154,0,1,1,.078.3A1.431,1.431,0,0,1,2015.886,647.36Zm.929-.357a.15.15,0,0,1-.149-.065.156.156,0,0,1,.046-.214,2.184,2.184,0,0,0,.52-.487.153.153,0,1,1,.247.182,2.331,2.331,0,0,1-.6.559A.268.268,0,0,1,2016.815,647Zm-2.208.195a.13.13,0,0,1-.084-.013c-.072-.032-.143-.065-.214-.1a2.458,2.458,0,0,1-.474-.344.156.156,0,0,1,.214-.227,2.113,2.113,0,0,0,.416.3,1.689,1.689,0,0,0,.188.091.152.152,0,0,1,.078.2A.155.155,0,0,1,2014.607,647.2Zm3.124-1.4a.136.136,0,0,1-.072-.006.155.155,0,0,1-.1-.195,2.013,2.013,0,0,0,.1-.708.153.153,0,1,1,.305-.006,2.329,2.329,0,0,1-.123.812A.138.138,0,0,1,2017.731,645.795Zm-4.234.377a.153.153,0,0,1-.162-.078,2.312,2.312,0,0,1-.26-.773.154.154,0,0,1,.13-.175h0a.154.154,0,0,1,.175.13,2.184,2.184,0,0,0,.227.676.151.151,0,0,1-.065.208A.093.093,0,0,1,2013.5,646.172Zm4.2-1.883a.15.15,0,0,1-.169-.1,2.27,2.27,0,0,0-.351-.623.152.152,0,1,1,.234-.195,2.4,2.4,0,0,1,.4.708.155.155,0,0,1-.091.195C2017.724,644.282,2017.711,644.282,2017.7,644.288Zm-4.442.39h-.052a.148.148,0,0,1-.123-.175,2.556,2.556,0,0,1,.273-.773,2.465,2.465,0,0,1,.416-.552.156.156,0,0,1,.221.221,2.181,2.181,0,0,0-.364.481,2.1,2.1,0,0,0-.24.675A.152.152,0,0,1,2013.256,644.678Zm3.488-1.565a.151.151,0,0,1-.1-.019c-.026-.02-.058-.033-.084-.052a2.089,2.089,0,0,0-.578-.221.153.153,0,1,1,.065-.3,2.41,2.41,0,0,1,.662.253l.1.058a.156.156,0,0,1,.052.214A.152.152,0,0,1,2016.744,643.113Zm-2.208-.117a.157.157,0,0,1-.162-.084.154.154,0,0,1,.071-.208,2.6,2.6,0,0,1,.786-.227.149.149,0,0,1,.169.136.153.153,0,0,1-.13.169h-.007a2.1,2.1,0,0,0-.688.2A.092.092,0,0,1,2014.535,643Z" transform="translate(-2001.41 -630.827)" fill="#bdd0fb"/><g transform="translate(3.359 13.526)"><path d="M1885.659,818.221a.138.138,0,0,1-.136-.052c-.084-.1-.175-.195-.26-.292a.152.152,0,1,1,.234-.195c.084.1.169.188.253.286a.147.147,0,0,1-.013.214A.22.22,0,0,1,1885.659,818.221Z" transform="translate(-1885.225 -808.128)" fill="#bdd0fb"/><path d="M1909.636,702.821c-.169.026-.344.052-.513.071a.153.153,0,0,1-.032-.305c.253-.032.513-.065.766-.11a.152.152,0,1,1,.052.3C1909.811,702.795,1909.72,702.808,1909.636,702.821Zm1.026-.195a.157.157,0,0,1-.175-.117.147.147,0,0,1,.117-.182c.247-.058.5-.123.747-.195a.147.147,0,0,1,.188.1.149.149,0,0,1-.1.188c-.253.071-.507.143-.766.2C1910.669,702.619,1910.662,702.619,1910.662,702.626Zm-2.312.338h-.013c-.26.019-.526.026-.786.026a.154.154,0,0,1-.156-.156.158.158,0,0,1,.156-.156c.253,0,.513-.013.773-.026a.153.153,0,0,1,.162.143A.175.175,0,0,1,1908.35,702.964Zm3.806-.779a.155.155,0,0,1-.078-.3c.24-.084.487-.182.721-.279a.154.154,0,1,1,.117.286c-.24.1-.487.195-.734.286C1912.175,702.178,1912.169,702.184,1912.156,702.184Zm-5.371.786h-.033c-.26-.013-.526-.032-.786-.058a.153.153,0,0,1,.033-.305c.253.026.513.045.773.058a.163.163,0,0,1,.149.162A.153.153,0,0,1,1906.785,702.97Zm6.813-1.39a.148.148,0,0,1-.162-.084.154.154,0,0,1,.072-.208c.234-.11.461-.234.682-.357a.153.153,0,0,1,.149.266c-.227.13-.461.247-.7.364A.047.047,0,0,1,1913.6,701.58Zm-8.365,1.228h-.052c-.26-.045-.52-.091-.773-.149a.153.153,0,0,1-.117-.182.15.15,0,0,1,.182-.117c.247.058.507.1.76.149a.154.154,0,0,1,.13.175A.159.159,0,0,1,1905.232,702.808Zm9.729-1.987a.171.171,0,0,1-.156-.071.156.156,0,0,1,.046-.214c.214-.136.435-.286.643-.429a.154.154,0,0,1,.214.032.15.15,0,0,1-.039.214c-.215.149-.435.3-.656.442A.059.059,0,0,1,1914.962,700.82Zm-11.249,1.65a.114.114,0,0,1-.065-.007c-.253-.071-.506-.149-.753-.234a.154.154,0,0,1,.1-.292c.24.084.494.162.734.234a.149.149,0,0,1,.1.188A.155.155,0,0,1,1903.713,702.47Zm12.522-2.559a.153.153,0,0,1-.143-.058.149.149,0,0,1,.026-.214c.2-.162.4-.331.584-.5a.152.152,0,0,1,.2.227c-.195.175-.4.344-.6.513A.091.091,0,0,1,1916.235,699.911Zm-14,2.046a.194.194,0,0,1-.084-.006c-.24-.1-.487-.208-.721-.318a.155.155,0,0,1,.136-.279c.234.11.468.214.708.312a.155.155,0,0,1,.084.2A.16.16,0,0,1,1902.232,701.957Zm15.159-3.085a.143.143,0,0,1-.13-.045.161.161,0,0,1,0-.221q.273-.273.526-.565a.152.152,0,1,1,.227.2c-.175.195-.357.39-.539.578A.119.119,0,0,1,1917.391,698.872Zm-16.568,2.416a.134.134,0,0,1-.1-.02l-.11-.058c-.188-.1-.383-.221-.572-.338a.156.156,0,1,1,.162-.266c.182.11.37.221.559.331l.11.058a.146.146,0,0,1,.059.208A.134.134,0,0,1,1900.823,701.288Zm17.6-3.585a.154.154,0,0,1-.143-.247c.156-.2.312-.409.461-.617a.154.154,0,0,1,.253.175c-.149.214-.312.429-.474.63A.155.155,0,0,1,1918.423,697.7ZM1899.5,700.47a.136.136,0,0,1-.111-.026c-.214-.149-.428-.305-.636-.468a.153.153,0,1,1,.188-.24c.2.156.409.312.624.461a.154.154,0,0,1,.039.214A.207.207,0,0,1,1899.5,700.47Zm19.828-4.046a.151.151,0,0,1-.1-.02.158.158,0,0,1-.052-.214c.124-.195.24-.4.351-.591l.039-.071a.154.154,0,1,1,.273.143l-.039.078c-.11.2-.234.409-.357.6A.193.193,0,0,1,1919.326,696.423ZM1898.27,699.5a.144.144,0,0,1-.124-.039c-.195-.175-.39-.357-.578-.539a.156.156,0,0,1,.221-.221q.273.273.565.526a.148.148,0,0,1,.013.214A.133.133,0,0,1,1898.27,699.5Zm21.8-4.442a.15.15,0,0,1-.091-.013.154.154,0,0,1-.071-.208c.11-.234.214-.468.312-.708a.154.154,0,0,1,.286.117c-.1.24-.208.487-.318.721A.165.165,0,0,1,1920.073,695.06Zm.6-1.448a.128.128,0,0,1-.071-.006.158.158,0,0,1-.1-.195c.084-.24.162-.487.234-.734a.152.152,0,1,1,.292.084c-.071.253-.149.507-.24.753A.14.14,0,0,1,1920.67,693.611Zm.429-1.5h-.058a.153.153,0,0,1-.117-.182c.058-.247.1-.507.149-.76a.152.152,0,1,1,.3.052c-.045.26-.1.52-.149.773A.144.144,0,0,1,1921.1,692.111Zm.26-1.539h-.039a.154.154,0,0,1-.136-.169c.026-.253.052-.513.065-.766a.153.153,0,1,1,.305.019c-.013.26-.032.526-.065.786A.159.159,0,0,1,1921.359,690.572Z" transform="translate(-1896.726 -688.318)" fill="#bdd0fb"/><path d="M2262.989,672.095h-.026a.158.158,0,0,1-.156-.156c0-.13,0-.253-.006-.383a.153.153,0,1,1,.305-.006c.006.13.006.26.006.39A.144.144,0,0,1,2262.989,672.095Z" transform="translate(-2238.278 -671.4)" fill="#bdd0fb"/></g><path d="M2195.189,521.219a.142.142,0,0,1-.13-.046c-.091-.091-.182-.175-.273-.266a.156.156,0,0,1,.214-.227c.1.091.188.175.279.266a.161.161,0,0,1,0,.221A.166.166,0,0,1,2195.189,521.219Z" transform="translate(-2171.276 -516.902)" fill="#bdd0fb"/><path d="M1833.682,477.3h-.026a.158.158,0,0,1-.156-.156c0-.26.013-.52.026-.779a.153.153,0,0,1,.305.019c-.013.253-.026.507-.026.76A.149.149,0,0,1,1833.682,477.3Zm.091-1.533h-.039a.158.158,0,0,1-.136-.169c.032-.253.065-.513.11-.766a.153.153,0,0,1,.175-.123.148.148,0,0,1,.123.175c-.045.247-.078.5-.11.753A.138.138,0,0,1,1833.773,475.764Zm.266-1.513h-.058a.153.153,0,0,1-.117-.182c.058-.253.123-.5.195-.753a.152.152,0,1,1,.292.084c-.071.24-.136.494-.195.734A.145.145,0,0,1,1834.039,474.251Zm.429-1.474a.16.16,0,0,1-.078-.006.149.149,0,0,1-.091-.195c.084-.24.182-.487.279-.727a.154.154,0,0,1,.286.117c-.1.234-.188.474-.273.708A.178.178,0,0,1,1834.468,472.777Zm.584-1.422a.149.149,0,0,1-.091-.013.154.154,0,0,1-.071-.208c.11-.234.234-.461.357-.688a.153.153,0,0,1,.266.149c-.123.221-.24.448-.351.675A.128.128,0,0,1,1835.052,471.354Zm.74-1.344a.151.151,0,0,1-.1-.019.158.158,0,0,1-.052-.214c.136-.221.279-.435.429-.649a.154.154,0,0,1,.253.175c-.143.208-.286.422-.422.636A.136.136,0,0,1,1835.793,470.01Zm20.763-3.332a.178.178,0,0,1-.123-.032c-.195-.162-.4-.318-.6-.468a.153.153,0,0,1,.182-.247c.208.156.409.312.611.481a.153.153,0,0,1,.02.214A.142.142,0,0,1,1856.556,466.678Zm-19.88,2.072a.154.154,0,0,1-.143-.247c.156-.2.325-.4.5-.6a.152.152,0,1,1,.227.2q-.253.283-.487.585A.155.155,0,0,1,1836.676,468.75Zm18.646-2.988a.136.136,0,0,1-.11-.026c-.208-.136-.429-.273-.643-.4a.153.153,0,1,1,.149-.266q.331.195.662.409a.156.156,0,0,1,.046.214A.135.135,0,0,1,1855.322,465.762Zm-17.633,1.838a.142.142,0,0,1-.13-.045.161.161,0,0,1,0-.221c.182-.182.37-.364.559-.539a.147.147,0,0,1,.214.013.155.155,0,0,1-.013.221q-.282.253-.546.526A.136.136,0,0,1,1837.689,467.6ZM1854,464.983a.143.143,0,0,1-.091-.013c-.227-.117-.455-.227-.688-.331a.153.153,0,1,1,.123-.279c.234.1.468.221.7.338a.151.151,0,0,1,.065.208A.139.139,0,0,1,1854,464.983Zm-15.172,1.585a.165.165,0,0,1-.143-.052.153.153,0,0,1,.019-.214c.2-.162.409-.325.617-.474a.153.153,0,1,1,.182.247c-.2.149-.409.305-.6.461A.241.241,0,0,1,1838.826,466.568Zm13.769-2.208a.159.159,0,0,1-.078-.006c-.234-.091-.481-.175-.714-.253a.154.154,0,0,1,.1-.292c.247.078.494.162.734.26a.162.162,0,0,1,.091.2A.229.229,0,0,1,1852.594,464.36Zm-12.522,1.305a.158.158,0,0,1-.156-.071.156.156,0,0,1,.045-.214c.214-.136.442-.273.663-.4a.153.153,0,0,1,.149.266c-.221.123-.442.26-.649.4A.132.132,0,0,1,1840.073,465.665Zm11.06-1.78h-.065c-.247-.065-.494-.123-.74-.169a.155.155,0,1,1,.058-.305q.38.078.76.175a.153.153,0,0,1,.11.188A.145.145,0,0,1,1851.133,463.885Zm-9.729,1.02a.148.148,0,0,1-.162-.084.154.154,0,0,1,.071-.208c.234-.117.468-.227.7-.325a.153.153,0,1,1,.123.279c-.234.1-.461.208-.688.318A.059.059,0,0,1,1841.4,464.905Zm8.222-1.318h-.046c-.247-.039-.5-.065-.753-.091a.156.156,0,1,1,.026-.312c.26.026.52.052.773.091a.154.154,0,0,1,.13.175A.166.166,0,0,1,1849.626,463.587Zm-6.807.714a.152.152,0,0,1-.078-.292c.24-.091.487-.169.734-.247a.156.156,0,0,1,.195.1.154.154,0,0,1-.1.195c-.24.071-.481.156-.721.24C1842.839,464.295,1842.826,464.3,1842.82,464.3Zm5.274-.851h-.026c-.253-.007-.507-.007-.76-.007a.153.153,0,1,1-.007-.305c.26-.007.52-.007.779.006a.153.153,0,0,1,.149.156A.166.166,0,0,1,1848.094,463.45Zm-3.806.4a.156.156,0,0,1-.065-.305c.253-.065.507-.117.76-.162a.154.154,0,0,1,.182.123.16.16,0,0,1-.123.182c-.247.045-.5.1-.74.162C1844.294,463.846,1844.294,463.846,1844.288,463.853Zm2.273-.37h-.013c-.253.02-.507.045-.753.078a.154.154,0,0,1-.175-.13.158.158,0,0,1,.13-.175c.253-.032.513-.058.773-.084a.153.153,0,0,1,.162.143A.148.148,0,0,1,1846.561,463.483Z" transform="translate(-1833.5 -463.134)" fill="#bdd0fb"/><path d="M1834,688.889h-.013a.153.153,0,0,1-.162-.143c-.013-.13-.019-.26-.026-.39a.158.158,0,0,1,.149-.162.154.154,0,0,1,.162.149c.006.13.013.253.026.377A.159.159,0,0,1,1834,688.889Z" transform="translate(-1833.775 -673.576)" fill="#bdd0fb"/></g></g></g></g></svg>