<svg xmlns="http://www.w3.org/2000/svg" xmlns:xlink="http://www.w3.org/1999/xlink" width="146.831" height="92.216" viewBox="0 0 146.831 92.216">
  <defs>
    <linearGradient id="linear-gradient" y1="0.5" x2="1" y2="0.5" gradientUnits="objectBoundingBox">
      <stop offset="0" stop-color="#dae3fe"/>
      <stop offset="1" stop-color="#e9effd"/>
    </linearGradient>
    <linearGradient id="linear-gradient-2" x1="-1.682" y1="0.004" x2="-2.906" y2="0.994" gradientUnits="objectBoundingBox">
      <stop offset="0" stop-color="#2b3582"/>
      <stop offset="1" stop-color="#150e42"/>
    </linearGradient>
    <linearGradient id="linear-gradient-3" x1="0.085" y1="-0.198" x2="1.211" y2="1.7" gradientUnits="objectBoundingBox">
      <stop offset="0" stop-color="#4042e2"/>
      <stop offset="1" stop-color="#4f52ff"/>
    </linearGradient>
    <linearGradient id="linear-gradient-4" x1="0" y1="0.5" x2="1" y2="0.5" xlink:href="#linear-gradient"/>
    <linearGradient id="linear-gradient-5" x1="-0.307" y1="1.188" x2="1.296" y2="-0.062" gradientUnits="objectBoundingBox">
      <stop offset="0" stop-color="#ff928e"/>
      <stop offset="1" stop-color="#feb3b1"/>
    </linearGradient>
    <linearGradient id="linear-gradient-6" x1="0.534" y1="-0.094" x2="-0.013" y2="6.121" xlink:href="#linear-gradient-5"/>
    <linearGradient id="linear-gradient-7" x1="-2.036" y1="4.171" x2="0.656" y2="0.084" xlink:href="#linear-gradient-5"/>
    <linearGradient id="linear-gradient-8" x1="0.929" y1="0.012" x2="-0.148" y2="1.429" xlink:href="#linear-gradient-5"/>
    <linearGradient id="linear-gradient-9" x1="1.19" y1="0.36" x2="-0.04" y2="0.628" xlink:href="#linear-gradient-5"/>
    <linearGradient id="linear-gradient-10" x1="0.154" y1="-0.294" x2="0.77" y2="0.989" xlink:href="#linear-gradient-5"/>
    <linearGradient id="linear-gradient-11" x1="0.281" y1="0.154" x2="1.03" y2="1.13" gradientUnits="objectBoundingBox">
      <stop offset="0" stop-color="#09005d"/>
      <stop offset="1" stop-color="#1a0f91"/>
    </linearGradient>
    <linearGradient id="linear-gradient-12" x1="-0.882" y1="-1.822" x2="1.638" y2="2.368" xlink:href="#linear-gradient-5"/>
  </defs>
  <g id="Illustration" transform="translate(0 0)">
    <path id="Path_11761" data-name="Path 11761" d="M287.495,157.8c-2.343-2.576-5.106-5.087-5.831-8.588-1.249-6.051,4.09-11.215,5.837-17.124a15.418,15.418,0,0,0-1.65-12.309,13.675,13.675,0,0,0-10.051-6.368c-6.912-.673-13.668,4.271-20.476,2.841-5.449-1.145-9.759-6.206-15.286-6.75-6.511-.641-11.914,5.074-18.127,7.222-7.436,2.569-15.5-.117-22.806-3.068s-15-6.239-22.709-4.828c-8.581,1.573-15.772,9.52-16.917,18.684-1.139,9.086,8.4,16.38.285,27.291-2.537,3.411-4.226,8.154-3.1,12.335,1.087,4.064,5.727,6.627,5.76,10.853.026,3.333-2.932,5.986-3.171,9.313-.207,2.854,1.728,5.488,4.1,6.841s5.126,1.683,7.8,1.987c0,0,82.5.705,103.845.252a17.709,17.709,0,0,0,6.485-.951,6.631,6.631,0,0,0,4.187-4.97c.531-3.928-3.333-7.339-2.977-11.287.453-5.041,7.138-6.989,8.413-11.876C292.005,163.855,289.837,160.38,287.495,157.8Z" transform="translate(-152.869 -108.489)" fill="url(#linear-gradient)"/>
    <g id="Group_2017" data-name="Group 2017" transform="translate(0 26.913)">
      <g id="Group_2015" data-name="Group 2015" transform="translate(6.9)">
        <path id="Path_11762" data-name="Path 11762" d="M228.365,586.726c-4.135.828-9.41-3.682-11.112-8.6-1.747-5.067,1.456-7.19,1.437-14.218-.026-7.986-4.181-9.19-6.931-19.952-.621-2.427-4.207-16.483.239-19.117,4.11-2.433,15.662,4.556,17.687,13.5,1.443,6.381-3.016,9.06-1.314,16.49,1.495,6.517,5.423,6.614,6.931,12.9C237.128,575.381,233.789,585.638,228.365,586.726Z" transform="translate(-209.805 -524.348)" fill="#91b3fa"/>
        <path id="Path_11763" data-name="Path 11763" d="M374.616,788.392c1.113-8.607-1.061-21.881-3.081-31.5-2.187-10.413-4.666-18.91-4.692-18.994l-.343.1c.026.084,2.5,8.568,4.686,18.975,2.013,9.591,4.181,22.826,3.074,31.375Z" transform="translate(-356.359 -724.08)" fill="url(#linear-gradient-2)"/>
      </g>
      <g id="Group_2016" data-name="Group 2016" transform="translate(0 28.341)">
        <path id="Path_11764" data-name="Path 11764" d="M121.721,996.486c4.291-2.239,5.76-9.915,3.32-12.413-1.65-1.689-4.012.091-6.3-1.663-2.912-2.233-.77-6.439-3.061-11.889-1.948-4.64-6.621-9.028-9.352-8.128-2.86.945-4.362,7.941-1.922,12.154,1.586,2.738,4.019,2.873,4.543,5.423.615,2.958-2.343,4.3-2.362,7.171C106.571,992.28,116.045,999.444,121.721,996.486Z" transform="translate(-103.185 -962.275)" fill="#bdd0fb"/>
        <path id="Path_11765" data-name="Path 11765" d="M244.459,1147.368a.172.172,0,0,0,.078-.019.183.183,0,0,0,.084-.233c-5.689-11.727-7.358-25.33-7.378-25.466a.176.176,0,0,0-.349.039c.019.136,1.689,13.8,7.41,25.576A.168.168,0,0,0,244.459,1147.368Z" transform="translate(-228.24 -1111.189)" fill="#91b3fa"/>
        <path id="Path_11766" data-name="Path 11766" d="M125.674,997.072a.059.059,0,0,1-.052-.026,16.013,16.013,0,0,1-2.906-5.391,8.27,8.27,0,0,1-.194-3.909,6.194,6.194,0,0,1,1.689-3.184.069.069,0,0,1,.091.1,6.028,6.028,0,0,0-1.65,3.119c-.395,1.883-.181,5,3.074,9.183a.066.066,0,0,1-.013.1C125.707,997.065,125.687,997.072,125.674,997.072Z" transform="translate(-121.13 -983.104)" fill="#dce5fe"/>
        <path id="Path_11767" data-name="Path 11767" d="M394.557,1308.68a.09.09,0,0,1-.039-.013.071.071,0,0,1-.019-.1,18.773,18.773,0,0,0,2.867-5.74,5.286,5.286,0,0,0-.084-3.365,3.905,3.905,0,0,0-2.738-2.142.069.069,0,1,1,.019-.136,4.039,4.039,0,0,1,2.841,2.22c.9,2.1-.039,5.216-2.8,9.235A.047.047,0,0,1,394.557,1308.68Z" transform="translate(-375.633 -1275.511)" fill="#dce5fe"/>
      </g>
    </g>
    <g id="Group_2018" data-name="Group 2018" transform="translate(85.992 60.599)">
      <path id="Path_11768" data-name="Path 11768" d="M1453.8,1076.067s3.961-4.977,3.314-9.675-3.857-4.142-5.287-1.359-2.712,2.4-1.864-.214,1.916-4.317.156-6.918-1.942-3.708-.951-6.032,2.233-5.611-1.7-6.789-7.857,2.433-6.938,7.151,1.469,5.236.207,6.983-.738,2.466-.557,3.6-1.754,1.4-1.708-.2,2.5-5.385.822-7.151-4.964-1.786-5.805,2.3,1.857,5.915,1.721,7.391-1.579-.764-2.841.744.434,2.686,1.689,3.5,3.132,2.278,1.34,3.339-3.488.045-2.395,3.32h20.8Z" transform="translate(-1431.923 -1044.858)" fill="#91b3fa"/>
      <path id="Path_11769" data-name="Path 11769" d="M1605.486,1100.9a2.7,2.7,0,0,0-.356.246,2.265,2.265,0,0,0-.3.3,3.687,3.687,0,0,0-.485.719,4.579,4.579,0,0,0-.453,1.676c-.007.071-.013.142-.013.22s-.006.142-.006.22v.22l.013.22.007.11.013.11.019.214c.02.142.039.285.065.427s.052.285.084.421l.045.214.052.2.2.815c.265,1.081.524,2.168.731,3.255a16.042,16.042,0,0,1,.3,3.275c-.007.272-.026.544-.058.809a5.457,5.457,0,0,1-.149.79,4.288,4.288,0,0,1-.259.751,5.569,5.569,0,0,0-.278.841,13.854,13.854,0,0,0-.278,1.689c-.058.563-.1,1.12-.142,1.683-.078,1.12-.142,2.233-.3,3.333-.019.136-.039.272-.065.408l-.078.408c-.026.136-.065.272-.1.4-.02.065-.039.136-.058.2s-.039.136-.058.2l-.065.194c-.019.065-.052.129-.078.194a3.846,3.846,0,0,1-.168.375,3.28,3.28,0,0,1-.466.686l.045.045a3.527,3.527,0,0,0,.531-.667,5.549,5.549,0,0,0,.375-.764,9.737,9.737,0,0,0,.466-1.631c.226-1.107.336-2.233.459-3.339.065-.557.116-1.113.194-1.663a12.875,12.875,0,0,1,.311-1.611,5.706,5.706,0,0,1,.265-.751,5.787,5.787,0,0,0,.3-.828,6.542,6.542,0,0,0,.175-.861,7.737,7.737,0,0,0,.078-.867,16.571,16.571,0,0,0-.285-3.4c-.194-1.113-.466-2.213-.764-3.294-.078-.272-.149-.543-.226-.809l-.058-.2-.052-.194c-.039-.129-.065-.265-.1-.395s-.052-.265-.084-.4l-.032-.2c-.013-.065-.02-.136-.026-.2a6.73,6.73,0,0,1-.052-.809,4.727,4.727,0,0,1,.065-.8,4.044,4.044,0,0,1,.207-.777,3.78,3.78,0,0,1,.168-.369,2.349,2.349,0,0,1,.207-.349,2.562,2.562,0,0,1,.543-.608Z" transform="translate(-1591.741 -1097.273)" fill="#dce5fe"/>
      <path id="Path_11770" data-name="Path 11770" d="M1718.009,1361.3a25.472,25.472,0,0,1-.492,2.615c-.1.433-.214.861-.343,1.281-.032.1-.065.214-.1.317s-.065.207-.1.317c-.065.214-.142.421-.214.628s-.155.414-.24.615-.175.408-.259.608c-.188.4-.382.79-.6,1.171s-.459.751-.712,1.107a11.477,11.477,0,0,1-.848,1.022l.045.045a7.326,7.326,0,0,0,.964-.938,10.928,10.928,0,0,0,.8-1.087,13.043,13.043,0,0,0,.647-1.184c.091-.207.188-.408.272-.615s.162-.421.239-.628.149-.427.214-.641c.032-.1.065-.214.1-.324s.065-.214.091-.324c.116-.434.22-.867.3-1.307a16.017,16.017,0,0,0,.3-2.667Z" transform="translate(-1695.838 -1340.821)" fill="#dce5fe"/>
    </g>
    <g id="Group_2027" data-name="Group 2027" transform="translate(105.192 3.489)">
      <g id="Group_2021" data-name="Group 2021" transform="translate(20.749)">
        <g id="Group_2020" data-name="Group 2020">
          <g id="Group_2019" data-name="Group 2019">
            <path id="Path_11771" data-name="Path 11771" d="M2049.252,170.334a.1.1,0,0,0,.078.1l1.249.382a5.742,5.742,0,0,0,.764,1.683l-.531,1.2a.111.111,0,0,0,.026.123l1.146,1.074a.108.108,0,0,0,.123.019l1.158-.615a5.734,5.734,0,0,0,1.728.647l.466,1.223a.111.111,0,0,0,.1.071l1.573-.052a.1.1,0,0,0,.1-.078l.382-1.249a5.747,5.747,0,0,0,1.683-.764l1.2.531a.111.111,0,0,0,.123-.026l1.074-1.145a.109.109,0,0,0,.019-.123l-.615-1.158a5.736,5.736,0,0,0,.647-1.728l1.223-.466a.111.111,0,0,0,.071-.1l-.052-1.573a.1.1,0,0,0-.078-.1l-1.249-.382a5.748,5.748,0,0,0-.764-1.683l.531-1.2a.111.111,0,0,0-.026-.123l-1.146-1.074a.109.109,0,0,0-.123-.019l-1.158.615a5.732,5.732,0,0,0-1.728-.647l-.466-1.223a.111.111,0,0,0-.1-.071l-1.573.052a.1.1,0,0,0-.1.078l-.382,1.249a5.748,5.748,0,0,0-1.683.764l-1.2-.531a.111.111,0,0,0-.123.026l-1.074,1.145a.109.109,0,0,0-.02.123l.615,1.158a5.736,5.736,0,0,0-.647,1.728l-1.223.466a.111.111,0,0,0-.071.1Zm5.508-1.314a1.394,1.394,0,1,1,1.068,1.657A1.4,1.4,0,0,1,2054.759,169.021Z" transform="translate(-2049.2 -162.4)" fill="#91b3fa"/>
          </g>
        </g>
      </g>
      <g id="Group_2026" data-name="Group 2026" transform="translate(0 12.697)">
        <g id="Group_2022" data-name="Group 2022">
          <path id="Path_11772" data-name="Path 11772" d="M1728.751,382.488a.327.327,0,0,0,.226.3l3.766,1.158a17.112,17.112,0,0,0,2.3,5.061l-1.6,3.6a.32.32,0,0,0,.078.369l3.456,3.223a.325.325,0,0,0,.375.052l3.482-1.844a17.108,17.108,0,0,0,5.2,1.954l1.411,3.676a.321.321,0,0,0,.311.207l4.724-.162a.327.327,0,0,0,.3-.227l1.158-3.767a17.11,17.11,0,0,0,5.061-2.3l3.6,1.6a.32.32,0,0,0,.369-.078l3.223-3.456a.324.324,0,0,0,.052-.375L1764.4,388a17.107,17.107,0,0,0,1.954-5.2l3.676-1.411a.321.321,0,0,0,.207-.311l-.162-4.724a.327.327,0,0,0-.227-.3l-3.76-1.158a17.116,17.116,0,0,0-2.3-5.061l1.6-3.6a.32.32,0,0,0-.078-.369l-3.456-3.223a.324.324,0,0,0-.375-.052L1758,364.432a17.107,17.107,0,0,0-5.2-1.954l-1.411-3.676a.321.321,0,0,0-.311-.207l-4.724.162a.327.327,0,0,0-.3.227l-1.158,3.76a17.111,17.111,0,0,0-5.061,2.3l-3.6-1.605a.32.32,0,0,0-.369.078l-3.223,3.456a.324.324,0,0,0-.052.375l1.844,3.482a17.108,17.108,0,0,0-1.955,5.2l-3.676,1.411a.321.321,0,0,0-.207.311Zm16.555-3.961a4.2,4.2,0,1,1,3.216,4.99A4.2,4.2,0,0,1,1745.305,378.528Z" transform="translate(-1728.595 -358.595)" fill="#91b3fa"/>
        </g>
        <g id="Group_2025" data-name="Group 2025" transform="translate(6.789 6.766)">
          <path id="Path_11773" data-name="Path 11773" d="M1890.282,524.735a.326.326,0,0,1-.265-.078l-.246-.214a.151.151,0,1,1,.2-.227l.246.214a.024.024,0,0,0,.02.007l.2-.11a.152.152,0,0,1,.149.265l-.188.11A.775.775,0,0,1,1890.282,524.735Zm-6.129.815a.324.324,0,0,1-.136-.006l-.388-.1a.154.154,0,1,1,.078-.3l.388.1c.013,0,.019,0,.026-.006l.084-.123a.154.154,0,1,1,.252.175l-.084.123A.318.318,0,0,1,1884.153,525.551Zm7.041-1.327a.158.158,0,0,1-.155-.078.145.145,0,0,1,.058-.207l.667-.382a.152.152,0,0,1,.149.265l-.667.382A.46.46,0,0,1,1891.194,524.224Zm-8.238,1.023a.243.243,0,0,1-.065-.006l-.744-.2a.154.154,0,0,1,.078-.3l.744.2a.152.152,0,0,1,.11.188A.144.144,0,0,1,1882.956,525.247Zm1.832-.531a.135.135,0,0,1-.11-.026.148.148,0,0,1-.039-.214l.427-.634a.154.154,0,0,1,.252.175l-.427.634A.152.152,0,0,1,1884.787,524.716Zm4.524-.738a.143.143,0,0,1-.123-.039l-.582-.5a.151.151,0,1,1,.2-.226l.583.5a.154.154,0,0,1-.078.265Zm3.216-.524a.157.157,0,0,1-.155-.078.145.145,0,0,1,.058-.207l.058-.032a.033.033,0,0,0,.013-.026l-.091-.472a.155.155,0,0,1,.3-.058l.091.466a.326.326,0,0,1-.162.349l-.058.032C1892.56,523.441,1892.541,523.447,1892.528,523.454Zm-11.047,1.366a.143.143,0,0,1-.136-.052.305.305,0,0,1-.071-.162v-.026l-.045-.654a.148.148,0,0,1,.142-.162.152.152,0,0,1,.162.142l.045.654a.161.161,0,0,1-.019.22A.178.178,0,0,1,1881.48,524.819Zm5.818-1.255a.154.154,0,0,1-.045-.3,7.488,7.488,0,0,0,.738-.155.154.154,0,0,1,.078.3c-.252.065-.511.117-.77.162Zm-.757.091h-.013c-.259.019-.524.032-.776.032a.155.155,0,1,1,0-.311c.246,0,.5-.013.757-.032a.158.158,0,0,1,.168.142A.168.168,0,0,1,1886.541,523.655Zm5.889-1.644a.152.152,0,0,1-.175-.123l-.149-.751a.159.159,0,0,1,.123-.181.154.154,0,0,1,.181.123l.149.751a.162.162,0,0,1-.129.181Zm-11.086,1.288h-.013a.152.152,0,0,1-.162-.142l-.045-.66a.152.152,0,0,1,.194-.227l.1.052.013.091.052.731A.16.16,0,0,1,1881.344,523.3Zm11.352-2.628a.163.163,0,0,1-.13-.039.154.154,0,0,1-.006-.22c.168-.181.336-.375.492-.57a.152.152,0,1,1,.24.188c-.162.2-.33.4-.511.589A.118.118,0,0,1,1892.7,520.671Zm-12.089,1.489a.141.141,0,0,1-.11-.026,7.484,7.484,0,0,1-.634-.453.152.152,0,0,1,.188-.24c.2.155.408.3.615.434a.156.156,0,0,1,.045.214A.14.14,0,0,1,1880.607,522.16Zm13.041-2.692a.136.136,0,0,1-.11-.026.155.155,0,0,1-.045-.214c.136-.207.272-.427.395-.647a.152.152,0,0,1,.265.149,7.117,7.117,0,0,1-.408.667A.121.121,0,0,1,1893.647,519.467Zm-6.873.906c-.058.006-.123.019-.181.026a.158.158,0,0,1-.175-.136.149.149,0,0,1,.136-.175,5.916,5.916,0,0,0,.738-.142.148.148,0,0,1,.188.11.152.152,0,0,1-.11.188A4.087,4.087,0,0,1,1886.774,520.373Zm-.945.078h-.026a6.343,6.343,0,0,1-.783-.045.153.153,0,1,1,.032-.3,5.746,5.746,0,0,0,.744.045.157.157,0,0,1,.155.155A.141.141,0,0,1,1885.829,520.451Zm2.252-.427a.15.15,0,0,1-.168-.1.155.155,0,0,1,.084-.2,6.42,6.42,0,0,0,.68-.311.153.153,0,0,1,.142.272,7.84,7.84,0,0,1-.712.33C1888.1,520.017,1888.088,520.024,1888.082,520.024Zm-8.691,1.2a.164.164,0,0,1-.13-.039c-.162-.149-.323-.3-.479-.466a.151.151,0,0,1-.129-.123.154.154,0,0,1,.123-.181l.123-.026.058.065c.162.175.337.343.511.5a.153.153,0,0,1,.013.214A.121.121,0,0,1,1879.39,521.221Zm16.891-2.692-.026.006a.152.152,0,0,1-.02-.3.017.017,0,0,0,.02-.019l.142-.531a.154.154,0,1,1,.3.078l-.142.531A.334.334,0,0,1,1896.281,518.529Zm-.783.058h-.013l-.764.052a.152.152,0,0,1-.162-.142.148.148,0,0,1,.142-.162l.764-.052a.152.152,0,0,1,.162.142A.154.154,0,0,1,1895.5,518.587Zm-11.189,1.676h-.058a.782.782,0,0,1-.116-.032c-.214-.058-.427-.129-.634-.207a.156.156,0,0,1,.11-.291,4.764,4.764,0,0,0,.608.194c.039.006.071.019.11.026a.152.152,0,0,1,.11.188A.15.15,0,0,1,1884.309,520.263Zm5.119-.964a.154.154,0,0,1-.11-.278,6.835,6.835,0,0,0,.583-.466.146.146,0,0,1,.213.013.154.154,0,0,1-.013.22,6.366,6.366,0,0,1-.615.492A.294.294,0,0,1,1889.428,519.3Zm-12.1,1.715a.152.152,0,0,1-.175-.123.159.159,0,0,1,.123-.181l.751-.149a.154.154,0,0,1,.181.123.159.159,0,0,1-.123.181l-.757.149Zm-.744.058a.16.16,0,0,1-.136-.045.35.35,0,0,1-.045-.058l-.362-.628a.152.152,0,1,1,.265-.149l.363.628a.154.154,0,0,1-.006.22A.216.216,0,0,1,1876.581,521.072Zm6.3-1.353a.17.17,0,0,1-.1-.013,6.429,6.429,0,0,1-.673-.408.154.154,0,1,1,.175-.252,5.819,5.819,0,0,0,.641.388.151.151,0,0,1,.065.207A.13.13,0,0,1,1882.878,519.72Zm7.682-1.45a.162.162,0,0,1-.123-.032.153.153,0,0,1-.019-.214,5.807,5.807,0,0,0,.453-.6.154.154,0,1,1,.259.168,6.335,6.335,0,0,1-.472.628A.329.329,0,0,1,1890.56,518.27Zm6.2-1.139a.244.244,0,0,1-.065-.006.152.152,0,0,1-.11-.188l.2-.744a.154.154,0,0,1,.3.078l-.2.744A.144.144,0,0,1,1896.76,517.131Zm-15.131,1.715a.163.163,0,0,1-.129-.039c-.1-.1-.207-.194-.311-.3a.156.156,0,1,1,.226-.214c.091.1.194.194.291.285a.155.155,0,0,1,.013.22A.236.236,0,0,1,1881.629,518.846Zm-5.818.9a.157.157,0,0,1-.155-.078l-.382-.667a.152.152,0,0,1,.265-.149l.382.667a.145.145,0,0,1-.058.207A.073.073,0,0,1,1875.811,519.746Zm15.6-2.757a.142.142,0,0,1-.091-.013.159.159,0,0,1-.071-.207,6.466,6.466,0,0,0,.291-.686.151.151,0,1,1,.285.1,5.939,5.939,0,0,1-.3.725A.138.138,0,0,1,1891.408,516.989Zm5.579-1.307a.135.135,0,0,1-.11-.026l-.634-.427a.153.153,0,0,1,.175-.252l.634.427a.149.149,0,0,1,.039.214A.151.151,0,0,1,1896.987,515.681Zm-21.557,2.75a.143.143,0,0,1-.123-.039.147.147,0,0,1-.013-.214l.5-.582a.151.151,0,0,1,.227.2l-.5.582A.185.185,0,0,1,1875.429,518.432Zm16.49-2.886h-.058a.149.149,0,0,1-.116-.181,7.28,7.28,0,0,0,.116-.738.153.153,0,0,1,.3.032,6.43,6.43,0,0,1-.123.777A.145.145,0,0,1,1891.919,515.545Zm3.792-.718a.135.135,0,0,1-.11-.026l-.557-.375v-.084a1.79,1.79,0,0,1,.006-.181.152.152,0,0,1,.3.006v.1l.414.278a.149.149,0,0,1,.039.214A.125.125,0,0,1,1895.712,514.827Zm-19.279,2.44a.143.143,0,0,1-.123-.039.147.147,0,0,1-.013-.214l.214-.246-.078-.272a.154.154,0,0,1,.3-.078c.032.117.065.227.1.343l.026.084-.323.375A.221.221,0,0,1,1876.432,517.267Zm18.774-3.715h-.013a.152.152,0,0,1-.162-.142c-.02-.252-.045-.5-.084-.751a.154.154,0,0,1,.129-.175h0a.153.153,0,0,1,.175.129c.039.259.071.518.084.777A.154.154,0,0,1,1895.207,513.552Zm-3.139.472h-.02a.152.152,0,0,1-.155-.149,5.758,5.758,0,0,0-.065-.744.154.154,0,0,1,.129-.175h0a.154.154,0,0,1,.175.129,6.43,6.43,0,0,1,.071.783A.173.173,0,0,1,1892.068,514.025Zm-15.629,1.838a.154.154,0,0,1-.175-.123c-.013-.065-.019-.129-.032-.194-.032-.188-.052-.382-.071-.576a.158.158,0,0,1,.136-.168.153.153,0,0,1,.168.136c.019.188.039.375.071.557.013.065.019.129.032.188a.156.156,0,0,1-.129.181Zm18.535-3.825a.156.156,0,0,1-.175-.117c-.045-.181-.091-.369-.149-.55l-.026-.084.181-.207a.151.151,0,0,1,.227.2l-.071.078c.045.162.091.324.13.485a.156.156,0,0,1-.117.188C1894.987,512.031,1894.98,512.031,1894.974,512.038Zm-3.139.472a.145.145,0,0,1-.168-.11,5.37,5.37,0,0,0-.246-.705.154.154,0,0,1,.285-.116,5.972,5.972,0,0,1,.259.744.148.148,0,0,1-.1.188Zm-12.271,1.391h-.032a.162.162,0,0,1-.149-.162,6.434,6.434,0,0,1,.084-.783.151.151,0,1,1,.3.052,5.89,5.89,0,0,0-.084.744A.137.137,0,0,1,1879.565,513.9Zm-3.275.44h-.019a.152.152,0,0,1-.155-.149v-.324l-.233-.155a.154.154,0,1,1,.175-.252l.375.252v.084c-.006.129-.006.265-.006.395A.158.158,0,0,1,1876.29,514.342Zm19.163-3.585a.143.143,0,0,1-.123-.039.147.147,0,0,1-.013-.214l.5-.582a.151.151,0,1,1,.226.2l-.5.582A.185.185,0,0,1,1895.453,510.756Zm-4.207.343a.157.157,0,0,1-.155-.078,6.5,6.5,0,0,0-.408-.628.153.153,0,0,1,.246-.181,6.351,6.351,0,0,1,.427.66.15.15,0,0,1-.058.207A.087.087,0,0,1,1891.246,511.1Zm-15.888,2.207a.135.135,0,0,1-.11-.026l-.634-.427a.154.154,0,0,1,.175-.252l.634.427a.148.148,0,0,1,.039.214A.178.178,0,0,1,1875.358,513.306Zm4.466-.913a.112.112,0,0,1-.065-.006.153.153,0,0,1-.1-.194,7.229,7.229,0,0,1,.272-.738.152.152,0,0,1,.278.123,6.99,6.99,0,0,0-.259.7A.161.161,0,0,1,1879.824,512.394Zm16.38-2.854a.158.158,0,0,1-.156-.078l-.382-.667a.152.152,0,1,1,.265-.149l.382.667a.145.145,0,0,1-.058.207A.074.074,0,0,1,1896.2,509.54Zm-5.87.33a.16.16,0,0,1-.136-.045,6.879,6.879,0,0,0-.55-.511.152.152,0,1,1,.194-.233,6.38,6.38,0,0,1,.576.537.154.154,0,0,1-.006.22A.166.166,0,0,1,1890.334,509.87Zm-15.823,2.388a.241.241,0,0,1-.065-.006.152.152,0,0,1-.11-.188l.2-.744a.154.154,0,1,1,.3.078l-.2.744A.151.151,0,0,1,1874.51,512.258Zm5.928-1.268a.15.15,0,0,1-.1-.019.156.156,0,0,1-.052-.214,5.731,5.731,0,0,1,.447-.647.152.152,0,1,1,.24.188,5.716,5.716,0,0,0-.421.615A.149.149,0,0,1,1880.438,510.989Zm14.995-2.776a.158.158,0,0,1-.155-.078l-.382-.667a.152.152,0,0,1,.265-.149l.382.667a.145.145,0,0,1-.058.207A.073.073,0,0,1,1895.433,508.213Zm-6.291.686a.15.15,0,0,1-.1-.019,7.114,7.114,0,0,0-.654-.356.155.155,0,1,1,.136-.278,7.142,7.142,0,0,1,.692.375.155.155,0,0,1,.045.214A.177.177,0,0,1,1889.143,508.9Zm-7.759.88a.142.142,0,0,1-.13-.045.16.16,0,0,1,0-.22,4.952,4.952,0,0,1,.589-.518.152.152,0,0,1,.188.239,6.745,6.745,0,0,0-.563.5A.137.137,0,0,1,1881.383,509.779Zm-6.478,1a.246.246,0,0,1-.065-.006.152.152,0,0,1-.11-.188l.2-.744a.326.326,0,0,1,.265-.239h.026l.22-.013a.152.152,0,0,1,.162.142.148.148,0,0,1-.142.162l-.22.013a.021.021,0,0,0-.02.019l-.2.744A.137.137,0,0,1,1874.905,510.776Zm17.667-3.035-.058-.065c-.116-.123-.233-.239-.356-.356a.156.156,0,1,1,.214-.227c.1.1.207.2.3.3l.168-.032a.154.154,0,0,1,.181.123.159.159,0,0,1-.123.181Zm1.087-.214a.152.152,0,0,1-.175-.123.159.159,0,0,1,.123-.181l.751-.149a.155.155,0,1,1,.058.3l-.757.149Zm-5.9.725a.135.135,0,0,1-.071-.006l-.33-.1c-.129-.032-.265-.065-.395-.091a.155.155,0,1,1,.058-.3c.136.026.278.058.414.1.117.032.233.065.343.1a.155.155,0,0,1,.1.194A.13.13,0,0,1,1887.758,508.252Zm-10.75,1.527H1877l-.764.052a.152.152,0,0,1-.162-.142.148.148,0,0,1,.142-.162l.764-.052a.152.152,0,0,1,.162.142A.155.155,0,0,1,1877.008,509.779Zm5.579-.945a.165.165,0,0,1-.155-.071.157.157,0,0,1,.052-.214,5.954,5.954,0,0,1,.7-.362.152.152,0,0,1,.123.278,7.069,7.069,0,0,0-.66.343A.079.079,0,0,1,1882.587,508.834Zm-5,.6a.15.15,0,0,1-.1-.019.158.158,0,0,1-.058-.207,7.479,7.479,0,0,1,.421-.654.153.153,0,1,1,.252.175c-.142.207-.278.421-.408.634A.135.135,0,0,1,1877.591,509.436Zm8.666-1.482h-.032a5.79,5.79,0,0,0-.75-.006.152.152,0,1,1-.02-.3,6.323,6.323,0,0,1,.783.006.152.152,0,0,1,.142.162A.136.136,0,0,1,1886.257,507.954Zm-2.272.259a.15.15,0,0,1-.168-.1.153.153,0,0,1,.1-.194,6.234,6.234,0,0,1,.764-.181.151.151,0,1,1,.052.3,6.95,6.95,0,0,0-.725.175A.049.049,0,0,1,1883.985,508.213Zm7.734-1.359a.178.178,0,0,1-.123-.032c-.194-.155-.4-.311-.608-.453a.154.154,0,1,1,.175-.252c.214.149.427.3.628.466a.154.154,0,0,1,.026.214A.143.143,0,0,1,1891.719,506.854Zm-13.248,1.327a.178.178,0,0,1-.123-.032.153.153,0,0,1-.019-.214c.168-.2.343-.395.524-.576a.156.156,0,0,1,.22.22q-.262.272-.5.563A.606.606,0,0,1,1878.471,508.181Zm11.979-2.187a.128.128,0,0,1-.1-.019l-.214-.116-.077-.039-.045-.6a.148.148,0,0,1,.142-.162.152.152,0,0,1,.162.142l.032.434c.052.026.1.052.149.084a.156.156,0,0,1,.058.207A.184.184,0,0,1,1890.45,505.993Zm-11.254.977a.152.152,0,0,1-.175-.123l-.149-.751a.159.159,0,0,1,.123-.181.154.154,0,0,1,.181.123l.149.751a.162.162,0,0,1-.13.181C1879.2,506.964,1879.2,506.964,1879.2,506.97Zm10.944-2.382h-.013a.152.152,0,0,1-.162-.142l-.052-.764a.149.149,0,0,1,.142-.162.152.152,0,0,1,.162.142l.052.764A.155.155,0,0,1,1890.139,504.589Zm-4.168.162h-.026c-.252-.006-.5,0-.757.013a.152.152,0,0,1-.02-.3c.259-.013.524-.019.777-.013a.152.152,0,0,1,.149.155A.142.142,0,0,1,1885.972,504.751Zm-3.009.356a.143.143,0,0,1-.123-.039l-.582-.5a.151.151,0,0,1,.2-.227l.582.5a.147.147,0,0,1,.013.214A.183.183,0,0,1,1882.962,505.107Zm.725-.129a.157.157,0,0,1-.175-.116.15.15,0,0,1,.117-.181c.252-.058.511-.1.764-.142a.154.154,0,1,1,.045.3h0a7.5,7.5,0,0,0-.744.136Zm-4.782.485a.152.152,0,0,1-.175-.123l-.052-.252a.322.322,0,0,1,.162-.349l.252-.142a.152.152,0,1,1,.149.265l-.252.142a.034.034,0,0,0-.013.026l.052.252a.154.154,0,0,1-.123.181Zm7.526-1.288a.135.135,0,0,1-.11-.026.148.148,0,0,1-.039-.214l.427-.634a.154.154,0,0,1,.253.175l-.427.634A.151.151,0,0,1,1886.431,504.175Zm3.093-.731a.243.243,0,0,1-.065-.006l-.744-.2a.154.154,0,0,1,.078-.3l.744.2a.156.156,0,0,1-.013.3Zm-9.669,1.048a.158.158,0,0,1-.155-.078.145.145,0,0,1,.058-.207l.667-.382a.152.152,0,0,1,.149.265l-.667.382A.448.448,0,0,0,1879.856,504.492Zm1.942-.395a.143.143,0,0,1-.123-.039l-.414-.356a.023.023,0,0,0-.019-.006l-.162-.265a.323.323,0,0,1,.382.039l.414.356a.147.147,0,0,1,.013.214A.11.11,0,0,1,1881.8,504.1Zm6.239-1.048a.242.242,0,0,1-.065-.006l-.6-.162a.163.163,0,0,1-.22-.045.154.154,0,0,1,.032-.214.347.347,0,0,1,.265-.045l.6.162a.152.152,0,0,1,.11.188A.144.144,0,0,1,1888.036,503.049Z" transform="translate(-1871.689 -500.016)" fill="#bdd0fb"/>
          <path id="Path_11774" data-name="Path 11774" d="M2015.876,647.343a2.1,2.1,0,0,1-.57.019.152.152,0,0,1,.019-.3,2.036,2.036,0,0,0,.712-.065.154.154,0,1,1,.078.3A1.427,1.427,0,0,1,2015.876,647.343Zm.925-.356a.15.15,0,0,1-.149-.065.156.156,0,0,1,.045-.214,2.179,2.179,0,0,0,.518-.485.153.153,0,1,1,.246.181,2.32,2.32,0,0,1-.6.557A.27.27,0,0,1,2016.8,646.987Zm-2.2.194a.13.13,0,0,1-.084-.013c-.071-.032-.142-.065-.214-.1a2.448,2.448,0,0,1-.472-.343.156.156,0,0,1,.214-.227,2.105,2.105,0,0,0,.414.3,1.676,1.676,0,0,0,.188.091.152.152,0,0,1,.078.2A.155.155,0,0,1,2014.6,647.181Zm3.113-1.4a.135.135,0,0,1-.071-.006.155.155,0,0,1-.1-.194,2.007,2.007,0,0,0,.1-.705.152.152,0,0,1,.3-.006,2.321,2.321,0,0,1-.123.809A.138.138,0,0,1,2017.714,645.783Zm-4.22.375a.152.152,0,0,1-.162-.078,2.305,2.305,0,0,1-.259-.77.153.153,0,0,1,.129-.175h0a.154.154,0,0,1,.175.129,2.176,2.176,0,0,0,.226.673.151.151,0,0,1-.065.207A.094.094,0,0,1,2013.495,646.159Zm4.187-1.877a.15.15,0,0,1-.168-.1,2.26,2.26,0,0,0-.349-.621.152.152,0,0,1,.233-.194,2.4,2.4,0,0,1,.4.705.154.154,0,0,1-.091.194C2017.708,644.275,2017.695,644.275,2017.682,644.282Zm-4.427.388h-.052a.148.148,0,0,1-.123-.175,2.546,2.546,0,0,1,.272-.77,2.455,2.455,0,0,1,.414-.55.156.156,0,0,1,.22.22,2.17,2.17,0,0,0-.362.479,2.1,2.1,0,0,0-.24.673A.151.151,0,0,1,2013.255,644.67Zm3.475-1.56a.15.15,0,0,1-.1-.019c-.026-.019-.058-.032-.084-.052a2.075,2.075,0,0,0-.576-.22.152.152,0,0,1,.065-.3,2.4,2.4,0,0,1,.66.252l.1.058a.156.156,0,0,1,.052.214A.151.151,0,0,1,2016.731,643.11Zm-2.2-.117a.157.157,0,0,1-.162-.084.153.153,0,0,1,.071-.207,2.585,2.585,0,0,1,.783-.227.149.149,0,0,1,.168.136.152.152,0,0,1-.129.168h-.007a2.1,2.1,0,0,0-.686.2A.092.092,0,0,1,2014.53,642.994Z" transform="translate(-2001.451 -630.868)" fill="#bdd0fb"/>
          <g id="Group_2023" data-name="Group 2023" transform="translate(3.348 13.478)">
            <path id="Path_11775" data-name="Path 11775" d="M1885.657,818.219a.138.138,0,0,1-.136-.052c-.084-.1-.175-.194-.259-.291a.152.152,0,0,1,.233-.194c.084.1.168.188.252.285a.147.147,0,0,1-.013.214A.219.219,0,0,1,1885.657,818.219Z" transform="translate(-1885.225 -808.162)" fill="#bdd0fb"/>
            <path id="Path_11776" data-name="Path 11776" d="M1909.593,702.773c-.168.026-.343.052-.511.071a.153.153,0,0,1-.032-.3c.252-.032.511-.065.764-.11a.151.151,0,1,1,.052.3C1909.768,702.748,1909.677,702.761,1909.593,702.773Zm1.022-.194a.157.157,0,0,1-.175-.116.147.147,0,0,1,.116-.181c.246-.058.5-.123.744-.194a.146.146,0,0,1,.188.1.148.148,0,0,1-.1.188c-.252.071-.5.142-.764.2C1910.622,702.573,1910.616,702.573,1910.616,702.579Zm-2.3.337h-.013c-.259.019-.524.026-.783.026a.153.153,0,0,1-.155-.155.157.157,0,0,1,.155-.155c.252,0,.511-.013.77-.026a.152.152,0,0,1,.162.142A.175.175,0,0,1,1908.312,702.916Zm3.792-.777a.155.155,0,0,1-.078-.3c.24-.084.485-.181.719-.278a.154.154,0,0,1,.116.285c-.24.1-.485.194-.731.285C1912.124,702.133,1912.117,702.139,1912.1,702.139Zm-5.352.783h-.032c-.259-.013-.524-.032-.783-.058a.153.153,0,1,1,.032-.3c.252.026.511.045.77.058a.162.162,0,0,1,.149.162A.152.152,0,0,1,1906.752,702.922Zm6.789-1.385a.148.148,0,0,1-.162-.084.153.153,0,0,1,.071-.207c.233-.11.46-.233.68-.356a.152.152,0,0,1,.149.265c-.226.129-.459.246-.7.362A.046.046,0,0,1,1913.541,701.537Zm-8.336,1.223h-.052c-.259-.045-.518-.091-.77-.149a.153.153,0,0,1-.116-.181.15.15,0,0,1,.181-.117c.246.058.5.1.757.149a.153.153,0,0,1,.129.175A.159.159,0,0,1,1905.205,702.761Zm9.695-1.98a.171.171,0,0,1-.155-.071.155.155,0,0,1,.045-.214c.214-.136.434-.285.641-.427a.154.154,0,0,1,.214.032.15.15,0,0,1-.039.214c-.214.149-.434.3-.654.44A.059.059,0,0,1,1914.9,700.78Zm-11.209,1.644a.113.113,0,0,1-.065-.006c-.252-.071-.5-.149-.751-.233a.154.154,0,0,1,.1-.291c.24.084.492.162.731.233a.149.149,0,0,1,.1.188A.155.155,0,0,1,1903.691,702.424Zm12.477-2.55a.153.153,0,0,1-.142-.058.148.148,0,0,1,.026-.214c.2-.162.395-.33.583-.5a.151.151,0,0,1,.2.227c-.194.175-.395.343-.6.511A.09.09,0,0,1,1916.168,699.874Zm-13.953,2.039a.192.192,0,0,1-.084-.006c-.24-.1-.485-.207-.718-.317a.155.155,0,0,1,.136-.278c.233.11.466.214.705.311a.155.155,0,0,1,.084.2A.159.159,0,0,1,1902.215,701.913Zm15.1-3.074a.142.142,0,0,1-.129-.045.16.16,0,0,1,0-.22q.272-.272.524-.563a.151.151,0,1,1,.226.2c-.175.194-.356.388-.537.576A.118.118,0,0,1,1917.32,698.839Zm-16.509,2.407a.133.133,0,0,1-.1-.019l-.11-.058c-.188-.1-.382-.22-.57-.337a.155.155,0,0,1,.162-.265c.181.11.369.22.557.33l.11.058a.145.145,0,0,1,.058.207A.133.133,0,0,1,1900.811,701.246Zm17.538-3.572a.154.154,0,0,1-.142-.246c.155-.2.311-.408.46-.615a.153.153,0,1,1,.252.175c-.149.214-.311.427-.472.628A.154.154,0,0,1,1918.349,697.674Zm-18.858,2.757a.135.135,0,0,1-.11-.026c-.214-.149-.427-.3-.634-.466a.152.152,0,0,1,.188-.239c.2.155.408.311.621.459a.154.154,0,0,1,.039.214A.208.208,0,0,1,1899.491,700.431Zm19.758-4.032a.15.15,0,0,1-.1-.019.157.157,0,0,1-.052-.214c.123-.194.24-.395.349-.589l.039-.071a.153.153,0,0,1,.272.142l-.039.078c-.11.2-.233.408-.356.6A.192.192,0,0,1,1919.249,696.4Zm-20.981,3.068a.143.143,0,0,1-.123-.039c-.194-.175-.388-.356-.576-.537a.156.156,0,0,1,.22-.22q.272.272.563.524a.147.147,0,0,1,.013.214A.133.133,0,0,1,1898.268,699.466Zm21.726-4.427a.149.149,0,0,1-.091-.013.153.153,0,0,1-.071-.207c.11-.233.214-.466.311-.705a.154.154,0,1,1,.285.116c-.1.24-.207.485-.317.718A.165.165,0,0,1,1919.993,695.04Zm.6-1.443a.129.129,0,0,1-.071-.006.157.157,0,0,1-.1-.194c.084-.239.162-.485.233-.731a.152.152,0,1,1,.291.084c-.071.252-.149.5-.24.751A.14.14,0,0,1,1920.589,693.6Zm.427-1.495h-.058a.153.153,0,0,1-.116-.181c.058-.246.1-.5.149-.757a.151.151,0,1,1,.3.052c-.045.259-.1.518-.149.77A.144.144,0,0,1,1921.016,692.1Zm.259-1.534h-.039a.153.153,0,0,1-.136-.168c.026-.252.052-.511.065-.764a.152.152,0,1,1,.3.019c-.013.259-.032.524-.065.783A.158.158,0,0,1,1921.275,690.568Z" transform="translate(-1896.729 -688.322)" fill="#bdd0fb"/>
            <path id="Path_11777" data-name="Path 11777" d="M2262.988,672.092h-.026a.158.158,0,0,1-.155-.155c0-.129,0-.252-.006-.382a.152.152,0,1,1,.3-.006c.007.129.007.259.007.388A.143.143,0,0,1,2262.988,672.092Z" transform="translate(-2238.365 -671.4)" fill="#bdd0fb"/>
          </g>
          <g id="Group_2024" data-name="Group 2024">
            <path id="Path_11778" data-name="Path 11778" d="M2195.188,521.217a.142.142,0,0,1-.129-.045c-.091-.091-.181-.175-.272-.265a.156.156,0,1,1,.213-.226c.1.091.188.175.278.265a.16.16,0,0,1,0,.22A.164.164,0,0,1,2195.188,521.217Z" transform="translate(-2171.359 -516.916)" fill="#bdd0fb"/>
            <path id="Path_11779" data-name="Path 11779" d="M1833.681,477.247h-.026a.158.158,0,0,1-.155-.155c0-.259.013-.518.026-.777a.152.152,0,0,1,.3.019c-.013.252-.026.5-.026.757A.148.148,0,0,1,1833.681,477.247Zm.091-1.527h-.039a.157.157,0,0,1-.136-.168c.032-.252.065-.511.11-.764a.152.152,0,0,1,.175-.123.148.148,0,0,1,.123.175c-.045.246-.078.5-.11.751A.138.138,0,0,1,1833.772,475.72Zm.265-1.508h-.058a.152.152,0,0,1-.116-.181c.058-.252.123-.5.194-.751a.152.152,0,0,1,.291.084c-.071.239-.136.492-.194.731A.145.145,0,0,1,1834.037,474.212Zm.427-1.469a.159.159,0,0,1-.078-.006.149.149,0,0,1-.091-.194c.084-.239.181-.485.278-.725a.154.154,0,0,1,.285.116c-.1.233-.188.472-.272.705A.178.178,0,0,1,1834.464,472.743Zm.583-1.417a.149.149,0,0,1-.091-.013.153.153,0,0,1-.071-.207c.11-.233.233-.46.356-.686a.152.152,0,0,1,.265.149c-.123.22-.24.447-.35.673A.127.127,0,0,1,1835.047,471.325Zm.738-1.34a.15.15,0,0,1-.1-.019.157.157,0,0,1-.052-.214c.136-.22.278-.434.427-.647a.154.154,0,0,1,.252.175c-.142.207-.285.421-.421.634A.135.135,0,0,1,1835.785,469.986Zm20.69-3.32a.178.178,0,0,1-.123-.032c-.194-.162-.395-.317-.6-.466a.153.153,0,0,1,.181-.246c.207.155.408.311.608.479a.153.153,0,0,1,.019.214A.142.142,0,0,1,1856.475,466.666Zm-19.81,2.064a.154.154,0,0,1-.142-.246c.155-.2.324-.4.5-.6a.151.151,0,1,1,.226.2q-.252.282-.485.582A.153.153,0,0,1,1836.665,468.73Zm18.58-2.977a.135.135,0,0,1-.11-.026c-.207-.136-.427-.272-.641-.4a.152.152,0,0,1,.149-.265q.33.194.66.408a.155.155,0,0,1,.045.214A.135.135,0,0,1,1855.245,465.753Zm-17.571,1.832a.142.142,0,0,1-.129-.045.16.16,0,0,1,0-.22c.181-.181.369-.362.557-.537a.147.147,0,0,1,.214.013.155.155,0,0,1-.013.22q-.281.252-.544.524A.136.136,0,0,1,1837.674,467.585Zm16.25-2.608a.143.143,0,0,1-.091-.013c-.226-.117-.453-.227-.686-.33a.152.152,0,0,1,.123-.278c.233.1.466.22.7.337a.151.151,0,0,1,.065.207A.138.138,0,0,1,1853.925,464.977Zm-15.118,1.579a.165.165,0,0,1-.142-.052.153.153,0,0,1,.019-.214c.2-.162.408-.324.615-.472a.153.153,0,0,1,.181.246c-.2.149-.408.3-.6.459A.239.239,0,0,1,1838.807,466.556Zm13.72-2.2a.159.159,0,0,1-.078-.006c-.233-.091-.479-.175-.712-.252a.153.153,0,0,1,.1-.291c.246.078.492.162.731.259a.161.161,0,0,1,.091.2A.228.228,0,0,1,1852.527,464.355Zm-12.477,1.3a.158.158,0,0,1-.155-.071.156.156,0,0,1,.045-.214c.214-.136.44-.272.66-.4a.152.152,0,0,1,.149.265c-.22.123-.44.259-.647.395A.131.131,0,0,1,1840.049,465.656Zm11.021-1.773h-.065c-.246-.065-.492-.123-.738-.168a.155.155,0,1,1,.058-.3q.379.078.757.175a.152.152,0,0,1,.11.188A.145.145,0,0,1,1851.071,463.883Zm-9.695,1.016a.148.148,0,0,1-.162-.084.153.153,0,0,1,.071-.207c.233-.117.466-.227.7-.324a.152.152,0,0,1,.123.278c-.233.1-.459.207-.686.317A.059.059,0,0,1,1841.376,464.9Zm8.193-1.314h-.045c-.246-.039-.5-.065-.751-.091a.156.156,0,1,1,.026-.311c.259.026.518.052.77.091a.154.154,0,0,1,.129.175A.166.166,0,0,1,1849.569,463.585Zm-6.782.712a.151.151,0,0,1-.078-.291c.239-.091.485-.168.731-.246a.156.156,0,0,1,.194.1.153.153,0,0,1-.1.194c-.239.071-.479.155-.718.239C1842.806,464.291,1842.793,464.3,1842.787,464.3Zm5.255-.848h-.026c-.252-.006-.5-.006-.757-.006a.152.152,0,0,1-.006-.3c.259-.007.518-.007.777.006a.152.152,0,0,1,.149.155A.165.165,0,0,1,1848.042,463.449Zm-3.792.4a.156.156,0,0,1-.065-.3c.252-.065.5-.117.757-.162a.154.154,0,0,1,.181.123.159.159,0,0,1-.123.181c-.246.045-.5.1-.738.162C1844.256,463.844,1844.256,463.844,1844.25,463.85Zm2.265-.369h-.013c-.252.019-.5.045-.751.078a.153.153,0,0,1-.175-.129.157.157,0,0,1,.129-.175c.252-.032.511-.058.77-.084a.152.152,0,0,1,.162.142A.147.147,0,0,1,1846.515,463.482Z" transform="translate(-1833.5 -463.134)" fill="#bdd0fb"/>
            <path id="Path_11780" data-name="Path 11780" d="M1833.995,688.886h-.013a.152.152,0,0,1-.162-.142c-.013-.13-.019-.259-.026-.388a.157.157,0,0,1,.149-.162.153.153,0,0,1,.162.149c.007.129.013.252.026.375A.159.159,0,0,1,1833.995,688.886Z" transform="translate(-1833.775 -673.628)" fill="#bdd0fb"/>
          </g>
        </g>
      </g>
    </g>
    <g id="Group_2028" data-name="Group 2028" transform="translate(20.484 12.705)">
      <path id="Path_11781" data-name="Path 11781" d="M1067.559,1156.2l-2.259,20.269h26.217L1088.1,1156.2Z" transform="translate(-1023.519 -1101.1)" fill="#21418e"/>
      <path id="Path_11782" data-name="Path 11782" d="M419.7,309.978v46.415a7.046,7.046,0,0,0,6.86,7.041c16.956.44,76.25,1.495,92.384,1.262a5.174,5.174,0,0,0,5.1-5.035c.311-10.782.815-36.714-1.055-48.751a5.328,5.328,0,0,0-5.1-4.511c-14.205-.453-77.059-1.9-93.193-1.534A5.108,5.108,0,0,0,419.7,309.978Z" transform="translate(-419.7 -304.807)" fill="#21418e"/>
      <path id="Path_11783" data-name="Path 11783" d="M464.7,335.73v44.1a4.081,4.081,0,0,0,4.019,4.077l89.989,1.113a3.979,3.979,0,0,0,4.032-3.954l.149-43.7a2.905,2.905,0,0,0-2.835-2.912l-92.131-1.864A3.146,3.146,0,0,0,464.7,335.73Z" transform="translate(-461.788 -330.786)" fill="url(#linear-gradient-3)"/>
      <path id="Path_11784" data-name="Path 11784" d="M498.2,380.083v38.882a3.716,3.716,0,0,0,3.773,3.579l84.76,1.417a3.717,3.717,0,0,0,3.9-3.443l1.061-38.675a2.622,2.622,0,0,0-2.647-2.615l-87.776-1.942A2.9,2.9,0,0,0,498.2,380.083Z" transform="translate(-493.12 -372.596)" opacity="0.12" fill="url(#linear-gradient-4)"/>
      <path id="Path_11785" data-name="Path 11785" d="M561.455,1142.561h0l-98.719-1.683a.138.138,0,0,1-.136-.142.137.137,0,0,1,.136-.136h0l98.719,1.683a.138.138,0,0,1,.136.142A.137.137,0,0,1,561.455,1142.561Z" transform="translate(-459.824 -1086.51)" fill="#91b3fa"/>
      <path id="Path_11786" data-name="Path 11786" d="M979.14,1451.266H940.769c-1.042,0-1.825-.744-1.624-1.54l.492-1.948a1.6,1.6,0,0,1,1.56-1.042l36.992-1.152a1.635,1.635,0,0,1,1.683,1.01l.887,3.1C980.984,1450.5,980.2,1451.266,979.14,1451.266Z" transform="translate(-905.498 -1371.755)" fill="#21418e"/>
      <path id="Path_11787" data-name="Path 11787" d="M1281.936,1467.5a.133.133,0,0,1-.136-.136.143.143,0,0,1,.136-.142l1.585-.026a.139.139,0,1,1,.007.278l-1.592.026Z" transform="translate(-1226.007 -1391.973)" fill="#91b3fa"/>
      <path id="Path_11788" data-name="Path 11788" d="M959.607,1471.365h-.019a.137.137,0,0,1-.117-.155l.227-1.417a1.6,1.6,0,0,1,1.553-1.346l16.813-.246a.147.147,0,0,1,.142.136.142.142,0,0,1-.136.142l-16.813.246a1.312,1.312,0,0,0-1.281,1.113l-.226,1.417A.16.16,0,0,1,959.607,1471.365Z" transform="translate(-924.537 -1392.909)" fill="#91b3fa"/>
    </g>
    <g id="Group_2088" data-name="Group 2088" transform="translate(40.598 28.737)">
      <path id="Path_12053" data-name="Path 12053" d="M950.2,747.2l.278,7.5a21.887,21.887,0,0,0,2.265.647A23.065,23.065,0,0,1,955,750.8,11.135,11.135,0,0,1,950.2,747.2Z" transform="translate(-935.982 -734.601)" fill="#bdd0fb"/>
      <path id="Path_12054" data-name="Path 12054" d="M1001.835,745.3c-4.09,4.414-7.4,4.673-10.083,3.728a22.884,22.884,0,0,0-2.252,4.55c10.918,2.407,13.487-7.63,13.487-7.63Z" transform="translate(-972.738 -732.824)" fill="url(#linear-gradient-5)"/>
      <path id="Path_12055" data-name="Path 12055" d="M1192.9,730.486a1.505,1.505,0,0,1,1.34-.349c.874.162,1.65.459,2.187,0s.731.155.731.155l-1.624,1.236Z" transform="translate(-1162.975 -718.482)" fill="url(#linear-gradient-6)"/>
      <path id="Path_12056" data-name="Path 12056" d="M1177.9,734.322s.324-1.346,1.294-1.165,3.178,1.385,3.747,1.165,1.294-.751,1.67-.563l-.66.815s1.689-.977,1.98-.375l-2.815,1.586C1183.123,735.779,1179.013,735.371,1177.9,734.322Z" transform="translate(-1148.945 -721.452)" fill="url(#linear-gradient-7)"/>
      <path id="Path_12057" data-name="Path 12057" d="M730.561,744.911s-1.4-19.913,8.776-26.107c0,0,2.841-1.877,6.388,1.76s2.4,7.41-.57,10.95-6,9.863-5.281,13.4Z" transform="translate(-730.496 -707.59)" fill="#bdd0fb"/>
      <path id="Path_12058" data-name="Path 12058" d="M897.291,642c0,.24-3.391,5.048-3.391,5.048s.608,1.2,3.508,2.168l2.5-5.151Z" transform="translate(-883.325 -636.21)" fill="url(#linear-gradient-8)"/>
      <path id="Path_12059" data-name="Path 12059" d="M925.7,838.558s6.426,5.378,13.364,3.035a1.629,1.629,0,0,1,1.3.1l1.993,1.055a1.789,1.789,0,0,0,2.362-.66,3.8,3.8,0,0,0,.563-1.5l-3.9-1.586.285-.479s-1.9-.162-2.4,1.2c0,0-3.631,1.508-9.753-5.223A24.318,24.318,0,0,0,925.7,838.558Z" transform="translate(-913.067 -816.251)" fill="url(#linear-gradient-9)"/>
      <path id="Path_12060" data-name="Path 12060" d="M861.3,823.855a.113.113,0,0,1-.078-.026,12.367,12.367,0,0,1-4-4.821.144.144,0,0,1,.265-.11,12.1,12.1,0,0,0,3.9,4.7.138.138,0,0,1,.039.194A.168.168,0,0,1,861.3,823.855Z" transform="translate(-849.007 -801.575)" fill="#91b3fa"/>
      <path id="Path_12061" data-name="Path 12061" d="M880.016,744.107a.145.145,0,0,1-.117-.065c-.006-.013-.835-1.3-2.407-4.122a3.133,3.133,0,0,0-1.87-1.618,3.631,3.631,0,0,0-2.492.33.142.142,0,0,1-.142-.246,3.862,3.862,0,0,1,2.712-.356,3.393,3.393,0,0,1,2.045,1.754c1.573,2.809,2.395,4.09,2.4,4.1a.134.134,0,0,1-.045.194A.142.142,0,0,1,880.016,744.107Z" transform="translate(-863.701 -725.916)" fill="#91b3fa"/>
      <g id="Group_2085" data-name="Group 2085" transform="translate(9.634)">
        <path id="Path_12062" data-name="Path 12062" d="M917.618,599.4a17.911,17.911,0,0,1,1.288,4.22c.084,1.45.395,2.395-1.288,2.686a3.574,3.574,0,0,1-3.864-1.993s-1.2-2.233-.932-3.145S917.618,599.4,917.618,599.4Z" transform="translate(-910.619 -596.366)" fill="url(#linear-gradient-10)"/>
        <path id="Path_12063" data-name="Path 12063" d="M883.065,559.436l.1-.045a.226.226,0,0,0,.11-.317c-.24-.46-.7-1.508-.1-1.754.77-.317,3.812-.938,4.472-2.019a2.013,2.013,0,0,0-.77-2.763.109.109,0,0,0-.149.052l-.071.13a.117.117,0,0,1-.214-.019h0a.116.116,0,0,0-.207-.032,3.082,3.082,0,0,1-2.207,1.12c-2.071.382-3.443,1.223-3.475,2.653a.114.114,0,0,1-.175.1c-.155-.091-.395-.136-.725.136-.569.479-.337,1.721.912,2.744a.112.112,0,0,1-.006.181c-.226.149-.563.5.311.964a2.912,2.912,0,0,0,1.838.4.113.113,0,0,0,.091-.136l-.278-1.255a.113.113,0,0,1,.11-.136Z" transform="translate(-879.354 -552.526)" fill="url(#linear-gradient-11)"/>
        <path id="Path_12064" data-name="Path 12064" d="M915.6,643.725s-.459-1.767-1.255-1.275.414,1.98,1.048,2.045Z" transform="translate(-911.84 -636.55)" fill="url(#linear-gradient-12)"/>
      </g>
    </g>
  </g>
</svg>
