<svg xmlns="http://www.w3.org/2000/svg" width="32" height="32" viewBox="0 0 32 32"><g transform="translate(-0.001 0)"><path d="M30.53,14.028H24.986V8.953h4.541A1.472,1.472,0,0,0,31,7.483V1.471A1.473,1.473,0,0,0,29.528,0H19.508a1.472,1.472,0,0,0-1.471,1.471V4.008H14.966V2.472A2.476,2.476,0,0,0,12.494,0H2.473A2.476,2.476,0,0,0,0,2.472V30.529A1.473,1.473,0,0,0,1.471,32H13.5a1.472,1.472,0,0,0,1.471-1.471V23.483h2.069v7.046A1.472,1.472,0,0,0,18.506,32H30.53A1.473,1.473,0,0,0,32,30.529V15.5a1.472,1.472,0,0,0-1.471-1.471Zm.533,1.471v2.537H26.89a1.471,1.471,0,1,0-2.74,0H22.983V16.5a.469.469,0,0,0-.469-.469H19.508a.469.469,0,0,0-.469.469v1.535H17.973V15.5a.534.534,0,0,1,.533-.533H30.53a.534.534,0,0,1,.533.533Zm-6.077,2a.533.533,0,1,1,.533.533A.534.534,0,0,1,24.986,17.5Zm-5.01.533V16.97h2.069v1.067Zm9.551-10.02H27.992V3.943h2.069V7.483a.534.534,0,0,1-.533.533Zm.533-6.545V3.006H27.992V.937h1.535a.534.534,0,0,1,.533.533Zm-11.087,0a.534.534,0,0,1,.533-.533h7.547V8.016H19.508a.534.534,0,0,1-.533-.533ZM.938,20.978H1.972A.032.032,0,0,1,2,21.01v3.507a.032.032,0,0,1-.032.032H.938Zm0-8.517H1.972A.032.032,0,0,1,2,12.493V16a.032.032,0,0,1-.032.032H.938ZM14.029,30.529a.534.534,0,0,1-.533.533H1.471a.534.534,0,0,1-.533-.533V25.487H1.972a.971.971,0,0,0,.97-.97V21.01a.971.971,0,0,0-.97-.97H.938V18.974H11.491a.469.469,0,1,0,0-.937H.938V16.97H1.972a.971.971,0,0,0,.97-.97V12.493a.971.971,0,0,0-.97-.97H.938V2.472A1.537,1.537,0,0,1,2.473.937h10.02a1.537,1.537,0,0,1,1.535,1.535V18.036H13.5a.469.469,0,1,0,0,.937h.533V30.529Zm.937-7.984V4.945h3.071V7.483a1.472,1.472,0,0,0,1.471,1.471h4.541v5.075H18.506A1.472,1.472,0,0,0,17.035,15.5v7.046ZM30.53,31.062H18.506a.534.534,0,0,1-.533-.533V18.974H31.063V30.529a.534.534,0,0,1-.533.533Zm0,0" fill="#21418e"/><path d="M91.15,64.129h-2a.971.971,0,0,0-.97.97v1a.971.971,0,0,0,.97.97h2a.971.971,0,0,0,.97-.97v-1A.971.971,0,0,0,91.15,64.129Zm.032,1.972a.032.032,0,0,1-.032.032h-2a.032.032,0,0,1-.032-.032v-1a.032.032,0,0,1,.032-.032h2a.032.032,0,0,1,.032.032Zm0,0" transform="translate(-82.664 -60.121)" fill="#21418e"/><path d="M441.356,257.453h1.5a.469.469,0,0,0,0-.937h-1.5a.469.469,0,0,0,0,.938Zm0,0" transform="translate(-413.331 -240.484)" fill="#21418e"/><path d="M325.121,328.66a4.477,4.477,0,1,0,4.477,4.477A4.482,4.482,0,0,0,325.121,328.66Zm0,8.016a3.539,3.539,0,1,1,3.539-3.539A3.543,3.543,0,0,1,325.121,336.676Zm0,0" transform="translate(-300.603 -308.119)" fill="#21418e"/><path d="M357.007,362.244a.469.469,0,0,0-.337.571,1.533,1.533,0,1,1-1.1-1.1.469.469,0,0,0,.234-.908,2.47,2.47,0,1,0,1.777,1.776A.469.469,0,0,0,357.007,362.244Zm0,0" transform="translate(-330.666 -338.181)" fill="#21418e"/><path d="M321.114,37.008h5.01a.469.469,0,0,0,.469-.469V32.531a.469.469,0,0,0-.469-.469h-1a.469.469,0,0,0,0,.938h.533V36.07h-4.073V33h1.535a.469.469,0,0,0,0-.937h-2a.469.469,0,0,0-.469.469v4.008A.469.469,0,0,0,321.114,37.008Zm0,0" transform="translate(-300.604 -30.058)" fill="#21418e"/></g></svg>