<svg xmlns="http://www.w3.org/2000/svg" width="32" height="32" viewBox="0 0 32 32"><g transform="translate(-16 -16)"><circle cx="0.598" cy="0.598" r="0.598" transform="translate(22.878 23.476)" fill="#21418e"/><circle cx="0.598" cy="0.598" r="0.598" transform="translate(27.065 23.476)" fill="#21418e"/><path d="M146.133,129.6V128h-1.067v1.6a.534.534,0,0,1-.533.533H144V131.2h.533A1.6,1.6,0,0,0,146.133,129.6Z" transform="translate(-119.467 -104.534)" fill="#21418e"/><path d="M120.845,188.9a2.45,2.45,0,0,0,2.2,1.361h1.474v-1.067h-1.474a1.389,1.389,0,0,1-1.249-.772Z" transform="translate(-97.855 -160.927)" fill="#21418e"/><path d="M35.2,36.8V35.2A3.2,3.2,0,0,0,32,32H30.4V30.344a2.579,2.579,0,0,0,1.972-1.9l.055-.22a2.137,2.137,0,0,0,1.706-2.09v-4.8A2.136,2.136,0,0,0,32,19.2a1.068,1.068,0,0,1-1.067-1.067A2.136,2.136,0,0,0,28.8,16H27.326a2.45,2.45,0,0,0-1.726.7,2.45,2.45,0,0,0-1.726-.7H22.4a2.136,2.136,0,0,0-2.133,2.133A1.068,1.068,0,0,1,19.2,19.2a2.136,2.136,0,0,0-2.133,2.133v4.8a2.137,2.137,0,0,0,1.706,2.09l.055.22a2.579,2.579,0,0,0,1.972,1.9V32H19.2A3.2,3.2,0,0,0,16,35.2v1.6a.533.533,0,0,0,.121.338l4.087,5H18.667a.533.533,0,0,0-.444.238l-1.067,1.6a.533.533,0,0,0-.09.3v3.2A.533.533,0,0,0,17.6,48h16a.533.533,0,0,0,.533-.533v-3.2a.533.533,0,0,0-.09-.3l-1.067-1.6a.533.533,0,0,0-.444-.237H30.992l4.087-5A.533.533,0,0,0,35.2,36.8ZM21.867,22.388a1.59,1.59,0,0,0,1.3-.994l.4-1,.425.709A2.68,2.68,0,0,0,26.275,22.4h3.059v4.8a3.733,3.733,0,0,1-7.467,0Zm-2,5.8-.145-.581a.533.533,0,0,0-.517-.4,1.068,1.068,0,0,1-1.067-1.067v-4.8A1.068,1.068,0,0,1,19.2,20.266a2.136,2.136,0,0,0,2.133-2.133A1.068,1.068,0,0,1,22.4,17.066h1.474a1.389,1.389,0,0,1,1.249.772.533.533,0,0,0,.954,0,1.389,1.389,0,0,1,1.249-.772H28.8a1.068,1.068,0,0,1,1.067,1.067A2.136,2.136,0,0,0,32,20.266a1.068,1.068,0,0,1,1.067,1.067v4.8A1.068,1.068,0,0,1,32,27.2a.533.533,0,0,0-.517.4l-.145.581a1.513,1.513,0,0,1-.937,1.051V22.4h1.067V21.333H26.275a1.608,1.608,0,0,1-1.372-.777l-.979-1.631a.533.533,0,0,0-.953.076l-.8,2a.531.531,0,0,1-.5.335H19.733V22.4H20.8v6.836A1.513,1.513,0,0,1,19.863,28.185Zm13.2,16.243v2.505H18.133V44.428l.819-1.228h13.3Zm1.067-7.819-4.519,5.524H21.586l-4.519-5.524V35.2A2.136,2.136,0,0,1,19.2,33.066h2.133a.533.533,0,0,0,.533-.533V30.212a4.792,4.792,0,0,0,7.467,0v2.321a.533.533,0,0,0,.533.533H32A2.136,2.136,0,0,1,34.133,35.2Z" transform="translate(0 0)" fill="#21418e"/><path d="M94.831,265.29a7.808,7.808,0,0,0,.578-2.132l-1.059-.129a6.785,6.785,0,0,1-1.584,3.582,3.2,3.2,0,0,0-2.633-1.384H88v1.067h2.133a2.136,2.136,0,0,1,2.133,2.133v1.067h1.067v-1.067a2.136,2.136,0,0,1,2.133-2.133H97.6v-1.067H95.467a3.2,3.2,0,0,0-.636.064Z" transform="translate(-67.2 -230.56)" fill="#21418e"/><path d="M271.467,16H256v1.067h14.179l-1.6,1.6H258.133v1.067h10.133v10.7l-2.89-2.064a.533.533,0,0,0-.56-.037l-3.851,2.039-2.478-2.2-.709.8L259.96,30.9l-1.543.817.5.943,6.109-3.234,3.242,2.316v3.992h-8V36.8h8.312l1.6,1.6H259.2v1.067h12.267a.533.533,0,0,0,.533-.533v-22.4A.533.533,0,0,0,271.467,16Zm-2.133,3.421,1.6-1.6V37.646l-1.6-1.6Z" transform="translate(-224 0)" fill="#21418e"/><path d="M309.333,114.667a2.667,2.667,0,1,0-2.667,2.667A2.667,2.667,0,0,0,309.333,114.667Zm-4.267,0a1.6,1.6,0,1,1,1.6,1.6A1.6,1.6,0,0,1,305.067,114.667Z" transform="translate(-268.8 -89.6)" fill="#21418e"/></g></svg>