<svg xmlns="http://www.w3.org/2000/svg" width="37.295" height="32" viewBox="0 0 37.295 32"><g transform="translate(-10 -47)"><path d="M45.453,72.861H40.542V65.494a6.761,6.761,0,0,0-6.753-6.753H27.616a2.754,2.754,0,0,0-.427-2.731v-.415a8.595,8.595,0,0,0-17.189,0v3.07A8.575,8.575,0,0,0,15.289,66.6l.083.033v4.18l-3.034,4a3.149,3.149,0,0,0-1.877,2.88v.694a.614.614,0,0,0,.614.614h4.3a.614.614,0,0,0,.475-.225l5.525-6.753a.614.614,0,0,0,.139-.389v-.345a9.305,9.305,0,0,0,1.029.6l-2.222,2.928a3.162,3.162,0,0,0-1.877,2.88v.694a.614.614,0,0,0,.614.614h4.3a.614.614,0,0,0,.479-.23l4.727-5.909h.868l-.216,2.167a3.612,3.612,0,0,0,4.471,3.864l1.473-.368a3.82,3.82,0,0,0,2.945.315l2.695-.808.108.162a1.814,1.814,0,0,0,3.043-.039l.026.039a1.814,1.814,0,0,0,3.322-1.006V74.7A1.844,1.844,0,0,0,45.453,72.861Zm-6.139-7.367v.941a3.681,3.681,0,0,0-6.139,2.743v2.456H31.947V59.969h1.842A5.531,5.531,0,0,1,39.314,65.494Zm-28.086-6.83v-3.07a7.367,7.367,0,0,1,14.719-.46,2.749,2.749,0,0,0-.906-.153h-.307v1.228h.307a1.535,1.535,0,0,1,0,3.07h-.307v1.228h.307a2.758,2.758,0,0,0,.71-.093,7.368,7.368,0,0,1-7.653,5.6l-.03,0a7.357,7.357,0,0,1-6.84-7.348Zm3.853,19.108H11.688v-.081a1.921,1.921,0,0,1,1.25-1.8.613.613,0,0,0,.276-.2l3.261-4.3a.614.614,0,0,0,.125-.371V67.026a8.565,8.565,0,0,0,1.351.209l.032,0,.1.005.4.739a9.323,9.323,0,0,0,1.8,2.328v1.1ZM27.65,72.032l-4.592,5.741H19.669v-.08a1.928,1.928,0,0,1,1.251-1.8.614.614,0,0,0,.275-.2l3.26-4.3a.614.614,0,0,0,.125-.371V67.95H23.352v2.863l-.054.071a8.12,8.12,0,0,1-3.736-3.49l-.1-.18c.129-.013.256-.028.382-.047a8.593,8.593,0,0,0,7.243-7.2h3.63V71.633H28.878V67.95H27.65ZM33.383,77.7a2.385,2.385,0,0,1-2.951-2.551l.229-2.289h2.514v2.313A3.806,3.806,0,0,0,34,77.546Zm9.028.071a.584.584,0,0,1-.355-.121l.907-.272a.585.585,0,0,1-.553.393Zm3.655-.586a.586.586,0,0,1-1.073.325L44.122,76.2a.614.614,0,0,0-.687-.247l-5.688,1.706A2.6,2.6,0,0,1,34.4,75.174v-6a2.456,2.456,0,1,1,4.911,0v4.3a.614.614,0,0,0,.614.614h5.525a.615.615,0,0,1,.614.614Z" transform="translate(0 0)" fill="#21418e"/><circle cx="1.11" cy="1.11" r="1.11" transform="translate(12.51 57.537)" fill="#21418e"/><circle cx="1.11" cy="1.11" r="1.11" transform="translate(19.911 57.537)" fill="#21418e"/><path d="M83.842,232.842A1.844,1.844,0,0,0,85.683,231H84.456a.614.614,0,1,1-1.228,0H82A1.844,1.844,0,0,0,83.842,232.842Z" transform="translate(-66.475 -169.88)" fill="#21418e"/><path d="M76.455,101.043a.614.614,0,0,0,.819-.689l-.1-.533a1.972,1.972,0,0,1,.37-1.605,1.876,1.876,0,0,1,1.392-.722l-.07-1.226a3.128,3.128,0,0,0-2.289,1.191,3.187,3.187,0,0,0-.668,1.932,1.653,1.653,0,0,1-.434-.553,2.021,2.021,0,0,1-.117-1.7l-1.115-.514a3.224,3.224,0,0,0,.137,2.77A3.389,3.389,0,0,0,76.455,101.043Z" transform="translate(-59.081 -45.487)" fill="#21418e"/></g></svg>