<svg xmlns="http://www.w3.org/2000/svg" width="31.875" height="31.877" viewBox="0 0 31.875 31.877"><g transform="translate(-0.014 0)"><path d="M15.845,62.313c2.825-.857,4.888-4.861,4.888-8.361a5.936,5.936,0,0,0-1.771-4.528,6.114,6.114,0,0,0-4.225-1.488,7,7,0,0,0-2.546.454,10.269,10.269,0,0,0,.34-2.561A5.936,5.936,0,0,0,10.76,41.3a6.114,6.114,0,0,0-4.225-1.488c-2.977,0-5.141,1.571-5.788,4.2a.467.467,0,1,0,.907.223c.546-2.219,2.325-3.492,4.881-3.492a5.2,5.2,0,0,1,3.594,1.242A5.034,5.034,0,0,1,11.6,45.829a9.938,9.938,0,0,1-1.544,5.186,4.521,4.521,0,0,1-3.518,2.408c-2.1,0-4.678-2.815-5.029-6.854a.467.467,0,1,0-.93.081C.86,49.925,2.807,53.4,5.426,54.191l-.24.726a1.132,1.132,0,0,0,.868,1.448v1.526a3.03,3.03,0,0,1-.279,1.1,2.7,2.7,0,0,0-.113,2.283c.33.749.94,1.24,1.023,2.088-.022.768-.726,1.331-1.02,2a2.7,2.7,0,0,0,.113,2.283,3.029,3.029,0,0,1,.279,1.1.467.467,0,1,0,.934,0A3.857,3.857,0,0,0,6.648,67.3a1.812,1.812,0,0,1-.129-1.567c.379-.859,1.1-1.4,1.1-2.419s-.726-1.566-1.1-2.419a1.812,1.812,0,0,1,.129-1.567,3.857,3.857,0,0,0,.343-1.441V56.369a1.132,1.132,0,0,0,.895-1.452l-.24-.728a4.514,4.514,0,0,0,1.1-.512c-.1,3.17,1.541,7.621,4.883,8.634l-.24.728a1.132,1.132,0,0,0,.881,1.45v4.255a.467.467,0,1,0,.934,0V64.49a1.132,1.132,0,0,0,.881-1.45ZM7,55.21a.181.181,0,0,1-.173.238H6.246a.181.181,0,0,1-.173-.238l.283-.858a3.4,3.4,0,0,0,.357,0Zm4.223,3.928a9.938,9.938,0,0,1-1.544-5.186A7.152,7.152,0,0,1,9.749,52.9c0-.012,0-.025,0-.037a9.366,9.366,0,0,0,2.041-3.242,5.629,5.629,0,0,1,2.943-.754,5.2,5.2,0,0,1,3.594,1.242A5.033,5.033,0,0,1,19.8,53.952a9.938,9.938,0,0,1-1.544,5.186,4.521,4.521,0,0,1-3.518,2.408,4.521,4.521,0,0,1-3.518-2.408ZM15.173,63.5a.178.178,0,0,1-.147.075h-.578a.181.181,0,0,1-.173-.238l.283-.858a3.42,3.42,0,0,0,.357,0l.283.858a.177.177,0,0,1-.025.163Z" transform="translate(-0.525 -37.335)" fill="#21418e"/><path d="M239.883,203.579a2.769,2.769,0,0,1,1.249.628,2.494,2.494,0,0,1,.692,1.161.467.467,0,0,0,.9-.263,3.413,3.413,0,0,0-.957-1.587,3.689,3.689,0,0,0-1.663-.848.467.467,0,1,0-.217.908Z" transform="translate(-224.6 -190.042)" fill="#21418e"/><path d="M109.386,73.738a2.494,2.494,0,0,1,.692,1.161.467.467,0,0,0,.9-.263,3.413,3.413,0,0,0-.957-1.587,3.688,3.688,0,0,0-1.663-.848.467.467,0,1,0-.217.908A2.77,2.77,0,0,1,109.386,73.738Z" transform="translate(-101.056 -67.694)" fill="#21418e"/><path d="M326.536,14.391a4.832,4.832,0,0,0,1.578-.871.467.467,0,0,0-.586-.727,3.411,3.411,0,0,1-2.146.844,4.521,4.521,0,0,1-3.518-2.408,9.938,9.938,0,0,1-1.544-5.186A5.033,5.033,0,0,1,321.788,2.2a5.821,5.821,0,0,1,7.188,0,5.033,5.033,0,0,1,1.468,3.839,9.869,9.869,0,0,1-1.419,4.986.467.467,0,0,0,.8.486,10.829,10.829,0,0,0,1.556-5.472,5.936,5.936,0,0,0-1.771-4.528,6.744,6.744,0,0,0-8.451,0,5.936,5.936,0,0,0-1.771,4.528c0,3.489,2.05,7.479,4.862,8.353l-.2.616a1.132,1.132,0,0,0,.871,1.448v2.09a3.755,3.755,0,0,1-.341,1.584,2.733,2.733,0,0,0,.458,2.843,2,2,0,0,1,.511,1.207c0,.791-.72,1.361-1.021,2.043-.571,1.294.392,2.142.392,3.384v1.824a.467.467,0,0,0,.934,0V29.612c0-1.015-.911-2.01-.472-3.007.379-.859,1.1-1.4,1.1-2.419a2.87,2.87,0,0,0-.683-1.746,1.787,1.787,0,0,1-.355-1.954,4.664,4.664,0,0,0,.409-1.934V16.464a1.132,1.132,0,0,0,.892-1.451Zm-.708,1.077a.178.178,0,0,1-.147.075H325.1a.182.182,0,0,1-.173-.238l.244-.74a3.347,3.347,0,0,0,.435,0l.244.741A.178.178,0,0,1,325.829,15.468Z" transform="translate(-299.489 -0.026)" fill="#21418e"/><path d="M430.346,34.851a3.413,3.413,0,0,0-.957-1.587,3.689,3.689,0,0,0-1.663-.848.467.467,0,1,0-.217.908,2.77,2.77,0,0,1,1.249.628,2.494,2.494,0,0,1,.692,1.161A.467.467,0,0,0,430.346,34.851Z" transform="translate(-400.545 -30.386)" fill="#21418e"/><path d="M128.22.962a.467.467,0,0,0,0-.934A.467.467,0,0,0,128.22.962Z" transform="translate(-119.802 -0.026)" fill="#21418e"/><path d="M290.1,15.462a.467.467,0,0,0,0-.934A.467.467,0,0,0,290.1,15.462Z" transform="translate(-271.599 -13.624)" fill="#21418e"/><path d="M258.546,129.462a.467.467,0,0,0,0-.934A.467.467,0,0,0,258.546,129.462Z" transform="translate(-242.014 -120.527)" fill="#21418e"/><path d="M350.22,290.949a.467.467,0,0,0,0,.934A.467.467,0,0,0,350.22,290.949Z" transform="translate(-327.981 -272.836)" fill="#21418e"/><path d="M.465,263.6a.467.467,0,0,0,0-.934A.467.467,0,0,0,.465,263.6Z" transform="translate(0 -246.318)" fill="#21418e"/><path d="M.72,497.028a.467.467,0,0,0,0,.934A.467.467,0,0,0,.72,497.028Z" transform="translate(-0.239 -466.085)" fill="#21418e"/><path d="M35.72,334.528a.467.467,0,0,0,0,.934A.467.467,0,0,0,35.72,334.528Z" transform="translate(-33.06 -313.702)" fill="#21418e"/><path d="M478.122,407.952a.467.467,0,0,0,0,.934A.467.467,0,0,0,478.122,407.952Z" transform="translate(-447.92 -382.555)" fill="#21418e"/><path d="M458.525,336.528a.467.467,0,0,0,0,.934A.467.467,0,0,0,458.525,336.528Z" transform="translate(-429.543 -315.577)" fill="#21418e"/><path d="M148.22,469.223a.467.467,0,0,0,0,.934A.467.467,0,0,0,148.22,469.223Z" transform="translate(-138.556 -440.011)" fill="#21418e"/><path d="M.531,2.156a.465.465,0,0,0,.33-.137L2.081.8c.413-.413-.228-1.092-.66-.66L.2,1.358a.469.469,0,0,0,.33.8Z" transform="translate(-0.05 0)" fill="#21418e"/><path d="M218.105,45.688c.416.416,1.081-.24.66-.66l-1.22-1.22c-.413-.413-1.092.228-.66.66Z" transform="translate(-203.24 -40.955)" fill="#21418e"/><path d="M322.183,384.955l-1.22,1.22c-.413.413.234,1.086.66.66l1.22-1.22C323.257,385.2,322.615,384.523,322.183,384.955Z" transform="translate(-300.844 -360.86)" fill="#21418e"/><path d="M20.382,408.144c-.413-.413-1.092.228-.66.66l1.22,1.22c.416.416,1.081-.24.66-.66Z" transform="translate(-18.351 -382.61)" fill="#21418e"/><path d="M458.589,477.622c-.413-.413-1.092.228-.66.66l1.22,1.22c.417.417,1.081-.24.66-.66Z" transform="translate(-429.277 -447.763)" fill="#21418e"/><path d="M479.5,245.781a.467.467,0,0,0-.66,0l-1.22,1.22c-.413.413.234,1.086.66.66l1.22-1.22A.467.467,0,0,0,479.5,245.781Z" transform="translate(-447.75 -230.352)" fill="#21418e"/><path d="M280.36,477.622c-.413-.413-1.092.228-.66.66l1.22,1.22c.416.417,1.081-.24.66-.66Z" transform="translate(-262.144 -447.763)" fill="#21418e"/></g></svg>