<svg xmlns="http://www.w3.org/2000/svg" width="28.622" height="27.963" viewBox="0 0 28.622 27.963">
  <g id="exchange-transfer-money-bank-financial" transform="translate(-1.293 -2)">
    <path id="Path_11699" data-name="Path 11699" d="M15.26,14.389a.466.466,0,0,1-.466-.466.466.466,0,0,0-.466-.466H12.464a.466.466,0,0,0-.466.466,3.267,3.267,0,0,0,1.864,2.945v.783a.466.466,0,0,0,.466.466h1.864a.466.466,0,0,0,.466-.466v-.783a3.262,3.262,0,0,0-1.4-6.207.466.466,0,1,1,.466-.466.466.466,0,0,0,.466.466h1.864a.466.466,0,0,0,.466-.466,3.267,3.267,0,0,0-1.864-2.945V6.466A.466.466,0,0,0,16.192,6H14.328a.466.466,0,0,0-.466.466v.778a3.264,3.264,0,0,0,1.4,6.213.466.466,0,1,1,0,.932Zm0-1.864a2.322,2.322,0,0,1-1.809-.862,2.351,2.351,0,0,1-.466-1.975A2.3,2.3,0,0,1,14.483,8a.466.466,0,0,0,.311-.44V6.932h.932V7.56A.466.466,0,0,0,16.037,8a2.336,2.336,0,0,1,1.507,1.729h-.965a1.4,1.4,0,1,0-1.318,1.864,2.33,2.33,0,0,1,.777,4.525.466.466,0,0,0-.311.439v.629h-.932v-.629a.466.466,0,0,0-.311-.439,2.335,2.335,0,0,1-1.507-1.729h.964a1.4,1.4,0,1,0,1.319-1.864Z" transform="translate(-5.715 -2.136)" fill="#21418e"/>
    <path id="Path_11700" data-name="Path 11700" d="M9.923,17.846A7.923,7.923,0,1,0,2,9.923,7.923,7.923,0,0,0,9.923,17.846Zm0-14.913A6.991,6.991,0,1,1,2.932,9.923,6.991,6.991,0,0,1,9.923,2.932Z" transform="translate(-0.378 0)" fill="#21418e"/>
    <path id="Path_11701" data-name="Path 11701" d="M35.923,28a7.923,7.923,0,1,0,7.923,7.923A7.923,7.923,0,0,0,35.923,28Zm0,14.913a6.991,6.991,0,1,1,6.991-6.991A6.991,6.991,0,0,1,35.923,42.913Z" transform="translate(-14.26 -13.883)" fill="#21418e"/>
    <path id="Path_11702" data-name="Path 11702" d="M44.119,36.794l-4.66-4.66a.47.47,0,0,0-.662,0l-4.66,4.66a.466.466,0,0,0-.1.508.46.46,0,0,0,.429.289h1.4v3.262H35.4a.466.466,0,0,0-.466.466v1.864a.466.466,0,0,0,.466.466h7.457a.466.466,0,0,0,.466-.466V41.32a.466.466,0,0,0-.466-.466H42.39V37.591h1.4a.46.46,0,0,0,.429-.289A.466.466,0,0,0,44.119,36.794ZM42.39,42.718H35.865v-.932H42.39ZM36.8,40.854V37.591h.932v3.262Zm1.864,0V37.591h.932v3.262Zm1.864,0V37.591h.932v3.262ZM35.59,36.659l3.537-3.537,3.537,3.537Z" transform="translate(-17.465 -16.017)" fill="#21418e"/>
    <circle id="Ellipse_291" data-name="Ellipse 291" cx="0.932" cy="0.932" r="0.932" transform="translate(20.73 18.312)" fill="#21418e"/>
    <path id="Path_11703" data-name="Path 11703" d="M4.021,35.659l1,1L5.68,36,3.816,34.137a.466.466,0,0,0-.659,0L1.293,36l.659.659,1.119-1.119a11.666,11.666,0,0,0,11.6,10.576v-.932A10.733,10.733,0,0,1,4.021,35.659Z" transform="translate(0 -17.087)" fill="#21418e"/>
    <path id="Path_11704" data-name="Path 11704" d="M44.651,14.458l-1-1-.659.659,1.864,1.864a.466.466,0,0,0,.659,0l1.864-1.864-.659-.659L45.6,14.576A11.666,11.666,0,0,0,34,4v.932a10.733,10.733,0,0,1,10.651,9.526Z" transform="translate(-17.464 -1.068)" fill="#21418e"/>
  </g>
</svg>
