<svg xmlns="http://www.w3.org/2000/svg" width="32" height="32.002" viewBox="0 0 32 32.002"><g transform="translate(-16 -15.998)"><path d="M353.27,65.034V53.886l.22-1.1a43.722,43.722,0,0,0,.847-8.451L355.99,40.2a2.009,2.009,0,0,0-.748-2.407l-.038-.025a7.315,7.315,0,0,0-8.136,0l-.038.025a2.009,2.009,0,0,0-.748,2.407l1.654,4.135a43.722,43.722,0,0,0,.847,8.451l.22,1.1V65.034a2.133,2.133,0,1,0,4.267,0ZM348.831,43.7l-1.557-3.894a.938.938,0,0,1,.349-1.123l.038-.025a6.251,6.251,0,0,1,6.953,0l.038.025A.938.938,0,0,1,355,39.806L353.442,43.7H352.32l.406-2.029a.533.533,0,0,0-1.046-.209l-.447,2.238h-.192l-.448-2.238a.533.533,0,1,0-1.046.209l.406,2.029ZM352.2,65.034a1.067,1.067,0,0,1-2.133,0V54.367H352.2Zm.1-11.734h-2.326l-.144-.721a42.661,42.661,0,0,1-.823-7.813h4.26q-.02,1.6-.162,3.2H351.67a.533.533,0,0,0,0,1.067H353q-.2,1.785-.554,3.546Z" transform="translate(-308.131 -19.167)" fill="#21418e"/><path d="M291.159,252.286l-1.046-.349a1.2,1.2,0,0,0-1.58,1.138v5.475a.533.533,0,0,0-.533.533v8.534a.533.533,0,0,0,.533.533H292.8a.533.533,0,0,0,.533-.533v-8.534a.533.533,0,0,0-.533-.533v-3.988A2.4,2.4,0,0,0,291.159,252.286Zm-1.559.79a.133.133,0,0,1,.176-.127l1.046.349a1.332,1.332,0,0,1,.912,1.265v3.988H289.6Zm2.667,14.009h-3.2v-5.334h3.2Zm0-6.4h-3.2v-1.067h3.2Z" transform="translate(-253.866 -220.152)" fill="#21418e"/><path d="M16,267.215v.267a4.539,4.539,0,0,0,4.534,4.534h8a4.539,4.539,0,0,0,4.534-4.534v-.267a.533.533,0,0,0-.533-.533H31.281a7.467,7.467,0,1,0-13.494,0H16.533A.533.533,0,0,0,16,267.215Zm8.534-10.134a6.4,6.4,0,0,1,5.543,9.6H28.8a5.335,5.335,0,1,0-8.536,0H18.991a6.4,6.4,0,0,1,5.543-9.6Zm.75,2.2a4.234,4.234,0,0,1,1.261.438l-5.19,6.606a4.267,4.267,0,0,1-.642-.948Zm-4.967,4.844a4.26,4.26,0,0,1,3.655-4.874Zm7.1-3.788a4.286,4.286,0,0,1,1.025,1.43s-3.833,4.884-3.848,4.914H22.431Zm-4.482,7.411h3.2a.533.533,0,0,1,0,1.067h-3.2a.533.533,0,0,1,0-1.067Zm3-1.067,2.844-3.62c.013.138.021.278.021.419a4.247,4.247,0,0,1-1.446,3.2Zm-4.511,1.067a1.6,1.6,0,0,0,1.508,2.133h3.2a1.6,1.6,0,0,0,1.508-2.133h4.348a3.471,3.471,0,0,1-3.457,3.2h-8a3.472,3.472,0,0,1-3.457-3.2Z" transform="translate(0 -224.015)" fill="#21418e"/><path d="M240.237,91.106l.855.57a2.845,2.845,0,0,1,.965,1.093l.133.265a.533.533,0,0,0,.954,0l.133-.265a2.845,2.845,0,0,1,.965-1.093l.855-.57a.533.533,0,0,0-.127-.95,2.854,2.854,0,0,1-1.8-1.8.533.533,0,0,0-1.012,0,2.853,2.853,0,0,1-1.8,1.8.533.533,0,0,0-.127.95Zm2.429-1.406a3.945,3.945,0,0,0,1.066,1.033l-.083.056a3.911,3.911,0,0,0-.983.94,3.911,3.911,0,0,0-.983-.94l-.083-.056A3.945,3.945,0,0,0,242.666,89.7Z" transform="translate(-209.065 -67.197)" fill="#21418e"/><path d="M156.968,138.159a2.853,2.853,0,0,1-1.8-1.8.533.533,0,0,0-1.012,0,2.853,2.853,0,0,1-1.8,1.8.533.533,0,0,0-.127.95l.855.57a2.845,2.845,0,0,1,.965,1.093l.133.265a.533.533,0,0,0,.954,0l.133-.265a2.845,2.845,0,0,1,.965-1.093l.855-.57a.533.533,0,0,0-.127-.95Zm-1.319.632a3.911,3.911,0,0,0-.983.94,3.91,3.91,0,0,0-.983-.94l-.083-.056a3.945,3.945,0,0,0,1.066-1.033,3.945,3.945,0,0,0,1.066,1.033Z" transform="translate(-126.932 -112)" fill="#21418e"/><path d="M188.241,19.679l.855-.57a.533.533,0,0,0-.127-.95,2.854,2.854,0,0,1-1.8-1.8.533.533,0,0,0-1.012,0,2.854,2.854,0,0,1-1.8,1.8.533.533,0,0,0-.127.95l.855.57a2.845,2.845,0,0,1,.965,1.093l.133.265a.533.533,0,0,0,.954,0l.133-.265A2.845,2.845,0,0,1,188.241,19.679Zm-1.575.053a3.91,3.91,0,0,0-.983-.94l-.083-.056a3.945,3.945,0,0,0,1.066-1.033,3.945,3.945,0,0,0,1.066,1.033l-.083.056A3.912,3.912,0,0,0,186.666,19.731Z" transform="translate(-156.799)" fill="#21418e"/></g></svg>