<svg xmlns="http://www.w3.org/2000/svg" width="914.266" height="88.628" viewBox="0 0 914.266 88.628">
  <g id="Group_3053" data-name="Group 3053" transform="translate(-10014.999 1305)">
    <g id="Page-1" transform="translate(10014.999 -1305)">
      <g id="amex" transform="translate(0 0)">
        <g id="card">
          <path id="shape" d="M124.985,88.628H12.288A11.2,11.2,0,0,1,1,77.526V11.1A11.2,11.2,0,0,1,12.288,0h112.7a11.2,11.2,0,0,1,11.288,11.1V77.573a11.2,11.2,0,0,1-11.288,11.055Z" transform="translate(1.985 0)" fill="#1d91ce" fill-rule="evenodd"/>
          <path id="shape-2" data-name="shape" d="M22.3,33.5l-2.2,5.15H.36L15.935,6h37.2l3.755,7.211L60.4,6h50.154l4.287,4.483L119.443,6h23.29L126.2,22.289,142.02,38.652H119.48l-5.042-4.809-5,4.809H28.982L26.561,33.5" transform="translate(-0.36 21.988)" fill="#fff" fill-rule="evenodd"/>
          <path id="shape-3" data-name="shape" d="M19.612,30.183h0ZM67.285,7h-9.8l-7.37,15.626L42.189,7h-9.8V29.623L22.271,7H13.082L2.26,30.323H8.884l2.192-5.318H23.671l2.519,5.318H38.364V11.338l8.63,18.985h5.691l8.583-18.658V30.323h6.017Zm40.442,7.557L100.73,7H72.649V30.323H99.8l7.7-7.65,7.743,7.65h7.23l-11.055-11.8L122.794,7h-7.557l-7.51,7.557ZM92.94,25.658H78.666V20.527H92.94V15.863H78.666v-4.2H92.94V7.7l10.589,10.589L92.94,28.924ZM17.513,10.825l4.1,9.469H13.082l4.431-9.469Z" transform="translate(6.603 25.653)" fill="#1d91ce" fill-rule="evenodd"/>
        </g>
      </g>
    </g>
    <g id="Page-1-2" data-name="Page-1" transform="translate(10178.262 -1305)">
      <g id="discover" transform="translate(0 0)">
        <g id="card-2" data-name="card">
          <path id="shape-4" data-name="shape" d="M123.985,88.628H11.288A11.2,11.2,0,0,1,0,77.526V11.1A11.2,11.2,0,0,1,11.288,0h112.7a11.2,11.2,0,0,1,11.288,11.1V77.573A11.2,11.2,0,0,1,123.985,88.628Z" transform="translate(0 0)" fill="#ebf1f8" fill-rule="evenodd"/>
          <path id="shape-5" data-name="shape" d="M15.24,38.166h52.9a11.2,11.2,0,0,0,11.288-11.1V13.77a218.349,218.349,0,0,1-64.185,24.4Z" transform="translate(55.849 50.462)" fill="#f27712" fill-rule="evenodd"/>
          <path id="shape-6" data-name="shape" d="M126.945,25.192h-4.8l-5.411-7.137h-.513v7.137H112.3V7.466h5.784c4.525,0,7.137,1.866,7.137,5.224,0,2.752-1.633,4.525-4.571,5.084ZM121.16,12.831c0-1.726-1.306-2.612-3.732-2.612h-1.213v5.364h1.12C119.854,15.583,121.16,14.65,121.16,12.831ZM98.584,7.466h11.1v2.985H102.5v3.965h6.9v3.032h-6.9v4.8h7.184v2.985h-11.1V7.466ZM85.989,25.658,77.5,7.42h4.291l5.364,11.941L92.566,7.42h4.2L88.182,25.658h-2.1Zm-35.5-.047c-5.971,0-10.635-4.058-10.635-9.329C39.856,11.152,44.614,7,50.585,7a11.371,11.371,0,0,1,4.8,1.073v4.1a7,7,0,0,0-4.9-2.006,6.276,6.276,0,0,0-6.577,6.111c0,3.592,2.8,6.157,6.764,6.157a6.6,6.6,0,0,0,4.711-1.959v4.1A12,12,0,0,1,50.492,25.612ZM38.643,19.781c0,3.452-2.845,5.831-6.95,5.831a8.106,8.106,0,0,1-6.95-3.359l2.566-2.192a4.586,4.586,0,0,0,4.245,2.379c1.773,0,3.032-1.073,3.032-2.472A2.063,2.063,0,0,0,33.419,18.1a16.233,16.233,0,0,0-2.705-1.026c-3.685-1.166-4.944-2.426-4.944-4.9,0-2.892,2.705-5.084,6.251-5.084A9.469,9.469,0,0,1,37.944,9.1l-2.052,2.332a4.291,4.291,0,0,0-3.172-1.4c-1.679,0-2.892.84-2.892,1.959,0,.933.7,1.446,3.032,2.239,4.478,1.4,5.784,2.705,5.784,5.6ZM19.379,7.466H23.3V25.239H19.379ZM6.784,25.239H1V7.466H6.784c6.344,0,10.729,3.638,10.729,8.863a8.518,8.518,0,0,1-3.592,6.857,11.6,11.6,0,0,1-7.184,2.052ZM11.355,11.9c-1.306-1.026-2.8-1.4-5.364-1.4H4.918V22.253H5.991a8.481,8.481,0,0,0,5.364-1.4A5.918,5.918,0,0,0,13.5,16.329,5.661,5.661,0,0,0,11.355,11.9Z" transform="translate(3.665 25.653)" fill-rule="evenodd"/>
          <path id="shape-7" data-name="shape" d="M22.329,7A9.268,9.268,0,0,0,13,16.189a9.187,9.187,0,0,0,9.329,9.469,9.239,9.239,0,0,0,9.329-9.329A9.21,9.21,0,0,0,22.329,7Z" transform="translate(47.64 25.653)" fill="#f27712" fill-rule="evenodd"/>
        </g>
      </g>
    </g>
    <g id="Page-1-3" data-name="Page-1" transform="translate(10332.194 -1305)">
      <g id="diners" transform="translate(0 0)">
        <g id="card-3" data-name="card">
          <path id="shape-8" data-name="shape" d="M123.985,88.628H11.288A11.2,11.2,0,0,1,0,77.526V11.1A11.2,11.2,0,0,1,11.288,0h112.7a11.2,11.2,0,0,1,11.288,11.1V77.573A11.2,11.2,0,0,1,123.985,88.628Z" transform="translate(0 0)" fill="#ebf1f8" fill-rule="evenodd"/>
          <path id="shape-9" data-name="shape" d="M37.479,2.093V2H60.8v.093a34.985,34.985,0,0,1,0,69.783v.093H37.479v-.093a34.985,34.985,0,0,1,0-69.783Z" transform="translate(18.497 7.33)" fill="#0165ac" fill-rule="evenodd"/>
          <path id="shape-10" data-name="shape" d="M43.317,53.1a20.991,20.991,0,0,0,0-39.556ZM29.323,13.542a20.991,20.991,0,0,0,0,39.556Zm7,50.1A30.32,30.32,0,1,1,66.64,33.32,30.32,30.32,0,0,1,36.32,63.64Z" transform="translate(21.988 10.994)" fill="#fff" fill-rule="evenodd"/>
        </g>
      </g>
    </g>
    <g id="Page-1-4" data-name="Page-1" transform="translate(10486.128 -1305)">
      <g id="jcb" transform="translate(0 0)">
        <g id="card-4" data-name="card">
          <path id="shape-11" data-name="shape" d="M123.985,88.628H11.288A11.2,11.2,0,0,1,0,77.526V11.1A11.2,11.2,0,0,1,11.288,0h112.7a11.2,11.2,0,0,1,11.288,11.1V77.573A11.2,11.2,0,0,1,123.985,88.628Z" transform="translate(0 0)" fill="#ebf1f8" fill-rule="evenodd"/>
          <path id="shape-12" data-name="shape" d="M5,71.969H23.658c4.245,0,9.329-5.224,9.329-9.329V2H14.329C10.084,2,5,7.224,5,15.994Z" transform="translate(18.323 7.33)" fill="#047ab1" fill-rule="evenodd"/>
          <path id="shape-13" data-name="shape" d="M15.594,30.976A38.263,38.263,0,0,1,5,29.481l.007-5.129a18.192,18.192,0,0,0,8.863,2.705c3.592,0,5.6-2.519,5.6-5.971V7h8.863V21.087C28.329,26.591,25.437,30.976,15.594,30.976Z" transform="translate(18.317 25.653)" fill="#fff" fill-rule="evenodd"/>
          <path id="shape-14" data-name="shape" d="M12,71.969H30.658c4.245,0,9.329-5.224,9.329-9.329V2H21.329C17.084,2,12,7.224,12,15.994Z" transform="translate(43.975 7.33)" fill="#d42d06" fill-rule="evenodd"/>
          <path id="shape-15" data-name="shape" d="M12,10.783c2.705-2.612,7.37-4.245,14.927-3.872a42.971,42.971,0,0,1,8.4,1.4v5.178a18.985,18.985,0,0,0-8.07-2.659c-5.737-.513-9.236,2.705-9.236,8.35s3.5,8.863,9.236,8.4a19.265,19.265,0,0,0,8.07-2.705V30a41.231,41.231,0,0,1-8.4,1.446C19.37,31.821,14.705,30.188,12,27.576Z" transform="translate(43.975 25.135)" fill="#fff" fill-rule="evenodd"/>
          <path id="shape-16" data-name="shape" d="M19,71.969H37.658c4.245,0,9.329-5.224,9.329-9.329V2H28.329C24.084,2,19,7.224,19,15.994Z" transform="translate(69.628 7.33)" fill="#67b637" fill-rule="evenodd"/>
          <path id="shape-17" data-name="shape" d="M42.323,24.259c0,3.732-2.892,6.064-6.764,6.064H19V7H34.067l1.073.047c3.405.187,5.924,2.192,5.924,5.644a5.555,5.555,0,0,1-4.851,5.6v.14c3.452.233,6.111,2.426,6.111,5.831ZM30.428,10.685a4.245,4.245,0,0,0-.606-.047h-5.6v5.877h6.2a2.887,2.887,0,0,0,2.146-2.939A2.8,2.8,0,0,0,30.428,10.685Zm.7,9.516a4.011,4.011,0,0,0-.746-.047H24.224v6.391h6.157l.746-.093a3.08,3.08,0,0,0,2.146-3.125A3.068,3.068,0,0,0,31.128,20.2Z" transform="translate(69.628 25.653)" fill="#fff" fill-rule="evenodd"/>
        </g>
      </g>
    </g>
    <g id="Page-1-5" data-name="Page-1" transform="translate(10640.059 -1305)">
      <g id="visa" transform="translate(0 0)">
        <g id="card-5" data-name="card">
          <path id="shape-18" data-name="shape" d="M123.985,88.628H11.288A11.2,11.2,0,0,1,0,77.526V11.1A11.2,11.2,0,0,1,11.288,0h112.7a11.2,11.2,0,0,1,11.288,11.1V77.573A11.2,11.2,0,0,1,123.985,88.628Z" transform="translate(0 0)" fill="#f6f9fc" fill-rule="evenodd"/>
          <path id="shape-19" data-name="shape" d="M0,16v2.939A11.2,11.2,0,0,0,11.288,29.994h112.7a11.2,11.2,0,0,0,11.288-11.1V16Z" transform="translate(0 58.634)" fill="#f99f1b" fill-rule="evenodd"/>
          <path id="shape-20" data-name="shape" d="M0,13.994V11.055A11.2,11.2,0,0,1,11.288,0h112.7a11.2,11.2,0,0,1,11.288,11.1v2.892ZM64.838,28.548l-6.9,31.579H49.678l6.81-31.579h8.3ZM99.683,48.979l4.385-11.895,2.519,11.895h-6.9Zm9.283,11.2h7.65L109.9,28.548h-7.044A3.732,3.732,0,0,0,99.31,30.88L86.855,60.127h8.723L97.3,55.463h10.635l1.026,4.665ZM87.322,49.818c0-8.3-11.708-8.769-11.662-12.5.047-1.12,1.166-2.332,3.545-2.659a15.86,15.86,0,0,1,8.163,1.4l1.446-6.67a22.537,22.537,0,0,0-7.743-1.4c-8.21,0-13.994,4.291-13.994,10.449-.047,4.525,4.1,7.09,7.23,8.583,3.265,1.539,4.338,2.566,4.338,3.918-.047,2.146-2.612,3.079-4.991,3.079a17.009,17.009,0,0,1-8.49-1.959l-1.539,6.9a25.708,25.708,0,0,0,9.236,1.679C81.584,60.64,87.275,56.442,87.322,49.818ZM52.943,28.548,39.509,60.174H30.786L24.163,34.985a3.692,3.692,0,0,0-2.006-2.8,35.125,35.125,0,0,0-8.163-2.659l.187-.933H28.314a3.908,3.908,0,0,1,3.825,3.265l3.5,18.239,8.63-21.457h8.676Z" transform="translate(0 0)" fill="#2d4990" fill-rule="evenodd"/>
        </g>
      </g>
    </g>
    <g id="Page-1-6" data-name="Page-1" transform="translate(10793.991 -1305)">
      <g id="mastercard" transform="translate(0 0)">
        <g id="card-6" data-name="card">
          <path id="shape-21" data-name="shape" d="M123.985,88.628H11.288A11.2,11.2,0,0,1,0,77.526V11.1A11.2,11.2,0,0,1,11.288,0h112.7a11.2,11.2,0,0,1,11.288,11.1V77.573A11.2,11.2,0,0,1,123.985,88.628Z" transform="translate(0 0)" fill="#003663" fill-rule="evenodd"/>
          <ellipse id="shape-22" data-name="shape" cx="30.5" cy="30" rx="30.5" ry="30" transform="translate(18.009 14)" fill="#eb1c26"/>
          <ellipse id="shape-23" data-name="shape" cx="31" cy="30" rx="31" ry="30" transform="translate(55.009 14)" fill="#f99f1b"/>
          <path id="shape-24" data-name="shape" d="M23.668,4.38a30.273,30.273,0,0,0,0,47.766,30.273,30.273,0,0,0,0-47.766Z" transform="translate(43.969 16.051)" fill="#ef5d20" fill-rule="evenodd"/>
        </g>
      </g>
    </g>
  </g>
</svg>
