<svg xmlns="http://www.w3.org/2000/svg" width="32" height="31.992" viewBox="0 0 32 31.992"><g transform="translate(0 -0.059)"><g transform="translate(0 0.059)"><path d="M31.661,5.288,24.379,1.54A5.186,5.186,0,0,0,21.624.729L15.262.159c-.22-.02-.4-.039-.55-.057a2.531,2.531,0,0,0-2.14.565L12.532.69c-1.145.675-2.176,1.264-3.267,1.889-.478.273-.964.551-1.471.843l-.188.108a2.994,2.994,0,0,0-1.44,1.393L4.005,8.564a1.878,1.878,0,0,0-.271,1.7,1.3,1.3,0,0,0,.909.668,4.064,4.064,0,0,0,.014,2A3.887,3.887,0,0,0,6,14.981c.062.049.125.094.189.138a5.133,5.133,0,0,0,1.229,4.724,3.277,3.277,0,0,1-1-.3L.883,17.035A.625.625,0,0,0,0,17.6v8.663a.625.625,0,0,0,.339.556l7.282,3.748a5.186,5.186,0,0,0,2.755.811l6.362.57c.22.02.4.039.55.057a5.444,5.444,0,0,0,.589.043,2.808,2.808,0,0,0,1.551-.608l.039-.023c1.144-.674,2.175-1.264,3.266-1.888.478-.274.965-.552,1.472-.843l.188-.107a2.994,2.994,0,0,0,1.44-1.393L28,23.547a1.878,1.878,0,0,0,.271-1.7,1.165,1.165,0,0,0-.511-.516,4.084,4.084,0,0,0,.018-2.108,3.887,3.887,0,0,0-1.345-2.051c-.064-.05-.129-.1-.2-.143a5.308,5.308,0,0,0-1.343-4.7,3.748,3.748,0,0,1,.689.243l5.538,2.511A.625.625,0,0,0,32,14.507V5.844a.625.625,0,0,0-.339-.556ZM25.052,16.48a4.091,4.091,0,0,0-3.471.747.625.625,0,1,0,.74,1.007,2.66,2.66,0,0,1,3.334-.083,2.691,2.691,0,0,1,.873,2.926c-1.229-.034-1.693.479-2.525,1.4l-1.784,1.974-.2.222a2.251,2.251,0,0,1-1.311.886l-2.4.907a2.6,2.6,0,0,1-.818.238,2.9,2.9,0,0,1-.8-.313L14.221,25.22c-.416-.2-.593-.388-.618-.491-.017-.069.05-.17.091-.224l.351-.459c.425-.556.611-.535,1.644-.42l2.747.305h.012a2,2,0,0,0,2.21-1.716,1.96,1.96,0,0,0-1.366-2.323l-.025-.006-.338-.071a.625.625,0,0,0-.258,1.223l.324.068c.41.112.483.6.432.9a.753.753,0,0,1-.858.683l-2.741-.3c-1.116-.124-1.922-.214-2.776.9l-.351.459a1.474,1.474,0,0,0-.313,1.277,2.126,2.126,0,0,0,1.3,1.326l2.468,1.172a2.437,2.437,0,0,0,2.6.115l2.4-.907a3.389,3.389,0,0,0,1.8-1.223l.195-.217,1.784-1.974c.862-.954.973-1.076,1.948-.959a1.013,1.013,0,0,1,.254.056,1.459,1.459,0,0,1-.213.5l-2.161,3.642a1.855,1.855,0,0,1-.984.945l-.193.11c-.506.291-.991.569-1.469.842-1.095.626-2.129,1.218-3.28,1.9l-.039.023a4.838,4.838,0,0,1-.793.424,1.767,1.767,0,0,1-.573-.024c-.153-.017-.344-.039-.578-.059l-6.363-.57a4.164,4.164,0,0,1-2.294-.677L1.25,25.886V18.574L5.9,20.685a4.311,4.311,0,0,0,3.535.092l2.271-.734a2.742,2.742,0,0,1,1.486-.148.625.625,0,1,0,.192-1.235,3.963,3.963,0,0,0-2.062.194l-2.085.673c-1.38-.472-2.123-2.044-1.874-3.863a3.731,3.731,0,0,0,.954.124,4.132,4.132,0,0,0,1.953-.507,2.982,2.982,0,0,0,.6.608,2.871,2.871,0,0,0,1.755.605,2.945,2.945,0,0,0,1.475-.4.625.625,0,1,0-.625-1.082,1.617,1.617,0,0,1-1.844-.111,1.386,1.386,0,0,1-.584-1.416.625.625,0,1,0-1.207-.324,2.346,2.346,0,0,0-.05.964A2.608,2.608,0,0,1,6.775,14a2.7,2.7,0,0,1-.861-2.978c.913-.092,1.358-.585,2.082-1.386L9.781,7.66l.2-.222a2.251,2.251,0,0,1,1.311-.886l2.4-.907a2.6,2.6,0,0,1,.818-.238,2.9,2.9,0,0,1,.8.313l2.468,1.172c.416.2.593.388.618.491.017.069-.05.17-.091.224l-.351.459c-.425.556-.611.536-1.644.42l-2.747-.305h-.012A2,2,0,0,0,11.342,9.9a1.96,1.96,0,0,0,1.367,2.323l.025.006,5.272,1.112a4.313,4.313,0,0,0,2.668-.079l2.257-.729a3.613,3.613,0,0,1,2.122,3.951Zm5.7-2.943L26.1,11.426A4.219,4.219,0,0,0,24.312,11a5.663,5.663,0,0,0-1.752.334l-2.271.734a3.107,3.107,0,0,1-2.026.045L13.006,11c-.41-.112-.483-.6-.432-.9a.754.754,0,0,1,.858-.683l2.741.3c1.116.124,1.922.214,2.776-.9l.351-.459a1.474,1.474,0,0,0,.313-1.277,2.126,2.126,0,0,0-1.3-1.326L15.848,4.59a2.437,2.437,0,0,0-2.6-.115l-2.4.907A3.389,3.389,0,0,0,9.049,6.6l-.2.217L7.078,8.787,7.07,8.8c-.862.954-.972,1.076-1.948.959A1.012,1.012,0,0,1,4.867,9.7a1.458,1.458,0,0,1,.213-.5L7.241,5.56a1.854,1.854,0,0,1,.984-.945l.193-.11c.506-.291.991-.568,1.468-.841,1.095-.626,2.129-1.218,3.281-1.9l.04-.023A4.839,4.839,0,0,1,14,1.32a1.773,1.773,0,0,1,.573.024c.153.017.344.039.578.059l6.363.57a4.164,4.164,0,0,1,2.294.677L30.75,6.225Z" transform="translate(0 -0.059)" fill="#21418e"/><path d="M247.386,306.654h0a.625.625,0,1,0,.625.625A.625.625,0,0,0,247.386,306.654Z" transform="translate(-231.339 -287.492)" fill="#21418e"/></g></g></svg>