<svg xmlns="http://www.w3.org/2000/svg" width="53.021" height="52.818" viewBox="0 0 53.021 52.818"><g transform="translate(5.069 -0.919)"><path d="M54.763,22.611l-7.07-7.07a.881.881,0,0,0-.625-.259H38.406a35.708,35.708,0,0,0-5.125-12.65.884.884,0,0,0-1.222-.26L2.4,21.61a.884.884,0,0,0,0,1.483L32.06,42.331a.885.885,0,0,0,.481.142.868.868,0,0,0,.185-.019.885.885,0,0,0,.558-.384,36.4,36.4,0,0,0,2.909-5.485l4.691,4.691v12.89a.884.884,0,0,0,.884.884H54.138a.884.884,0,0,0,.884-.884V23.235A.881.881,0,0,0,54.763,22.611Zm-15.648-.259h2.651v8.471L38.7,27.757A35.921,35.921,0,0,0,39.115,22.352ZM32.27,40.36,4.507,22.352,32.271,4.342a33.945,33.945,0,0,1,4.542,11.979,34.335,34.335,0,0,1,.526,5.173c.009.283.009.574.009.857A34.25,34.25,0,0,1,37.1,26.4a4,4,0,0,0-4.765,6.328l2.5,2.5A34.361,34.361,0,0,1,32.27,40.36Zm20.984,12.92H42.65V40.909a.881.881,0,0,0-.259-.625l-8.8-8.8a2.232,2.232,0,0,1,0-3.169,2.284,2.284,0,0,1,3.169,0l5.267,5.267a.883.883,0,0,0,1.508-.625V21.468a.884.884,0,0,0-.884-.884H39.068c-.058-1.176-.174-2.359-.349-3.535H46.7L53.254,23.6Z" transform="translate(-7.069 -1.311)" fill="#21418e"/><rect width="12.56" height="1.767" transform="translate(16.339 26.209) rotate(-50.714)" fill="#21418e"/><path d="M22.3,21.651A2.651,2.651,0,1,0,19.651,24.3,2.654,2.654,0,0,0,22.3,21.651Zm-3.535,0a.884.884,0,1,1,.884.884A.885.885,0,0,1,18.767,21.651Z" transform="translate(-1.745 -1.95)" fill="#21418e"/><path d="M26.651,24A2.651,2.651,0,1,0,29.3,26.651,2.654,2.654,0,0,0,26.651,24Zm0,3.535a.884.884,0,1,1,.884-.884A.885.885,0,0,1,26.651,27.535Z" transform="translate(-2.559 -2.532)" fill="#21418e"/></g></svg>