<svg id="credit-card" xmlns="http://www.w3.org/2000/svg" width="38" height="28.258" viewBox="0 0 38 28.258">
  <path id="Path_11705" data-name="Path 11705" d="M63.972,173.5H57.582a1.4,1.4,0,0,0-1.4,1.4v5.044a1.4,1.4,0,0,0,1.4,1.4h6.389a1.4,1.4,0,0,0,1.4-1.4V174.9A1.4,1.4,0,0,0,63.972,173.5Zm.284,1.4v1.965H61.333v-2.249h2.638A.284.284,0,0,1,64.255,174.9ZM57.3,179.945V174.9a.284.284,0,0,1,.284-.284H60.22v5.612H57.582A.284.284,0,0,1,57.3,179.945Zm6.673.284H61.334V177.98h2.922v1.965A.284.284,0,0,1,63.972,180.229Z" transform="translate(-52.015 -165.498)" fill="#21418e"/>
  <path id="Path_11706" data-name="Path 11706" d="M56.185,358.825a.557.557,0,0,0,.557.557h16.38a.557.557,0,0,0,0-1.113H56.742A.557.557,0,0,0,56.185,358.825Z" transform="translate(-52.015 -336.549)" fill="#21418e"/>
  <path id="Path_11707" data-name="Path 11707" d="M56.742,386.834a.557.557,0,1,0,0,1.113h8.19a.557.557,0,0,0,0-1.113Z" transform="translate(-52.015 -362.995)" fill="#21418e"/>
  <path id="Path_11708" data-name="Path 11708" d="M182.991,306.257v-1.346a.557.557,0,0,0-1.113,0v1.346a.557.557,0,0,0,1.113,0Z" transform="translate(-168.379 -286.637)" fill="#21418e"/>
  <path id="Path_11709" data-name="Path 11709" d="M217.272,306.257v-1.346a.557.557,0,0,0-1.113,0v1.346a.557.557,0,0,0,1.113,0Z" transform="translate(-200.116 -286.637)" fill="#21418e"/>
  <path id="Path_11710" data-name="Path 11710" d="M251.551,306.257v-1.346a.557.557,0,0,0-1.113,0v1.346a.557.557,0,0,0,1.113,0Z" transform="translate(-231.851 -286.637)" fill="#21418e"/>
  <path id="Path_11711" data-name="Path 11711" d="M285.832,306.257v-1.346a.557.557,0,0,0-1.113,0v1.346a.557.557,0,0,0,1.113,0Z" transform="translate(-263.587 -286.637)" fill="#21418e"/>
  <path id="Path_11712" data-name="Path 11712" d="M341.852,304.912v1.346a.557.557,0,0,0,1.113,0v-1.346a.557.557,0,0,0-1.113,0Z" transform="translate(-316.48 -286.637)" fill="#21418e"/>
  <path id="Path_11713" data-name="Path 11713" d="M376.132,304.912v1.346a.557.557,0,0,0,1.113,0v-1.346a.557.557,0,0,0-1.113,0Z" transform="translate(-348.216 -286.637)" fill="#21418e"/>
  <path id="Path_11714" data-name="Path 11714" d="M410.412,304.912v1.346a.557.557,0,0,0,1.113,0v-1.346a.557.557,0,0,0-1.113,0Z" transform="translate(-379.952 -286.637)" fill="#21418e"/>
  <path id="Path_11715" data-name="Path 11715" d="M56.742,306.814a.557.557,0,0,0,.557-.557v-1.346a.557.557,0,0,0-1.113,0v1.346A.557.557,0,0,0,56.742,306.814Z" transform="translate(-52.015 -286.637)" fill="#21418e"/>
  <path id="Path_11716" data-name="Path 11716" d="M91.578,306.257v-1.346a.557.557,0,0,0-1.113,0v1.346a.557.557,0,0,0,1.113,0Z" transform="translate(-83.751 -286.637)" fill="#21418e"/>
  <path id="Path_11717" data-name="Path 11717" d="M125.858,306.257v-1.346a.557.557,0,0,0-1.113,0v1.346a.557.557,0,0,0,1.113,0Z" transform="translate(-115.487 -286.637)" fill="#21418e"/>
  <path id="Path_11718" data-name="Path 11718" d="M185.338,71.286a5.654,5.654,0,0,0-11.228-.954h-14.4a.557.557,0,0,0,0,1.113H174.03a5.667,5.667,0,0,0,5.651,5.5h0a5.7,5.7,0,0,0,2.283-.481v9.361a.557.557,0,0,0,1.113,0V75.8A5.649,5.649,0,0,0,185.338,71.286Zm-5.655-4.542a4.542,4.542,0,1,1-4.537,4.358A4.547,4.547,0,0,1,179.683,66.744Z" transform="translate(-147.338 -65.631)" fill="#21418e"/>
  <path id="Path_11719" data-name="Path 11719" d="M394.438,115.19a.557.557,0,0,0,.867.1l3.6-3.6a.557.557,0,0,0-.787-.787l-3.1,3.1-1.2-1.945a.557.557,0,1,0-.947.585Z" transform="translate(-363.633 -107.393)" fill="#21418e"/>
  <path id="Path_11720" data-name="Path 11720" d="M35.187,146.5a.557.557,0,0,0-.557.557v2.3a2.063,2.063,0,0,1-2.061,2.061H3.174a2.063,2.063,0,0,1-2.061-2.061V132.143a2.064,2.064,0,0,1,2.061-2.061h6.6a.557.557,0,1,0,0-1.113h-6.6A3.178,3.178,0,0,0,0,132.143v17.208a3.178,3.178,0,0,0,3.174,3.174H32.569a3.178,3.178,0,0,0,3.174-3.174v-2.3A.557.557,0,0,0,35.187,146.5Z" transform="translate(0 -124.268)" fill="#21418e"/>
  <path id="Path_11721" data-name="Path 11721" d="M342.229,236.389v-1.646a.857.857,0,0,0-.856-.856h-5.684a.857.857,0,0,0-.856.856v1.646a.857.857,0,0,0,.856.856h5.684A.857.857,0,0,0,342.229,236.389Zm-1.113-.257h-5.17V235h5.17Z" transform="translate(-309.982 -221.4)" fill="#21418e"/>
</svg>
