<svg xmlns="http://www.w3.org/2000/svg" width="32.256" height="32.861" viewBox="0 0 32.256 32.861"><g transform="translate(-4.717 0)"><path d="M36.9,20.3c-.254-.6-1.078-.78-2.449-.551a4,4,0,0,0-2.369-1.163V11.885q1.233.219,2.462.486a1.939,1.939,0,0,0,.412.044,1.89,1.89,0,0,0,1.849-1.434,1.8,1.8,0,0,0-.229-1.394,1.928,1.928,0,0,0-1.239-.864c-2.166-.471-4.375-.84-6.564-1.1a.481.481,0,1,0-.112.956c2.158.252,4.335.616,6.471,1.08a.973.973,0,0,1,.627.433.848.848,0,0,1,.11.655.93.93,0,0,1-.914.7.974.974,0,0,1-.207-.022,65.725,65.725,0,0,0-27.926,0A.944.944,0,0,1,5.7,10.752a.821.821,0,0,1-.024-.2.94.94,0,0,1,.761-.891A67.479,67.479,0,0,1,26.432,8.359a.481.481,0,1,0,.08-.959q-1.618-.136-3.238-.194V6.081a1,1,0,0,0-.995-.995H21.269V3.935a2,2,0,1,0-.963,0V5.086H19.3a1,1,0,0,0-.995.995V7.205A68.44,68.44,0,0,0,6.237,8.724a1.907,1.907,0,0,0-1.52,1.832,1.78,1.78,0,0,0,.052.426,1.913,1.913,0,0,0,2.26,1.389q1.23-.267,2.462-.486v6.984a4.013,4.013,0,0,0,1.259,7.7q.147.01.293.01a3.971,3.971,0,0,0,1.493-.29.61.61,0,0,0,0-1.131,3.048,3.048,0,0,1-.5-5.41.609.609,0,0,0-.2-1.113,4.018,4.018,0,0,0-.794-.079,4.088,4.088,0,0,0-.586.042V11.72q2.219-.361,4.445-.566v3.277a2.071,2.071,0,1,0,.963,0V11.073q2.221-.171,4.445-.188V23.638a.74.74,0,0,0-.18.233L19.01,26.132l-2.495.362a.738.738,0,0,0-.409,1.259l1.805,1.76L17.485,32a.738.738,0,0,0,1.071.778L20.788,31.6l2.231,1.173A.738.738,0,0,0,24.09,32l-.426-2.485,1.805-1.76a.738.738,0,0,0-.409-1.259l-2.495-.362-1.116-2.261a.741.741,0,0,0-.18-.233V10.886q2.223.017,4.445.188v3.358a2.071,2.071,0,1,0,.963,0V11.155q2.225.205,4.445.566v6.87a4.016,4.016,0,0,0-3.53,3.981c0,.039,0,.078,0,.117-1.112.834-1.546,1.557-1.291,2.151.184.43.665.646,1.436.646a6.241,6.241,0,0,0,1.012-.1,4.009,4.009,0,0,0,6.863-2.818c0-.039,0-.078,0-.117,1.112-.834,1.546-1.557,1.291-2.151ZM19.753,2a1.034,1.034,0,1,1,1.034,1.034A1.035,1.035,0,0,1,19.753,2Zm-.49,4.084a.032.032,0,0,1,.032-.032H22.28a.033.033,0,0,1,.032.032v1.1q-1.525-.034-3.049,0ZM9.651,22.33a3.99,3.99,0,0,0,1.692,3.275,3.115,3.115,0,0,1-.525.007,3.049,3.049,0,0,1-.032-6.079A3.988,3.988,0,0,0,9.651,22.33Zm6.837-5.885a1.108,1.108,0,1,1-1.108-1.108A1.109,1.109,0,0,1,16.488,16.445Zm10.815,0a1.108,1.108,0,1,1-1.108-1.108A1.109,1.109,0,0,1,27.3,16.445ZM21.754,26.664a.738.738,0,0,0,.556.4l2.161.314-1.564,1.524a.738.738,0,0,0-.212.653l.369,2.152L21.131,30.7a.739.739,0,0,0-.687,0l-1.933,1.016.369-2.152a.738.738,0,0,0-.212-.653L17.1,27.382l2.161-.314a.738.738,0,0,0,.556-.4l.967-1.958ZM31.6,19.523a3.053,3.053,0,0,1,2.993,2.47,18.01,18.01,0,0,1-5.476,2.344A3.046,3.046,0,0,1,31.6,19.523Zm-4.4,4.93a2.062,2.062,0,0,1,.57-.674,3.99,3.99,0,0,0,.312.727A2.067,2.067,0,0,1,27.206,24.453Zm4.4,1.168a3.03,3.03,0,0,1-1.664-.5A19.606,19.606,0,0,0,34.6,23.13,3.053,3.053,0,0,1,31.6,25.62Zm3.825-4.256a3.988,3.988,0,0,0-.312-.727,2.061,2.061,0,0,1,.883.053A2.065,2.065,0,0,1,35.428,21.365Z" transform="translate(0 0)" fill="#21418e"/></g></svg>