<svg xmlns="http://www.w3.org/2000/svg" width="20" height="20" viewBox="0 0 20 20"><g transform="translate(1.666 3.333)"><path d="M8.325,13.333c-3.441,0-6.535-2.4-8.276-6.433a.6.6,0,0,1,0-.476C1.788,2.4,4.882,0,8.325,0h.008a7.755,7.755,0,0,1,4.781,1.7,11.863,11.863,0,0,1,3.5,4.72.6.6,0,0,1,0,.476c-1.741,4.028-4.838,6.433-8.284,6.433ZM5.081,6.667A3.248,3.248,0,1,0,8.333,3.434,3.242,3.242,0,0,0,5.081,6.667Zm1.22,0a2.073,2.073,0,0,1,.041-.4h.041a1.664,1.664,0,0,0,1.667-1.6,1.658,1.658,0,0,1,.284-.024A2.016,2.016,0,1,1,6.3,6.665Z" transform="translate(0)" fill="#92a0b1"/></g></svg>