<svg xmlns="http://www.w3.org/2000/svg" width="17.443" height="17.443" viewBox="0 0 17.443 17.443"><path d="M15.095,0H2.353A2.351,2.351,0,0,0,0,2.351V15.093a2.35,2.35,0,0,0,2.351,2.351H8.637l.011-6.233H7.028a.382.382,0,0,1-.382-.381L6.638,8.82a.382.382,0,0,1,.382-.384H8.637V6.5a3.172,3.172,0,0,1,3.386-3.48h1.649a.382.382,0,0,1,.382.382V5.092a.382.382,0,0,1-.382.382H12.66c-1.093,0-1.3.519-1.3,1.282V8.437h2.4a.382.382,0,0,1,.379.427L13.9,10.873a.382.382,0,0,1-.379.337H11.366l-.011,6.233h3.739a2.35,2.35,0,0,0,2.35-2.35V2.351A2.351,2.351,0,0,0,15.095,0Z" transform="translate(-0.002)" fill="#475993"/></svg>