<svg xmlns="http://www.w3.org/2000/svg" width="24" height="22.799" viewBox="0 0 24 22.799">
  <g id="contact" transform="translate(-0.001 -12.813)">
    <g id="Group_1713" data-name="Group 1713" transform="translate(0.001 12.813)">
      <g id="Group_1712" data-name="Group 1712" transform="translate(0 0)">
        <path id="Path_139" data-name="Path 139" d="M22.981,12.813H6.217a1.021,1.021,0,0,0-1.02,1.02v4.624l-.767-1.15a1.185,1.185,0,0,0-1.6-.36L1.252,17.9A2.314,2.314,0,0,0,.2,19.267c-.575,2.095-.148,5.7,5.149,11,4.213,4.209,7.354,5.342,9.519,5.342a5.59,5.59,0,0,0,1.484-.194,2.318,2.318,0,0,0,1.372-1.056l.947-1.579a1.186,1.186,0,0,0-.36-1.6L14.53,28.667a1.192,1.192,0,0,0-1.6.259l-1.1,1.414a.383.383,0,0,1-.49.1l-.209-.115a12.578,12.578,0,0,1-3.276-2.573c-.187-.187-.357-.362-.516-.53H22.981A1.019,1.019,0,0,0,24,26.209V13.833A1.021,1.021,0,0,0,22.981,12.813ZM10.753,31.031l.2.112a1.179,1.179,0,0,0,1.51-.311l1.1-1.414a.389.389,0,0,1,.52-.084l3.777,2.517a.386.386,0,0,1,.117.52l-.947,1.579a1.52,1.52,0,0,1-.9.7c-1.891.52-5.2.08-10.225-4.944S.449,21.368.968,19.478a1.52,1.52,0,0,1,.7-.9l1.579-.947a.387.387,0,0,1,.52.117l2.519,3.777a.388.388,0,0,1-.084.52l-1.414,1.1a1.178,1.178,0,0,0-.311,1.51l.112.2a13.264,13.264,0,0,0,2.71,3.459A13.29,13.29,0,0,0,10.753,31.031ZM23.2,26.209a.218.218,0,0,1-.22.216H6.622a10.09,10.09,0,0,1-1.335-1.946l-.115-.21a.382.382,0,0,1,.1-.489l1.414-1.1a1.192,1.192,0,0,0,.259-1.6L6,19.658V13.833a.218.218,0,0,1,.22-.22H22.981a.218.218,0,0,1,.22.22V26.209Z" transform="translate(-0.001 -12.813)"/>
        <path id="Path_140" data-name="Path 140" d="M162.962,50.669l-6.687,5.071a.54.54,0,0,1-.635,0l-6.684-5.071a.4.4,0,1,0-.484.638l6.685,5.071a1.347,1.347,0,0,0,1.6,0l6.687-5.071a.4.4,0,0,0-.483-.638Z" transform="translate(-141.36 -48.817)"/>
        <path id="Path_141" data-name="Path 141" d="M153.016,172.523l-4.1,4.389a.4.4,0,0,0,.585.546l4.1-4.391a.4.4,0,0,0-.585-.544Z" transform="translate(-141.833 -164.928)"/>
        <path id="Path_142" data-name="Path 142" d="M370.644,172.206a.4.4,0,0,0-.585.546l4.1,4.389a.4.4,0,0,0,.585-.546Z" transform="translate(-352.606 -164.611)"/>
      </g>
    </g>
  </g>
</svg>
