<svg id="network" xmlns="http://www.w3.org/2000/svg" width="24" height="24" viewBox="0 0 24 24">
  <g id="Group_1663" data-name="Group 1663" transform="translate(20.8 4.8)">
    <g id="Group_1662" data-name="Group 1662">
      <path id="Path_91" data-name="Path 91" d="M445.334,102.4a1.6,1.6,0,1,0,1.6,1.6A1.6,1.6,0,0,0,445.334,102.4Zm0,2.4a.8.8,0,1,1,.8-.8A.8.8,0,0,1,445.334,104.8Z" transform="translate(-443.734 -102.4)"/>
    </g>
  </g>
  <g id="Group_1665" data-name="Group 1665" transform="translate(0 18)">
    <g id="Group_1664" data-name="Group 1664">
      <path id="Path_92" data-name="Path 92" d="M1.6,384a1.6,1.6,0,1,0,1.6,1.6A1.6,1.6,0,0,0,1.6,384Zm0,2.4a.8.8,0,1,1,.8-.8A.8.8,0,0,1,1.6,386.4Z" transform="translate(0 -384)"/>
    </g>
  </g>
  <g id="Group_1667" data-name="Group 1667" transform="translate(17.6 3.6)">
    <g id="Group_1666" data-name="Group 1666">
      <path id="Path_93" data-name="Path 93" d="M379.487,78.5l-3.451-1.666a.4.4,0,0,0-.348.72l3.451,1.666a.4.4,0,0,0,.348-.72Z" transform="translate(-375.463 -76.792)"/>
    </g>
  </g>
  <g id="Group_1669" data-name="Group 1669" transform="translate(16.4 20.8)">
    <g id="Group_1668" data-name="Group 1668">
      <path id="Path_94" data-name="Path 94" d="M351.467,443.733a1.6,1.6,0,1,0,1.6,1.6A1.6,1.6,0,0,0,351.467,443.733Zm0,2.4a.8.8,0,1,1,.8-.8A.8.8,0,0,1,351.467,446.133Z" transform="translate(-349.867 -443.733)"/>
    </g>
  </g>
  <g id="Group_1671" data-name="Group 1671" transform="translate(13.2 19.6)">
    <g id="Group_1670" data-name="Group 1670">
      <path id="Path_95" data-name="Path 95" d="M285.62,419.83l-3.451-1.666a.4.4,0,1,0-.348.72l3.451,1.666a.4.4,0,1,0,.348-.72Z" transform="translate(-281.596 -418.124)"/>
    </g>
  </g>
  <g id="Group_1673" data-name="Group 1673" transform="translate(10.4 10.8)">
    <g id="Group_1672" data-name="Group 1672">
      <path id="Path_96" data-name="Path 96" d="M223.467,230.4a1.6,1.6,0,1,0,1.6,1.6A1.6,1.6,0,0,0,223.467,230.4Zm0,2.4a.8.8,0,1,1,.8-.8A.8.8,0,0,1,223.467,232.8Z" transform="translate(-221.867 -230.4)"/>
    </g>
  </g>
  <g id="Group_1675" data-name="Group 1675" transform="translate(8 9.2)">
    <g id="Group_1674" data-name="Group 1674">
      <path id="Path_97" data-name="Path 97" d="M173.961,198.422l-2.651-2.066a.4.4,0,0,0-.492.631l2.651,2.066a.4.4,0,1,0,.492-.631Z" transform="translate(-170.664 -196.272)"/>
    </g>
  </g>
  <g id="Group_1677" data-name="Group 1677" transform="translate(14.8 10.4)">
    <g id="Group_1676" data-name="Group 1676">
      <path id="Path_98" data-name="Path 98" d="M320.133,221.867a4.4,4.4,0,1,0,4.4,4.4A4.405,4.405,0,0,0,320.133,221.867Zm0,8a3.6,3.6,0,1,1,3.6-3.6A3.6,3.6,0,0,1,320.133,229.867Z" transform="translate(-315.733 -221.867)"/>
    </g>
  </g>
  <g id="Group_1679" data-name="Group 1679" transform="translate(17.6 12)">
    <g id="Group_1678" data-name="Group 1678">
      <path id="Path_99" data-name="Path 99" d="M377.067,256a1.6,1.6,0,1,0,1.6,1.6A1.6,1.6,0,0,0,377.067,256Zm0,2.4a.8.8,0,1,1,.8-.8A.8.8,0,0,1,377.067,258.4Z" transform="translate(-375.467 -256)"/>
    </g>
  </g>
  <g id="Group_1681" data-name="Group 1681" transform="translate(16.8 16)">
    <g id="Group_1680" data-name="Group 1680">
      <path id="Path_100" data-name="Path 100" d="M361.96,341.333H359.64a1.225,1.225,0,0,0-1.24,1.206v1.054a.4.4,0,0,0,.2.346,4.378,4.378,0,0,0,4.4,0,.4.4,0,0,0,.2-.346v-1.054A1.225,1.225,0,0,0,361.96,341.333Zm.44,2.022a3.627,3.627,0,0,1-3.2,0v-.816a.424.424,0,0,1,.44-.406h2.321a.424.424,0,0,1,.44.406v.816Z" transform="translate(-358.4 -341.333)"/>
    </g>
  </g>
  <g id="Group_1683" data-name="Group 1683" transform="translate(5.2 15.2)">
    <g id="Group_1682" data-name="Group 1682">
      <path id="Path_101" data-name="Path 101" d="M115.333,324.267a4.4,4.4,0,1,0,4.4,4.4A4.405,4.405,0,0,0,115.333,324.267Zm0,8a3.6,3.6,0,1,1,3.6-3.6A3.6,3.6,0,0,1,115.333,332.267Z" transform="translate(-110.933 -324.267)"/>
    </g>
  </g>
  <g id="Group_1685" data-name="Group 1685" transform="translate(8 16.8)">
    <g id="Group_1684" data-name="Group 1684">
      <path id="Path_102" data-name="Path 102" d="M172.267,358.4a1.6,1.6,0,1,0,1.6,1.6A1.6,1.6,0,0,0,172.267,358.4Zm0,2.4a.8.8,0,1,1,.8-.8A.8.8,0,0,1,172.267,360.8Z" transform="translate(-170.667 -358.4)"/>
    </g>
  </g>
  <g id="Group_1687" data-name="Group 1687" transform="translate(7.2 20.8)">
    <g id="Group_1686" data-name="Group 1686">
      <path id="Path_103" data-name="Path 103" d="M157.16,443.733H154.84a1.225,1.225,0,0,0-1.24,1.206v1.054a.4.4,0,0,0,.2.346,4.378,4.378,0,0,0,4.4,0,.4.4,0,0,0,.2-.346v-1.054A1.225,1.225,0,0,0,157.16,443.733Zm.44,2.022a3.627,3.627,0,0,1-3.2,0v-.816a.425.425,0,0,1,.44-.406h2.321a.424.424,0,0,1,.44.406v.816Z" transform="translate(-153.6 -443.733)"/>
    </g>
  </g>
  <g id="Group_1689" data-name="Group 1689" transform="translate(0 5.2)">
    <g id="Group_1688" data-name="Group 1688">
      <path id="Path_104" data-name="Path 104" d="M4.4,110.933a4.4,4.4,0,1,0,4.4,4.4A4.405,4.405,0,0,0,4.4,110.933Zm0,8a3.6,3.6,0,1,1,3.6-3.6A3.6,3.6,0,0,1,4.4,118.933Z" transform="translate(0 -110.933)"/>
    </g>
  </g>
  <g id="Group_1691" data-name="Group 1691" transform="translate(2.8 6.8)">
    <g id="Group_1690" data-name="Group 1690">
      <path id="Path_105" data-name="Path 105" d="M61.334,145.067a1.6,1.6,0,1,0,1.6,1.6A1.6,1.6,0,0,0,61.334,145.067Zm0,2.4a.8.8,0,1,1,.8-.8A.8.8,0,0,1,61.334,147.467Z" transform="translate(-59.734 -145.067)"/>
    </g>
  </g>
  <g id="Group_1693" data-name="Group 1693" transform="translate(2 10.8)">
    <g id="Group_1692" data-name="Group 1692">
      <path id="Path_106" data-name="Path 106" d="M46.227,230.4H43.907a1.225,1.225,0,0,0-1.24,1.206v1.054a.4.4,0,0,0,.2.346,4.377,4.377,0,0,0,4.4,0,.4.4,0,0,0,.2-.346v-1.054A1.225,1.225,0,0,0,46.227,230.4Zm.44,2.022a3.627,3.627,0,0,1-3.2,0v-.816a.425.425,0,0,1,.44-.406h2.321a.425.425,0,0,1,.44.406v.816Z" transform="translate(-42.667 -230.4)"/>
    </g>
  </g>
  <g id="Group_1695" data-name="Group 1695" transform="translate(9.6)">
    <g id="Group_1694" data-name="Group 1694">
      <path id="Path_107" data-name="Path 107" d="M209.2,0a4.4,4.4,0,1,0,4.4,4.4A4.405,4.405,0,0,0,209.2,0Zm0,8a3.6,3.6,0,1,1,3.6-3.6A3.6,3.6,0,0,1,209.2,8Z" transform="translate(-204.8)"/>
    </g>
  </g>
  <g id="Group_1697" data-name="Group 1697" transform="translate(12.4 1.6)">
    <g id="Group_1696" data-name="Group 1696">
      <path id="Path_108" data-name="Path 108" d="M266.134,34.133a1.6,1.6,0,1,0,1.6,1.6A1.6,1.6,0,0,0,266.134,34.133Zm0,2.4a.8.8,0,1,1,.8-.8A.8.8,0,0,1,266.134,36.533Z" transform="translate(-264.534 -34.133)"/>
    </g>
  </g>
  <g id="Group_1699" data-name="Group 1699" transform="translate(11.6 5.6)">
    <g id="Group_1698" data-name="Group 1698">
      <path id="Path_109" data-name="Path 109" d="M251.027,119.467h-2.321a1.225,1.225,0,0,0-1.24,1.206v1.054a.4.4,0,0,0,.2.346,4.378,4.378,0,0,0,4.4,0,.4.4,0,0,0,.2-.346v-1.054A1.225,1.225,0,0,0,251.027,119.467Zm.44,2.022a3.627,3.627,0,0,1-3.2,0v-.816a.424.424,0,0,1,.44-.406h2.321a.424.424,0,0,1,.44.406v.816Z" transform="translate(-247.467 -119.467)"/>
    </g>
  </g>
  <g id="Group_1701" data-name="Group 1701" transform="translate(6.828 4)">
    <g id="Group_1700" data-name="Group 1700">
      <path id="Path_110" data-name="Path 110" d="M149.147,85.473a.4.4,0,0,0-.564-.044L145.811,87.8a.4.4,0,1,0,.52.608l2.772-2.372A.4.4,0,0,0,149.147,85.473Z" transform="translate(-145.671 -85.333)"/>
    </g>
  </g>
  <g id="Group_1703" data-name="Group 1703" transform="translate(16 7.2)">
    <g id="Group_1702" data-name="Group 1702">
      <path id="Path_111" data-name="Path 111" d="M344.453,156.97l-2.4-3.2a.4.4,0,0,0-.64.48l2.4,3.2a.4.4,0,0,0,.64-.48Z" transform="translate(-341.333 -153.61)"/>
    </g>
  </g>
  <g id="Group_1705" data-name="Group 1705" transform="translate(12.883 15.963)">
    <g id="Group_1704" data-name="Group 1704">
      <path id="Path_112" data-name="Path 112" d="M277.787,340.7a.4.4,0,0,0-.56-.08l-2.234,1.676a.4.4,0,0,0,.48.64l2.234-1.676A.4.4,0,0,0,277.787,340.7Z" transform="translate(-274.833 -340.54)"/>
    </g>
  </g>
  <g id="Group_1707" data-name="Group 1707" transform="translate(2.4 19.2)">
    <g id="Group_1706" data-name="Group 1706">
      <path id="Path_113" data-name="Path 113" d="M54.4,409.6H51.6a.4.4,0,1,0,0,.8h2.8a.4.4,0,0,0,0-.8Z" transform="translate(-51.2 -409.6)"/>
    </g>
  </g>
  <g id="Group_1709" data-name="Group 1709" transform="translate(2.8)">
    <g id="Group_1708" data-name="Group 1708">
      <path id="Path_114" data-name="Path 114" d="M61.333,0a1.6,1.6,0,1,0,1.6,1.6A1.6,1.6,0,0,0,61.333,0Zm0,2.4a.8.8,0,1,1,.8-.8A.8.8,0,0,1,61.333,2.4Z" transform="translate(-59.733)"/>
    </g>
  </g>
  <g id="Group_1711" data-name="Group 1711" transform="translate(4 2.4)">
    <g id="Group_1710" data-name="Group 1710">
      <path id="Path_115" data-name="Path 115" d="M85.734,51.2a.4.4,0,0,0-.4.4v2.8a.4.4,0,1,0,.8,0V51.6A.4.4,0,0,0,85.734,51.2Z" transform="translate(-85.334 -51.2)"/>
    </g>
  </g>
</svg>
