<svg id="conversation" xmlns="http://www.w3.org/2000/svg" width="24" height="24" viewBox="0 0 24 24">
  <g id="Group_1647" data-name="Group 1647" transform="translate(0 8.257)">
    <g id="Group_1646" data-name="Group 1646">
      <path id="Path_83" data-name="Path 83" d="M16.115,180.754a.466.466,0,0,0-.466.466v3.214a2.331,2.331,0,0,1-2.329,2.329H8.292a.466.466,0,0,0-.466.465v.926l-1.112-1.112a.466.466,0,0,0-.427-.28H3.26a2.331,2.331,0,0,1-2.329-2.329V177.26a2.331,2.331,0,0,1,2.329-2.329h4.7a.466.466,0,1,0,0-.932H3.26A3.264,3.264,0,0,0,0,177.26v7.173a3.264,3.264,0,0,0,3.26,3.26H6.048l1.913,1.913a.466.466,0,0,0,.8-.329v-1.584h4.563a3.264,3.264,0,0,0,3.26-3.26v-3.214A.466.466,0,0,0,16.115,180.754Z" transform="translate(0 -174)" fill="#fff"/>
    </g>
  </g>
  <g id="Group_1649" data-name="Group 1649" transform="translate(9.282)">
    <g id="Group_1648" data-name="Group 1648">
      <path id="Path_84" data-name="Path 84" d="M203.948,0H202.77a6.77,6.77,0,0,0,0,13.539h1.179a6.783,6.783,0,0,0,1.718-.22l1.741,1.74a.466.466,0,0,0,.795-.329V12.035a6.834,6.834,0,0,0,1.779-2.194,6.7,6.7,0,0,0,.736-3.072A6.777,6.777,0,0,0,203.948,0Zm3.508,11.436a.466.466,0,0,0-.186.372v1.8l-1.14-1.139a.466.466,0,0,0-.466-.116,5.84,5.84,0,0,1-1.717.257H202.77a5.838,5.838,0,0,1,0-11.676h1.179a5.838,5.838,0,0,1,3.508,10.5Z" transform="translate(-196)" fill="#fff"/>
    </g>
  </g>
  <g id="Group_1651" data-name="Group 1651" transform="translate(14.759 3.263)">
    <g id="Group_1650" data-name="Group 1650">
      <path id="Path_85" data-name="Path 85" d="M318.4,71.9a1.972,1.972,0,0,0-3.939.139.466.466,0,0,0,.932,0A1.041,1.041,0,0,1,316.509,71a1.041,1.041,0,0,1,.154,2.053.881.881,0,0,0-.694.864v1.119a.466.466,0,1,0,.931,0V73.952A1.962,1.962,0,0,0,318.4,71.9Z" transform="translate(-314.462 -70.063)" fill="#fff"/>
    </g>
  </g>
  <g id="Group_1653" data-name="Group 1653" transform="translate(16.26 9.674)">
    <g id="Group_1652" data-name="Group 1652">
      <path id="Path_86" data-name="Path 86" d="M347.6,206.466a.466.466,0,1,0,.136.329A.469.469,0,0,0,347.6,206.466Z" transform="translate(-346.8 -206.33)" fill="#fff"/>
    </g>
  </g>
  <g id="Group_1655" data-name="Group 1655" transform="translate(2.515 14.535)">
    <g id="Group_1654" data-name="Group 1654">
      <path id="Path_87" data-name="Path 87" d="M64.293,310H54.466a.466.466,0,0,0,0,.932h9.828a.466.466,0,1,0,0-.932Z" transform="translate(-54 -310)" fill="#fff"/>
    </g>
  </g>
  <g id="Group_1657" data-name="Group 1657" transform="translate(12.425 17.161)">
    <g id="Group_1656" data-name="Group 1656">
      <path id="Path_88" data-name="Path 88" d="M265.8,366.136a.465.465,0,1,0,.137.329A.469.469,0,0,0,265.8,366.136Z" transform="translate(-265 -366)" fill="#fff"/>
    </g>
  </g>
  <g id="Group_1659" data-name="Group 1659" transform="translate(2.515 17.161)">
    <g id="Group_1658" data-name="Group 1658">
      <path id="Path_89" data-name="Path 89" d="M62.461,366h-8a.466.466,0,0,0,0,.932h8a.466.466,0,1,0,0-.932Z" transform="translate(-54 -366)" fill="#fff"/>
    </g>
  </g>
  <g id="Group_1661" data-name="Group 1661" transform="translate(2.515 11.909)">
    <g id="Group_1660" data-name="Group 1660">
      <path id="Path_90" data-name="Path 90" d="M61.266,254h-6.8a.466.466,0,0,0,0,.932h6.8a.466.466,0,0,0,0-.932Z" transform="translate(-54 -254)" fill="#fff"/>
    </g>
  </g>
</svg>
