<svg xmlns="http://www.w3.org/2000/svg" width="24" height="24" viewBox="0 0 24 24">
  <g id="open-box" transform="translate(-0.001 0)">
    <path id="Path_116" data-name="Path 116" d="M24,6.561a.355.355,0,0,0-.163-.291L16.4,1.562a.352.352,0,0,0-.119-.048L8.759.008A.353.353,0,0,0,8.5.649l3.368,2.133-2.711.8-2.3-1.454a.352.352,0,0,0-.381,0L3.7,3.958a.352.352,0,0,0,.385.588l2.6-1.7,6.782,4.294L7.784,10.856,1,6.562l1.527-1a.352.352,0,0,0-.385-.588L.16,6.272A.357.357,0,0,0,0,6.567V18.942a.351.351,0,0,0,.164.3L7.6,23.946a.358.358,0,0,0,.288.04l12.887-3.824a.352.352,0,0,0-.2-.674L8.138,23.178V11.537L23.3,7.038V18.679l-.96.285a.352.352,0,0,0,.2.674l1.212-.36A.352.352,0,0,0,24,18.942V6.567s0,0,0-.006Zm-7.919-4.37L21.86,5.85l-5.6-1.122L10.479,1.069ZM14.3,6.84,9.947,4.086l2.711-.8,3.278,2.076a.352.352,0,0,0,.119.048L22.19,6.633l-12.2,3.622L14.3,7.431a.352.352,0,0,0,0-.591ZM.7,7.205l6.731,4.262V23.011L.7,18.748Z"/>
    <path id="Path_117" data-name="Path 117" d="M213.389,292.122a.351.351,0,0,0-.31-.055l-11.894,3.539a.352.352,0,0,0-.251.337v3.431a.352.352,0,0,0,.452.337l11.894-3.539a.352.352,0,0,0,.251-.337V292.4A.351.351,0,0,0,213.389,292.122Zm-.562,3.45-11.191,3.33v-2.7l11.191-3.33Z" transform="translate(-191.513 -278.362)"/>
    <path id="Path_118" data-name="Path 118" d="M284.531,371.067a.352.352,0,0,0,.352-.352v-1a.352.352,0,0,0-.7,0v1A.352.352,0,0,0,284.531,371.067Z" transform="translate(-270.857 -352.067)"/>
    <path id="Path_119" data-name="Path 119" d="M384.062,340.56a.352.352,0,0,0,.352-.352v-1a.352.352,0,0,0-.7,0v1A.352.352,0,0,0,384.062,340.56Z" transform="translate(-365.723 -322.99)"/>
    <path id="Path_120" data-name="Path 120" d="M406.2,334.56a.352.352,0,0,0,.352-.352v-1a.352.352,0,0,0-.7,0v1A.352.352,0,0,0,406.2,334.56Z" transform="translate(-386.821 -317.271)"/>
    <path id="Path_121" data-name="Path 121" d="M428.334,328.56a.352.352,0,0,0,.352-.352v-1a.352.352,0,0,0-.7,0v1A.352.352,0,0,0,428.334,328.56Z" transform="translate(-407.919 -311.552)"/>
    <path id="Path_122" data-name="Path 122" d="M228.187,387.831a.352.352,0,0,0,.352-.352v-1a.352.352,0,0,0-.7,0v1A.352.352,0,0,0,228.187,387.831Z" transform="translate(-217.154 -368.045)"/>
    <path id="Path_123" data-name="Path 123" d="M249.865,382.5a.352.352,0,0,0,.352-.352v-1a.352.352,0,0,0-.7,0v1A.352.352,0,0,0,249.865,382.5Z" transform="translate(-237.816 -362.961)"/>
    <path id="Path_124" data-name="Path 124" d="M323.695,358.959a.352.352,0,0,0,.352-.352v-1a.352.352,0,0,0-.7,0v1A.352.352,0,0,0,323.695,358.959Z" transform="translate(-308.185 -340.526)"/>
    <path id="Path_125" data-name="Path 125" d="M344.9,353.529a.352.352,0,0,0,.352-.352v-1a.352.352,0,0,0-.7,0v1A.352.352,0,0,0,344.9,353.529Z" transform="translate(-328.394 -335.351)"/>
  </g>
</svg>
