<svg xmlns="http://www.w3.org/2000/svg" width="23.714" height="24" viewBox="0 0 23.714 24">
  <g id="note" transform="translate(-30 -27.375)">
    <path id="Path_126" data-name="Path 126" d="M172.515,180.629h7.867a.315.315,0,0,0,0-.629h-7.867a.315.315,0,0,0,0,.629Z" transform="translate(-134.742 -144.621)"/>
    <path id="Path_127" data-name="Path 127" d="M90.154,183.313l-.7.668-.284-.284a.315.315,0,1,0-.445.445l.5.5a.315.315,0,0,0,.44,0l.922-.881a.315.315,0,0,0-.435-.455Z" transform="translate(-55.559 -147.677)"/>
    <path id="Path_128" data-name="Path 128" d="M69.614,156.9a2.136,2.136,0,1,0,2.136,2.136A2.136,2.136,0,0,0,69.614,156.9Zm0,3.642a1.506,1.506,0,1,1,1.506-1.506,1.506,1.506,0,0,1-1.506,1.506Z" transform="translate(-35.513 -122.732)"/>
    <path id="Path_129" data-name="Path 129" d="M172.515,280.629h7.867a.315.315,0,0,0,0-.629h-7.867a.315.315,0,0,0,0,.629Z" transform="translate(-134.742 -239.376)"/>
    <path id="Path_130" data-name="Path 130" d="M90.154,283.313l-.7.668-.284-.284a.315.315,0,0,0-.445.445l.5.5a.315.315,0,0,0,.44,0l.922-.881a.315.315,0,0,0-.435-.455Z" transform="translate(-55.559 -242.432)"/>
    <path id="Path_131" data-name="Path 131" d="M69.614,256.9a2.136,2.136,0,1,0,2.136,2.136A2.136,2.136,0,0,0,69.614,256.9Zm0,3.642a1.506,1.506,0,1,1,1.506-1.506,1.506,1.506,0,0,1-1.506,1.506Z" transform="translate(-35.513 -217.488)"/>
    <path id="Path_132" data-name="Path 132" d="M90.154,383.313l-.7.668-.284-.284a.315.315,0,1,0-.445.445l.5.5a.315.315,0,0,0,.44,0l.922-.881a.315.315,0,1,0-.435-.455Z" transform="translate(-55.559 -337.188)"/>
    <path id="Path_133" data-name="Path 133" d="M69.614,356.9a2.136,2.136,0,1,0,2.136,2.136A2.136,2.136,0,0,0,69.614,356.9Zm0,3.642a1.506,1.506,0,1,1,1.506-1.506,1.506,1.506,0,0,1-1.506,1.506Z" transform="translate(-35.513 -312.243)"/>
    <path id="Path_134" data-name="Path 134" d="M172.515,200.629h4.2a.315.315,0,0,0,0-.629h-4.2a.315.315,0,1,0,0,.629Z" transform="translate(-134.742 -163.572)"/>
    <path id="Path_135" data-name="Path 135" d="M172.515,300.629h4.2a.315.315,0,1,0,0-.629h-4.2a.315.315,0,1,0,0,.629Z" transform="translate(-134.742 -258.327)"/>
    <path id="Path_136" data-name="Path 136" d="M53.315,94.1a.315.315,0,0,0-.315.315v.33a.315.315,0,1,0,.629,0v-.33A.315.315,0,0,0,53.315,94.1Z" transform="translate(-21.794 -63.226)"/>
    <path id="Path_137" data-name="Path 137" d="M53.315,119.391a.315.315,0,0,0-.315.315v3.042a.315.315,0,1,0,.629,0v-3.042A.315.315,0,0,0,53.315,119.391Z" transform="translate(-21.794 -87.19)"/>
    <path id="Path_138" data-name="Path 138" d="M52.408,39.979a1.627,1.627,0,0,0-1.231.235l-3.241,2.129V30.535a1.881,1.881,0,0,0-1.9-1.868H44.055V27.69a.315.315,0,0,0-.629,0v.977H40.751V27.69a.315.315,0,0,0-.629,0v.977H37.5V27.69a.315.315,0,0,0-.629,0v.977H34.2V27.69a.315.315,0,0,0-.629,0v.977H31.879A1.866,1.866,0,0,0,30,30.535V49.467a1.9,1.9,0,0,0,1.879,1.908h14.16a1.914,1.914,0,0,0,1.9-1.908V46.26l5.039-3.309a1.637,1.637,0,0,0-.567-2.972Zm-8.685-9.342a.556.556,0,1,1-.556.556A.556.556,0,0,1,43.723,30.637Zm-3.279,0a.556.556,0,1,1-.556.556A.556.556,0,0,1,40.444,30.637Zm-3.279,0a.556.556,0,1,1-.557.556A.556.556,0,0,1,37.165,30.637Zm-3.279,0a.556.556,0,1,1-.556.556A.556.556,0,0,1,33.886,30.637Zm13.421,18.83a1.284,1.284,0,0,1-1.267,1.278H31.879a1.27,1.27,0,0,1-1.25-1.278V30.535a1.236,1.236,0,0,1,1.25-1.239h1.687v.755a1.221,1.221,0,0,0-.869,1.143,1.186,1.186,0,1,0,2.371,0A1.163,1.163,0,0,0,34.2,30.05V29.3H36.87v.755a1.171,1.171,0,0,0-.881,1.143,1.187,1.187,0,1,0,2.374,0A1.217,1.217,0,0,0,37.5,30.05V29.3h2.622v.755a1.22,1.22,0,0,0-.867,1.143,1.185,1.185,0,1,0,2.371,0,1.164,1.164,0,0,0-.874-1.143V29.3h2.675v.755a1.17,1.17,0,0,0-.88,1.143,1.187,1.187,0,0,0,2.374,0,1.218,1.218,0,0,0-.864-1.143V29.3h1.984a1.251,1.251,0,0,1,1.267,1.239V42.756l-1.182.776a.315.315,0,0,0-.075.456h0a.315.315,0,0,0,.421.07l4.679-3.073.381.579L43.6,46.77l-.381-.579,1.489-.978a.315.315,0,0,0-.345-.526l-1.751,1.15-.009.007-.023.018-.007.007h-4.8a.315.315,0,1,0,0,.629H42.22L42,46.919H37.772a.315.315,0,1,0,0,.629h3.893l-.364.687a.315.315,0,0,0,.278.462h.008l2.659-.07.019,0,.021,0,.024-.005.018,0a.312.312,0,0,0,.04-.015l.009-.005.03-.016,0,0,2.9-1.9Zm-3.642-1.456-1.556.041.706-1.334Zm.664-.136-.024-.037-.357-.542,7.927-5.206.381.579Zm8.444-5.565-1.089-1.657a1.015,1.015,0,0,1,.843.025.9.9,0,0,1,.208.139,1.011,1.011,0,0,1,.037,1.492Z" transform="translate(0 0)"/>
  </g>
</svg>
