<svg xmlns="http://www.w3.org/2000/svg" xmlns:xlink="http://www.w3.org/1999/xlink" width="334" height="247.089" viewBox="0 0 334 247.089"><defs><linearGradient id="a" x1="0.565" y1="-0.083" x2="0.565" y2="0.917" gradientUnits="objectBoundingBox"><stop offset="0" stop-color="gray" stop-opacity="0.251"/><stop offset="0.54" stop-color="gray" stop-opacity="0.122"/><stop offset="1" stop-color="gray" stop-opacity="0.102"/></linearGradient></defs><g transform="translate(0.001 -0.182)"><g transform="translate(254.803 145.433)" opacity="0.06"><path d="M849.606,575.064s-23.838-3.105-6.058,35.5c0,0,16.2-6.941,16.835-22.62a12.5,12.5,0,0,0-10.442-12.847Z" transform="translate(-836.96 -545.257)" fill="#21418e"/><path d="M864.993,575s5.389,21.524-6.393,35.559" transform="translate(-852.012 -545.254)" fill="#21418e"/><path d="M857.5,574.56s8.585-21.159,24.629-29.013a34.629,34.629,0,0,0,15.709-15.252,57.724,57.724,0,0,0,3.927-9.894" transform="translate(-851.247 -507.276)" fill="#21418e"/><path d="M1012.421,485.423c-1.674,2.1-10.321,5.175-10.321,5.175s1.035-9.133,2.709-11.234a4.873,4.873,0,1,1,7.976,5.6,2.406,2.406,0,0,1-.365.457Z" transform="translate(-951.825 -477.292)" fill="#21418e"/><path d="M1000.077,536.779c-2.557.853-11.477-1.279-11.477-1.279s5.845-7.093,8.372-7.946a4.874,4.874,0,1,1,3.105,9.225Z" transform="translate(-942.435 -511.996)" fill="#21418e"/><path d="M952.255,601.453c-2.618-.548-9.255-6.88-9.255-6.88s8.616-3.166,11.234-2.618a4.862,4.862,0,0,1-1.979,9.5Z" transform="translate(-910.717 -557.003)" fill="#21418e"/><path d="M898.89,640.839c-2.679-.091-10.29-5.236-10.29-5.236s7.946-4.6,10.625-4.506a4.886,4.886,0,0,1-.335,9.742Z" transform="translate(-872.879 -584.272)" fill="#21418e"/><path d="M961,521.6c.335,2.679,6.15,9.773,6.15,9.773s3.836-8.342,3.471-11.021a4.881,4.881,0,0,0-9.742.609,4.708,4.708,0,0,1,.122.639Z" transform="translate(-923.149 -504.058)" fill="#21418e"/><path d="M900.926,565.833c1.126,2.436,8.8,7.459,8.8,7.459s1.157-9.1.031-11.538a4.876,4.876,0,0,0-9.1,3.5,2.019,2.019,0,0,0,.274.578Z" transform="translate(-881.034 -533.864)" fill="#21418e"/><path d="M850.571,621.621c.7,2.588,7.4,8.859,7.4,8.859s2.679-8.768,1.979-11.356a4.872,4.872,0,0,0-9.56,1.888c.061.183.091.4.183.609Z" transform="translate(-846.236 -573.213)" fill="#21418e"/><path d="M1012.421,485.423c-1.674,2.1-10.321,5.175-10.321,5.175s1.035-9.133,2.709-11.234a4.873,4.873,0,1,1,7.976,5.6,2.406,2.406,0,0,1-.365.457Z" transform="translate(-951.825 -477.292)" fill="#21418e" opacity="0.25"/><path d="M1000.077,536.779c-2.557.853-11.477-1.279-11.477-1.279s5.845-7.093,8.372-7.946a4.874,4.874,0,1,1,3.105,9.225Z" transform="translate(-942.435 -511.996)" fill="#21418e" opacity="0.25"/><path d="M952.255,601.453c-2.618-.548-9.255-6.88-9.255-6.88s8.616-3.166,11.234-2.618a4.862,4.862,0,0,1-1.979,9.5Z" transform="translate(-910.717 -557.003)" fill="#21418e" opacity="0.25"/><path d="M898.89,640.839c-2.679-.091-10.29-5.236-10.29-5.236s7.946-4.6,10.625-4.506a4.886,4.886,0,0,1-.335,9.742Z" transform="translate(-872.879 -584.272)" fill="#21418e" opacity="0.25"/><path d="M961,521.6c.335,2.679,6.15,9.773,6.15,9.773s3.836-8.342,3.471-11.021a4.881,4.881,0,0,0-9.742.609,4.708,4.708,0,0,1,.122.639Z" transform="translate(-923.149 -504.058)" fill="#21418e" opacity="0.25"/><path d="M900.926,565.833c1.126,2.436,8.8,7.459,8.8,7.459s1.157-9.1.031-11.538a4.876,4.876,0,0,0-9.1,3.5,2.019,2.019,0,0,0,.274.578Z" transform="translate(-881.034 -533.864)" fill="#21418e" opacity="0.25"/><path d="M850.571,621.621c.7,2.588,7.4,8.859,7.4,8.859s2.679-8.768,1.979-11.356a4.872,4.872,0,0,0-9.56,1.888c.061.183.091.4.183.609Z" transform="translate(-846.236 -573.213)" fill="#21418e" opacity="0.25"/><path d="M895.1,606.16s8.585-21.159,24.629-29.013a34.63,34.63,0,0,0,15.709-15.252A57.722,57.722,0,0,0,939.365,552" transform="translate(-877.4 -529.256)" fill="#21418e"/><path d="M1050.021,518.135c-1.675,2.1-10.321,5.175-10.321,5.175s1.035-9.133,2.709-11.2a4.864,4.864,0,0,1,7.611,6.028Z" transform="translate(-977.978 -500.384)" fill="#21418e"/><path d="M1037.578,568.841c-2.557.852-11.477-1.279-11.477-1.279s5.845-7.093,8.372-7.946a4.877,4.877,0,0,1,3.105,9.224Z" transform="translate(-968.519 -534.437)" fill="#21418e"/><path d="M989.855,633.053c-2.618-.548-9.255-6.88-9.255-6.88s8.616-3.166,11.234-2.618a4.862,4.862,0,0,1-1.979,9.5Z" transform="translate(-936.87 -578.982)" fill="#21418e"/><path d="M936.49,672.439c-2.679-.091-10.29-5.236-10.29-5.236s7.946-4.6,10.625-4.506a4.886,4.886,0,0,1-.335,9.742Z" transform="translate(-899.032 -606.252)" fill="#21418e"/><path d="M998.573,553.2c.335,2.679,6.15,9.773,6.15,9.773s3.836-8.342,3.5-11.021a4.881,4.881,0,1,0-9.742.609q.046.365.091.639Z" transform="translate(-949.303 -526.038)" fill="#21418e"/><path d="M939.048,598.742c1.126,2.435,8.8,7.459,8.8,7.459s1.157-9.1.03-11.538a4.874,4.874,0,0,0-8.829,4.079Z" transform="translate(-907.739 -557.154)" fill="#21418e"/><path d="M888.476,654.655c.7,2.588,7.4,8.859,7.4,8.859s2.679-8.768,1.979-11.356a4.865,4.865,0,0,0-6.18-3.044A4.809,4.809,0,0,0,888.476,654.655Z" transform="translate(-872.724 -596.627)" fill="#21418e"/></g><path d="M11.8,430c5.3,22.589,16.5,42.1,34.158,51.572,36.746,19.667,119.614,9.529,181.476-2.131a141.631,141.631,0,0,0,80.524-46.031Z" transform="translate(-8.208 -298.965)" fill="#21418e" opacity="0.06"/><path d="M355.695,24.695H321.75a2.923,2.923,0,0,1,0-5.845h5.876a2.923,2.923,0,0,1,0-5.845h-4.2a2.923,2.923,0,0,1,0-5.845h17.718a46.467,46.467,0,0,0-13.822-3.805c-48.284-6.211-65.546-2.1-71.635,2.131a67.562,67.562,0,0,1-24.812,10.868C201.07,22.5,145.358,29.9,94.851,13.978,69.735,6.063,51.073,19.428,39.9,41.774H361.571a52.312,52.312,0,0,0-3.988-17.718A3.135,3.135,0,0,1,355.695,24.695Z" transform="translate(-27.754 0)" fill="#21418e" opacity="0.06"/><path d="M.73,275.1a150.009,150.009,0,0,0,1.309,39.425l297.955,10.9a140.257,140.257,0,0,0,20.7-31.57Zm117.848,28.13H112.7a2.923,2.923,0,0,1,0,5.845H78.758a2.923,2.923,0,0,1,0-5.845h5.876a2.923,2.923,0,1,1,0-5.845h-4.2a2.923,2.923,0,0,1,0-5.845h33.945a2.923,2.923,0,0,1,0,5.845h4.2a2.923,2.923,0,1,1,0,5.845Z" transform="translate(0 -191.223)" fill="#21418e" opacity="0.06"/><path d="M335.587,137.3,10.294,145.215A129.9,129.9,0,0,0,2.5,178.8H329.864a139.142,139.142,0,0,0,4.719-21.4A99.106,99.106,0,0,0,335.587,137.3ZM68.563,163.208H62.688a2.923,2.923,0,1,1,0,5.845H28.743a2.923,2.923,0,1,1,0-5.845h5.876a2.923,2.923,0,0,1,0-5.845h-4.2a2.923,2.923,0,1,1,0-5.845H64.362a2.923,2.923,0,1,1,0,5.845h4.2a2.923,2.923,0,0,1,0,5.845Z" transform="translate(-1.74 -95.374)" fill="#21418e" opacity="0.06"/><path d="M386.234,263.526s-13.578-74.4-39.425-86.491c-21.92-10.229-45.635-17.14-52.364-19.027a29.356,29.356,0,0,0-3.471-4.536c-9.224-9.62-14.735-9.438-15.648-9.316a46.636,46.636,0,0,1-.913-5.784c-.03-.3-.061-.578-.091-.883l.091-.03c-.061-.578-.091-1.157-.152-1.8a46.166,46.166,0,0,0,10.29-7.489,1.968,1.968,0,0,0,.122.4q9.955-8.4,19.515-17.292c1.827-1.7,3.745-3.562,4.353-5.967a8.8,8.8,0,0,0,.244-2.527c.091-1.827-.365-3.684-.426-5.541a8.6,8.6,0,0,1,.061-.883c.426-3.044,2.527-5.51,4.262-8.068a37.884,37.884,0,0,0,6.454-21.767,36.117,36.117,0,0,0-1.522-10.96c-1.34-4.506-4.171-9.255-8.829-10.229a37.13,37.13,0,0,0-5.541-.274c-7.641-.487-13.365-6.7-19.454-11.234a50.963,50.963,0,0,0-25.451-9.864,20.372,20.372,0,0,0-8.585.578c-6.15,2.04-9.894,8.372-15.8,10.96-4.384,1.918-9.438,1.614-14,3.075-6.789,2.162-12.573,9.133-12.726,16.288v.913c-.091,3.623,1.218,7.307,1.309,11.021v1a33.164,33.164,0,0,1-1.979,11.782c-.792,2.009-1.8,4.353-1.644,6.393a4.3,4.3,0,0,0,1,3.349l1.461-1.309a45.265,45.265,0,0,0-.731,8.1A44.526,44.526,0,0,0,222.689,130.3c.061.913.122,1.888.152,2.923.244,4.506.426,10.168.365,16.348l-14.37,13.182-36.9,16.744s-33.762,7.124-26.486,54.556l3.471,29.439h30.809l-.061.152h45.757l.03-.152H334.3l-.031.152h4.262V263.5ZM275.6,144.946a30.386,30.386,0,0,1,2.192,6.028,25.056,25.056,0,0,1-2.375-6.363l.061.091Zm-52.333,6.089c0,.578,0,1.157-.03,1.766l-.061.091a18.5,18.5,0,0,1,.091-1.857Z" transform="translate(-100.458 -16.408)" fill="url(#a)"/><path d="M450.679,337.86l-6.089,58.148-32.575,10.351s-42.317-7.915-31.357-30.748c7.794-16.227,7.581-45.27,6.819-60.675-.3-6.241-.731-10.26-.731-10.26s55.408-48.406,50.841-4.871a103.529,103.529,0,0,0-.457,20.184C439.2,341.422,450.679,337.86,450.679,337.86Z" transform="translate(-263.511 -195.774)" fill="#fdc2cc"/><path d="M450.679,337.86l-6.089,58.148-32.575,10.351s-42.317-7.915-31.357-30.748c7.794-16.227,7.581-45.27,6.819-60.675-.3-6.241-.731-10.26-.731-10.26s55.408-48.406,50.841-4.871a103.529,103.529,0,0,0-.457,20.184C439.2,341.422,450.679,337.86,450.679,337.86Z" transform="translate(-263.511 -195.774)" opacity="0.03"/><path d="M455.572,296.821a103.528,103.528,0,0,0-.457,20.184,44.227,44.227,0,0,1-49.685-5.023c-.3-6.241-.731-10.26-.731-10.26S460.138,253.286,455.572,296.821Z" transform="translate(-281.494 -193.703)" opacity="0.1"/><circle cx="44.144" cy="44.144" r="44.144" transform="translate(108.319 38.577)" fill="#fdc2cc"/><circle cx="44.144" cy="44.144" r="44.144" transform="translate(108.319 38.577)" opacity="0.03"/><path d="M391.834,543.509H162.9l-3.349-28.922c-7-46.579,25.573-53.581,25.573-53.581l35.619-16.44L234.9,431.323c-4.567,17.353,29.987,53.429,29.987,53.429h0c.213-.213.426-.426.639-.67.944-1,3.166-3.562,8.372-9.864,1.857-2.253,4.11-4.993,6.819-8.342,13.03-16.014,6.332-34.95,4.353-38.846l-.122-.244c-.091-.152-.122-.243-.183-.335h0c0-.03-.03-.061-.061-.091,0-.03-.03-.03-.03-.061l16.744,13.091s.639.183,1.827.518c6.515,1.827,29.409,8.616,50.537,18.662C378.743,470.444,391.834,543.509,391.834,543.509Z" transform="translate(-110.289 -296.391)" fill="#21418e"/><path d="M544.99,473.692c-2.74-2.74-21.311-6.089-21.311-6.089.609,7.307-21.92,18.571-21.92,18.571l1.674,57.235H492.627l-1.827-51.45,5.175-7.307h0l.639-.67a99.5,99.5,0,0,0,8.372-9.864c1.857-2.253,4.11-4.993,6.819-8.342,13.03-16.013,6.332-34.95,4.354-38.846l-.122-.244a1.652,1.652,0,0,0-.183-.335h0c0-.03-.03-.061-.061-.091,0-.03-.03-.03-.03-.061h0s5.48-1.218,15.222,9.133a28.583,28.583,0,0,1,3.349,4.475C542.25,452.533,547.4,476.1,544.99,473.692Z" transform="translate(-341.382 -296.29)" fill="#6c63ff"/><path d="M544.99,473.692c-2.74-2.74-21.311-6.089-21.311-6.089.609,7.307-21.92,18.571-21.92,18.571l1.674,57.235H492.627l-1.827-51.45,5.175-7.307h0l.639-.67a99.5,99.5,0,0,0,8.372-9.864c1.857-2.253,4.11-4.993,6.819-8.342,13.03-16.013,6.332-34.95,4.354-38.846l-.122-.244a1.652,1.652,0,0,0-.183-.335h0c0-.03-.03-.061-.061-.091,0-.03-.03-.03-.03-.061h0s5.48-1.218,15.222,9.133a28.583,28.583,0,0,1,3.349,4.475C542.25,452.533,547.4,476.1,544.99,473.692Z" transform="translate(-341.382 -296.29)" fill="#1b366d"/><path d="M261.8,659.3s14.309,29.226,15.07,46.427" transform="translate(-182.099 -458.457)" opacity="0.1"/><path d="M764.41,714.3l-4.11,29.683h4.11Z" transform="translate(-528.836 -496.713)" opacity="0.1"/><path d="M272.3,515.032l22.681-51.6s6.393-12.178,7.915-24.355,9.742-31.357,9.742-31.357,20.4-25.877,29.835-22.224-8.22,17.353-8.22,17.353,25.877,10.046,8.22,39.882-17.962,24.355-17.962,24.355l-8.677,47.949Z" transform="translate(-189.402 -267.762)" opacity="0.1"/><path d="M270.3,515.031l22.681-51.6s6.393-12.178,7.915-24.355c.974-7.733,4.658-18.327,7.185-24.994a38.583,38.583,0,0,1,7.215-11.873c6.606-7.367,18.571-19.271,25.177-16.714,9.438,3.653-8.22,17.353-8.22,17.353s25.877,10.046,8.22,39.882-17.962,24.355-17.962,24.355l-8.677,47.949Z" transform="translate(-188.011 -267.761)" fill="#fdc2cc"/><circle cx="0.913" cy="0.913" r="0.913" transform="translate(165.097 56.996)" fill="#fff" opacity="0.15"/><circle cx="0.913" cy="0.913" r="0.913" transform="translate(160.834 58.822)" fill="#fff" opacity="0.15"/><path d="M364.643,55.381c4.414-1.431,9.285-1.126,13.517-3.014,5.723-2.557,9.316-8.768,15.252-10.777a19.975,19.975,0,0,1,8.281-.578,48.98,48.98,0,0,1,24.568,9.712c5.876,4.475,11.386,10.564,18.753,11.051a38.793,38.793,0,0,1,5.328.244c4.506.974,7.215,5.632,8.524,10.047a37.771,37.771,0,0,1-4.78,31.235c-1.674,2.5-3.714,4.932-4.11,7.915-.4,2.923.852,5.937.122,8.8-.609,2.375-2.435,4.2-4.2,5.876q-9.225,8.722-18.814,16.988c-3.318-10.594,1.553-21.981.792-33.032-.3-4.323-1.827-9.011-5.632-11.051-3.562-1.888-8.1-.913-11.721-2.74-4.019-2.009-5.663-6.819-8.707-10.138-5.175-5.663-14.156-6.393-21.4-3.836S367.261,89.9,361.538,95.019l-10.412,9.316c-2.04-2.283-.487-5.815.609-8.677A34.863,34.863,0,0,0,353.623,82.2c-.091-3.653-1.34-7.276-1.279-10.808C352.527,64.362,358.067,57.481,364.643,55.381Z" transform="translate(-243.538 -28.281)" opacity="0.1"/><path d="M364.643,52.381c4.414-1.431,9.285-1.126,13.517-3.014,5.723-2.557,9.316-8.768,15.252-10.777a19.975,19.975,0,0,1,8.281-.578,48.98,48.98,0,0,1,24.568,9.712c5.876,4.475,11.386,10.564,18.753,11.051a38.791,38.791,0,0,1,5.328.244c4.506.974,7.215,5.632,8.524,10.046a37.771,37.771,0,0,1-4.78,31.235c-1.674,2.5-3.714,4.932-4.11,7.915-.4,2.923.852,5.937.122,8.8-.609,2.375-2.435,4.2-4.2,5.876q-9.225,8.722-18.814,16.988c-3.318-10.594,1.553-21.981.792-33.032-.3-4.323-1.827-9.011-5.632-11.051-3.562-1.888-8.1-.913-11.721-2.74-4.019-2.009-5.663-6.819-8.707-10.138-5.175-5.663-14.156-6.393-21.4-3.836S367.261,86.9,361.538,92.019l-10.412,9.316c-2.04-2.283-.487-5.815.609-8.677A34.863,34.863,0,0,0,353.623,79.2c-.091-3.653-1.34-7.276-1.279-10.808C352.527,61.362,358.067,54.481,364.643,52.381Z" transform="translate(-243.538 -26.194)" fill="#865a61"/></g></svg>