<svg xmlns="http://www.w3.org/2000/svg" width="13.774" height="13.774" viewBox="0 0 13.774 13.774"><path d="M3.053,142.872l-.479,1.79L.821,144.7a6.9,6.9,0,0,1-.051-6.431h0l1.56.286.683,1.551a4.11,4.11,0,0,0,.039,2.767Z" transform="translate(0 -134.548)" fill="#fbbb00"/><path d="M268.243,208.176a6.884,6.884,0,0,1-2.455,6.658h0l-1.965-.1L263.545,213a4.1,4.1,0,0,0,1.766-2.1h-3.683v-2.725h6.615Z" transform="translate(-254.589 -202.575)" fill="#518ef8"/><path d="M40.887,313.343h0a6.889,6.889,0,0,1-10.378-2.107l2.232-1.827a4.1,4.1,0,0,0,5.9,2.1Z" transform="translate(-29.688 -301.085)" fill="#28b446"/><path d="M39.137,1.586,36.906,3.412a4.1,4.1,0,0,0-6.038,2.145L28.624,3.72h0A6.889,6.889,0,0,1,39.137,1.586Z" transform="translate(-27.854)" fill="#f14336"/></svg>