<svg xmlns="http://www.w3.org/2000/svg" width="32" height="34.288" viewBox="0 0 32 34.288"><g transform="translate(0 0.001)"><path d="M367.84,69.873l1.087-.354,1.116,3.429-1.087.354Zm0,0" transform="translate(-341.564 -64.554)" fill="#21418e"/><path d="M344.391,125.881l1.087-.354,1.116,3.429-1.087.354Zm0,0" transform="translate(-319.79 -116.561)" fill="#21418e"/><path d="M52.3,10.987a3.114,3.114,0,0,0,.7,2.431l.825,1.035V24h1.143V15.354l.826.55a.572.572,0,0,0,.635,0l1.4-.933,1.4.931a.572.572,0,0,0,.635,0l1.4-.931,1.4.931a.572.572,0,0,0,.634,0l1.4-.931,1.4.931a.572.572,0,0,0,.635,0l1.4-.931,1.143.762V33.144H56.68v1.143h16a2.861,2.861,0,0,0,2.857-2.857V14.286a.567.567,0,0,0-.123-.346l3.3-8.792A3.849,3.849,0,0,0,78.283,1.6,3.652,3.652,0,0,0,75.248,0a3.742,3.742,0,0,0-3.471,2.435l-.9,2.385L69.824,3.763V1.713a.572.572,0,0,0-.572-.571H62.966a.572.572,0,0,0-.572.571v.981a1.785,1.785,0,0,0-2.3-.078v-.9a1.694,1.694,0,0,0-3.388,0v.9a1.749,1.749,0,0,0-2.365.128,1.811,1.811,0,0,0-.01,2.512l.532.549a1.75,1.75,0,0,0-.519.364l0,0-.006.006a1.759,1.759,0,0,0-.326.466l-.651-1.2-1.005.544,1.478,2.728c-.066.038-.133.074-.2.117-.023.016-.044.034-.067.05L51.353,6.841l-.775.84,2.2,2.025a3.118,3.118,0,0,0-.479,1.28ZM64.364,13.81l-1.4.933-1.4-.931a.572.572,0,0,0-.635,0l-1.384.923c0-.057-.013-.107-.013-.162a2.565,2.565,0,0,1,4.992-.835A.578.578,0,0,0,64.364,13.81Zm1.46.551-.011-.007a3.709,3.709,0,0,0-5.132-3.211V7.428h5.143ZM74.4,31.43a1.715,1.715,0,0,1-1.714,1.714H70.4V15.735l1.143-.763,1.4.931a.572.572,0,0,0,.635,0l.826-.549ZM72.847,2.836a2.594,2.594,0,0,1,2.4-1.694,2.523,2.523,0,0,1,2.1,1.111,2.708,2.708,0,0,1,.3,2.494L74.11,14.171l-.857.571-1.4-.931a.572.572,0,0,0-.635,0l-1.4.931-1.159-.773ZM70.44,5.994l-3.033,8.073-.44.294V7.093l2.286-2.286Zm-6.9-3.71h5.143V3.428H63.538ZM63.2,4.571h4.67L66.159,6.285h-4.67Zm-8.05-1.025a.608.608,0,0,1,.874,0l.839.857a.571.571,0,0,0,.979-.4V1.713a.551.551,0,1,1,1.1,0V4a.572.572,0,0,0,.979.4l.842-.857a.619.619,0,0,1,.869,0,.654.654,0,0,1,0,.914L59.953,6.171l.017.017-.265.265a.566.566,0,0,0-.11.163c-.008.018-.013.035-.019.054a.572.572,0,0,0-.031.151c0,.013-.007.023-.007.035V11.9a3.665,3.665,0,0,0-.361.4L58.1,10A3.086,3.086,0,0,0,56.12,8.4a3.011,3.011,0,0,0-.611-.093l-.146-.172c-.114-.131-.2-.233-.214-.247a.662.662,0,0,1-.171-.581.633.633,0,0,1,.158-.319l.01-.01.014-.015a.613.613,0,0,1,.769-.072.571.571,0,0,0,.73-.87l-1.51-1.559a.66.66,0,0,1,0-.916Zm-1.724,7.6a1.966,1.966,0,0,1,.844-1.364,1.928,1.928,0,0,1,2.8.726l1.457,3.1a3.652,3.652,0,0,0-.085.406l-.3-.2a.571.571,0,0,0-.634,0l-1.4.931L54.841,13.9l-.122-.153L56.192,12.6l-.7-.9L54.007,12.85l-.127-.158A1.979,1.979,0,0,1,53.429,11.143Zm0,0" transform="translate(-46.965)" fill="#21418e"/><path d="M1.22,330a2.563,2.563,0,0,0,2.306,1.426,2.6,2.6,0,0,0,1.153-.272l.463-.232.464.232a2.594,2.594,0,0,0,1.153.272A2.564,2.564,0,0,0,9.067,330l.2-.4a9.721,9.721,0,0,0,1.021-4.322,2.984,2.984,0,0,0-4.572-2.539v-.457A2.286,2.286,0,0,0,3.429,320v1.143a1.143,1.143,0,0,1,1.143,1.143v.457A2.984,2.984,0,0,0,0,325.282a9.719,9.719,0,0,0,1.021,4.323ZM3,323.429a1.838,1.838,0,0,1,1.31.543l.433.433a.572.572,0,0,0,.808,0l.433-.433a1.853,1.853,0,0,1,3.164,1.31,8.561,8.561,0,0,1-.9,3.812l-.2.4a1.428,1.428,0,0,1-1.284.792,1.456,1.456,0,0,1-.642-.151l-.719-.36a.57.57,0,0,0-.511,0l-.719.36a1.457,1.457,0,0,1-.642.151,1.428,1.428,0,0,1-1.284-.794l-.2-.4a8.563,8.563,0,0,1-.9-3.811A1.856,1.856,0,0,1,3,323.429Zm0,0" transform="translate(0 -297.142)" fill="#21418e"/></g></svg>