<svg xmlns="http://www.w3.org/2000/svg" width="32" height="32.003" viewBox="0 0 32 32.003"><g transform="translate(-16.044 -15.999)"><path d="M54.559,42.071l-5.425-5.425a3.088,3.088,0,0,0-2.2-.911,3.137,3.137,0,0,0-.632.064,10.26,10.26,0,0,1-2.035-6.119A15.533,15.533,0,0,0,39.719,18.7,9.208,9.208,0,0,0,26.293,31.288l.8-.706A8.141,8.141,0,0,1,38.965,19.451,14.466,14.466,0,0,1,43.2,29.68a5.509,5.509,0,0,1-3.4,5.1.533.533,0,0,0-.247.777l.533.847a.533.533,0,0,0,.31.23A10.157,10.157,0,0,1,43.8,38.3a3.122,3.122,0,0,0,0,1.276l1.044-.221a2.042,2.042,0,0,1,.554-1.867l.092-.092a2.041,2.041,0,0,1,2.828-.056,3.085,3.085,0,0,0-1.983.9l-.092.092a3.1,3.1,0,0,0-.631.911l.971.442a2.033,2.033,0,0,1,.415-.6L47.092,39a2.042,2.042,0,0,1,2.887,0l.477.477a3.085,3.085,0,0,0-1.985.9l-.091.091a3.113,3.113,0,0,0-.267.3l.846.65a2.048,2.048,0,0,1,.175-.2l.092-.092a2.041,2.041,0,0,1,2.828-.056,3.085,3.085,0,0,0-1.983.9l-.092.092a3.109,3.109,0,0,0,0,4.4l.092.091a3.109,3.109,0,0,0,4.4,0l.092-.092a3.109,3.109,0,0,0,0-4.4Zm-9.822-5.425-.092.092a3.133,3.133,0,0,0-.435.546,11.207,11.207,0,0,0-3.333-1.619l-.1-.165a6.568,6.568,0,0,0,2.815-2.9,11.334,11.334,0,0,0,1.694,3.61A3.131,3.131,0,0,0,44.737,36.645ZM53.8,45.713l-.092.092a2.042,2.042,0,0,1-2.888,0l-.091-.091a2.042,2.042,0,0,1,0-2.888l.092-.092a2.042,2.042,0,0,1,2.888,0l.092.092h0a2.042,2.042,0,0,1,0,2.888Z" transform="translate(-7.425)" fill="#21418e"/><path d="M52.7,53.231l.69-.69.846.846L53.01,54.611l.754.754,1.223-1.223.69.69.754-.754-.69-.69.846-.846.846.846-.69.69.754.754.69-.69.846.846-.156.156.754.754.156-.156.69.69.754-.754-.69-.69.846-.846.846.846-.69.69.754.754.69-.69L64.745,57.5l.754-.754-1.756-1.756.846-.846,1.223,1.223.754-.754-1.223-1.223.69-.69-.754-.754-.69.69-.846-.846.846-.846.69.69.754-.754-.69-.69.69-.69-.754-.754-.69.69-.846-.846.69-.69-.754-.754-.69.69-.846-.846,1.223-1.223-.754-.754-1.223,1.223-.846-.846.69-.69-.754-.754-.69.69-.846-.846.69-.69-.754-.754-.69.69-.69-.69-.754.754.69.69-.846.846L55.365,43.41l-.754.754,1.223,1.223-.846.846L53.765,45.01l-.754.754,1.223,1.223-.846.846L52.164,46.61l-.754.754,1.223,1.223-.846.846-.69-.69-.754.754.69.69-.69.69.754.754.69-.69.846.846-.69.69Zm2.29-.6-.846-.846.846-.846.846.846Zm4.8-1.6-.846-.846.846-.846.846.846Zm1.6-.091.846.846-.846.846-.846-.846Zm-3.2-1.509-.846-.846.846-.846.846.846Zm-.754.754-.846.846-.846-.846.846-.846Zm-.091,1.6.846-.846.846.846-.846.846Zm2.446,2.446-.846-.846.846-.846.846.846Zm4.046-.846-.846.846-.846-.846.846-.846Zm0-3.2-.846.846-.846-.846.846-.846Zm-1.6-1.6-.846.846-.846-.846.846-.846Zm-1.6-1.6-.846.846-.846-.846.846-.846Zm-2.446-2.446.846.846-.846.846-.846-.846Zm-1.6,1.6.846.846-.846.846-.846-.846Zm-1.6,1.6.846.846-.846.846-.846-.846Zm-2.446,2.446.846-.846.846.846-.846.846Z" transform="translate(-32.012 -24.587)" fill="#21418e"/><path d="M25.607,253.958a4.465,4.465,0,0,1,3.649-.49l1.375.413a6.907,6.907,0,0,1,.345,2.16h1.067a8,8,0,1,0-3.429,6.566l-.61-.875a6.888,6.888,0,0,1-2.187,1.013l-.752-.859a6.291,6.291,0,0,1-1.556-4.143,4.44,4.44,0,0,1,.545-2.135,14.019,14.019,0,0,1,2.516,1.24l1.99,1.244.565-.9-1.99-1.244a15.106,15.106,0,0,0-2.441-1.231A4.423,4.423,0,0,1,25.607,253.958Zm4.451-1.364-.495-.148a5.532,5.532,0,0,0-4.521.607,5.468,5.468,0,0,0-1.421,1.28c-.462-.143-.932-.264-1.408-.363a12.5,12.5,0,0,1,4.548-4.309,6.98,6.98,0,0,1,3.3,2.933Zm-4.666-3.356a13.564,13.564,0,0,0-4.312,4.542c-.471-.061-.946-.1-1.421-.115A17.345,17.345,0,0,0,20.3,250.2,6.929,6.929,0,0,1,25.392,249.238Zm-8.284,6.8a6.953,6.953,0,0,1,.1-1.182q.472-.066.95-.1a16.286,16.286,0,0,1-1,2.095A6.978,6.978,0,0,1,17.108,256.04Zm2.009-4.876a16.279,16.279,0,0,1-.574,2.505c-.349.014-.7.04-1.046.078A6.948,6.948,0,0,1,19.118,251.164ZM17.5,258.334a17.363,17.363,0,0,0,1.814-3.61c.411,0,.822.028,1.232.068a13.514,13.514,0,0,0-1.321,6.228A6.951,6.951,0,0,1,17.5,258.334Zm6.763,4.253.32.365q-.268.021-.54.021a6.893,6.893,0,0,1-3.694-1.069,12.47,12.47,0,0,1,1.309-6.957,14.015,14.015,0,0,1,1.37.32,5.5,5.5,0,0,0-.585,2.474,7.359,7.359,0,0,0,1.82,4.845Z" transform="translate(0 -216.572)" fill="#21418e"/><path d="M223.466,383.994a3.7,3.7,0,0,0-1.865.5,3.734,3.734,0,1,0,0,6.465,3.733,3.733,0,1,0,1.865-6.966Zm2.656,3.5-.146-.146a2.041,2.041,0,0,0-2.888,0,.975.975,0,0,1-1.379,0l-.688-.688a2.666,2.666,0,0,1,5.1.834Zm-6.39-2.436a2.67,2.67,0,0,1,.955.176,3.726,3.726,0,0,0-.885,1.776,2.022,2.022,0,0,0-.447.338.975.975,0,0,1-1.379,0l-.688-.688A2.67,2.67,0,0,1,219.732,385.061Zm-2.656,2.9.146.146a2.043,2.043,0,0,0,2.567.263,3.722,3.722,0,0,0,.9,1.851,2.668,2.668,0,0,1-3.611-2.259Zm6.39,2.436a2.67,2.67,0,0,1-2.656-2.436l.146.146a2.041,2.041,0,0,0,2.888,0,.975.975,0,0,1,1.379,0l.688.688A2.67,2.67,0,0,1,223.466,390.395Z" transform="translate(-186.623 -343.459)" fill="#21418e"/></g></svg>