<svg xmlns="http://www.w3.org/2000/svg" width="32" height="31.808" viewBox="0 0 32 31.808"><g transform="translate(-16 -18.88)"><path d="M440.057,136.082a14.007,14.007,0,0,0-2.226-3.718l-.669-.8.819-.683.669.8a15.075,15.075,0,0,1,2.395,4Z" transform="translate(-393.085 -104.531)" fill="#21418e"/><path d="M93.665,144.2l-1.007-.351a15.052,15.052,0,0,1,2.657-4.7l.225-.27.819.683-.225.27A13.99,13.99,0,0,0,93.665,144.2Z" transform="translate(-71.548 -111.998)" fill="#21418e"/><path d="M128.061,174.392l-.984-.411a12.985,12.985,0,0,1,1.59-2.781l.853.64a11.916,11.916,0,0,0-1.459,2.552Z" transform="translate(-103.672 -142.165)" fill="#21418e"/><path d="M458.992,291.294l-1.031-.275a11.906,11.906,0,0,0,.4-3.066h1.067A12.976,12.976,0,0,1,458.992,291.294Z" transform="translate(-412.497 -251.135)" fill="#21418e"/><path d="M429.728,174.393a11.917,11.917,0,0,0-1.459-2.552l.853-.64a12.986,12.986,0,0,1,1.59,2.781Z" transform="translate(-384.784 -142.166)" fill="#21418e"/><path d="M122.667,361.08v2.133c0,1.273-1.429,2.363-4.133,3.152a38.524,38.524,0,0,1-18.4,0c-2.7-.789-4.133-1.879-4.133-3.152v-.533h1.067v.533c0,1.336,4.667,3.2,12.267,3.2s12.267-1.864,12.267-3.2v-.365a9.661,9.661,0,0,1-3.067,1.383,34.293,34.293,0,0,1-9.2,1.115c-.541,0-1.085-.01-1.619-.029l.039-1.066c.521.019,1.053.029,1.581.029,7.6,0,12.267-1.864,12.267-3.2,0-.567-.868-1.233-2.321-1.782l.376-1c1.665.628,2.646,1.382,2.927,2.247A1.706,1.706,0,0,1,122.667,361.08Z" transform="translate(-74.667 -316.792)" fill="#21418e"/><path d="M42.289,29.881l-.183-.219a2.456,2.456,0,0,0-1.135-1.723,11.958,11.958,0,0,0-4.631-1.668l-.148,1.057a10.9,10.9,0,0,1,4.219,1.519,1.376,1.376,0,0,1,0,2.343A10.926,10.926,0,0,1,33.971,32.8L35.7,28.486a.533.533,0,0,0-.072-.522L28.69,18.9l-.847.648,6.749,8.826-1.719,4.3h0a11.073,11.073,0,0,1-1.405-.331V28.821H30.4V34.1a2.672,2.672,0,0,1-2.133-2.613v-1.6a.534.534,0,0,0-.156-.377l-.248-.247a5.866,5.866,0,0,1-1.729-4.175V22.421H25.067v1.727l-4.39-5.268-.82.683,5.253,6.3a6.91,6.91,0,0,0,1.9,4.053,10.835,10.835,0,0,0-1.606,2.635h-.341a.534.534,0,0,0-.377.156l-3.043,3.044H16v1.067h5.867a.534.534,0,0,0,.377-.156l3.043-3.044h1.349a4.586,4.586,0,0,1-1.322,2.731l-.625.625a.534.534,0,0,0,.261.9l4.8,1.067a.524.524,0,0,0,.116.013h2.667a.533.533,0,0,1,0,1.067H29.925L26.249,39.2l-.232,1.041,3.733.829a.524.524,0,0,0,.116.013H33.6a.533.533,0,0,1,0,1.067H29.925l-3.676-.817-.232,1.041,3.733.829a.524.524,0,0,0,.116.013h2.667a.533.533,0,1,1,0,1.067H29.925l-3.676-.817-.232,1.041,3.733.829a.524.524,0,0,0,.116.013h1.6a.533.533,0,1,1,0,1.067H29.925l-4.679-1.04-4.208-2.1a.539.539,0,0,0-.239-.056H16v1.067h4.674l4.154,2.077a.549.549,0,0,0,.123.043l4.8,1.067a.525.525,0,0,0,.116.013h1.6a1.6,1.6,0,0,0,1.6-1.6,1.581,1.581,0,0,0-.113-.59,1.591,1.591,0,0,0,.771-.477h5.054a5.329,5.329,0,0,0,4.657-2.74A10.836,10.836,0,0,0,42.289,29.881ZM26.579,32.555a9.606,9.606,0,0,1,.621-1.093v.027a3.694,3.694,0,0,0,.163,1.092.53.53,0,0,0-.163-.025ZM42.5,41.563a4.264,4.264,0,0,1-3.725,2.192H34.133a1.581,1.581,0,0,0-.113-.59,1.6,1.6,0,0,0,0-3.087,1.581,1.581,0,0,0,.113-.59,1.6,1.6,0,0,0-1.6-1.6H29.925l-3.8-.843a5.637,5.637,0,0,0,1.595-3.65,3.734,3.734,0,0,0,3.209,1.827.533.533,0,0,0,.533-.533V33.451a11.985,11.985,0,0,0,9.5-1.352,2.446,2.446,0,0,0,.909-1,9.712,9.712,0,0,1,1.138,2.059,4.485,4.485,0,0,1-.929.761,14.2,14.2,0,0,1-2.826,1.334l.347,1.009a15.23,15.23,0,0,0,3.038-1.435,5.43,5.43,0,0,0,.747-.551,9.715,9.715,0,0,1,.337,2.389,17.354,17.354,0,0,1-4.408,1.919l.287,1.028a18.375,18.375,0,0,0,4.059-1.675A9.786,9.786,0,0,1,42.5,41.563Z" transform="translate(0 0)" fill="#21418e"/><path d="M319.38,322.213l-.1-1.062c.345-.031.693-.073,1.035-.124l.159,1.055C320.116,322.136,319.746,322.18,319.38,322.213Z" transform="translate(-283.066 -282.003)" fill="#21418e"/><path d="M319.246,273.619l-.116-1.06c.343-.038.689-.088,1.028-.151l.194,1.049C319.987,273.524,319.615,273.578,319.246,273.619Z" transform="translate(-282.921 -236.626)" fill="#21418e"/></g></svg>