<svg xmlns="http://www.w3.org/2000/svg" width="32" height="32.151" viewBox="0 0 32 32.151"><g transform="translate(-2.24 -2.199)"><path d="M31.989,11.151H30.376V9.538A.538.538,0,0,0,29.839,9H27.688a.538.538,0,0,0-.538.538v1.613H25.538a.538.538,0,0,0-.538.538v2.151a.538.538,0,0,0,.538.538h1.613v1.613a.538.538,0,0,0,.538.538h2.151a.538.538,0,0,0,.538-.538V14.376h1.613a.538.538,0,0,0,.538-.538V11.688A.538.538,0,0,0,31.989,11.151ZM31.452,13.3H29.839a.538.538,0,0,0-.538.538v1.613H28.226V13.839a.538.538,0,0,0-.538-.538H26.075V12.226h1.613a.538.538,0,0,0,.538-.538V10.075H29.3v1.613a.538.538,0,0,0,.538.538h1.613Z" transform="translate(-10.523 -3.145)" fill="#21418e"/><path d="M47.371,16.274a2.463,2.463,0,0,0,.016-.285,2.161,2.161,0,0,0-1.71-2.1,2.189,2.189,0,0,0-2.527,1.6L40.785,22.29a.877.877,0,0,0-.1.048L35.93,25.123A4.848,4.848,0,0,0,33.538,29.3V34.36A.538.538,0,0,0,33,34.9v4.3a.538.538,0,0,0,.538.538h7.527A.538.538,0,0,0,41.6,39.2V34.9a.538.538,0,0,0-.538-.538V33.177a1.634,1.634,0,0,1,.538-1.2l3.634-3.231a2.651,2.651,0,0,0,.817-1.317L48.387,18.7a2.126,2.126,0,0,0,.075-.559,2.161,2.161,0,0,0-1.091-1.866ZM44.177,15.8a1.136,1.136,0,0,1,1.28-.86,1.075,1.075,0,0,1,.855,1.048V16a2.2,2.2,0,0,0-2.091,1.645l-1.5,4.629a2.258,2.258,0,0,0-.72-.2Zm-3.651,22.86H34.075V35.435h6.452Zm6.823-20.242L45.011,27.15a1.6,1.6,0,0,1-.484.785l-3.64,3.231a2.718,2.718,0,0,0-.9,2.011V34.36H34.613V29.3a3.791,3.791,0,0,1,1.86-3.247l4.747-2.78a1.075,1.075,0,0,1,1.473.392,1.108,1.108,0,0,1,.108.817,1.075,1.075,0,0,1-.505.651l-3.081,1.78a.538.538,0,0,0,.538.93l3.081-1.78a2.123,2.123,0,0,0,1.005-1.306,2.154,2.154,0,0,0-.215-1.629l-.032-.048,1.661-5.124a1.136,1.136,0,0,1,1.28-.86,1.075,1.075,0,0,1,.855,1.048A.926.926,0,0,1,47.349,18.419Z" transform="translate(-14.222 -5.386)" fill="#21418e"/><path d="M17.165,34.361V29.3a4.848,4.848,0,0,0-2.392-4.172l-4.753-2.79c-.032-.016-.07-.027-.1-.043L7.568,15.523a2.208,2.208,0,0,0-2.543-1.634,2.161,2.161,0,0,0-1.71,2.1,2.461,2.461,0,0,0,.016.285A2.161,2.161,0,0,0,2.24,18.141a2.377,2.377,0,0,0,.07.559l2.339,8.72a2.643,2.643,0,0,0,.817,1.323l3.629,3.231a1.619,1.619,0,0,1,.543,1.2v1.183A.538.538,0,0,0,9.1,34.9v4.3a.538.538,0,0,0,.538.538h7.527A.538.538,0,0,0,17.7,39.2V34.9A.538.538,0,0,0,17.165,34.361ZM4.391,15.99a1.075,1.075,0,0,1,.849-1.048,1.162,1.162,0,0,1,1.3.9L8.7,22.071a2.258,2.258,0,0,0-.72.2l-1.489-4.6A2.231,2.231,0,0,0,4.391,16ZM9.81,31.168,6.175,27.936a1.594,1.594,0,0,1-.484-.79L3.348,18.42a1.14,1.14,0,0,1-.032-.28,1.075,1.075,0,0,1,.849-1.048,1.153,1.153,0,0,1,1.3.887l1.651,5.1-.032.048a2.154,2.154,0,0,0-.215,1.629A2.123,2.123,0,0,0,7.869,26.06l3.081,1.78a.538.538,0,0,0,.538-.93L8.407,25.13A1.075,1.075,0,0,1,7.9,24.48a1.108,1.108,0,0,1,.108-.817,1.075,1.075,0,0,1,1.468-.4l4.753,2.785a3.791,3.791,0,0,1,1.86,3.247v5.065H10.713V33.178A2.7,2.7,0,0,0,9.81,31.168Zm6.817,7.495H10.175V35.437h6.452Z" transform="translate(0 -5.388)" fill="#21418e"/><path d="M31.714,3.776a5.373,5.373,0,0,0-7.606,0h0a5.376,5.376,0,1,0-7.605,7.6L23.728,18.6a.538.538,0,0,0,.76,0l7.226-7.226a5.38,5.38,0,0,0,0-7.6ZM24.108,17.461l-6.846-6.846a4.3,4.3,0,0,1,3.045-7.34,4.256,4.256,0,0,1,3.039,1.262l.382.382a.538.538,0,0,0,.76,0l.383-.383a4.3,4.3,0,0,1,6.083,6.078Z" transform="translate(-5.868)" fill="#21418e"/></g></svg>