<svg xmlns="http://www.w3.org/2000/svg" width="32" height="32" viewBox="0 0 32 32"><g transform="translate(-1 -1)"><path d="M33,13.9a2.584,2.584,0,0,0-2.581-2.581H27.868a9.7,9.7,0,0,1,1.566-2.388,2.312,2.312,0,0,0,2.884-.326,2.35,2.35,0,0,0,0-3.309L28.723,1.686a2.325,2.325,0,0,0-3.3,0,2.348,2.348,0,0,0-.333,2.875,9.727,9.727,0,0,1-3.083,1.88,10.76,10.76,0,0,0-3.857,2.483l-2.4,2.4H14.366a6.7,6.7,0,0,0,3.15-5.677A.516.516,0,0,0,17,5.129H14.419V1.516A.516.516,0,0,0,13.9,1,6.705,6.705,0,0,0,8.234,4.137,8.779,8.779,0,0,0,1.516,1,.516.516,0,0,0,1,1.516V3.581a8.771,8.771,0,0,0,4.646,7.742H3.581a2.579,2.579,0,0,0-1.032,4.942v.219a14.486,14.486,0,0,0,7.324,12.57.626.626,0,0,1,.3.392.447.447,0,0,1-.056.357,2.043,2.043,0,0,0-.335,1.276A2.116,2.116,0,0,0,11.922,33H22.078a2.116,2.116,0,0,0,2.143-1.921,2.044,2.044,0,0,0-.335-1.276.447.447,0,0,1-.056-.357.628.628,0,0,1,.3-.392,14.485,14.485,0,0,0,7.324-12.57v-.219A2.582,2.582,0,0,0,33,13.9ZM28.663,8.251a10.75,10.75,0,0,0-.932,1.2L24.559,6.281a10.715,10.715,0,0,0,1.208-.941ZM26.156,2.415a1.293,1.293,0,0,1,1.836,0l3.595,3.613A1.3,1.3,0,0,1,29.75,7.88L26.156,4.267A1.316,1.316,0,0,1,26.156,2.415Zm-7.274,7.24a9.732,9.732,0,0,1,3.489-2.246,10.84,10.84,0,0,0,1.272-.584l3.546,3.546c-.163.308-.309.626-.444.953H17.214ZM11.309,11.3a6.706,6.706,0,0,0,3.085-5.137h2.068A5.687,5.687,0,0,1,11.309,11.3Zm2.078-9.243v3.59A5.684,5.684,0,0,1,8.859,11.2L9.8,9.988a12.957,12.957,0,0,0,2.546-5.807l-1.018-.17A11.921,11.921,0,0,1,8.988,9.355l-.762.98V7.71a5.685,5.685,0,0,1,5.161-5.654ZM2.032,3.581V2.049A7.745,7.745,0,0,1,7.707,5.142a6.67,6.67,0,0,0-.491,2.13A9.8,9.8,0,0,1,4.245,3.755l-.2-.4-.924.461.2.405A10.828,10.828,0,0,0,7.194,8.506v2.376A7.738,7.738,0,0,1,2.032,3.581ZM23.616,28.157a1.657,1.657,0,0,0-.791,1.049,1.472,1.472,0,0,0,.2,1.167,1.016,1.016,0,0,1,.166.636,1.1,1.1,0,0,1-1.113.959H11.922a1.1,1.1,0,0,1-1.113-.958,1.02,1.02,0,0,1,.166-.636,1.474,1.474,0,0,0,.2-1.167,1.656,1.656,0,0,0-.791-1.049,13.454,13.454,0,0,1-6.8-11.674H30.419a13.452,13.452,0,0,1-6.8,11.673Zm6.8-12.706H3.581a1.548,1.548,0,1,1,0-3.1H30.419a1.548,1.548,0,1,1,0,3.1Z" fill="#21418e"/><path d="M48.829,35.006l-1.017-.179a11.377,11.377,0,0,1-6.247,8.253l.45.93A12.415,12.415,0,0,0,48.829,35.006Z" transform="translate(-19.628 -16.368)" fill="#21418e"/><path d="M8,33H20.387v1.032H8Z" transform="translate(-3.387 -15.484)" fill="#21418e"/><path d="M34,33h1.032v1.032H34Z" transform="translate(-15.968 -15.484)" fill="#21418e"/></g></svg>