<svg xmlns="http://www.w3.org/2000/svg" width="28" height="28" viewBox="0 0 28 28"><g transform="translate(4.667 2.333)"><path d="M7.789,23.291c-.141,0-.24,0-.332,0l-.168-.006a2.583,2.583,0,0,1-.47-.055A17.968,17.968,0,0,1,4.1,22.832l-.3-.063c-1.807-.4-2.943-1.127-3.471-2.219A3.425,3.425,0,0,1,0,19.09a3.355,3.355,0,0,1,.335-1.474c.545-1.094,1.837-1.88,3.738-2.272A19.534,19.534,0,0,1,6.8,14.957c.838-.073,1.689-.11,2.532-.11s1.694.037,2.532.11L12.4,15a20.088,20.088,0,0,1,2.185.34c2.015.415,3.207,1.142,3.751,2.289a3.4,3.4,0,0,1,0,2.921c-.541,1.141-1.764,1.886-3.737,2.274l-.546.113a18.332,18.332,0,0,1-2.193.286c-.835.071-1.682.107-2.518.107C8.823,23.333,8.3,23.319,7.789,23.291Zm-.856-6.65A18.117,18.117,0,0,0,4.417,17,3.745,3.745,0,0,0,1.845,18.36a1.653,1.653,0,0,0-.163.728,1.694,1.694,0,0,0,.162.732c.3.615,1.2,1.085,2.6,1.359l.412.087a18.092,18.092,0,0,0,2.186.291,2.147,2.147,0,0,0,.335.039l.459.007c.5.027,1.01.041,1.512.041.791,0,1.594-.034,2.388-.1a16.735,16.735,0,0,0,2.522-.368l.263-.056c1.238-.28,2.034-.728,2.3-1.293a1.706,1.706,0,0,0,0-1.469c-.286-.6-1.176-1.073-2.577-1.362a18.171,18.171,0,0,0-2.511-.354l-.015,0c-.788-.069-1.588-.1-2.377-.1S7.732,16.571,6.933,16.641ZM3.141,6.224a6.2,6.2,0,1,1,6.2,6.224A6.218,6.218,0,0,1,3.141,6.224Zm1.682,0A4.516,4.516,0,1,0,9.339,1.689,4.53,4.53,0,0,0,4.823,6.224Z" transform="translate(0)" fill="#28231c"/></g></svg>