<svg xmlns="http://www.w3.org/2000/svg" width="22.167" height="23.333" viewBox="0 0 22.167 23.333"><path d="M7.741,21.9V18.335A1.655,1.655,0,0,1,9.4,16.686h3.353a1.667,1.667,0,0,1,1.174.483,1.643,1.643,0,0,1,.486,1.166V21.9a1.415,1.415,0,0,0,.415,1.011,1.436,1.436,0,0,0,1.016.42h2.288a4.037,4.037,0,0,0,2.851-1.166,3.978,3.978,0,0,0,1.182-2.827V9.178a2.885,2.885,0,0,0-1.045-2.219L13.34.789A3.614,3.614,0,0,0,8.733.871l-7.6,6.087A2.886,2.886,0,0,0,0,9.178V19.33a4.018,4.018,0,0,0,4.032,4H6.268a1.436,1.436,0,0,0,1.442-1.421Z" transform="translate(0 0)" fill="#21418e"/></svg>