<svg xmlns="http://www.w3.org/2000/svg" width="28" height="28" viewBox="0 0 28 28"><g transform="translate(3.851 2.658)"><path d="M15.415,17.129H5.676c-3.577,0-6.322-1.292-5.542-6.493l.908-7.048C1.521.993,3.177,0,4.629,0H16.5c1.474,0,3.033,1.068,3.588,3.588L21,10.636C21.662,15.249,18.992,17.129,15.415,17.129Z" transform="translate(0 5.297)" fill="none" stroke="#28231c" stroke-linecap="round" stroke-linejoin="round" stroke-miterlimit="10" stroke-width="1.5"/><path d="M10.1,5.04A5.04,5.04,0,0,0,5.062,0h0A5.04,5.04,0,0,0,0,5.04H0" transform="translate(5.473 0)" fill="none" stroke="#28231c" stroke-linecap="round" stroke-linejoin="round" stroke-miterlimit="10" stroke-width="1.5"/><path d="M.488.458H.435" transform="translate(13.506 9.837)" fill="none" stroke="#28231c" stroke-linecap="round" stroke-linejoin="round" stroke-miterlimit="10" stroke-width="1.5"/><path d="M.488.458H.435" transform="translate(6.704 9.837)" fill="none" stroke="#28231c" stroke-linecap="round" stroke-linejoin="round" stroke-miterlimit="10" stroke-width="1.5"/></g></svg>