<svg xmlns="http://www.w3.org/2000/svg" width="28" height="28" viewBox="0 0 28 28"><g transform="translate(2.333 2.333)"><path d="M16.317,23.333a3.487,3.487,0,0,1-3.471-3.494V16.264a3.487,3.487,0,0,1,3.471-3.5h3.546a3.486,3.486,0,0,1,3.47,3.5v3.574a3.486,3.486,0,0,1-3.47,3.494Zm-1.844-7.069v3.574a1.858,1.858,0,0,0,1.844,1.867h3.546a1.857,1.857,0,0,0,1.843-1.867V16.264A1.857,1.857,0,0,0,19.863,14.4H16.317A1.858,1.858,0,0,0,14.473,16.264Zm-11,7.069A3.487,3.487,0,0,1,0,19.839V16.264a3.487,3.487,0,0,1,3.471-3.5H7.016a3.487,3.487,0,0,1,3.471,3.5v3.574a3.487,3.487,0,0,1-3.471,3.494ZM1.627,16.264v3.574a1.858,1.858,0,0,0,1.844,1.867H7.016A1.858,1.858,0,0,0,8.86,19.839V16.264A1.858,1.858,0,0,0,7.016,14.4H3.471A1.858,1.858,0,0,0,1.627,16.264Zm14.689-5.7A3.487,3.487,0,0,1,12.846,7.07V3.494A3.487,3.487,0,0,1,16.317,0h3.546a3.486,3.486,0,0,1,3.47,3.494V7.07a3.486,3.486,0,0,1-3.47,3.494Zm-1.844-7.07V7.07a1.858,1.858,0,0,0,1.844,1.867h3.546A1.857,1.857,0,0,0,21.706,7.07V3.494a1.857,1.857,0,0,0-1.843-1.867H16.317A1.858,1.858,0,0,0,14.473,3.494Zm-11,7.07A3.487,3.487,0,0,1,0,7.07V3.494A3.487,3.487,0,0,1,3.471,0H7.016a3.487,3.487,0,0,1,3.471,3.494V7.07a3.487,3.487,0,0,1-3.471,3.494ZM1.627,3.494V7.07A1.858,1.858,0,0,0,3.471,8.937H7.016A1.858,1.858,0,0,0,8.86,7.07V3.494A1.858,1.858,0,0,0,7.016,1.627H3.471A1.858,1.858,0,0,0,1.627,3.494Z" fill="#28231c"/></g></svg>