<svg xmlns="http://www.w3.org/2000/svg" width="20" height="20" viewBox="0 0 20 20"><g transform="translate(1.667 1.667)"><path d="M15.683,16.549l-.069-.059-2.606-2.542a8.085,8.085,0,0,1-5,1.717A7.932,7.932,0,0,1,0,7.833,7.932,7.932,0,0,1,8.009,0a7.932,7.932,0,0,1,8.01,7.833,7.709,7.709,0,0,1-2.109,5.291l2.576,2.512a.6.6,0,0,1,0,.853.628.628,0,0,1-.8.059ZM1.234,7.833a6.71,6.71,0,0,0,6.775,6.626,6.71,6.71,0,0,0,6.776-6.626A6.71,6.71,0,0,0,8.009,1.207,6.71,6.71,0,0,0,1.234,7.833Z" fill="#21418e"/></g></svg>