<svg xmlns="http://www.w3.org/2000/svg" width="13" height="13" viewBox="0 0 13 13"><g transform="translate(1.095 1.095)"><path d="M2.4,10.833A2.4,2.4,0,0,1,0,8.544l0-.113V2.4A2.4,2.4,0,0,1,2.289,0L2.4,0h2.64a2.4,2.4,0,0,1,2.4,2.289l0,.113v.505a.406.406,0,0,1-.809.056l0-.056V2.4A1.59,1.59,0,0,0,5.136.815l-.094,0H2.4a1.59,1.59,0,0,0-1.587,1.5l0,.094V8.431a1.59,1.59,0,0,0,1.5,1.587l.094,0H5.048A1.585,1.585,0,0,0,6.63,8.53l0-.093V7.926a.407.407,0,0,1,.809-.055l0,.055v.511a2.4,2.4,0,0,1-2.281,2.394l-.117,0Zm6.442-3.55a.406.406,0,0,1-.038-.529l.039-.046.888-.885H4.2a.406.406,0,0,1-.055-.809l.055,0H9.735l-.889-.885A.406.406,0,0,1,8.8,3.6l.039-.046a.407.407,0,0,1,.529-.04l.045.039L11,5.128a.4.4,0,0,1,.116.236h0v.009h0v.01h0q0,.015,0,.031h0s0,.005,0,.008v.033h0a.4.4,0,0,1-.039.136h0l0,.007,0,.006v0l0,.007h0l0,.007h0l0,.007h0l0,.007h0l0,.006v0l0,.005,0,0h0A.408.408,0,0,1,11,5.714L9.418,7.284a.406.406,0,0,1-.574,0Z" fill="#200e32"/></g></svg>