<svg xmlns="http://www.w3.org/2000/svg" width="20" height="20" viewBox="0 0 20 20"><g transform="translate(1.667 2.083)"><path d="M10.4,12.738a3.136,3.136,0,1,1,3.135,3.1A3.118,3.118,0,0,1,10.4,12.738Zm1.471,0a1.665,1.665,0,1,0,1.664-1.643A1.656,1.656,0,0,0,11.866,12.738ZM.736,13.464a.726.726,0,1,1,0-1.451H6.764a.726.726,0,1,1,0,1.451ZM0,3.095A3.118,3.118,0,0,1,3.135,0,3.119,3.119,0,0,1,6.271,3.095a3.119,3.119,0,0,1-3.136,3.1A3.119,3.119,0,0,1,0,3.095Zm1.471,0A1.665,1.665,0,1,0,3.135,1.451,1.656,1.656,0,0,0,1.471,3.095ZM9.9,3.82a.726.726,0,1,1,0-1.451h6.029a.726.726,0,1,1,0,1.451Z" fill="#21418e"/></g></svg>