<svg xmlns="http://www.w3.org/2000/svg" width="12" height="12" viewBox="0 0 12 12"><g transform="translate(1.5 1)"><path d="M2.566,9.981A1.458,1.458,0,0,1,1.1,8.567C.944,7.144.682,3.779.677,3.744a.4.4,0,0,1,.1-.279.354.354,0,0,1,.261-.117H7.97a.362.362,0,0,1,.261.117.372.372,0,0,1,.09.279c0,.034-.266,3.4-.419,4.823A1.459,1.459,0,0,1,6.4,9.981C5.757,10,5.125,10,4.5,10,3.841,10,3.194,10,2.566,9.981ZM.357,2.546A.365.365,0,0,1,0,2.178v-.19a.362.362,0,0,1,.357-.367H1.815a.641.641,0,0,0,.621-.507L2.511.773A.994.994,0,0,1,3.468,0H5.532a.994.994,0,0,1,.951.748l.081.365a.64.64,0,0,0,.621.508H8.644A.362.362,0,0,1,9,1.989v.19a.365.365,0,0,1-.356.367Z" transform="translate(0.5)" fill="#feeafa"/></g></svg>