<svg xmlns="http://www.w3.org/2000/svg" width="18.333" height="18.333" viewBox="0 0 18.333 18.333"><path d="M6.858,18.333a.64.64,0,0,1-.639-.64V11L.5,4.7a1.963,1.963,0,0,1-.5-1.153L0,3.384V1.933A1.916,1.916,0,0,1,1.894,0H16.44a1.916,1.916,0,0,1,1.893,1.933V3.351a1.965,1.965,0,0,1-.559,1.374l-6.2,6.289v4.763a.637.637,0,0,1-.287.533l-.08.045L7.131,18.271A.637.637,0,0,1,6.858,18.333ZM1.894,1.279a.637.637,0,0,0-.615.655V3.384a.672.672,0,0,0,.173.455l5.88,6.484a.637.637,0,0,1,.166.43v5.932l2.794-1.314V10.753a.637.637,0,0,1,.119-.373l.064-.076,6.388-6.478a.679.679,0,0,0,.191-.475V1.933a.636.636,0,0,0-.614-.655Z" transform="translate(0)" fill="#21418e"/></svg>