<svg xmlns="http://www.w3.org/2000/svg" width="18" height="18" viewBox="0 0 18 18"><path d="M5.092,18A4.918,4.918,0,0,1,0,12.9l0-.212V5.344A4.942,4.942,0,0,1,4.885.037l.207,0H8.4a.663.663,0,0,1,.09,1.32l-.09.006H5.092a3.6,3.6,0,0,0-3.76,3.774l0,.211V12.69c0,2.347,1.375,3.891,3.563,3.98l.2,0H12.9A3.6,3.6,0,0,0,16.663,12.9l0-.211V9.131a.664.664,0,0,1,1.321-.09l.006.09V12.69A4.937,4.937,0,0,1,13.109,18L12.9,18ZM5.4,13.193a.664.664,0,0,1-.664-.68l.083-3.34a2.57,2.57,0,0,1,.757-1.759L12.188.81a2.779,2.779,0,0,1,3.922,0l1.077,1.076a2.766,2.766,0,0,1,0,3.916l-6.646,6.635a2.57,2.57,0,0,1-1.828.757ZM6.512,8.351a1.25,1.25,0,0,0-.368.855l-.067,2.66H8.713a1.266,1.266,0,0,0,.8-.284L9.6,11.5l5.163-5.155L11.644,3.228ZM15.7,5.408l.544-.543a1.441,1.441,0,0,0,0-2.041L15.171,1.748a1.448,1.448,0,0,0-2.045,0l-.544.543Z" fill="#21418e"/></svg>