<svg xmlns="http://www.w3.org/2000/svg" width="38.567" height="32" viewBox="0 0 38.567 32"><g transform="translate(0 -43.592)"><path d="M32.668,146.814l-.812-2.143a.867.867,0,0,0-.12-.216l1-1.735a.783.783,0,0,0,.1-.348.58.58,0,0,0,0-.088.785.785,0,0,0-.1-.348l-1.227-2.126a.786.786,0,0,0-.679-.392H28.378a.786.786,0,0,0-.679.392l-1.227,2.126a.786.786,0,0,0,0,.784l1,1.735a.87.87,0,0,0-.12.216l-.811,2.141-.07.026-2.087-3.614a1.275,1.275,0,0,0-1.1-.636H4.625a1.275,1.275,0,0,0-1.1.636L.17,149.033a1.272,1.272,0,0,0,.182,1.515l12.684,13.26a1.272,1.272,0,0,0,1.838,0l6.052-6.326a8.963,8.963,0,1,0,11.742-10.667Zm-4.088-6.263H30.63l.7,1.21H29.238a.567.567,0,1,0,0,1.133h2.091l-.7,1.21H28.579l-1.026-1.776Zm-.229,4.686h2.508l.455,1.2a9.047,9.047,0,0,0-3.418,0ZM15.329,161.692l1.048-3.05a.567.567,0,0,0-1.072-.368l-1.35,3.93L9.88,150.34H18.03l-1.857,5.407a.567.567,0,0,0,1.072.368l1.984-5.775h6.96Zm-.465-12.485,2.337-4.766,2.337,4.766Zm3.246-5.487h4.673l-2.337,4.766Zm-4.155,4.766-2.337-4.766h4.674Zm-4.081-3.63a.567.567,0,0,0,.758-.259l.077-.157,2.337,4.766H8.373l1.073-2.189a.567.567,0,1,0-1.018-.5l-.965,1.968L5.127,143.72H9.8l-.185.378a.567.567,0,0,0,.259.758ZM8.682,150.34l3.9,11.351L1.723,150.34Zm17.053-2.514.005.009.792,1.372H21.355l2.378-4.849ZM4.177,144.358l2.378,4.849H1.378ZM29.6,163.066a7.838,7.838,0,0,1-7.73-6.578l.96-1A6.775,6.775,0,1,0,36.2,153.7a.567.567,0,0,0-1.1.256,5.641,5.641,0,1,1-11.043.25l3.5-3.659a1.266,1.266,0,0,0,.338-.688,5.65,5.65,0,0,1,6.147,1.9.567.567,0,0,0,.891-.7,6.784,6.784,0,0,0-7.347-2.286l-.539-.934A7.83,7.83,0,1,1,29.6,163.066Z" transform="translate(0 -88.608)" fill="#21418e"/><path d="M235.189,45.1v4.032a1.511,1.511,0,0,0,3.022,0V45.1a1.511,1.511,0,0,0-3.022,0Zm1.889,0v4.032a.378.378,0,0,1-.756,0V45.1a.378.378,0,0,1,.756,0Z" transform="translate(-217.473)" fill="#21418e"/><path d="M130.7,65.625a1.511,1.511,0,0,0-.553,2.064l2.016,3.491a1.511,1.511,0,0,0,2.768-.364,1.5,1.5,0,0,0-.151-1.147l-2.016-3.491A1.513,1.513,0,0,0,130.7,65.625Zm2.96,5.127a.378.378,0,0,1-.516-.138l-2.016-3.491a.378.378,0,1,1,.654-.378l2.016,3.491A.377.377,0,0,1,133.659,70.752Z" transform="translate(-120.155 -20.186)" fill="#21418e"/><path d="M317.94,65.614a1.511,1.511,0,0,0-2.064.553l-2.016,3.491a1.511,1.511,0,1,0,2.617,1.511l2.016-3.491a1.511,1.511,0,0,0-.553-2.064Zm-.428,1.5L315.5,70.6a.378.378,0,1,1-.654-.378l2.016-3.492a.378.378,0,1,1,.654.378Z" transform="translate(-290.03 -20.175)" fill="#21418e"/></g></svg>