<svg id="Page-1" xmlns="http://www.w3.org/2000/svg" width="57.995" height="22.092" viewBox="0 0 57.995 22.092">
  <g id="khalti-logo-01" transform="translate(0)">
    <g id="XMLID_486_" transform="translate(3.914)">
      <g id="XMLID_487_" transform="translate(0)">
        <path id="XMLID_488_" d="M22.518.592a1.171,1.171,0,0,0-.9-.392H1.308a1.142,1.142,0,0,0-.9.392,1.075,1.075,0,0,0-.274.941L1.582,15.471a3.489,3.489,0,0,0,1.451,2.274l7.175,4.234a2.608,2.608,0,0,0,1.274.314,2.553,2.553,0,0,0,1.274-.314l7.175-4.234a3.4,3.4,0,0,0,1.451-2.274L22.832,1.533A1.369,1.369,0,0,0,22.518.592ZM16.637,16.039a1.28,1.28,0,0,1-1.764-.333l-3.666-5.391L8.992,12.53v2.45a1.274,1.274,0,1,1-2.548,0V4.356a1.274,1.274,0,0,1,2.548,0V8.923l5.469-5.469a1.275,1.275,0,1,1,1.8,1.8L13.03,8.472c0,.02.02.02.02.039l3.921,5.744A1.307,1.307,0,0,1,16.637,16.039Z" transform="translate(-0.115 -0.2)" fill="#5d2e8e"/>
      </g>
    </g>
    <g id="XMLID_483_" transform="translate(26.199 2.842)">
      <g id="XMLID_484_" transform="translate(0 0)">
        <path id="XMLID_485_" d="M32.6,2.915V11.8a2.184,2.184,0,0,1-2.176,2.176H.8l.078-.941H30.42A1.255,1.255,0,0,0,31.655,11.8V2.876A1.255,1.255,0,0,0,30.42,1.641H2.074L2.153.7H30.42A2.192,2.192,0,0,1,32.6,2.915Z" transform="translate(-0.8 -0.7)" fill="#5d2e8e" fill-rule="evenodd"/>
      </g>
    </g>
    <g id="XMLID_479_" transform="translate(29.355 6.077)">
      <g id="XMLID_482_-link" transform="translate(0 0)">
        <path id="XMLID_482_" d="M1.488,1.2a.176.176,0,0,0-.2-.2H.9V.2h.9c.431,0,.627.118.627.568V3.925H2.86a.694.694,0,0,0,.51-.2L4.507,2.16H5.565L4.252,3.944a2.466,2.466,0,0,1-.372.372v.02s.176.059.314.372L4.9,6.022c.078.137.176.2.431.2H5.6V7H4.919a.726.726,0,0,1-.8-.451L3.233,4.924a.535.535,0,0,0-.49-.2H2.37V7.022H1.429Z" transform="translate(-0.9 -0.2)" fill="#5d2e8e" fill-rule="evenodd"/>
      </g>
    </g>
    <g id="XMLID_476_" transform="translate(34.432 6.096)">
      <g id="XMLID_477_" transform="translate(0 0)">
        <path id="XMLID_478_" d="M1.388,1.3a.176.176,0,0,0-.2-.2H.8V.3h.9c.431,0,.627.176.627.588v1.9a3.5,3.5,0,0,1-.02.392h.02A1.9,1.9,0,0,1,4.113,2.1c1.137,0,1.647.627,1.647,1.882v2.1a.176.176,0,0,0,.2.2h.392v.784h-.9c-.431,0-.627-.176-.627-.627V4.2c0-.686-.137-1.215-.9-1.215a1.594,1.594,0,0,0-1.529,1.2,2.341,2.341,0,0,0-.078.647V7.1H1.368Z" transform="translate(-0.8 -0.3)" fill="#5d2e8e" fill-rule="evenodd"/>
      </g>
    </g>
    <g id="XMLID_470_" transform="translate(40.607 7.92)">
      <g id="XMLID_473_-link" transform="translate(0 0)">
        <path id="XMLID_473_" d="M2.2,4.932A1.467,1.467,0,0,0,3.515,3.4V3.227H3.28c-.706,0-1.96.02-1.96.941C1.28,4.579,1.594,4.932,2.2,4.932ZM3.28,2.56h.2V2.5c0-.843-.314-1.157-1.078-1.157-.235,0-.8.059-.8.372v.274H.712V1.5C.712.7,1.927.6,2.378.6c1.568,0,1.98.823,1.98,1.9V4.579a.191.191,0,0,0,.2.216h.392v.784H4.064c-.431,0-.588-.2-.588-.568a1.549,1.549,0,0,1,.02-.274h-.02A1.663,1.663,0,0,1,1.947,5.7,1.521,1.521,0,0,1,.3,4.227C.339,2.678,2.476,2.56,3.28,2.56Z" transform="translate(-0.3 -0.6)" fill="#5d2e8e"/>
      </g>
    </g>
    <g id="XMLID_466_" transform="translate(45.645 6.136)">
      <g id="XMLID_469_-link" transform="translate(0 0)">
        <path id="XMLID_469_" d="M.431,1.3H0V.5H.9c.431,0,.627.176.627.627V6.263a.176.176,0,0,0,.2.2h.392v.784h-.9c-.431,0-.627-.176-.627-.627V1.5A.145.145,0,0,0,.431,1.3Z" transform="translate(0 -0.5)" fill="#5d2e8e" fill-rule="evenodd"/>
      </g>
    </g>
    <g id="XMLID_463_" transform="translate(48.194 6.685)">
      <g id="XMLID_464_" transform="translate(0 0)">
        <path id="XMLID_465_" d="M.627,2.4H0V1.653H.647V.3h.9V1.653H2.705V2.4H1.568V4.613a.976.976,0,0,0,1,1.117H2.8v.765a2.109,2.109,0,0,1-.314.02A1.665,1.665,0,0,1,.647,4.691V2.4Z" transform="translate(0 -0.3)" fill="#5d2e8e" fill-rule="evenodd"/>
      </g>
    </g>
    <g id="XMLID_460_" transform="translate(52.389 6.116)">
      <g id="XMLID_461_" transform="translate(0 0)">
        <path id="XMLID_462_" d="M.518.4h.588a.126.126,0,0,1,.118.118v.725a.126.126,0,0,1-.118.118H.518A.126.126,0,0,1,.4,1.243V.518A.1.1,0,0,1,.518.4Z" transform="translate(-0.4 -0.4)" fill="#5d2e8e" fill-rule="evenodd"/>
      </g>
    </g>
    <g id="XMLID_457_" transform="translate(51.761 8.037)">
      <g id="XMLID_458_" transform="translate(0 0)">
        <path id="XMLID_459_" d="M.788,1.2a.176.176,0,0,0-.2-.2H.2V.2h.9c.431,0,.627.176.627.627V4.062a.176.176,0,0,0,.2.2h.392v.784h-.9c-.431,0-.627-.176-.627-.627Z" transform="translate(-0.2 -0.2)" fill="#5d2e8e" fill-rule="evenodd"/>
      </g>
    </g>
    <g id="XMLID_432_" transform="translate(0 3.858) rotate(-6)">
      <g id="XMLID_453_-link" transform="translate(0.02 0.039)">
        <path id="XMLID_453_" d="M2.411,0,0,.294.9,7.449l2.254-.255Z" fill="#f9a61c" fill-rule="evenodd"/>
      </g>
      <g id="XMLID_454_">
        <g id="XMLID_455_">
          <rect id="XMLID_456_" width="3.234" height="7.527" fill="#f9a61c"/>
        </g>
      </g>
    </g>
  </g>
</svg>
