<svg id="credit" xmlns="http://www.w3.org/2000/svg" width="35.103" height="35.1" viewBox="0 0 35.103 35.1">
  <path id="Path_11689" data-name="Path 11689" d="M32.533.026H29.845a.514.514,0,0,0,0,1.028h2.688A1.544,1.544,0,0,1,34.075,2.6V4.358H1.031V2.6A1.544,1.544,0,0,1,2.574,1.054H26.832a.514.514,0,0,0,0-1.028H2.574A2.574,2.574,0,0,0,0,2.6v22.65a2.6,2.6,0,0,0,2.59,2.647H23.108l.011,6.72a.516.516,0,0,0,.906.332l3.552-4.171,5.479.235a.518.518,0,0,0,.373-.89l-2.469-2.3h1.572A2.574,2.574,0,0,0,35.1,25.247V2.6A2.574,2.574,0,0,0,32.533.026ZM22.141,5.387l-2.331,5.17H5.3A2.065,2.065,0,0,0,3.242,12.62v5.466A2.065,2.065,0,0,0,5.3,20.149h3.61a.514.514,0,0,0,0-1.028H5.3A1.036,1.036,0,0,1,4.27,18.086V12.62A1.036,1.036,0,0,1,5.3,11.585h24.21a1.036,1.036,0,0,1,1.035,1.035v5.466a1.036,1.036,0,0,1-1.035,1.035H11.651a.514.514,0,0,0,0,1.028h3.836l-2.993,6.64H2.574a1.544,1.544,0,0,1-1.542-1.542V5.387Zm5.55,24.363-.9-2.075a.514.514,0,0,0-.943.411l.9,2.075-2.6,3.057-.017-10.364,7.581,7.068Zm4.841-2.96H29.857l-5.895-5.5a.518.518,0,0,0-.865.377l.009,5.118H13.622l2.993-6.64h12.9a2.065,2.065,0,0,0,2.063-2.063V12.62a2.065,2.065,0,0,0-2.063-2.063H20.939l2.331-5.17H34.075v19.86A1.544,1.544,0,0,1,32.533,26.789Z" transform="translate(0 -0.026)" fill="#21418e"/>
  <path id="Path_11690" data-name="Path 11690" d="M345.408,191.624a.514.514,0,0,0,.514-.514v-4.06a.514.514,0,0,0-1.028,0v4.06A.514.514,0,0,0,345.408,191.624Z" transform="translate(-321.25 -173.752)" fill="#21418e"/>
  <path id="Path_11691" data-name="Path 11691" d="M224.469,191.535h1.7a.514.514,0,0,0,0-1.028h-1.181v-.983h1.056a.514.514,0,0,0,0-1.028h-1.056v-.983h1.181a.514.514,0,0,0,0-1.028h-1.7a.514.514,0,0,0-.514.514v4.023A.514.514,0,0,0,224.469,191.535Z" transform="translate(-208.602 -173.7)" fill="#21418e"/>
  <path id="Path_11692" data-name="Path 11692" d="M277.2,191.3a.535.535,0,0,0,.364.149c.034,0,.83.006,1.148,0,2.75-.054,2.76-5.011-.042-4.969h-1.116a.514.514,0,0,0-.514.518v3.872A.713.713,0,0,0,277.2,191.3Zm1.47-3.791c1,0,1.077,1.115,1.077,1.456,0,.987-.529,1.444-1.053,1.453-.143,0-.391,0-.619,0q0-1.455-.005-2.909Z" transform="translate(-258.051 -173.699)" fill="#21418e"/>
  <path id="Path_11693" data-name="Path 11693" d="M91.152,190.791a.514.514,0,0,0-.788-.661,1.447,1.447,0,0,1-2.4-1.127,1.521,1.521,0,0,1,2.363-1.258.514.514,0,0,0,.576-.852A2.553,2.553,0,0,0,86.935,189c-.045,2.145,2.746,3.463,4.217,1.788Z" transform="translate(-80.974 -173.676)" fill="#21418e"/>
  <path id="Path_11694" data-name="Path 11694" d="M373.818,187.512h.6v3.546a.514.514,0,0,0,1.028,0v-3.546h.612a.514.514,0,0,0,0-1.028h-2.242A.514.514,0,0,0,373.818,187.512Z" transform="translate(-347.716 -173.701)" fill="#21418e"/>
  <path id="Path_11695" data-name="Path 11695" d="M164.087,191.572a.514.514,0,0,0,.514-.514v-1.132l1.3,1.472a.514.514,0,0,0,.772-.679l-1.025-1.165a1.565,1.565,0,0,0-.476-3.07h-1.08a.514.514,0,0,0-.514.514v4.06A.514.514,0,0,0,164.087,191.572Zm1.08-4.06a.544.544,0,1,1,0,1.082l-.56,0c0-.361,0-.723,0-1.084h.563Z" transform="translate(-152.359 -173.7)" fill="#21418e"/>
  <path id="Path_11696" data-name="Path 11696" d="M38.3,33.25a.514.514,0,0,0,0-1.028A.514.514,0,0,0,38.3,33.25Z" transform="translate(-35.208 -30.015)" fill="#21418e"/>
  <path id="Path_11697" data-name="Path 11697" d="M69.587,33.25a.514.514,0,0,0,0-1.028A.514.514,0,0,0,69.587,33.25Z" transform="translate(-64.354 -30.015)" fill="#21418e"/>
  <path id="Path_11698" data-name="Path 11698" d="M100.879,33.25a.514.514,0,0,0,0-1.028A.514.514,0,0,0,100.879,33.25Z" transform="translate(-93.5 -30.015)" fill="#21418e"/>
</svg>
