<svg xmlns="http://www.w3.org/2000/svg" width="33.52" height="33.52" viewBox="0 0 33.52 33.52"><path d="M12.3,983.069a7.559,7.559,0,1,0,10.69,10.69l6.533-6.533a7.57,7.57,0,0,0,0-10.69,1.26,1.26,0,1,0-1.782,1.782,5,5,0,0,1,0,7.126l-6.533,6.533a5.039,5.039,0,1,1-7.127-7.127l6.533-6.533a1.26,1.26,0,1,0-1.782-1.782L12.3,983.069Zm11.878-11.878a7.571,7.571,0,0,0,0,10.69A1.26,1.26,0,0,0,25.96,980.1a5,5,0,0,1,0-7.127l6.533-6.533a5.039,5.039,0,1,1,7.127,7.126L33.087,980.1a1.26,1.26,0,1,0,1.782,1.782l6.533-6.533a7.559,7.559,0,1,0-10.69-10.69l-6.533,6.535Z" transform="translate(-10.091 -962.449)" fill="#21418e"/></svg>