<svg xmlns="http://www.w3.org/2000/svg" width="32" height="31.99" viewBox="0 0 32 31.99"><g transform="translate(0 -0.075)"><path d="M131.249,20.594a1.4,1.4,0,0,1-.243-1.151A5.616,5.616,0,0,0,127.1,12.82V5.77l.819-1.474a.469.469,0,0,0,.059-.228V1.231A1.157,1.157,0,0,0,126.82.075h-2.584a1.157,1.157,0,0,0-1.156,1.156V4.069a.469.469,0,0,0,.059.228l.819,1.474v7.048a5.641,5.641,0,0,0-2.4,1.425V12.713h.466a.469.469,0,1,0,0-.937H110.156a.469.469,0,1,0,0,.937h.427v3.548a8.891,8.891,0,0,0-1.131,12.493l-1.469,2.52a.469.469,0,1,0,.81.472l1.325-2.273a8.9,8.9,0,0,0,9.2,1.981.469.469,0,1,0-.318-.882,7.963,7.963,0,1,1,1.29-14.382,5.6,5.6,0,0,0-.233,3.291,1.329,1.329,0,0,1-.242,1.1c-.069.091-.134.183-.2.276a3.993,3.993,0,1,0-1.1,5.535A7.163,7.163,0,0,0,132.691,24.9a7.1,7.1,0,0,0-1.441-4.309Zm-5.721-1.124a2.737,2.737,0,0,0-.632.074V18.353h1.264v1.192A2.736,2.736,0,0,0,125.528,19.47Zm-.632-3.5h1.264v1.444H124.9Zm0-.937V13.59h1.264v1.444Zm1.264-8.916V7.889H124.9V6.118Zm0,2.709v1.444H124.9V8.826Zm0,2.382v1.444H124.9V11.208Zm-2.143-9.977a.219.219,0,0,1,.219-.219h2.584a.219.219,0,0,1,.219.219V3.947l-.685,1.233H124.7l-.685-1.233Zm-3.4,14.065a8.838,8.838,0,0,0-2.3-.884v-1.7h2.3Zm-6.875-2.584v1.838a8.767,8.767,0,0,0-2.223,1.021V12.713h2.223Zm.937,1.613V12.713h2.7v1.534a8.971,8.971,0,0,0-2.7.079ZM116.3,26.134a3.054,3.054,0,1,1,2.771-4.339,7.205,7.205,0,0,0-.695,3.524,3.021,3.021,0,0,1-2.076.815Zm13.647,3.152a6.225,6.225,0,0,1-9.386-8.136,2.264,2.264,0,0,0,.409-1.88,4.68,4.68,0,0,1,2.987-5.466v6.164a2.739,2.739,0,0,0,.271,4.657.469.469,0,0,0,.445-.825,1.8,1.8,0,1,1,1.69.01.469.469,0,1,0,.435.83,2.739,2.739,0,0,0,.3-4.672V13.8a4.68,4.68,0,0,1,2.994,5.435,2.335,2.335,0,0,0,.409,1.921,6.225,6.225,0,0,1-.551,8.126Z" transform="translate(-100.69)" fill="#21418e"/><path d="M76.962,203.4a.469.469,0,0,0-.469.469v18.218a.469.469,0,1,0,.937,0V203.865A.469.469,0,0,0,76.962,203.4Z" transform="translate(-71.712 -190.614)" fill="#21418e"/><path d="M9.052,77.743a1.452,1.452,0,0,0,.388.053,1.447,1.447,0,0,0,1.39-1.06l0-.007a1.445,1.445,0,0,0-1.006-1.778L1.834,72.735A1.445,1.445,0,0,0,.055,73.743l0,.007A1.445,1.445,0,0,0,1.06,75.528l3.721,1.032v2.574a.469.469,0,1,0,.937,0V76.819ZM.957,74l0-.007a.508.508,0,0,1,.625-.353l7.992,2.216a.508.508,0,0,1,.353.625l0,.007a.508.508,0,0,1-.625.353L1.31,74.624A.508.508,0,0,1,.957,74Z" transform="translate(0 -68.07)" fill="#21418e"/><path d="M361.128,432.5h-4.105a.469.469,0,1,0,0,.937h4.105a.469.469,0,1,0,0-.937Z" transform="translate(-334.27 -405.401)" fill="#21418e"/></g></svg>