<svg xmlns="http://www.w3.org/2000/svg" width="32.077" height="32.077" viewBox="0 0 32.077 32.077"><g transform="translate(0.001)"><path d="M65.035,448.517a.517.517,0,1,1-.517-.517A.517.517,0,0,1,65.035,448.517Zm0,0" transform="translate(-59.862 -419.027)" fill="#21418e"/><path d="M305.035,448.517a.517.517,0,1,1-.517-.517A.517.517,0,0,1,305.035,448.517Zm0,0" transform="translate(-284.34 -419.027)" fill="#21418e"/><path d="M241.035,448.517a.517.517,0,1,1-.517-.517A.517.517,0,0,1,241.035,448.517Zm0,0" transform="translate(-224.479 -419.027)" fill="#21418e"/><path d="M37.174,344H33.855L32,345.855v2.284h5.174Zm-1.035,3.1h-3.1v-.821l1.249-1.249h1.855Zm0,0" transform="translate(-29.931 -321.753)" fill="#21418e"/><path d="M32.077,6.208V3.465L29.767,0H6.448L4.138,3.465V6.208H5.173V20.178H2.889L0,23.068v5.905a1.554,1.554,0,0,0,1.552,1.552h.737a2.582,2.582,0,0,0,4.735,0H13.67a2.574,2.574,0,0,0,4.437.5,2.574,2.574,0,0,0,4.437-.5h.737a1.554,1.554,0,0,0,1.552-1.552v-1.13a1.531,1.531,0,0,0,.517.1h5.174a1.554,1.554,0,0,0,1.552-1.552V21.212a1.55,1.55,0,0,0-1.035-1.457V6.208ZM7,1.035H29.213L30.593,3.1h-.586V4.139h1.035V5.174H5.173V4.139H6.208V3.1H5.622ZM3.318,21.212h4.96v6.208H6.192a2.539,2.539,0,0,0-3.072,0H1.034V23.5Zm9.1-12.934h2.069V9.313H12.416Zm3.1,2.069V8.278h3.1v2.069H16.555v7.243H15.521V15.521H11.382v2.069h-3.1V8.278h3.1v2.069Zm6.208,1.035H23.8v1.035H21.729Zm3.1,2.069V11.382h3.1V19.66H25.351a1.531,1.531,0,0,0-.517.1V17.591H17.59V11.382h3.1v2.069ZM26.9,20.695h2.069V21.73H26.9Zm-5.19,6.726a2.554,2.554,0,0,0-3.606.533,2.554,2.554,0,0,0-3.606-.533H9.312v-8.8H23.8v8.8Zm-7.227-9.83H12.416V16.556h2.069ZM1.552,29.49a.518.518,0,0,1-.517-.517v-.517H2.288a2.561,2.561,0,0,0-.219,1.035Zm3.1,1.552A1.552,1.552,0,1,1,6.208,29.49,1.554,1.554,0,0,1,4.656,31.042Zm2.368-2.587H8.277V29.49H7.243a2.561,2.561,0,0,0-.219-1.035ZM9.312,29.49V28.456H13.67a2.561,2.561,0,0,0-.219,1.035Zm6.726,1.552A1.552,1.552,0,1,1,17.59,29.49,1.554,1.554,0,0,1,16.038,31.042Zm4.139,0a1.552,1.552,0,1,1,1.552-1.552A1.554,1.554,0,0,1,20.177,31.042Zm3.1-1.552h-.517a2.561,2.561,0,0,0-.219-1.035H23.8v.517a.518.518,0,0,1-.517.517ZM28.972,26.9H26.9V25.869h2.069Zm2.069-.517a.518.518,0,0,1-.517.517h-.517V24.834H25.868V26.9h-.517a.518.518,0,0,1-.517-.517V21.212a.518.518,0,0,1,.517-.517h.517v2.069h4.139V20.695h.517a.518.518,0,0,1,.517.517ZM30.007,19.66H28.972V10.347H19.66v-3.1H7.243V18.625H8.277v1.552H6.208V6.208h23.8Zm0,0" fill="#21418e"/><path d="M200,304v6.726h7.243V304Zm6.208,5.691h-5.174v-4.656h5.174Zm0,0" transform="translate(-187.066 -284.34)" fill="#21418e"/><path d="M112,48h21.73v1.035H112Zm0,0" transform="translate(-104.757 -44.896)" fill="#21418e"/></g></svg>