<svg xmlns="http://www.w3.org/2000/svg" width="329" height="176.3" viewBox="0 0 329 176.3"><ellipse cx="164.5" cy="12.9" rx="164.5" ry="12.9" transform="translate(0 150.5)" fill="#e6e6e6" opacity="0.3"/><path d="M34.7,86.1s-16.9,8.1-19.1,26.7S7.2,167.5,53,165.4s67.4-4.6,56.6-39.6S34.7,86.1,34.7,86.1Z" fill="#21418e"/><path d="M33,95.8a13.374,13.374,0,0,0,6.1,13.7c6.2,4.1,15.8,18.6,23.2,26a11.7,11.7,0,0,1,3.6,8.8,5.043,5.043,0,0,0,2.3,4.2c5.2,4.2,26.8,6.3,38.9-6.6s-3.9-19.4-3.9-19.4L50.1,93.7Z" opacity="0.09"/><path d="M150.5,159.3a6.091,6.091,0,0,0,4,3.5c2.8.6,4.4,4.1-1.8,3.5s-9.6.4-8.7-3,.5-3.9.5-3.9Z" fill="#f4a28c"/><path d="M109,156.9a6.461,6.461,0,0,0,1.6,5c2.1,2,1.7,5.8-3.4,2.1s-8.4-4.5-6-7,2.4-3.1,2.4-3.1Z" fill="#f4a28c"/><path d="M114.3,113.9s37.8.4,37.4,45.5l-8.9,1.5S141.1,113.3,92,136l2.6-18.7Z" fill="#24285b"/><path d="M114.3,113.9s37.8.4,37.4,45.5l-8.9,1.5S141.1,113.3,92,136l2.6-18.7Z" opacity="0.09"/><path d="M117.3,72.4l3.3.9-2.3-2.5Z" fill="#ffd200"/><path d="M65.8,94.7s6.5,16.5,22.5,13.6,22-36.3,22-36.3,6.3-4.1,3.3-8.7-8,5.3-8,5.3-6.9,28.2-21.7,19Z" fill="#f4a28c"/><path d="M65.8,94.7s6.5,16.5,22.5,13.6,22-36.3,22-36.3,6.3-4.1,3.3-8.7-8,5.3-8,5.3-6.9,28.2-21.7,19Z" opacity="0.09"/><path d="M66,61.2l3.5.7S96.1,76.3,91.2,90.8,97.1,119,97.1,119L74,135.3S43.8,120.3,48.3,79C48.1,79,50.2,59.8,66,61.2Z" fill="#dc3545"/><rect width="41.4" height="4.8" transform="translate(104.873 104.5) rotate(-64.322)" fill="#e6e6e6"/><path d="M64.7,43.1,59.9,60l9.5,2-.3-13.1Z" fill="#f4a28c"/><path d="M69.3,51.7a5.807,5.807,0,0,1-2.9-2.2s-.2,3.2,2.9,6.8Z" fill="#ce8172" opacity="0.31"/><path d="M74.6,43.6a36.674,36.674,0,0,1-2,8.7,2.634,2.634,0,0,1-3.5,1.4h0a5.842,5.842,0,0,1-3.8-5.2l-.8-4.9a4.882,4.882,0,0,1,3-4.7C70.8,37.1,75,40.3,74.6,43.6Z" fill="#f4a28c"/><path d="M68.2,47.1s.3-2-1.2-2.2-2,2.8,0,3.5Z" fill="#f4a28c"/><path d="M74.1,46.9l1.1,2.3a.841.841,0,0,1-.4,1.1c-.1.1-.2.1-.4.1H72.3Z" fill="#f4a28c"/><rect width="1.9" height="19" transform="translate(101.514 63.466) rotate(-60.112)" fill="#24285b"/><path d="M79.1,126.4l-5.3,9S54.5,126.1,49,100.8,61.7,85.4,61.7,85.4Z" opacity="0.18"/><path d="M73.8,135.4S91.6,99,118,99.2s-7.9,58.7-7.9,58.7l-8.7-3.5s13-25.1,9.6-33.2S102.8,168.8,73.8,135.4Z" fill="#24285b"/><path d="M58.6,63.3s7.9-4.1,12,4.1.9,43.4,17.2,45.2,24.7-15.2,24.7-15.2,1.4-7.2,3.6-8.4,4.2,6.4,0,10.7c0,0-7.2,27.1-30.1,27.7C63,128.1,36,81.8,58.6,63.3Z" fill="#f4a28c"/><path d="M74.6,36.6s5.2,6.1-1.5,7.4-8.1,2.5-7.5,9.3S68.9,66.4,60,70.8s-1.3,11.5-3,19.9-9.5,14.2-19.6,8.5S21.2,78.8,31.9,70,56.3,59.1,56.3,44.9,67.6,30,74.6,36.6Z" fill="#24285b"/><rect width="4" height="7.2" transform="matrix(0.356, -0.934, 0.934, 0.356, 109.678, 100.551)" fill="#2673d1"/><rect width="4" height="7.2" transform="matrix(0.356, -0.934, 0.934, 0.356, 109.678, 100.551)" fill="#fff" opacity="0.44"/><path d="M287.4,83.6s33.8,5.7,32.2,29.2c-1.2,18.7,8.4,54.6-37.4,52.6s-67.4-4.6-56.6-39.6C236.4,90.7,287.4,83.6,287.4,83.6Z" fill="#21418e"/><path d="M302.2,95.8a13.374,13.374,0,0,1-6.1,13.7c-6.2,4.1-15.8,18.6-23.2,26a12.077,12.077,0,0,0-3.6,8.8,5.043,5.043,0,0,1-2.3,4.2c-5.2,4.2-26.8,6.3-38.9-6.6s3.8-19.4,3.8-19.4l52.4-36.3C282.6,85.3,300.1,88.7,302.2,95.8Z" opacity="0.09"/><path d="M184.8,159.3a6.091,6.091,0,0,1-4,3.5c-2.8.6-4.4,4.1,1.8,3.5s9.6.4,8.7-3-.5-3.9-.5-3.9Z" fill="#f4a28c"/><path d="M214.3,160.9a6.321,6.321,0,0,1-3.3,4.2c-2.7,1.1-3.5,4.8,2.4,3.2s9.5-1.4,8-4.5-1.2-3.8-1.2-3.8Z" fill="#f4a28c"/><path d="M220.9,113.9s-37.8.4-37.4,45.5l8.9,1.5s1.7-47.6,50.8-24.9l-2.6-18.7Z" fill="#24285b"/><path d="M220.9,113.9s-37.8.4-37.4,45.5l8.9,1.5s1.7-47.6,50.8-24.9l-2.6-18.7Z" opacity="0.09"/><path d="M222.2,72.8s-13.5,6.9-18.1,3.8-5.9-20.8-5.9-20.8l-6.3,1.4s-2.4,34.8,8.3,38.4S229.5,90,229.5,90Z" fill="#f4a28c"/><path d="M259.1,72.8c-4.4,8.8-14.2,20.6-34.8,22.8l-4.4-22.2s15.7-9.9,32.3-11.2a7.265,7.265,0,0,1,7.7,6.8,8.385,8.385,0,0,1-.8,3.8Z" fill="#2673d1"/><path d="M259.1,72.8c-4.4,8.8-14.2,20.6-34.8,22.8l-4.4-22.2s15.7-9.9,32.3-11.2a7.265,7.265,0,0,1,7.7,6.8,8.385,8.385,0,0,1-.8,3.8Z" fill="#dc3545" opacity="0.83"/><path d="M197.9,55.8c.3-.1.6-6.8-.2-6.2a4.532,4.532,0,0,0-1.1,1.9s0-4.8-2.4-4.2-3.3,6-2.3,9.9l6-1.1" fill="#f4a28c"/><path d="M255.4,42.1a31.362,31.362,0,0,0,0,7.5,2.26,2.26,0,0,0,2.6,1.8h0a5.252,5.252,0,0,0,4.1-3.5l1.5-3.9a4.152,4.152,0,0,0-1.5-4.4C259.7,37.6,255.7,39.3,255.4,42.1Z" fill="#f4a28c"/><path d="M263.4,44.6l1.5,14.7-8.1.3L259,48.8Z" fill="#f4a28c"/><path d="M256.5,42.3a19.673,19.673,0,0,0,4.2-.1,3.618,3.618,0,0,0-.2,4.1,2.937,2.937,0,0,0,3.6,1.4l.2-5.8a4.643,4.643,0,0,0-2.1-4.2,11.4,11.4,0,0,0-1.9-1c-1.6-.8-4.1.2-5.6-1a1.087,1.087,0,0,0-1.5.1.764.764,0,0,0-.2.5c-.3,1.7-.2,4.5,2.1,5.6A10.26,10.26,0,0,0,256.5,42.3Z" fill="#dd6034"/><path d="M260,46.2s.1-1.7,1.4-1.5,1.1,2.7-.7,2.8Z" fill="#f4a28c"/><path d="M255.2,44.9l-1.4,1.7a.758.758,0,0,0,.1,1,.367.367,0,0,0,.3.1l1.7.4Z" fill="#f4a28c"/><path d="M258.4,51.1a5.407,5.407,0,0,0,2.7-1.4,8.3,8.3,0,0,1-3.4,5.2Z" fill="#ce8172" opacity="0.31"/><path d="M282.6,73.7a22.4,22.4,0,0,0-21.9-14.5l-3.6.1s-25.4-.1-27.3,23a78.9,78.9,0,0,0,8.5,41.4l34.1,1.2C272.4,125,290,94.1,282.6,73.7Z" fill="#dc3545"/><path d="M265.4,71.2s-4.9,17.1-3,33.8-2.9,19.5-2.9,19.5l13,.5s3.9-6.7,4.9-10.2S284,71.9,265.4,71.2Z" opacity="0.08"/><path d="M277.1,65c7.8,6,17.7,17.8,16,38.4l-22.6.2s-6.8-17.3-5-33.8a7.226,7.226,0,0,1,8.1-6.3,7.343,7.343,0,0,1,3.5,1.5Z" fill="#2673d1"/><path d="M277.1,65c7.8,6,17.7,17.8,16,38.4l-22.6.2s-6.8-17.3-5-33.8a7.226,7.226,0,0,1,8.1-6.3,7.343,7.343,0,0,1,3.5,1.5Z" fill="#dc3545" opacity="0.81"/><path d="M291,103.5s.6,30.6-8.2,48.2L278,151s4-29.3-4-47.3Z" fill="#f4a28c"/><path d="M282.7,151.7s-2.1,10.1-7.5,6.4,2.7-7.1,2.7-7.1Z" fill="#f4a28c"/><path d="M272,125.8S243.5,99,217.2,99.1s-6.1,65.4-6.1,65.4l8.7-3.5s1-31.9,4.3-39.9S240.5,166.4,272,125.8Z" fill="#24285b"/><path d="M230.4,18.3H189.6v7.6H179V0H114V39.2h64.9V27.8h10.6V43h31.7l6.1,9.3V43h3Z" fill="#d0e3c4"/><circle cx="2.5" cy="2.5" r="2.5" transform="translate(199.3 28.6)" opacity="0.09"/><circle cx="2.5" cy="2.5" r="2.5" transform="translate(207.4 28.6)" opacity="0.09"/><circle cx="2.5" cy="2.5" r="2.5" transform="translate(215.6 28.6)" opacity="0.09"/><circle cx="3.3" cy="3.3" r="3.3" transform="translate(130.9 14.6)" opacity="0.09"/><circle cx="3.3" cy="3.3" r="3.3" transform="translate(141.7 14.6)" opacity="0.09"/><circle cx="3.3" cy="3.3" r="3.3" transform="translate(152.4 14.6)" opacity="0.09"/></svg>