<svg xmlns="http://www.w3.org/2000/svg" width="22.653" height="32.346" viewBox="0 0 22.653 32.346"><g transform="translate(-76.71)"><g transform="translate(76.71)"><path d="M98.655,1.038A3.187,3.187,0,0,0,96.321,0H88.847A.632.632,0,0,0,88.3.309c-.575.97-.944,1.73-1.24,2.341-.746,1.54-.809,1.671-2.334,1.642a5.461,5.461,0,0,0-3.349.809A4.7,4.7,0,0,0,79.5,7.472a4.842,4.842,0,0,0-.083,3.009,4.992,4.992,0,0,0,1.421,2.244,1.949,1.949,0,0,0-.254.612,2.147,2.147,0,0,0-.046.338,8.224,8.224,0,0,0-3.8,7.416,7.749,7.749,0,0,0,4.928,6.3,5.719,5.719,0,0,0-.168,4.6.632.632,0,0,0,.567.353h4.649a.632.632,0,0,0,0-1.264H82.493a4.881,4.881,0,0,1,.369-3.252,6.254,6.254,0,0,0,1.4.148c2.189,0,4.768-.916,5.673-2.224a.632.632,0,1,0-1.039-.719,4.965,4.965,0,0,1-2.656,1.42,6.227,6.227,0,0,1-3.452.039C79.921,25.4,78.22,23.445,78,20.978a6.957,6.957,0,0,1,3.254-6.259,11.174,11.174,0,0,1,1.391.229l11.014,2.524c3.169,3.849,3.959,8.307,2.408,13.61H92.387a.632.632,0,1,0,0,1.264h4.145a.632.632,0,0,0,.6-.442,17.44,17.44,0,0,0,.65-8.85,14.449,14.449,0,0,0-2.329-5.3,2.714,2.714,0,0,0,1.382-.5A3.229,3.229,0,0,0,98.117,14.9L99.349,3.1A2.642,2.642,0,0,0,98.655,1.038Zm-9.445.226h4.043a3.518,3.518,0,0,1-2.494,2.912,9.546,9.546,0,0,1-3.249.3A9.662,9.662,0,0,0,88.2,3.2c.253-.522.561-1.157,1.009-1.938Zm7.651,13.505a1.989,1.989,0,0,1-.758,1.454,1.5,1.5,0,0,1-1.227.232L82.6,13.642a7.126,7.126,0,0,0-.757-.1,1.482,1.482,0,0,1,.366-.487,2.548,2.548,0,0,1,2.075-.559l9.3,1.66a.632.632,0,0,0,.742-.595l.214-5.006,2.9.691Zm1.232-11.8L97.57,7.973l-3.48-.83a.632.632,0,0,0-.778.588L93.1,12.78,84.5,11.247a3.819,3.819,0,0,0-2.771.581A3.583,3.583,0,0,1,80.691,7.9a3.71,3.71,0,0,1,3.971-2.346h.016c.369.015.784.048,1.223.083.732.058,1.545.122,2.373.122a9.4,9.4,0,0,0,2.875-.382,4.835,4.835,0,0,0,3.388-4.114h1.785a1.9,1.9,0,0,1,1.394.62,1.4,1.4,0,0,1,.377,1.082Z" transform="translate(-76.71 0)" fill="#21418e"/><path d="M133.109,273.142a2.409,2.409,0,0,0-3.2,3.6l2.763,2.665a.632.632,0,0,0,.877,0l2.761-2.664a2.409,2.409,0,0,0-3.2-3.6Zm2.671,1.882a1.136,1.136,0,0,1-.348.8l-2.323,2.241-2.324-2.241a1.144,1.144,0,0,1,.776-1.967h.021a1.137,1.137,0,0,1,.795.32l.294.283a.632.632,0,0,0,.877,0l.294-.284a1.143,1.143,0,0,1,1.938.844Z" transform="translate(-125.859 -255.376)" fill="#21418e"/><path d="M270.6,492a.632.632,0,1,0,0,1.264h0a.632.632,0,1,0,0-1.264Z" transform="translate(-257.755 -460.918)" fill="#21418e"/></g></g></svg>