<svg xmlns="http://www.w3.org/2000/svg" width="30.518" height="32.099" viewBox="0 0 30.518 32.099"><g transform="translate(0 -0.002)"><path d="M261.905,59.531l-2.06-1.287a3.549,3.549,0,0,0-4.89,1.13l-2.094,3.353a2.609,2.609,0,1,1-4.425-2.764l4.752-7.608a3.553,3.553,0,0,0-1.13-4.89L250.039,46.2l.326-.521a.47.47,0,1,0-.8-.5l-1.3,2.082a.47.47,0,1,0,.8.5L249.54,47l2.019,1.261a2.611,2.611,0,0,1,.83,3.595l-4.752,7.608a3.549,3.549,0,1,0,6.02,3.76l2.094-3.353a2.609,2.609,0,0,1,3.595-.831l2.06,1.287a.47.47,0,0,0,.5-.8Zm0,0" transform="translate(-231.608 -42.142)" fill="#21418e"/><path d="M18.736,6.475a.47.47,0,0,0-.654.117L.98,31.145l-.009.012a.071.071,0,0,1-.027-.017l.007-.013L17.278,1.816A1.7,1.7,0,1,1,20.2,3.542c-.015.024-.031.048-.048.072a.47.47,0,1,0,.771.538c.025-.036.05-.073.073-.111A2.639,2.639,0,0,0,20.16.4a2.64,2.64,0,0,0-3.7.954l-.608,1.091-2.258-1.41a.47.47,0,0,0-.5.8l2.3,1.435L.129,30.668a.935.935,0,0,0,.329,1.279.978.978,0,0,0,.519.153.941.941,0,0,0,.775-.418L18.853,7.13a.47.47,0,0,0-.117-.655Zm0,0" transform="translate(0 0)" fill="#21418e"/></g></svg>