<?xml version="1.0" encoding="utf-8"?>
<!-- Generator: Adobe Illustrator 25.2.3, SVG Export Plug-In . SVG Version: 6.00 Build 0)  -->
<svg version="1.1" id="Layer_1" xmlns="http://www.w3.org/2000/svg" xmlns:xlink="http://www.w3.org/1999/xlink" x="0px" y="0px"
	 viewBox="0 0 2400 2400" style="enable-background:new 0 0 2400 2400;" xml:space="preserve">
<style type="text/css">
	.st0{fill-rule:evenodd;clip-rule:evenodd;}
	.st1{fill-rule:evenodd;clip-rule:evenodd;fill:#FFFFFF;}
	.st2{fill-rule:evenodd;clip-rule:evenodd;fill:#DE1D3F;}
</style>
<g>
	<path class="st0" d="M2131.4,1168.1l96.5-77.4l83.2-66.7c-251.4-350.2-662.1-578.4-1126.1-578.4c-464,0-874.7,228.2-1126.1,578.4
		l83.2,66.7l96.5,77.4c209-297.8,554.9-492.5,946.4-492.5S1922.4,870.3,2131.4,1168.1"/>
	<path class="st0" d="M1771.4,1456.7l180.2-144.4c-166.4-245.5-447.6-406.8-766.5-406.8c-318.9,0-600.1,161.3-766.5,406.8
		l180.2,144.4c123.6-193.2,340-321.3,586.3-321.3C1431.4,1135.4,1647.8,1263.5,1771.4,1456.7"/>
	<path class="st0" d="M1406.2,1749.4l184.2-147.6c-80-141.2-231.5-236.4-405.4-236.4s-325.4,95.3-405.4,236.4l184.2,147.6
		c33.2-90,119.7-154.1,221.2-154.1C1286.6,1595.3,1373.1,1659.4,1406.2,1749.4"/>
	<path class="st0" d="M1185.1,1759.2c53.9,0,97.6,43.7,97.6,97.6c0,53.9-43.7,97.6-97.6,97.6c-53.9,0-97.6-43.7-97.6-97.6
		C1087.5,1802.8,1131.2,1759.2,1185.1,1759.2"/>
	<path class="st1" d="M1897,700.7c265.7,0,481.2,215.4,481.2,481.2c0,265.7-215.4,481.2-481.2,481.2s-481.2-215.4-481.2-481.2
		C1415.9,916.1,1631.3,700.7,1897,700.7"/>
	<path class="st2" d="M1897,778.5c222.8,0,403.4,180.6,403.4,403.4s-180.6,403.4-403.4,403.4s-403.4-180.6-403.4-403.4
		S1674.2,778.5,1897,778.5"/>
	<path class="st1" d="M1897,862.6c176.3,0,319.3,142.9,319.3,319.3c0,176.3-142.9,319.3-319.3,319.3
		c-176.3,0-319.3-142.9-319.3-319.3C1577.7,1005.6,1720.7,862.6,1897,862.6"/>
	
		<rect x="1859" y="979.7" transform="matrix(0.7071 -0.7071 0.7071 0.7071 -280.0938 1687.5686)" class="st2" width="76" height="404.3"/>
	
		<rect x="1694.9" y="1143.9" transform="matrix(0.7071 -0.7071 0.7071 0.7071 -280.0947 1687.5649)" class="st2" width="404.3" height="76"/>
</g>
</svg>
