<svg id="Group_2294" data-name="Group 2294" xmlns="http://www.w3.org/2000/svg" xmlns:xlink="http://www.w3.org/1999/xlink" width="248.619" height="248.485" viewBox="0 0 248.619 248.485">
  <defs>
    <linearGradient id="linear-gradient" x1="0.589" y1="-0.07" x2="0.336" y2="1.919" gradientUnits="objectBoundingBox">
      <stop offset="0" stop-color="#ffc444"/>
      <stop offset="0.996" stop-color="#f36f56"/>
    </linearGradient>
    <clipPath id="clip-path">
      <path id="Path_12111" data-name="Path 12111" d="M1552.755,458.688c-3.736-2.609-9.176-3.745-13.693-3.7-31.992.364-31.176,67.233-25.079,81.689s3.337,19.595-21.077,29.428-11.164,23.819-7.392,32.321,10.427,15.4-7.126,25.6-10.756,15.069-10.756,15.069,36.509,31.682,33.749,20.811-.763-27.812,29.33-31.557c12.966-1.615,32.374-9.451,35.64-23.748.763-3.328,1.065-8.342.009-11.634-1.464-4.57-4.828-7.987-6.878-12.229-4.792-9.886,4.508-18.184,9.655-25.479a75.7,75.7,0,0,0,7.313-11.963c4.047-8.821,1.526-17.731-4.269-25.079-2.778-3.523-6.541-7.2-7.987-11.563-1.553-4.686-1.074-11.3-1.207-16.231a103.193,103.193,0,0,0-.586-11.59C1561.408,471.689,1559,463.045,1552.755,458.688Z" transform="translate(-1466.34 -454.986)"/>
    </clipPath>
    <linearGradient id="linear-gradient-2" y1="0.5" x2="1" y2="0.5" gradientUnits="objectBoundingBox">
      <stop offset="0" stop-color="#ff9085"/>
      <stop offset="1" stop-color="#fb6fbb"/>
    </linearGradient>
    <clipPath id="clip-path-2">
      <path id="Path_12118" data-name="Path 12118" d="M1557.974,804.052c-2.325-3.922-6.8-7.215-10.924-9.034-29.268-12.93-56.229,48.277-56.672,63.967s-5.085,19.222-31.38,18.059-20.03,17.048-20.118,26.348,3.106,18.335-17.083,20.349S1405.76,933,1405.76,933s20.1,43.964,22.089,32.915,10.827-25.629,39.766-16.569c12.469,3.9,33.377,4.81,42.269-6.851,2.068-2.716,4.428-7.144,4.828-10.578.559-4.766-1.083-9.265-1.2-13.977-.266-10.987,11.634-14.678,19.346-19.187a76.152,76.152,0,0,0,11.608-7.854c7.339-6.354,8.732-15.5,6.5-24.6-1.074-4.357-2.973-9.265-2.485-13.826.524-4.908,3.7-10.729,5.626-15.273a104.437,104.437,0,0,0,4.269-10.791C1560.459,819.467,1561.852,810.61,1557.974,804.052Z" transform="translate(-1405.405 -793.237)"/>
    </clipPath>
    <linearGradient id="linear-gradient-3" x1="1.046" y1="1.684" x2="0.076" y2="2.311" gradientUnits="objectBoundingBox">
      <stop offset="0.004" stop-color="#26264f"/>
      <stop offset="1" stop-color="#444b8c"/>
    </linearGradient>
    <linearGradient id="linear-gradient-4" x1="0.019" y1="0.501" x2="1.126" y2="0.479" gradientUnits="objectBoundingBox">
      <stop offset="0" stop-color="#444b8c"/>
      <stop offset="0.996" stop-color="#26264f"/>
    </linearGradient>
    <linearGradient id="linear-gradient-5" x1="0.275" y1="2.296" x2="0.848" y2="1.802" xlink:href="#linear-gradient-4"/>
    <linearGradient id="linear-gradient-6" x1="0.541" y1="-1.092" x2="0.458" y2="2.152" xlink:href="#linear-gradient-4"/>
    <linearGradient id="linear-gradient-7" y1="0.5" x2="1" y2="0.5" gradientUnits="objectBoundingBox">
      <stop offset="0" stop-color="#aa80f9"/>
      <stop offset="0.996" stop-color="#6165d7"/>
    </linearGradient>
    <linearGradient id="linear-gradient-8" x1="0" y1="0.5" x2="1" y2="0.5" xlink:href="#linear-gradient-7"/>
    <linearGradient id="linear-gradient-9" x1="0" y1="0.499" x2="1" y2="0.499" xlink:href="#linear-gradient-7"/>
    <linearGradient id="linear-gradient-10" x1="6.145" y1="-9.039" x2="-2.253" y2="5.154" gradientUnits="objectBoundingBox">
      <stop offset="0" stop-color="#ab316d"/>
      <stop offset="1" stop-color="#792d3d"/>
    </linearGradient>
    <linearGradient id="linear-gradient-11" x1="4.475" y1="-6.37" x2="-3.782" y2="7.901" xlink:href="#linear-gradient-10"/>
  </defs>
  <path id="Path_12104" data-name="Path 12104" d="M623.1,477.521c-18.592-4.144-37.929-6.132-56.832-4.872-16.755,1.127-35.746,4.189-49.226,15.175-6.425,5.236-14.084,14.634-16.187,22.932,0,0-11.066,43.671-33.181,53.025S430.192,732.847,597.963,717.246c0,0,98.542-4.091,104.47-121.8,1.438-28.434.63-59.7-16.542-83.473-13.161-18.219-31.593-26.322-52.776-31.992Q628.149,478.648,623.1,477.521Z" transform="translate(-454.294 -470.739)" fill="#f4f7fa"/>
  <g id="Group_2278" data-name="Group 2278" transform="translate(84.406)">
    <g id="Group_2269" data-name="Group 2269" transform="translate(5.408)">
      <g id="Group_2268" data-name="Group 2268">
        <path id="Path_12105" data-name="Path 12105" d="M1552.755,458.688c-3.736-2.609-9.176-3.745-13.693-3.7-31.992.364-31.176,67.233-25.079,81.689s3.337,19.595-21.077,29.428-11.164,23.819-7.392,32.321,10.427,15.4-7.126,25.6-10.756,15.069-10.756,15.069,36.509,31.682,33.749,20.811-.763-27.812,29.33-31.557c12.966-1.615,32.374-9.451,35.64-23.748.763-3.328,1.065-8.342.009-11.634-1.464-4.57-4.828-7.987-6.878-12.229-4.792-9.886,4.508-18.184,9.655-25.479a75.7,75.7,0,0,0,7.313-11.963c4.047-8.821,1.526-17.731-4.269-25.079-2.778-3.523-6.541-7.2-7.987-11.563-1.553-4.686-1.074-11.3-1.207-16.231a103.193,103.193,0,0,0-.586-11.59C1561.408,471.689,1559,463.045,1552.755,458.688Z" transform="translate(-1466.34 -454.986)" fill="url(#linear-gradient)"/>
        <g id="Group_2267" data-name="Group 2267" opacity="0.8" clip-path="url(#clip-path)">
          <g id="Group_2262" data-name="Group 2262" transform="translate(-0.432 -8.427)">
            <path id="Path_12106" data-name="Path 12106" d="M1462.14,572.129a.469.469,0,0,1-.444-.825,228.017,228.017,0,0,0,28.514-22.293c13.649-12.513,31.167-31.921,37.148-53.3,5-17.855,8.5-46.981,9.611-79.914.994-29.525-.249-51.205-2.023-55.1a.469.469,0,0,1,.852-.39c2.077,4.561,3,28.948,2.1,55.527-1.109,33-4.624,62.21-9.647,80.136-6.043,21.6-23.695,41.151-37.432,53.752a228.2,228.2,0,0,1-28.629,22.381A.29.29,0,0,0,1462.14,572.129Z" transform="translate(-1461.472 -360.033)" fill="#fff"/>
          </g>
          <g id="Group_2263" data-name="Group 2263" transform="translate(44.068 14.734)">
            <path id="Path_12107" data-name="Path 12107" d="M1994.316,659.276a.416.416,0,0,1-.595-.177c-.142-.311-14.625-31.247-30.51-37.193a.443.443,0,0,1-.266-.595.462.462,0,0,1,.612-.266c16.249,6.079,30.422,36.367,31.025,37.654a.439.439,0,0,1-.266.577Z" transform="translate(-1962.91 -621.01)" fill="#fff"/>
          </g>
          <g id="Group_2264" data-name="Group 2264" transform="translate(72.067 64.284)">
            <path id="Path_12108" data-name="Path 12108" d="M2279.077,1205.549a.469.469,0,0,1-.524-.763,149.619,149.619,0,0,1,18.5-14.856c13.888-9.318,24.857-12.5,32.6-9.46a.472.472,0,1,1-.346.879c-17.82-6.993-49.785,23.8-50.1,24.112A.35.35,0,0,1,2279.077,1205.549Z" transform="translate(-2278.412 -1179.356)" fill="#fff"/>
          </g>
          <g id="Group_2265" data-name="Group 2265" transform="translate(12.753 107.88)">
            <path id="Path_12109" data-name="Path 12109" d="M1638.224,1731.957a.761.761,0,0,1-.151.044.475.475,0,0,1-.515-.426,179.873,179.873,0,0,0-5.431-27.99c-3.709-13.01-10.5-29.126-21.733-32.046a.474.474,0,0,1-.337-.577.468.468,0,0,1,.577-.337c9.371,2.432,16.906,13.445,22.408,32.711a180.069,180.069,0,0,1,5.458,28.15A.472.472,0,0,1,1638.224,1731.957Z" transform="translate(-1610.043 -1670.609)" fill="#fff"/>
          </g>
          <g id="Group_2266" data-name="Group 2266" transform="translate(57.884 115.606)">
            <path id="Path_12110" data-name="Path 12110" d="M2119.267,1787.585a.47.47,0,0,1-.506-.781c1.42-1.242,34.992-30.448,49.138-29.081a.472.472,0,0,1-.089.941c-13.738-1.322-48.082,28.549-48.428,28.86C2119.347,1787.54,2119.312,1787.567,2119.267,1787.585Z" transform="translate(-2118.602 -1757.676)" fill="#fff"/>
          </g>
        </g>
      </g>
    </g>
    <g id="Group_2277" data-name="Group 2277" transform="translate(0 30.018)">
      <g id="Group_2276" data-name="Group 2276">
        <path id="Path_12112" data-name="Path 12112" d="M1557.974,804.052c-2.325-3.922-6.8-7.215-10.924-9.034-29.268-12.93-56.229,48.277-56.672,63.967s-5.085,19.222-31.38,18.059-20.03,17.048-20.118,26.348,3.106,18.335-17.083,20.349S1405.76,933,1405.76,933s20.1,43.964,22.089,32.915,10.827-25.629,39.766-16.569c12.469,3.9,33.377,4.81,42.269-6.851,2.068-2.716,4.428-7.144,4.828-10.578.559-4.766-1.083-9.265-1.2-13.977-.266-10.987,11.634-14.678,19.346-19.187a76.152,76.152,0,0,0,11.608-7.854c7.339-6.354,8.732-15.5,6.5-24.6-1.074-4.357-2.973-9.265-2.485-13.826.524-4.908,3.7-10.729,5.626-15.273a104.437,104.437,0,0,0,4.269-10.791C1560.459,819.467,1561.852,810.61,1557.974,804.052Z" transform="translate(-1405.405 -793.237)" fill="url(#linear-gradient-2)"/>
        <g id="Group_2275" data-name="Group 2275" opacity="0.8" clip-path="url(#clip-path-2)">
          <g id="Group_2270" data-name="Group 2270" transform="translate(-9.19 -5.639)">
            <path id="Path_12113" data-name="Path 12113" d="M1302.324,892.448a.476.476,0,0,1-.47-.408.471.471,0,0,1,.4-.532,227.885,227.885,0,0,0,35.187-8.475c17.607-5.742,41.594-16.143,55.891-33.119,11.945-14.181,27.2-39.243,41.852-68.75,13.143-26.464,20.988-46.706,20.988-50.992a.47.47,0,1,1,.941,0c0,5.005-9.265,27.591-21.086,51.41-14.687,29.578-29.987,54.7-41.976,68.937-14.448,17.154-38.613,27.644-56.344,33.421a230.032,230.032,0,0,1-35.329,8.511Z" transform="translate(-1301.849 -729.7)" fill="#fff"/>
          </g>
          <g id="Group_2271" data-name="Group 2271" transform="translate(109.21 3.478)">
            <path id="Path_12114" data-name="Path 12114" d="M2649,880.256a.489.489,0,0,1-.47-.488c0-.346-.364-34.53-12.362-46.529a.477.477,0,0,1,0-.674.466.466,0,0,1,.666,0c12.265,12.265,12.628,45.774,12.637,47.194a.485.485,0,0,1-.47.5Z" transform="translate(-2636.025 -832.425)" fill="#fff"/>
          </g>
          <g id="Group_2272" data-name="Group 2272" transform="translate(103.686 76.072)">
            <path id="Path_12115" data-name="Path 12115" d="M2574.25,1658.489a.478.478,0,0,1-.443-.311.467.467,0,0,1,.284-.6,150.655,150.655,0,0,1,22.994-5.857c16.5-2.724,27.8-1.074,33.59,4.9a.471.471,0,1,1-.674.657c-13.321-13.747-55.172,1.038-55.59,1.189A.5.5,0,0,1,2574.25,1658.489Z" transform="translate(-2573.778 -1650.444)" fill="#fff"/>
          </g>
          <g id="Group_2273" data-name="Group 2273" transform="translate(42.117 75.264)">
            <path id="Path_12116" data-name="Path 12116" d="M1880.461,1708.7a.413.413,0,0,1-.151-.027.472.472,0,0,1-.293-.6,180.063,180.063,0,0,0,6.656-27.724c2.005-13.374,2.511-30.856-6.505-38.169a.473.473,0,0,1,.595-.737c7.517,6.1,9.824,19.24,6.842,39.056a180.955,180.955,0,0,1-6.691,27.884A.477.477,0,0,1,1880.461,1708.7Z" transform="translate(-1879.99 -1641.335)" fill="#fff"/>
          </g>
          <g id="Group_2274" data-name="Group 2274" transform="translate(67.977 119.147)">
            <path id="Path_12117" data-name="Path 12117" d="M2171.865,2145.012a.471.471,0,0,1-.133-.923c1.811-.542,44.47-13.214,56.77-6.114a.473.473,0,0,1-.479.816c-11.954-6.9-55.589,6.07-56.024,6.2A.544.544,0,0,1,2171.865,2145.012Z" transform="translate(-2171.394 -2135.82)" fill="#fff"/>
          </g>
        </g>
      </g>
    </g>
  </g>
  <g id="Group_2288" data-name="Group 2288" transform="translate(31.975 37.162)">
    <g id="Group_2279" data-name="Group 2279">
      <path id="Path_12119" data-name="Path 12119" d="M956.91,1058.578c0,3.834-2.716,7.108-6.07,7.3l-129.265,7.543a6.762,6.762,0,0,1-6.975-7.064V880.93a6.9,6.9,0,0,1,6.975-7.188l129.265,5.236c3.354.133,6.07,3.363,6.07,7.188Z" transform="translate(-814.6 -873.736)" fill="url(#linear-gradient-3)"/>
      <path id="Path_12120" data-name="Path 12120" d="M999.71,1058.578c0,3.834-2.716,7.108-6.07,7.3l-129.265,7.543a6.762,6.762,0,0,1-6.975-7.064V880.93a6.9,6.9,0,0,1,6.975-7.188l129.265,5.236c3.355.133,6.07,3.363,6.07,7.188Z" transform="translate(-853.602 -873.736)" fill="url(#linear-gradient-4)"/>
      <path id="Path_12121" data-name="Path 12121" d="M894.1,916.715v185.129a3.6,3.6,0,0,0,3.718,3.772l102.233-5.8,27.031-1.535a3.753,3.753,0,0,0,3.248-3.9V921.729a3.678,3.678,0,0,0-3.248-3.843L999.076,916.8l-101.257-3.931A3.687,3.687,0,0,0,894.1,916.715Z" transform="translate(-887.045 -909.397)" fill="url(#linear-gradient-5)"/>
      <path id="Path_12122" data-name="Path 12122" d="M1049.689,1111.3a1.464,1.464,0,0,1-1.367,1.455l-129.46,6.62a1.436,1.436,0,0,1-1.562-1.4V941.605a1.454,1.454,0,0,1,1.562-1.42l129.46,4.863a1.442,1.442,0,0,1,1.367,1.438V1111.3Z" transform="translate(-908.186 -934.287)" fill="#20428d"/>
      <path id="Path_12123" data-name="Path 12123" d="M1539.433,2949.821l-26.286,1.446a2.285,2.285,0,0,1-2.547-2.174v-.1a2.6,2.6,0,0,1,2.547-2.449l26.286-1.385a2.238,2.238,0,0,1,2.476,2.148v.1A2.544,2.544,0,0,1,1539.433,2949.821Z" transform="translate(-1448.834 -2761.331)" fill="url(#linear-gradient-6)"/>
      <path id="Path_12124" data-name="Path 12124" d="M1675.9,929.477a1.236,1.236,0,0,1-1.349,1.18,1.355,1.355,0,0,1-1.349-1.287,1.236,1.236,0,0,1,1.349-1.18A1.355,1.355,0,0,1,1675.9,929.477Z" transform="translate(-1597.004 -923.357)" fill="#fff"/>
    </g>
    <g id="Group_2286" data-name="Group 2286" transform="translate(30.75 26.865)">
      <g id="Group_2280" data-name="Group 2280" transform="translate(0 0.009)">
        <path id="Path_12125" data-name="Path 12125" d="M1246.6,1258.363a40.9,40.9,0,1,0-41.5-40.982A40.691,40.691,0,0,0,1246.6,1258.363Z" transform="translate(-1201.195 -1176.555)" fill="url(#linear-gradient-7)"/>
        <path id="Path_12126" data-name="Path 12126" d="M1247.1,2197.491l-83.411,2.219a2.644,2.644,0,0,0-2.591,2.538v20.438a2.437,2.437,0,0,0,2.582,2.369l83.384-3.381a2.48,2.48,0,0,0,2.334-2.44v-19.444A2.255,2.255,0,0,0,1247.1,2197.491Z" transform="translate(-1161.1 -2106.888)" fill="url(#linear-gradient-8)"/>
        <path id="Path_12127" data-name="Path 12127" d="M1247.1,2553.672l-83.411,3.745A2.7,2.7,0,0,0,1161.1,2560v2.875a2.4,2.4,0,0,0,2.582,2.343l83.384-4.1a2.5,2.5,0,0,0,2.334-2.458v-2.742A2.2,2.2,0,0,0,1247.1,2553.672Z" transform="translate(-1161.1 -2431.458)" fill="url(#linear-gradient-9)"/>
      </g>
      <g id="Group_2285" data-name="Group 2285" transform="translate(1.828)">
        <path id="Path_12128" data-name="Path 12128" d="M1303.939,1217.449a40.571,40.571,0,1,1-39.642-40.982A40.691,40.691,0,0,1,1303.939,1217.449Z" transform="translate(-1219.153 -1176.454)" fill="#fff"/>
        <g id="Group_2283" data-name="Group 2283" transform="translate(16.444 14.877)">
          <path id="Path_12129" data-name="Path 12129" d="M1400.892,1516.971l-2.05-8.528a5.626,5.626,0,0,0-5.431-4.322l-7.188-.062-7.242-.062a5.567,5.567,0,0,0-5.5,4.3l-1.908,8.635a5.494,5.494,0,0,0-4.57,5.209v9.318a1.868,1.868,0,0,0,1.855,1.766l2.4-.018v4.3a2.3,2.3,0,0,0,2.316,2.414l1.66-.018a2.464,2.464,0,0,0,2.423-2.467v-4.3l17.358-.133v4.251a2.228,2.228,0,0,0,2.21,2.387l1.5-.018a2.43,2.43,0,0,0,2.378-2.432v-4.233l2.29-.018a2.03,2.03,0,0,0,1.97-1.757v-9.114A5.5,5.5,0,0,0,1400.892,1516.971Zm-23.455-7.659a1.523,1.523,0,0,1,1.535-1.154l7.242.044,7.179.044a1.519,1.519,0,0,1,1.509,1.162l1.739,7.419-21-.036Zm-2.849,19.071a3.55,3.55,0,1,1,3.559-3.559A3.539,3.539,0,0,1,1374.588,1528.384Zm23.109-.115a3.506,3.506,0,1,1,3.461-3.514A3.477,3.477,0,0,1,1397.7,1528.269Z" transform="translate(-1367 -1489.806)" fill="#20428d"/>
          <g id="Group_2282" data-name="Group 2282" transform="translate(38.042)">
            <path id="Path_12130" data-name="Path 12130" d="M1814.271,1404.565c-.781-4.588-1.562-9.141-2.334-13.738a1.038,1.038,0,0,0-1.029-.861q-5.871-.08-11.794-.169a1.019,1.019,0,0,0-1.047.843c-.79,4.615-1.589,9.212-2.378,13.835a1.5,1.5,0,0,0,.293,1.154,1.38,1.38,0,0,0,1.012.541q8.054.04,16.01.089a1.35,1.35,0,0,0,.994-.532A1.562,1.562,0,0,0,1814.271,1404.565Z" transform="translate(-1795.667 -1385.742)" fill="#20428d"/>
            <g id="Group_2281" data-name="Group 2281" transform="translate(4.964)">
              <path id="Path_12131" data-name="Path 12131" d="M1855.993,1354.1c-2.414-.027-4.393-2.3-4.393-5.067s1.97-4.988,4.393-4.943,4.366,2.316,4.366,5.067S1858.407,1354.13,1855.993,1354.1Zm0-8.83c-1.775-.026-3.213,1.66-3.213,3.772s1.447,3.843,3.213,3.86,3.2-1.668,3.2-3.772S1857.768,1345.3,1855.993,1345.274Z" transform="translate(-1851.6 -1344.093)" fill="#20428d"/>
            </g>
          </g>
        </g>
        <g id="Group_2284" data-name="Group 2284" transform="translate(0 90.602)">
          <path id="Path_12132" data-name="Path 12132" d="M1269.69,2219.133a2.426,2.426,0,0,1-2.272,2.44l-83.269,3.381a2.324,2.324,0,0,1-2.449-2.369v-20.438a2.533,2.533,0,0,1,2.458-2.538l83.3-2.219a2.215,2.215,0,0,1,2.245,2.29v19.453Z" transform="translate(-1181.7 -2197.39)" fill="#fff"/>
          <path id="Path_12133" data-name="Path 12133" d="M1269.69,2558.467a2.449,2.449,0,0,1-2.272,2.458l-83.269,4.1a2.3,2.3,0,0,1-2.449-2.343v-2.875a2.584,2.584,0,0,1,2.458-2.583l83.3-3.745a2.167,2.167,0,0,1,2.245,2.245v2.742Z" transform="translate(-1181.7 -2521.876)" fill="#fff"/>
        </g>
      </g>
    </g>
    <g id="Group_2287" data-name="Group 2287" transform="translate(3.798)" opacity="0.2">
      <path id="Path_12134" data-name="Path 12134" d="M965.5,1046.447c-.524-11.3,12.034-17.926,10.827-33.865-.106-1.438-1.234-13.773-11.155-22.133-8.919-7.508-16.409-4.686-32.906-10.676-11.563-4.2-24.564-8.919-29.818-18.379-10.445-18.8,19.4-37.574,13.285-61.917-1.748-6.975-6.691-15.521-19.737-24.449l-31.62-1.287a6.9,6.9,0,0,0-6.975,7.188v185.431a6.762,6.762,0,0,0,6.975,7.064l117.781-6.878C969.608,1059.3,965.774,1052.331,965.5,1046.447Z" transform="translate(-857.4 -873.736)" fill="#21418e"/>
    </g>
  </g>
  <g id="Group_2291" data-name="Group 2291" transform="translate(4.5 156.803)">
    <g id="Group_2290" data-name="Group 2290">
      <path id="Path_12135" data-name="Path 12135" d="M695.8,2250.242a.707.707,0,0,1-.719-.684A43,43,0,0,0,689,2230.292c-2.893-4.491-6.31-7.02-9.158-6.8h-.009c-10.241.825-12.362,27.307-12.38,27.573a.769.769,0,0,1-.745.754.717.717,0,0,1-.63-.808c.089-1.145,2.254-28.159,13.755-29.1h.009c3.363-.266,7.135,2.423,10.339,7.392,3.426,5.307,5.68,12.424,6.336,20.021a.853.853,0,0,1-.657.914Z" transform="translate(-651.785 -2221.896)" fill="#dc3645"/>
      <path id="Path_12136" data-name="Path 12136" d="M506.388,2577.046l13.134,7.543,8.1-28.221L514.331,2519.3l-3.718,1.251-5.591,53.593A2.99,2.99,0,0,0,506.388,2577.046Z" transform="translate(-505.004 -2492.907)" fill="#dc3545"/>
      <path id="Path_12137" data-name="Path 12137" d="M589.528,2556.368,576.234,2519.3l-2.192.737a93.483,93.483,0,0,0,.035,12.069c.879,12.681,3.807,16.125,2.387,25.052-1.18,7.41-3.745,8.457-3.514,13.4.24,5.4,3.55,9.9,7.5,13.462l.976.559Z" transform="translate(-566.907 -2492.907)" fill="#dc3645"/>
      <path id="Path_12138" data-name="Path 12138" d="M610.1,2519.2l51.844.009,17.483,59.423-64.135,5.866Z" transform="translate(-600.773 -2492.816)" fill="#dc3545"/>
      <g id="Group_2289" data-name="Group 2289" transform="translate(17.491 26.393)" opacity="0.3">
        <path id="Path_12139" data-name="Path 12139" d="M745.78,2519.3H718.163a8.306,8.306,0,0,0-1.171,3.559c-.666,9.159,17.713,11.324,19.391,22.648,1.278,8.644-6.549,18.8-13.436,23.322-7.179,4.712-11.989,2.432-16.755,7.57a18.207,18.207,0,0,0-4.091,7.916l61.154-5.591Z" transform="translate(-702.1 -2519.3)" fill="#dc3645"/>
      </g>
      <path id="Path_12140" data-name="Path 12140" d="M763.775,2255.582a.68.68,0,0,1-.683-.568c-.142-.674-3.443-16.675,1.216-24.964a9.124,9.124,0,0,1,5.591-4.588c12.335-3.408,20.065,25.8,20.385,27.058a.864.864,0,0,1-.506,1.021.689.689,0,0,1-.905-.506c-.08-.293-7.667-29.064-18.734-26.029a7.512,7.512,0,0,0-4.668,3.825c-4.34,7.712-1.056,23.588-1.021,23.748a.838.838,0,0,1-.524.976A.455.455,0,0,1,763.775,2255.582Z" transform="translate(-739.034 -2224.894)" fill="#dc3545"/>
      <path id="Path_12141" data-name="Path 12141" d="M765.623,2546.273a2.23,2.23,0,0,1-1.961,2.307,1.971,1.971,0,0,1-1.961-2.1,2.236,2.236,0,0,1,1.961-2.307A1.961,1.961,0,0,1,765.623,2546.273Z" transform="translate(-738.92 -2515.567)" fill="url(#linear-gradient-10)"/>
      <path id="Path_12142" data-name="Path 12142" d="M1059.5,2527.726a2.3,2.3,0,0,1-2.05,2.361,2.032,2.032,0,0,1-2.05-2.148,2.3,2.3,0,0,1,2.05-2.361A2.037,2.037,0,0,1,1059.5,2527.726Z" transform="translate(-1006.556 -2498.626)" fill="url(#linear-gradient-11)"/>
    </g>
  </g>
  <g id="Group_2292" data-name="Group 2292" transform="translate(11.014 14.392)">
    <path id="Path_12143" data-name="Path 12143" d="M639.2,645.808a32.944,32.944,0,0,1-30.306,32.463A28.233,28.233,0,0,1,578.4,649.686a32.922,32.922,0,0,1,30.493-32.471A28.24,28.24,0,0,1,639.2,645.808Z" transform="translate(-578.4 -617.158)" fill="#abbaa2"/>
    <path id="Path_12144" data-name="Path 12144" d="M679.79,657.918a32.944,32.944,0,0,1-30.306,32.463A28.226,28.226,0,0,1,619,661.8a32.914,32.914,0,0,1,30.484-32.471A28.24,28.24,0,0,1,679.79,657.918Z" transform="translate(-615.397 -628.193)" fill="#d0e3c4"/>
    <path id="Path_12145" data-name="Path 12145" d="M794.143,798.731a3.482,3.482,0,0,1-3.23-1.624l-11.457-18.4a3.919,3.919,0,0,1,1.3-5.271,3.647,3.647,0,0,1,5.174.967l7.943,12.77,10.49-21.352a3.923,3.923,0,0,1,5.05-1.961,3.617,3.617,0,0,1,1.642,4.97L797.5,796.45a4.088,4.088,0,0,1-3.221,2.272A.678.678,0,0,1,794.143,798.731Z" transform="translate(-761.121 -750.557)" fill="#fff"/>
  </g>
  <g id="Group_2293" data-name="Group 2293" transform="translate(152.552 71.227)">
    <path id="Path_12146" data-name="Path 12146" d="M2342.441,1516.171a3.071,3.071,0,1,1-3.071-3.071A3.072,3.072,0,0,1,2342.441,1516.171Z" transform="translate(-2321.835 -1490.426)" fill="#fff"/>
    <path id="Path_12147" data-name="Path 12147" d="M2190.838,1257.6a25.648,25.648,0,0,0-16.8,6.239,2.091,2.091,0,0,0-.124,3.071l.089.089a2.071,2.071,0,0,0,2.822.115,21.424,21.424,0,0,1,28.025,0,2.071,2.071,0,0,0,2.822-.115l.089-.089a2.1,2.1,0,0,0-.125-3.071A25.584,25.584,0,0,0,2190.838,1257.6Z" transform="translate(-2173.302 -1257.6)" fill="#fff"/>
    <path id="Path_12148" data-name="Path 12148" d="M2242.972,1338.2a18.493,18.493,0,0,0-11.7,4.144,2.077,2.077,0,0,0-.142,3.088l.018.018a2.1,2.1,0,0,0,2.813.124,14.383,14.383,0,0,1,18.033,0,2.106,2.106,0,0,0,2.813-.124l.018-.018a2.091,2.091,0,0,0-.142-3.088A18.578,18.578,0,0,0,2242.972,1338.2Z" transform="translate(-2225.436 -1331.047)" fill="#fff"/>
    <path id="Path_12149" data-name="Path 12149" d="M2288.741,1423.992a2.239,2.239,0,0,0,2.822.257,7.138,7.138,0,0,1,7.809,0,2.239,2.239,0,0,0,2.822-.257l.009-.009a2.091,2.091,0,0,0-.3-3.2,11.448,11.448,0,0,0-12.868,0,2.091,2.091,0,0,0-.3,3.2Z" transform="translate(-2277.932 -1404.494)" fill="#fff"/>
  </g>
</svg>
