<svg xmlns="http://www.w3.org/2000/svg" width="33.078" height="32.88" viewBox="0 0 33.078 32.88"><g transform="translate(-16 -18.88)"><path d="M440.155,136.257a14.483,14.483,0,0,0-2.3-3.844l-.692-.83.847-.706.692.83a15.582,15.582,0,0,1,2.476,4.136Z" transform="translate(-392.139 -104.28)" fill="#21418e"/><path d="M93.7,144.374l-1.041-.363a15.56,15.56,0,0,1,2.746-4.854l.232-.279.847.706-.232.279A14.462,14.462,0,0,0,93.7,144.374Z" transform="translate(-71.375 -111.729)" fill="#21418e"/><path d="M128.095,174.5l-1.017-.425a13.421,13.421,0,0,1,1.644-2.875l.882.661a12.318,12.318,0,0,0-1.509,2.638Z" transform="translate(-103.423 -141.823)" fill="#21418e"/><path d="M459.026,291.406l-1.065-.284a12.309,12.309,0,0,0,.416-3.169h1.1A13.413,13.413,0,0,1,459.026,291.406Z" transform="translate(-411.504 -250.53)" fill="#21418e"/><path d="M429.778,174.5a12.317,12.317,0,0,0-1.509-2.638l.882-.661a13.421,13.421,0,0,1,1.644,2.875Z" transform="translate(-383.858 -141.823)" fill="#21418e"/><path d="M123.565,361.174v2.205c0,1.316-1.478,2.443-4.273,3.258a39.823,39.823,0,0,1-19.02,0c-2.8-.815-4.273-1.942-4.273-3.258v-.551h1.1v.551c0,1.381,4.824,3.308,12.68,3.308s12.68-1.927,12.68-3.308V363a9.986,9.986,0,0,1-3.17,1.43,35.448,35.448,0,0,1-9.51,1.152c-.559,0-1.122-.01-1.674-.03l.04-1.1c.538.02,1.088.03,1.634.03,7.856,0,12.68-1.927,12.68-3.308,0-.586-.9-1.275-2.4-1.842l.389-1.032c1.721.649,2.735,1.429,3.026,2.322A1.764,1.764,0,0,1,123.565,361.174Z" transform="translate(-74.487 -316.029)" fill="#21418e"/><path d="M43.175,30.251l-.189-.226a2.539,2.539,0,0,0-1.173-1.781,12.361,12.361,0,0,0-4.787-1.724l-.153,1.092a11.268,11.268,0,0,1,4.362,1.571,1.422,1.422,0,0,1,0,2.422,11.294,11.294,0,0,1-6.658,1.661l1.783-4.457a.551.551,0,0,0-.074-.54L29.118,18.9l-.875.67,6.976,9.123-1.777,4.444h0a11.447,11.447,0,0,1-1.453-.343V29.156h-1.1v5.458a2.762,2.762,0,0,1-2.205-2.7V30.259a.552.552,0,0,0-.161-.39l-.256-.256A6.063,6.063,0,0,1,26.475,25.3V22.541h-1.1v1.785L20.834,18.88l-.848.706,5.43,6.516a7.143,7.143,0,0,0,1.967,4.189,11.2,11.2,0,0,0-1.66,2.724h-.352a.552.552,0,0,0-.39.161l-3.146,3.147H16v1.1h6.064a.552.552,0,0,0,.39-.161L25.6,34.118H27a4.74,4.74,0,0,1-1.367,2.823l-.646.646a.552.552,0,0,0,.27.928l4.962,1.1a.542.542,0,0,0,.12.013h2.757a.551.551,0,0,1,0,1.1h-2.7l-3.8-.844-.24,1.076,3.859.857a.542.542,0,0,0,.12.013h3.859a.551.551,0,0,1,0,1.1h-3.8l-3.8-.844-.24,1.076,3.859.857a.542.542,0,0,0,.12.013h2.757a.551.551,0,0,1,0,1.1h-2.7l-3.8-.844-.24,1.076,3.859.857a.542.542,0,0,0,.12.013h1.654a.551.551,0,0,1,0,1.1H30.395l-4.836-1.075L21.208,44.1a.557.557,0,0,0-.247-.058H16v1.1h4.832l4.294,2.147a.567.567,0,0,0,.127.045l4.962,1.1a.542.542,0,0,0,.12.013h1.654A1.656,1.656,0,0,0,33.642,46.8a1.634,1.634,0,0,0-.117-.61,1.645,1.645,0,0,0,.8-.493h5.224a5.509,5.509,0,0,0,4.814-2.832,11.2,11.2,0,0,0-1.185-12.612ZM26.936,33.016a9.929,9.929,0,0,1,.642-1.13v.028a3.818,3.818,0,0,0,.169,1.129.548.548,0,0,0-.169-.026ZM43.4,42.327a4.408,4.408,0,0,1-3.851,2.266h-4.8a1.634,1.634,0,0,0-.117-.61,1.653,1.653,0,0,0,0-3.191,1.634,1.634,0,0,0,.117-.61,1.656,1.656,0,0,0-1.654-1.654h-2.7l-3.923-.872a5.827,5.827,0,0,0,1.648-3.773,3.86,3.86,0,0,0,3.317,1.888.551.551,0,0,0,.551-.551V33.942a12.389,12.389,0,0,0,9.825-1.4,2.529,2.529,0,0,0,.94-1.037,10.039,10.039,0,0,1,1.176,2.129,4.637,4.637,0,0,1-.961.787A14.677,14.677,0,0,1,40.047,35.8l.358,1.043a15.743,15.743,0,0,0,3.14-1.484,5.613,5.613,0,0,0,.772-.569,10.042,10.042,0,0,1,.348,2.469,17.938,17.938,0,0,1-4.557,1.983l.3,1.063a18.994,18.994,0,0,0,4.2-1.731A10.116,10.116,0,0,1,43.4,42.327Z" fill="#21418e"/><path d="M319.384,322.253l-.1-1.1c.356-.032.716-.075,1.07-.128l.164,1.09C320.144,322.173,319.762,322.219,319.384,322.253Z" transform="translate(-282.385 -281.324)" fill="#21418e"/><path d="M319.25,273.659l-.12-1.1c.355-.039.712-.091,1.063-.156l.2,1.084C320.016,273.561,319.631,273.618,319.25,273.659Z" transform="translate(-282.24 -236.056)" fill="#21418e"/></g></svg>