<svg xmlns="http://www.w3.org/2000/svg" width="32" height="32" viewBox="0 0 32 32"><g transform="translate(-16 -16)"><path d="M44.267,16H29.333a2.67,2.67,0,0,0-2.667,2.667V22.4H16.533a.533.533,0,0,0-.533.533V47.467a.533.533,0,0,0,.533.533H44.267A3.738,3.738,0,0,0,48,44.267V19.733A3.738,3.738,0,0,0,44.267,16Zm2.667,20.679a2.331,2.331,0,0,1-.39-.287,2.3,2.3,0,0,0-3.22,0,1.248,1.248,0,0,1-1.846,0,2.3,2.3,0,0,0-3.22,0,1.248,1.248,0,0,1-1.846,0,2.3,2.3,0,0,0-3.22,0,1.249,1.249,0,0,1-1.846,0,2.3,2.3,0,0,0-3.221,0,2.331,2.331,0,0,1-.39.287v-13.8a2.45,2.45,0,0,0,1.077-.6,1.249,1.249,0,0,1,1.847,0,2.3,2.3,0,0,0,3.221,0,1.248,1.248,0,0,1,1.846,0,2.3,2.3,0,0,0,3.22,0,1.248,1.248,0,0,1,1.846,0,2.3,2.3,0,0,0,3.22,0,1.248,1.248,0,0,1,1.846,0,2.45,2.45,0,0,0,1.077.6Zm-17.6,7.054H44.267a.533.533,0,0,1,0,1.067H29.333a1.6,1.6,0,0,1-.533-3.109V43.2a.533.533,0,0,0,.533.533ZM44.8,42.758a1.593,1.593,0,0,0-.533-.092h-14.4V41.6h14.4a2.667,2.667,0,0,1,.533.054ZM26.667,43.2a1.248,1.248,0,0,1-.922-.408,2.3,2.3,0,0,0-3.22,0,1.249,1.249,0,0,1-1.846,0,2.3,2.3,0,0,0-3.221,0,2.33,2.33,0,0,1-.39.287v-13.8a2.45,2.45,0,0,0,1.077-.6,1.249,1.249,0,0,1,1.847,0,2.3,2.3,0,0,0,3.221,0,1.248,1.248,0,0,1,1.846,0,2.269,2.269,0,0,0,1.61.659Zm2.667-26.133H44.267a2.67,2.67,0,0,1,2.667,2.667v2.012a2.333,2.333,0,0,1-.39-.287,2.3,2.3,0,0,0-3.22,0,1.248,1.248,0,0,1-1.846,0,2.3,2.3,0,0,0-3.22,0,1.248,1.248,0,0,1-1.846,0,2.3,2.3,0,0,0-3.22,0,1.249,1.249,0,0,1-1.846,0,2.3,2.3,0,0,0-3.221,0,2.331,2.331,0,0,1-.39.287V18.667A1.6,1.6,0,0,1,29.333,17.067Zm-2.667,6.4v4.8a1.248,1.248,0,0,1-.922-.408,2.3,2.3,0,0,0-3.22,0,1.249,1.249,0,0,1-1.846,0,2.3,2.3,0,0,0-3.221,0,2.331,2.331,0,0,1-.39.287V23.467Zm17.6,23.467h-27.2V44.209a2.45,2.45,0,0,0,1.077-.6,1.249,1.249,0,0,1,1.847,0,2.3,2.3,0,0,0,3.221,0,1.248,1.248,0,0,1,1.846,0,2.269,2.269,0,0,0,1.61.659c.075,0,.148,0,.218-.009a2.67,2.67,0,0,0,2.448,1.609H44.267a1.6,1.6,0,0,0,1.6-1.6V42.135a2.666,2.666,0,0,1-1.6,4.8Zm0-6.4H29.333a2.653,2.653,0,0,0-1.6.535V37.809a2.45,2.45,0,0,0,1.077-.6,1.249,1.249,0,0,1,1.847,0,2.3,2.3,0,0,0,3.221,0,1.248,1.248,0,0,1,1.846,0,2.3,2.3,0,0,0,3.22,0,1.248,1.248,0,0,1,1.846,0,2.3,2.3,0,0,0,3.22,0,1.248,1.248,0,0,1,1.846,0,2.45,2.45,0,0,0,1.077.6v3.849a3.722,3.722,0,0,0-2.667-1.124Z" fill="#21418e"/></g></svg>