<svg xmlns="http://www.w3.org/2000/svg" width="32" height="32" viewBox="0 0 32 32"><path d="M313.07,32.975c0-1.668-.894-2.975-2.035-2.975S309,31.307,309,32.975s.894,2.975,2.035,2.975S313.07,34.643,313.07,32.975Zm-3.131,0c0-1.2.578-2.035,1.1-2.035s1.1.836,1.1,2.035-.578,2.035-1.1,2.035S309.939,34.174,309.939,32.975Z" transform="translate(-289.65 -28.121)" fill="#233d91"/><path d="M419.035,35.949c1.141,0,2.035-1.307,2.035-2.975S420.177,30,419.035,30,417,31.307,417,32.975,417.894,35.949,419.035,35.949Zm0-5.01c.518,0,1.1.836,1.1,2.035s-.578,2.035-1.1,2.035-1.1-.836-1.1-2.035S418.517,30.939,419.035,30.939Z" transform="translate(-390.887 -28.121)" fill="#233d91"/><path d="M175.1,18.157a1.722,1.722,0,0,0-.47-3.379h-1.247a6.512,6.512,0,0,1,.946-2.585,12.632,12.632,0,0,1,1.181-1.4c1.275-1.377,2.72-2.938,2.72-5.877,0-3.262-1.4-4.916-4.164-4.916a3.176,3.176,0,0,0-2.71,1.68,5.329,5.329,0,0,0-.359.7,5.348,5.348,0,0,0-.359-.7A3.176,3.176,0,0,0,167.93,0a3.624,3.624,0,0,0-3.724,2.254h-5.513V14.779h-.971a1.722,1.722,0,0,0-.47,3.379v12.12A1.724,1.724,0,0,0,158.975,32h17.534a1.724,1.724,0,0,0,1.722-1.722V26.4a2.573,2.573,0,0,0-.939-1.991v-.547h.939V21.041H175.1ZM171.426,6.866c.02-.656.042-1.4.042-2.264,0-1.5.925-3.663,2.6-3.663,2.23,0,3.225,1.226,3.225,3.977,0,2.571-1.256,3.927-2.47,5.239a13.3,13.3,0,0,0-1.268,1.51,6.635,6.635,0,0,0-.849,1.848,19.239,19.239,0,0,1-1.181-3.415,16.159,16.159,0,0,1-.1-3.231ZM167.93.939c1.673,0,2.6,2.166,2.6,3.663,0,.85-.022,1.586-.041,2.235a17.05,17.05,0,0,0,.111,3.417,24.842,24.842,0,0,0,1.634,4.524h-2.67a7.517,7.517,0,0,0-1.118-3.114,13.3,13.3,0,0,0-1.268-1.51c-1.215-1.312-2.47-2.668-2.47-5.239,0-2.75.995-3.977,3.225-3.977Zm.682,13.84h-3.344v-5.4a18.409,18.409,0,0,0,1.217,1.41,12.629,12.629,0,0,1,1.181,1.4A6.545,6.545,0,0,1,168.612,14.779Zm-8.98-1.566h2.661v-.939h-2.661V10.708h1.409V9.769h-1.409V8.2h1.409V7.264h-1.409V5.7h2.661V4.759h-2.661V3.194h4.293a8.532,8.532,0,0,0-.16,1.722,7.141,7.141,0,0,0,.564,2.878v6.985h-4.7Zm-1.91,4.07a.783.783,0,0,1,0-1.566H174.63a.783.783,0,0,1,0,1.566Zm9.739,13.777h-8.486a.784.784,0,0,1-.783-.783V18.223H174.16v2.818h-6.888v2.818h.939v.547a2.573,2.573,0,0,0-.939,1.991v3.881A1.71,1.71,0,0,0,167.461,31.061Zm9.831-.783a.784.784,0,0,1-.783.783h-7.515a.784.784,0,0,1-.783-.783V26.4a1.637,1.637,0,0,1,.73-1.364l.209-.139V23.859h7.2v1.034l.209.139a1.637,1.637,0,0,1,.73,1.364Zm0-8.3v.939h-9.08V21.98Z" transform="translate(-146.231)" fill="#233d91"/><path d="M8.454,194.207v-2.571H6.787L5.41,186H4.3l-1.378,5.636H1.252v2.571A1.725,1.725,0,0,0,0,195.863v8.767a1.724,1.724,0,0,0,1.722,1.722H7.984a1.724,1.724,0,0,0,1.722-1.722v-8.767A1.725,1.725,0,0,0,8.454,194.207Zm-3.6-6.527.967,3.957H3.886Zm-2.661,4.9H7.515v1.566H2.192ZM8.767,204.63a.784.784,0,0,1-.783.783H1.722a.784.784,0,0,1-.783-.783v-8.767a.784.784,0,0,1,.783-.783H7.984a.784.784,0,0,1,.783.783Z" transform="translate(0 -174.352)" fill="#233d91"/><path d="M40,419.444h4.7V416H40Zm.939-2.5h2.818V418.5H40.939Z" transform="translate(-37.495 -389.949)" fill="#233d91"/><path d="M371,429.444h6.575V426H371Zm.939-2.5h4.7V428.5h-4.7Z" transform="translate(-347.767 -399.323)" fill="#233d91"/></svg>