<svg xmlns="http://www.w3.org/2000/svg" width="32" height="32.244" viewBox="0 0 32 32.244"><g transform="translate(-1.94)"><g transform="translate(22.469 14.233)"><circle cx="0.63" cy="0.63" r="0.63" fill="#21418e"/></g><g transform="translate(13.676 17.554)"><path d="M197.824,278.745a.63.63,0,0,0-.715.531,3.431,3.431,0,0,1-2.628,2.579,5.035,5.035,0,0,1-5.094-1.131.63.63,0,0,0-.928.852,5.55,5.55,0,0,0,3.032,1.657,6.714,6.714,0,0,0,1.318.129,7,7,0,0,0,2.041-.3,4.647,4.647,0,0,0,3.5-3.6A.63.63,0,0,0,197.824,278.745Z" transform="translate(-188.293 -278.738)" fill="#21418e"/></g><g transform="translate(1.94)"><path d="M31.96,11.992a7.8,7.8,0,0,0-4.626-2.533A35.73,35.73,0,0,0,31.845,5.94c1.707-1.627,2.28-2.77,1.8-3.6-.532-.922-2.067-.915-4.832.02a48.363,48.363,0,0,0-8.2,3.865c-.509.294-1.014.6-1.507.9a3.383,3.383,0,0,1,.683-3.239,2.407,2.407,0,0,0,.353-2.543A2.544,2.544,0,0,0,17.761,0h-.03A15.632,15.632,0,0,0,7.15,4.269,15.872,15.872,0,0,0,2,14.542a16.176,16.176,0,0,0,16.058,17.7,17.181,17.181,0,0,0,6.744-1.315,15.176,15.176,0,0,0,4.967-3.385,14.959,14.959,0,0,0,3.072-4.6,13.328,13.328,0,0,0,1.094-4.976A8.783,8.783,0,0,0,31.96,11.992ZM19.185,8.564c.667-.42,1.361-.839,2.064-1.245a48.553,48.553,0,0,1,7.644-3.65c2.425-.859,3.418-.8,3.65-.692-.02.147-.2.8-1.794,2.264a40.071,40.071,0,0,1-5.464,4.053c-.694.439-1.416.876-2.146,1.3-1.007.581-2.013,1.124-3,1.622A9.436,9.436,0,0,0,18.352,9.1Q18.762,8.831,19.185,8.564ZM19,12.772a32.294,32.294,0,0,1-4.713,1.859,3.143,3.143,0,0,0-.951-1.675A32.386,32.386,0,0,1,17.3,9.808,8.211,8.211,0,0,1,19,12.772Zm13.682,5.182c-.09,6.267-5.7,13.031-14.618,13.031a14.864,14.864,0,0,1-.33-29.725h.028a1.306,1.306,0,0,1,1.254.634,1.148,1.148,0,0,1-.208,1.214,4.623,4.623,0,0,0-.778,4.7c-.338.218-.669.436-.99.653l0,0a33.545,33.545,0,0,0-4.819,3.827,3.132,3.132,0,0,0-2.588.253C8.318,13.3,6.6,16.822,6.269,17.521a.63.63,0,0,0,.518.9c.348.028,1.337.1,2.437.1A8.583,8.583,0,0,0,12.775,18a3.141,3.141,0,0,0,1.5-2.059,33.315,33.315,0,0,0,5.748-2.263c1.224-.6,2.484-1.267,3.743-1.993.639-.369,1.27-.749,1.884-1.133h.011C30.912,10.7,32.729,14.474,32.679,17.954ZM13.087,15.39a1.887,1.887,0,0,1-.942,1.518c-.6.344-2.642.39-4.322.314.773-1.493,1.836-3.241,2.432-3.586a1.89,1.89,0,0,1,2.831,1.754Z" transform="translate(-1.94)" fill="#21418e"/></g><g transform="translate(10.504 3.895)"><path d="M140.441,61.84a2.519,2.519,0,1,0,2.519,2.519A2.522,2.522,0,0,0,140.441,61.84Zm0,3.779a1.26,1.26,0,1,1,1.26-1.26A1.261,1.261,0,0,1,140.441,65.619Z" transform="translate(-137.922 -61.84)" fill="#21418e"/></g><g transform="translate(7.355 20.817)"><path d="M90.441,330.55a2.519,2.519,0,1,0,2.519,2.519A2.522,2.522,0,0,0,90.441,330.55Zm0,3.779a1.26,1.26,0,1,1,1.26-1.26A1.261,1.261,0,0,1,90.441,334.329Z" transform="translate(-87.922 -330.55)" fill="#21418e"/></g><g transform="translate(13.652 24.596)"><path d="M190.441,390.55a2.519,2.519,0,1,0,2.519,2.519A2.522,2.522,0,0,0,190.441,390.55Zm0,3.779a1.26,1.26,0,1,1,1.26-1.26A1.261,1.261,0,0,1,190.441,394.329Z" transform="translate(-187.922 -390.55)" fill="#21418e"/></g><g transform="translate(21.21 23.336)"><path d="M310.441,370.55a2.519,2.519,0,1,0,2.519,2.519A2.522,2.522,0,0,0,310.441,370.55Zm0,3.779a1.26,1.26,0,1,1,1.26-1.26A1.261,1.261,0,0,1,310.441,374.329Z" transform="translate(-307.922 -370.55)" fill="#21418e"/></g><g transform="translate(26.248 17.039)"><path d="M390.441,270.55a2.519,2.519,0,1,0,2.519,2.519A2.522,2.522,0,0,0,390.441,270.55Zm0,3.779a1.26,1.26,0,1,1,1.26-1.26A1.261,1.261,0,0,1,390.441,274.329Z" transform="translate(-387.922 -270.55)" fill="#21418e"/></g></g></svg>