<svg xmlns="http://www.w3.org/2000/svg" width="32" height="25.761" viewBox="0 0 32 25.761"><path d="M43.692,76.039l4.013-7.662a2.579,2.579,0,1,0-4.568-2.393l-4.013,7.662a2.563,2.563,0,0,0-.011,2.368l-1.243,2.374-1.74-.869a.538.538,0,0,0-.708.214l-3.3,5.778a5.916,5.916,0,0,0-.777,2.856,3.227,3.227,0,0,0-1.367-.3l-.068,0a2.154,2.154,0,0,0-2.082-1.615v-4.3h.538a5.92,5.92,0,0,0,5.913-5.913v-2.15a1.615,1.615,0,0,0-1.613-1.613H28.5a6.017,6.017,0,0,0-4.856,2.444,6.02,6.02,0,0,0-1.863-.294H17.613A1.615,1.615,0,0,0,16,74.237v2.15A5.92,5.92,0,0,0,21.913,82.3H24.6v2.218a2.154,2.154,0,0,0-.983.564,2.151,2.151,0,0,0-2.731,1.6,2.149,2.149,0,0,0-2.669,1.531H17.075v1.075h1.613a.537.537,0,0,0,.538-.538,1.075,1.075,0,1,1,2.15,0H22.45a2.14,2.14,0,0,0-.515-1.394,1.074,1.074,0,0,1,1.052-1.294c.023,0,.045,0,.067,0a1.078,1.078,0,0,1,1.008,1.072h1.075a2.144,2.144,0,0,0-.564-1.451,1.069,1.069,0,0,1,1.263.1,2.144,2.144,0,0,0-.161.816h1.075a1.075,1.075,0,0,1,2.1-.333,3.23,3.23,0,0,0-2.1,3.021h1.075a2.15,2.15,0,0,1,3.819-1.355,2.152,2.152,0,0,0-1.131,1.893h1.075a1.075,1.075,0,1,1,2.15,0h1.075a2.137,2.137,0,0,0-.2-.9,1.613,1.613,0,0,1,1.469,0,2.144,2.144,0,0,0-.2.9h1.075a1.075,1.075,0,1,1,2.15,0h1.075a2.144,2.144,0,0,0-.161-.816,1.075,1.075,0,0,1,1.774.816.537.537,0,0,0,.538.538h4.3V89.288H42.809A2.15,2.15,0,0,0,39.764,87.9a5.941,5.941,0,0,0,.353-.646l2.709-5.805a.538.538,0,0,0-.247-.708l-2.025-1.013,1.227-2.342A2.583,2.583,0,0,0,43.692,76.039Zm-16.941,8.7a2.16,2.16,0,0,0-.267.183,2.152,2.152,0,0,0-.808-.4V81.762a.537.537,0,0,0-.538-.538H24.063a4.843,4.843,0,0,1-4.838-4.838V75.85H18.15v.538a5.9,5.9,0,0,0,2.156,4.563,4.845,4.845,0,0,1-3.231-4.563v-2.15a.538.538,0,0,1,.538-.538h4.166a4.978,4.978,0,0,1,4.972,4.972ZM24.662,73.357A4.947,4.947,0,0,1,28.5,71.549h4.166a.538.538,0,0,1,.538.538v2.15A4.845,4.845,0,0,1,29.968,78.8a5.927,5.927,0,0,0,2.158-4.563V73.7H31.051v.538A4.855,4.855,0,0,1,27.826,78.8v-.128A6.053,6.053,0,0,0,24.662,73.357Zm16.969,8.114L39.143,86.8a4.832,4.832,0,0,1-.576.938,2.144,2.144,0,0,0-1.788.344,2.678,2.678,0,0,0-1.427-.41l-.073,0,1.619-2.97-.943-.515-2.1,3.845a2.138,2.138,0,0,0-1.086-.36,3.222,3.222,0,0,0-.284-.415,4.834,4.834,0,0,1,.566-3.219L36.1,78.708l1.267.633-1.017,1.941a1.5,1.5,0,0,0,2.659,1.394l1.043-1.992Zm-3.571.7a.428.428,0,0,1-.38.229.419.419,0,0,1-.235-.072.424.424,0,0,1-.141-.552L39.86,76.9a2.558,2.558,0,0,0,.532.309,2.392,2.392,0,0,0,.224.084Zm2.755-5.952a1.5,1.5,0,0,1-.739-2.08l4.013-7.662a1.5,1.5,0,0,1,2.663,1.4L42.739,75.54a1.51,1.51,0,0,1-1.924.684Z" transform="translate(-16 -64.602)" fill="#21418e"/></svg>