<svg xmlns="http://www.w3.org/2000/svg" width="121.375" height="31.018" viewBox="0 0 121.375 31.018">
  <g id="paypal" transform="translate(0 -187.6)">
    <path id="Path_11680" data-name="Path 11680" d="M357.411,221.2h-6.55a1.28,1.28,0,0,0-.963.771l-2.7,16.954a.511.511,0,0,0,.578.578h3.468a.511.511,0,0,0,.578-.578l.771-4.816a.881.881,0,0,1,.963-.771h2.119q6.647,0,7.514-6.358a5.05,5.05,0,0,0-.771-4.239,7.771,7.771,0,0,0-5.009-1.541m.771,6.358c-.385,2.312-2.119,2.312-3.853,2.312h-1.156l.771-4.431c0-.193.193-.385.578-.385h.385c1.156,0,2.312,0,2.89.771.385.193.385.771.385,1.734" transform="translate(-263.586 -25.508)" fill="#139ad6"/>
    <g id="Group_1906" data-name="Group 1906" transform="translate(36.413 195.692)">
      <path id="Path_11681" data-name="Path 11681" d="M161.411,221.2h-6.55a1.28,1.28,0,0,0-.963.771l-2.7,16.954a.511.511,0,0,0,.578.578h3.083a1.28,1.28,0,0,0,.963-.771l.771-4.624a.881.881,0,0,1,.963-.771h2.119q6.647,0,7.514-6.358a5.05,5.05,0,0,0-.771-4.239,7.405,7.405,0,0,0-5.009-1.541m.771,6.358c-.385,2.312-2.119,2.312-3.853,2.312h-.963l.771-4.431c0-.193.193-.385.578-.385h.385c1.156,0,2.312,0,2.89.771a2.064,2.064,0,0,1,.193,1.734" transform="translate(-151.2 -221.2)" fill="#263b80"/>
      <path id="Path_11682" data-name="Path 11682" d="M228.854,245.585h-3.083c-.193,0-.578.193-.578.385l-.193.963-.193-.385a4.532,4.532,0,0,0-3.661-1.349,7.4,7.4,0,0,0-7.128,6.358,5.742,5.742,0,0,0,1.156,4.816,4.855,4.855,0,0,0,4.046,1.541,6.158,6.158,0,0,0,4.431-1.734l-.193.963a.511.511,0,0,0,.578.578h2.89a1.28,1.28,0,0,0,.963-.771l1.734-10.789c-.193-.193-.578-.578-.771-.578m-4.431,6.165a3.726,3.726,0,0,1-3.661,3.083,3.081,3.081,0,0,1-2.119-.771,4.109,4.109,0,0,1-.578-2.312,3.436,3.436,0,0,1,5.587-2.312,3.364,3.364,0,0,1,.771,2.312" transform="translate(-198.799 -239.42)" fill="#263b80"/>
    </g>
    <path id="Path_11683" data-name="Path 11683" d="M424.054,245.585h-3.083c-.193,0-.578.193-.578.385l-.193.963-.193-.385a4.532,4.532,0,0,0-3.661-1.349,7.4,7.4,0,0,0-7.128,6.358,5.742,5.742,0,0,0,1.156,4.816,4.855,4.855,0,0,0,4.046,1.541,6.158,6.158,0,0,0,4.431-1.734l-.193.963a.511.511,0,0,0,.578.578h2.89a1.28,1.28,0,0,0,.963-.771l1.734-10.789c-.193-.193-.385-.578-.771-.578m-4.431,6.165a3.726,3.726,0,0,1-3.661,3.083,3.081,3.081,0,0,1-2.119-.771,4.109,4.109,0,0,1-.578-2.312,3.436,3.436,0,0,1,5.587-2.312,2.211,2.211,0,0,1,.771,2.312" transform="translate(-310.578 -43.729)" fill="#139ad6"/>
    <path id="Path_11684" data-name="Path 11684" d="M298.835,246.8H295.56a1,1,0,0,0-.771.385l-4.239,6.55-1.927-6.165a.89.89,0,0,0-.963-.578h-3.083c-.385,0-.578.385-.578.771l3.468,10.211-3.275,4.624c-.193.385,0,.963.385.963h3.083a1,1,0,0,0,.771-.385l10.6-15.22c.578-.578.193-1.156-.193-1.156" transform="translate(-215.606 -44.943)" fill="#263b80"/>
    <path id="Path_11685" data-name="Path 11685" d="M477.9,222.147l-2.7,17.339a.511.511,0,0,0,.578.578h2.7a1.28,1.28,0,0,0,.963-.771l2.7-16.954a.511.511,0,0,0-.578-.578h-3.083c-.193-.193-.385,0-.578.385" transform="translate(-360.76 -25.877)" fill="#139ad6"/>
    <path id="Path_11686" data-name="Path 11686" d="M22.156,189.912c-1.349-1.541-3.853-2.312-7.321-2.312H5.2a1.653,1.653,0,0,0-1.349,1.156L0,213.994a.881.881,0,0,0,.771.963H6.743l1.541-9.44v.385a1.653,1.653,0,0,1,1.349-1.156h2.89c5.587,0,9.826-2.312,11.174-8.67V195.5h0c.193-2.5-.193-4.046-1.541-5.587" transform="translate(0 0)" fill="#263b80"/>
    <path id="Path_11687" data-name="Path 11687" d="M42.939,220.4h0v.578c-1.349,6.55-5.587,8.67-11.174,8.67h-2.89a1.653,1.653,0,0,0-1.349,1.156L25.6,242.556a.706.706,0,0,0,.771.771H31.38a1.079,1.079,0,0,0,1.156-.963v-.193L33.5,236.2v-.385a1.079,1.079,0,0,1,1.156-.963h.771c4.816,0,8.67-1.927,9.633-7.706.385-2.312.193-4.431-.963-5.78a1.973,1.973,0,0,0-1.156-.963" transform="translate(-19.435 -24.901)" fill="#139ad6"/>
    <path id="Path_11688" data-name="Path 11688" d="M48.271,216.178c-.193,0-.385-.193-.578-.193a.708.708,0,0,1-.578-.193,10.178,10.178,0,0,0-2.5-.193H37.1a.708.708,0,0,0-.578.193,1.059,1.059,0,0,0-.578.963L34.4,226.774v.385A1.653,1.653,0,0,1,35.749,226h2.89c5.587,0,9.826-2.312,11.174-8.67a.708.708,0,0,1,.193-.578c-.385-.193-.578-.385-.963-.385-.578-.193-.578-.193-.771-.193" transform="translate(-26.116 -21.257)" fill="#232c65"/>
  </g>
</svg>
