<svg xmlns="http://www.w3.org/2000/svg" width="39.335" height="32.399" viewBox="0 0 39.335 32.399"><g transform="translate(0 -45.139)"><g transform="translate(0 45.139)"><g transform="translate(0 0)"><path d="M32.837,60.066a29.316,29.316,0,0,1-2.592-6.48,29,29,0,0,1-1.035-6.894,1.436,1.436,0,0,0-.61-1.274,1.563,1.563,0,0,0-1.525-.145,107.191,107.191,0,0,1-12.589,4.446,108.7,108.7,0,0,1-13.131,2.52,1.44,1.44,0,0,0-1.188.785,1.516,1.516,0,0,0,.07,1.509A29.389,29.389,0,0,1,2.867,61,28.98,28.98,0,0,1,3.9,67.9a1.437,1.437,0,0,0,.61,1.274,1.528,1.528,0,0,0,.883.278,1.615,1.615,0,0,0,.64-.133A107.33,107.33,0,0,1,18.626,64.87a108.679,108.679,0,0,1,13.083-2.519,1.442,1.442,0,0,0,1.193-.785A1.511,1.511,0,0,0,32.837,60.066Zm-1.064.917a.177.177,0,0,1-.158.1A110.271,110.271,0,0,0,18.3,63.644,109.038,109.038,0,0,0,5.512,68.159a.27.27,0,0,1-.266-.025.171.171,0,0,1-.077-.17,29.94,29.94,0,0,0-1.082-7.311,30.624,30.624,0,0,0-2.779-6.8A.248.248,0,0,1,1.3,53.6a.173.173,0,0,1,.149-.1h.009a110.337,110.337,0,0,0,13.362-2.559A108.933,108.933,0,0,0,27.6,46.429a.291.291,0,0,1,.112-.024.276.276,0,0,1,.154.048.17.17,0,0,1,.076.17,29.935,29.935,0,0,0,1.078,7.3,30.268,30.268,0,0,0,2.741,6.82A.249.249,0,0,1,31.773,60.983Z" transform="translate(0 -45.139)" fill="#21418e"/></g></g><g transform="translate(3.766 54.734)"><path d="M53.155,170.5a.634.634,0,0,0-.782-.442,5.757,5.757,0,0,1-1.849-.016.648.648,0,0,0-.14-.006,1.44,1.44,0,0,0-1.193.785,1.51,1.51,0,0,0,.06,1.493c.008.014.021.032.03.045a1.709,1.709,0,0,1,.3,1.037.635.635,0,0,0,.565.7.6.6,0,0,0,.067,0,.635.635,0,0,0,.631-.567,2.936,2.936,0,0,0-.522-1.9.247.247,0,0,1,0-.231.174.174,0,0,1,.1-.093,6.671,6.671,0,0,0,2.288-.03A.635.635,0,0,0,53.155,170.5Z" transform="translate(-49.023 -170.032)" fill="#21418e"/></g><g transform="translate(23.032 50.179)"><g transform="translate(0 0)"><path d="M307.458,115.7c-.834-2.1-3.41-5.8-7.189-4.781a.635.635,0,1,0,.331,1.226c3.628-.982,5.6,3.819,5.679,4.024a.635.635,0,0,0,1.18-.469Z" transform="translate(-299.799 -110.748)" fill="#21418e"/></g></g><g transform="translate(12.281 59.643)"><path d="M168.963,233.965a.634.634,0,0,0-.813.381c-.819,2.27-5.965,4.62-7.878,5.335a.635.635,0,0,0,.222,1.23.628.628,0,0,0,.221-.04c.76-.283,7.463-2.862,8.629-6.093A.634.634,0,0,0,168.963,233.965Z" transform="translate(-159.858 -233.926)" fill="#21418e"/></g><g transform="translate(6.392 59.473)"><path d="M116.01,233.375a1.514,1.514,0,0,0-1.176-.847l-.043,0c-1.341-.087-3.521-.451-5.476-.8a.635.635,0,1,0-.22,1.25c1.976.349,4.183.717,5.587.811a.238.238,0,0,1,.182.131.215.215,0,0,1-.018.215,30.657,30.657,0,0,0-2.7,6.868,32.426,32.426,0,0,0-1.034,7.308.174.174,0,0,1-.072.164.215.215,0,0,1-.206.025,108.728,108.728,0,0,0-12.815-4.487A118.743,118.743,0,0,0,84.7,241.545a.24.24,0,0,1-.2-.133.218.218,0,0,1,.019-.217c.009-.016.019-.032.027-.049.033-.067.076-.134.118-.2.064-.1.127-.206.178-.308a.635.635,0,1,0-1.136-.567c-.034.068-.077.135-.119.2-.058.094-.116.188-.165.281a1.492,1.492,0,0,0-.07,1.4,1.528,1.528,0,0,0,1.209.852A119.009,119.009,0,0,1,97.7,245.242a107.141,107.141,0,0,1,12.612,4.415,1.546,1.546,0,0,0,.609.127,1.468,1.468,0,0,0,.855-.273,1.434,1.434,0,0,0,.606-1.269,31.174,31.174,0,0,1,1-6.931,29.318,29.318,0,0,1,2.549-6.509A1.491,1.491,0,0,0,116.01,233.375Z" transform="translate(-83.21 -231.718)" fill="#21418e"/></g><g transform="translate(31.539 62.987)"><path d="M411.335,277.479a.635.635,0,0,0-.328,1.227c3.671.982,2.954,6.1,2.922,6.318a.635.635,0,0,0,.534.722.61.61,0,0,0,.095.007.634.634,0,0,0,.627-.54C415.521,282.984,415.15,278.5,411.335,277.479Z" transform="translate(-410.535 -277.457)" fill="#21418e"/></g><g transform="translate(14.736 69.76)"><path d="M202.922,365.835a.634.634,0,0,0-.9-.066c-1.826,1.573-7.452,1.009-9.466.66a.635.635,0,0,0-.217,1.251,30.772,30.772,0,0,0,4.86.422c2.125,0,4.4-.3,5.653-1.372A.635.635,0,0,0,202.922,365.835Z" transform="translate(-191.817 -365.614)" fill="#21418e"/></g></g></svg>