<svg xmlns="http://www.w3.org/2000/svg" width="32" height="32.064" viewBox="0 0 32 32.064"><g transform="translate(-0.493)"><g transform="translate(0.493)"><g transform="translate(0)"><path d="M24.054,17.066q.03-.41.05-.819l.04-.8a7.528,7.528,0,0,0-.472-3.037,7.618,7.618,0,0,0-4.015-4.26L18.167,7.49l2.326-5.582a1.363,1.363,0,0,0,.106-.529A1.381,1.381,0,0,0,19.219,0H5.428A1.379,1.379,0,0,0,4.155,1.909L6.48,7.489l-1.491.662A7.617,7.617,0,0,0,.975,12.413,7.524,7.524,0,0,0,.5,15.449l.04.8A38.865,38.865,0,0,0,4.621,31.778l.143.286h15.12l.143-.286c.036-.071.07-.143.1-.215a6.677,6.677,0,0,0,2.536.5h3.1a6.731,6.731,0,0,0,6.723-6.723V17.066ZM5.41,9.1,7.824,8.025,5.11,1.513a.356.356,0,0,1-.027-.134.345.345,0,0,1,.345-.345H19.219a.345.345,0,0,1,.345.345.352.352,0,0,1-.026.132L16.824,8.025,19.238,9.1a6.574,6.574,0,0,1,3.048,2.8H2.362A6.574,6.574,0,0,1,5.41,9.1ZM1.536,14.925a6.472,6.472,0,0,1,.359-2H22.752a6.474,6.474,0,0,1,.359,2,2.544,2.544,0,0,0-3.547-.431V14.48H13.875v.013a2.534,2.534,0,0,0-3.1,0V14.48H5.084v.013a2.544,2.544,0,0,0-3.547.431ZM20.6,16.032v1.034h-.934a1.552,1.552,0,1,1,2.9,0h-.934V16.032Zm-2.011,1.034h-3.73a2.561,2.561,0,0,0-.167-1.551h4.059a2.56,2.56,0,0,0-.219,1.034A2.589,2.589,0,0,0,18.588,17.066Zm-1.609,3.1H18.53v3.1H16.978v-3.1Zm-3.1-3.62A1.551,1.551,0,1,1,12.324,15,1.553,1.553,0,0,1,13.875,16.549Zm-8.792,0A1.551,1.551,0,1,1,3.532,15,1.553,1.553,0,0,1,5.084,16.549ZM1.758,18.421a2.56,2.56,0,0,0,3.83-.32H7.669V17.066h-1.6A2.561,2.561,0,0,0,5.9,15.515H9.957a2.561,2.561,0,0,0-.167,1.551H8.7V18.1h1.565a2.559,2.559,0,0,0,4.11,0h1.565v2.069H1.984C1.894,19.589,1.821,19.006,1.758,18.421ZM6.849,21.2h4.743L9.221,23.575Zm1.64,3.1H3.746l2.372-2.372Zm3.834-2.372L14.7,24.306H9.952Zm.731-.731h2.889v1.855l-.517.517Zm-10.887,0H5.387L2.742,23.848C2.516,22.975,2.332,22.092,2.168,21.2Zm1,4.137H15.944a6.752,6.752,0,0,0,.088,1.034H3.5C3.389,26.031,3.274,25.687,3.169,25.341ZM5.4,31.029a38.369,38.369,0,0,1-1.547-3.62H16.273a6.749,6.749,0,0,0,2.828,3.62Zm12.506-2.577c.034,0,.067-.009.1-.009a2.584,2.584,0,0,1,2.544,2.176A5.718,5.718,0,0,1,17.911,28.452Zm7.859,2.577h-3.1a5.672,5.672,0,0,1-1.024-.1,2.577,2.577,0,0,1,5.152,0A5.672,5.672,0,0,1,25.77,31.029Zm2.11-.41a2.584,2.584,0,0,1,2.544-2.176c.035,0,.068.007.1.008A5.716,5.716,0,0,1,27.88,30.619Zm3.164-3.157a3.613,3.613,0,0,0-3.722,1.712,3.61,3.61,0,0,0-6.206,0,3.613,3.613,0,0,0-3.722-1.712,5.646,5.646,0,0,1-.316-1.088H31.36A5.647,5.647,0,0,1,31.044,27.463Zm.415-2.122H16.978V24.306h14.48ZM19.564,23.272v-3.1h1.551v3.1Zm2.586,0v-3.1H23.7v3.1Zm2.586,0v-3.1h1.551v3.1Zm6.723,0H29.907V22.238H28.873v1.034H27.321v-3.1h1.551V21.2h1.034V20.169h1.551Zm0-4.137H16.978V18.1h14.48Z" transform="translate(-0.493)" fill="#21418e"/><rect width="1.034" height="1.034" transform="translate(11.314 16.032)" fill="#21418e"/><rect width="1.034" height="1.034" transform="translate(2.522 16.032)" fill="#21418e"/></g></g></g></svg>