<svg xmlns="http://www.w3.org/2000/svg" width="71.002" height="52.589" viewBox="0 0 71.002 52.589"><g transform="translate(-4.8 -11.2)"><g transform="translate(4.8 11.2)"><path d="M9.2,23.792v9.837a5.363,5.363,0,0,0,.252,1.387A5.229,5.229,0,0,0,13.236,38.8a3.888,3.888,0,0,0,1.261.126h8.954V19h-9.08A5.309,5.309,0,0,0,9.2,23.792Z" transform="translate(-3.651 -9.163)" fill="#21418e"/><path d="M22.5,40.431l21.691,6.558V14.2L22.5,20Z" transform="translate(-0.178 -10.417)" fill="#21418e"/><path d="M43.718,11.2h-.883A1.126,1.126,0,0,0,41.7,12.335V49.412a1.159,1.159,0,0,0,1.135,1.261h.883a1.126,1.126,0,0,0,1.135-1.135v-37.2A1.126,1.126,0,0,0,43.718,11.2Z" transform="translate(4.836 -11.2)" fill="#21418e"/><path d="M7.827,23.7H6.692A1.94,1.94,0,0,0,4.8,25.592v5.3a1.758,1.758,0,0,0,1.892,1.766H7.827V23.7Z" transform="translate(-4.8 -7.936)" fill="#21418e"/><path d="M13.2,36.7l2.144,20.43h2.522L16.731,45.4a2.6,2.6,0,0,1,2.522-2.774V36.7H13.2Z" transform="translate(-2.607 -4.541)" fill="#21418e"/><path d="M46.2,22.5v9.837a5.574,5.574,0,0,0,2.9-4.918,5.765,5.765,0,0,0-1.639-3.909A4.938,4.938,0,0,0,46.2,22.5Z" transform="translate(6.011 -8.249)" fill="#21418e"/><path d="M59.253,31.269a1.253,1.253,0,0,1-1.261.883h-.378l-4.54-1.639a1.277,1.277,0,0,1,.883-2.4L58.5,29.63A1.622,1.622,0,0,1,59.253,31.269Z" transform="translate(7.587 -6.803)" fill="#21418e"/><path d="M58.27,24.312,53.856,25.7c-.126,0-.252.126-.378.126a1.518,1.518,0,0,1-1.261-.883A1.28,1.28,0,0,1,53.1,23.3l4.414-1.387a1.28,1.28,0,0,1,1.639.883A1.452,1.452,0,0,1,58.27,24.312Z" transform="translate(7.561 -8.422)" fill="#21418e"/><path d="M62.51,26.761a1.264,1.264,0,0,1-1.261,1.261H56.961a1.261,1.261,0,1,1,0-2.522h4.288A1.264,1.264,0,0,1,62.51,26.761Z" transform="translate(8.491 -7.466)" fill="#21418e"/></g></g></svg>