<svg xmlns="http://www.w3.org/2000/svg" width="32" height="30.968" viewBox="0 0 32 30.968"><g transform="translate(-8 -16)"><path d="M37.419,244.129v-1.548A2.583,2.583,0,0,0,34.839,240H26.065A2.577,2.577,0,0,0,24,241.034,2.577,2.577,0,0,0,21.935,240H13.161a2.583,2.583,0,0,0-2.581,2.581v1.548A2.583,2.583,0,0,0,8,246.71V256a.516.516,0,0,0,.516.516H39.484A.516.516,0,0,0,40,256v-9.29A2.583,2.583,0,0,0,37.419,244.129ZM13.161,255.484H9.032V246.71a1.55,1.55,0,0,1,1.548-1.548h1.032a1.55,1.55,0,0,1,1.548,1.548Zm-1.548-11.355v-1.548a1.55,1.55,0,0,1,1.548-1.548h8.774a1.55,1.55,0,0,1,1.548,1.548v6.195a2.568,2.568,0,0,0-1.548-.517H15.742a2.568,2.568,0,0,0-1.548.517V246.71a2.583,2.583,0,0,0-2.581-2.581Zm11.871,6.71v1.548h-9.29v-1.548a1.55,1.55,0,0,1,1.548-1.548h6.194A1.55,1.55,0,0,1,23.484,250.839Zm10.323,4.645H14.194v-2.065H33.806Zm0-3.1h-9.29v-1.548a1.55,1.55,0,0,1,1.548-1.548h6.194a1.55,1.55,0,0,1,1.548,1.548Zm0-5.677v2.066a2.568,2.568,0,0,0-1.548-.517H26.065a2.568,2.568,0,0,0-1.548.517v-6.195a1.55,1.55,0,0,1,1.548-1.548h8.774a1.55,1.55,0,0,1,1.548,1.548v1.548a2.583,2.583,0,0,0-2.581,2.581Zm5.161,8.774H34.839V246.71a1.55,1.55,0,0,1,1.548-1.548h1.032a1.55,1.55,0,0,1,1.548,1.548Z" transform="translate(0 -209.548)" fill="#21418e"/><path d="M144,16H128.516a.516.516,0,0,0-.516.516V27.871a.516.516,0,0,0,.516.516H144a.516.516,0,0,0,.516-.516V16.516A.516.516,0,0,0,144,16Zm-.516,11.355H129.032V17.032h14.452Z" transform="translate(-112.258)" fill="#21418e"/><path d="M164.9,40H152.516a.516.516,0,0,0-.516.516v8.258a.516.516,0,0,0,.516.516H164.9a.516.516,0,0,0,.516-.516V40.516A.516.516,0,0,0,164.9,40ZM154.65,48.258l1.479-1.774,1.479,1.774Zm4.3,0-1.075-1.29,2.1-2.523,2.86,3.814Zm5.435,0h-.258L160.413,43.3a.516.516,0,0,0-.81-.021l-2.4,2.879-.679-.814a.517.517,0,0,0-.794,0l-2.426,2.911h-.274V41.032h11.355Z" transform="translate(-134.71 -22.452)" fill="#21418e"/><path d="M193.548,67.1A1.548,1.548,0,1,0,192,65.548,1.548,1.548,0,0,0,193.548,67.1Zm0-2.065a.516.516,0,1,1-.516.516A.516.516,0,0,1,193.548,65.032Z" transform="translate(-172.129 -44.903)" fill="#21418e"/></g></svg>