<svg xmlns="http://www.w3.org/2000/svg" width="28.519" height="32.457" viewBox="0 0 28.519 32.457"><g transform="translate(-31.062 0)"><path d="M59.105,0H54.234a.475.475,0,1,0,0,.951h4.4V31.506H33.982v-2h.509a1.46,1.46,0,1,0,0-2.92h-.509V23.6h.509a1.46,1.46,0,1,0,0-2.92h-.509V17.689h.509a1.46,1.46,0,1,0,0-2.92h-.509V11.781h.509a1.46,1.46,0,0,0,0-2.92h-.509V5.874h.509a1.46,1.46,0,1,0,0-2.92h-.509v-2h18.18a.475.475,0,0,0,0-.951H33.507a.475.475,0,0,0-.475.475V2.954h-.509a1.46,1.46,0,1,0,0,2.92h.509V8.861h-.509a1.46,1.46,0,0,0,0,2.92h.509v2.987h-.509a1.46,1.46,0,1,0,0,2.92h.509v2.987h-.509a1.46,1.46,0,1,0,0,2.92h.509v2.987h-.509a1.46,1.46,0,1,0,0,2.92h.509v2.479a.475.475,0,0,0,.475.475h25.6a.475.475,0,0,0,.475-.475V.475A.475.475,0,0,0,59.105,0ZM32.013,4.414a.51.51,0,0,1,.509-.509h1.969a.509.509,0,1,1,0,1.018H32.522A.51.51,0,0,1,32.013,4.414Zm0,5.907a.51.51,0,0,1,.509-.509h1.969a.509.509,0,0,1,0,1.018H32.522A.51.51,0,0,1,32.013,10.321Zm0,5.907a.51.51,0,0,1,.509-.509h1.969a.509.509,0,0,1,0,1.018H32.522A.51.51,0,0,1,32.013,16.229Zm0,5.907a.51.51,0,0,1,.509-.509h1.969a.509.509,0,0,1,0,1.018H32.522A.51.51,0,0,1,32.013,22.136Zm0,5.907a.51.51,0,0,1,.509-.509h1.969a.509.509,0,1,1,0,1.018H32.522A.51.51,0,0,1,32.013,28.043Z" transform="translate(0)" fill="#21418e"/><path d="M133.075,70.957h11.339a.475.475,0,0,0,.475-.475V64.574a.475.475,0,0,0-.475-.475H133.075V62.605a.475.475,0,0,0-.475-.475h-7.877a.475.475,0,0,0-.475.475v9.846a.475.475,0,0,0,.475.475h2.9a.475.475,0,1,0,0-.951H125.2V70.957h6.926v1.018H129.7a.475.475,0,1,0,0,.951h2.938a2.443,2.443,0,0,0,3.428,3.428c0,.012,0,.024,0,.036v1.494H124.723a.475.475,0,0,0-.475.475v5.907a.475.475,0,0,0,.475.475h11.339v1.493a.475.475,0,0,0,.475.475h2.9a.475.475,0,0,0,0-.951h-2.427V84.741h6.926v1.018h-2.427a.475.475,0,0,0,0,.951h2.9a.475.475,0,0,0,.475-.475V76.389a.475.475,0,0,0-.475-.475H136.5a2.443,2.443,0,0,0-3.428-3.428c0-.012,0-.024,0-.036V70.957Zm10.864-5.907v4.957H133.075V65.05ZM125.2,63.081h6.926v6.925H125.2Zm0,20.709V78.834h10.864V83.79Zm18.74-6.926V83.79h-6.925V76.864Zm-9.37-3.938a1.494,1.494,0,1,1-1.494,1.494A1.5,1.5,0,0,1,134.569,72.926Z" transform="translate(-87.279 -58.191)" fill="#21418e"/><path d="M157.756,93.188a2.445,2.445,0,1,0,2.445,2.445A2.447,2.447,0,0,0,157.756,93.188Zm0,3.938a1.494,1.494,0,1,1,1.494-1.494A1.5,1.5,0,0,1,157.756,97.126Z" transform="translate(-116.372 -87.281)" fill="#21418e"/><path d="M280.035,125.2h7.877a.475.475,0,0,0,0-.951h-7.877a.475.475,0,0,0,0,.951Z" transform="translate(-232.745 -116.374)" fill="#21418e"/><path d="M315.036,155.313H311.1a.475.475,0,1,0,0,.951h3.938a.475.475,0,1,0,0-.951Z" transform="translate(-261.838 -145.467)" fill="#21418e"/><path d="M163.663,341.687h-7.877a.475.475,0,1,0,0,.951h7.877a.475.475,0,1,0,0-.951Z" transform="translate(-116.373 -320.027)" fill="#21418e"/><path d="M190.788,372.749h-3.938a.475.475,0,0,0,0,.951h3.938a.475.475,0,0,0,0-.951Z" transform="translate(-145.466 -349.119)" fill="#21418e"/><path d="M342.337,315.514h3.938a.475.475,0,0,0,.425-.688l-1.969-3.938q-.425-.526-.85,0l-1.969,3.938A.475.475,0,0,0,342.337,315.514Zm1.969-3.351,1.2,2.4h-2.4Z" transform="translate(-291.109 -290.933)" fill="#21418e"/></g></svg>