<svg xmlns="http://www.w3.org/2000/svg" width="33" height="33" viewBox="0 0 33 33"><g transform="translate(3.437 2.75)"><path d="M12.212,27.5a3.641,3.641,0,0,1-2.594-1.069,3.381,3.381,0,0,1-1.011-2.4l-.012-.2a1.444,1.444,0,0,0-.2-.58,1.538,1.538,0,0,0-.945-.713,1.565,1.565,0,0,0-.392-.051,1.7,1.7,0,0,0-.845.235l-.244.12a3.678,3.678,0,0,1-2.466.176A3.588,3.588,0,0,1,1.34,21.343L.464,19.861l-.116-.219a3.482,3.482,0,0,1,1.414-4.534l.146-.089a1.535,1.535,0,0,0,.678-1.268,1.563,1.563,0,0,0-.825-1.359l-.214-.134A3.48,3.48,0,0,1,.5,7.572l.892-1.438A3.644,3.644,0,0,1,4.523,4.358a3.581,3.581,0,0,1,1.751.457l.183.1a1.488,1.488,0,0,0,.585.131A1.563,1.563,0,0,0,8.619,3.495l.011-.266A3.5,3.5,0,0,1,9.664,1.037,3.656,3.656,0,0,1,12.212,0h1.7A3.666,3.666,0,0,1,16.5,1.07a3.435,3.435,0,0,1,1.018,2.474l.011.2a1.4,1.4,0,0,0,.2.57,1.568,1.568,0,0,0,1.341.756,1.678,1.678,0,0,0,.846-.236l.225-.114A3.651,3.651,0,0,1,24.8,6.159l.843,1.433a1.05,1.05,0,0,1,.059.118l.078.153a3.5,3.5,0,0,1-1.215,4.405l-.354.218a1.518,1.518,0,0,0-.454.489,1.493,1.493,0,0,0-.161,1.166,1.567,1.567,0,0,0,.77.955l.229.145A3.522,3.522,0,0,1,26,17.219a3.446,3.446,0,0,1-.374,2.692l-.907,1.481-.136.208a3.646,3.646,0,0,1-2.972,1.522,3.545,3.545,0,0,1-1.741-.454l-.188-.1a1.616,1.616,0,0,0-.6-.137h-.01a1.572,1.572,0,0,0-1.1.448,1.551,1.551,0,0,0-.458,1.139l-.011.236a3.6,3.6,0,0,1-3.6,3.242Zm-4.24-6.89a3.57,3.57,0,0,1,2.174,1.633,3.414,3.414,0,0,1,.471,1.4l.027.486a1.561,1.561,0,0,0,1.567,1.376h1.7a1.553,1.553,0,0,0,1.568-1.377l.007-.15a3.511,3.511,0,0,1,1.053-2.507A3.632,3.632,0,0,1,19.1,20.445h.02a3.731,3.731,0,0,1,1.44.332l.434.218a1.611,1.611,0,0,0,.639.131A1.54,1.54,0,0,0,22.9,20.5l.1-.152.886-1.447a1.515,1.515,0,0,0-.417-2l-.375-.233a3.521,3.521,0,0,1-1.46-2.01,3.475,3.475,0,0,1,.364-2.674,3.564,3.564,0,0,1,1.09-1.152l.22-.136a1.519,1.519,0,0,0,.651-1.949l-.1-.183-.017-.038-.8-1.369a1.6,1.6,0,0,0-1.372-.78,1.5,1.5,0,0,0-.47.074l-.152.061-.142.071a3.669,3.669,0,0,1-2.727.374,3.608,3.608,0,0,1-2.2-1.622,3.414,3.414,0,0,1-.471-1.4l-.017-.346a1.535,1.535,0,0,0-.445-1.121,1.6,1.6,0,0,0-1.126-.467h-1.7a1.569,1.569,0,0,0-1.108.45,1.516,1.516,0,0,0-.448.908l-.019.42A3.577,3.577,0,0,1,5.562,6.7L5.3,6.56a1.589,1.589,0,0,0-.778-.2,1.612,1.612,0,0,0-1.382.793L2.244,8.586A1.512,1.512,0,0,0,2.672,10.6l.359.223A3.506,3.506,0,0,1,4.618,13.75a3.549,3.549,0,0,1-1.589,2.928l-.214.132a1.5,1.5,0,0,0-.65,1.943l.077.146.866,1.463a1.562,1.562,0,0,0,.947.736,1.66,1.66,0,0,0,.442.059,1.5,1.5,0,0,0,.594-.118l.15-.072a3.641,3.641,0,0,1,2.732-.359Zm.509-6.859a4.588,4.588,0,1,1,4.586,4.495A4.545,4.545,0,0,1,8.481,13.75Zm2.032,0a2.555,2.555,0,1,0,2.554-2.5A2.533,2.533,0,0,0,10.513,13.75Z" transform="translate(0)" fill="#21418e"/></g></svg>