<svg xmlns="http://www.w3.org/2000/svg" width="41.265" height="32" viewBox="0 0 41.265 32"><g transform="translate(0 -57.48)"><g transform="translate(27.347 73.018)"><g transform="translate(0 0)"><path d="M353.151,258.139a2.695,2.695,0,1,0,.789,1.905A2.677,2.677,0,0,0,353.151,258.139Zm-1.015,2.8a1.26,1.26,0,1,1,.369-.891A1.261,1.261,0,0,1,352.137,260.936Z" transform="translate(-348.551 -257.35)" fill="#21418e"/></g></g><g transform="translate(27.347 78.611)"><g transform="translate(0 0)"><path d="M353.15,330.074a2.694,2.694,0,1,0,0,3.811h0a2.695,2.695,0,0,0,0-3.811Zm-1.015,2.8a1.26,1.26,0,1,1,.369-.891A1.261,1.261,0,0,1,352.136,332.871Z" transform="translate(-348.55 -329.286)" fill="#21418e"/></g></g><g transform="translate(0 57.48)"><g transform="translate(0 0)"><path d="M39.056,64.595a2.212,2.212,0,0,0-2.21,2.21V69.61H35.665a5.311,5.311,0,0,0-5.81-4.99v-.7h.019a1.187,1.187,0,0,0,1.185-1.185V58.665a1.186,1.186,0,0,0-1.185-1.185H28.662a1.186,1.186,0,0,0-1.185,1.185v4.069a1.187,1.187,0,0,0,1.185,1.185h.019v.808l-1.9.173a.587.587,0,1,0,.106,1.17l2.442-.222h0l.588-.054h.009A4.138,4.138,0,0,1,34.5,69.908V85.3H25.792l1.048-5.885A4.529,4.529,0,0,0,22.86,74.1h-.012L7.432,72.793l.259-4.975L23.251,66.4a.587.587,0,0,0-.106-1.17l-15.392,1.4.006-.112a1.219,1.219,0,0,0-1.217-1.282H6.535v-.4a1.416,1.416,0,0,0-2.831,0v.4H3.547A1.219,1.219,0,0,0,2.33,66.52l.237,4.557a.587.587,0,1,0,1.173-.061L3.5,66.459a.044.044,0,0,1,.044-.046H6.541a.044.044,0,0,1,.044.046l-.477,9.179a.044.044,0,0,1-.044.042H4.025a.044.044,0,0,1-.044-.042l-.049-.951a.587.587,0,1,0-1.173.061l.049.951a1.215,1.215,0,0,0,.5.924v1.422a1.736,1.736,0,0,0,1.145,1.63v3.067a.587.587,0,0,0,1.175,0V79.675a1.735,1.735,0,0,0,1.145-1.63V76.623a1.215,1.215,0,0,0,.5-.924l.09-1.733,15.371,1.3a3.354,3.354,0,0,1,2.941,3.935L24.6,85.3H1.826A1.828,1.828,0,0,0,0,87.125v.529A1.828,1.828,0,0,0,1.826,89.48H37.233a1.828,1.828,0,0,0,1.826-1.826v-.529A1.828,1.828,0,0,0,37.233,85.3H35.673V72.985h1.172v2.806a2.21,2.21,0,1,0,4.42,0V66.8A2.212,2.212,0,0,0,39.056,64.595Zm-10.394-1.85a.011.011,0,0,1-.011-.011V58.665a.011.011,0,0,1,.011-.011h1.212a.011.011,0,0,1,.011.011v4.069a.011.011,0,0,1-.011.011Zm-23.3,2.494H4.879v-.4a.241.241,0,0,1,.482,0ZM5.6,78.045a.558.558,0,0,1-1.116,0V76.855H5.6Zm31.63,8.428a.652.652,0,0,1,.652.652v.529a.652.652,0,0,1-.652.652H1.826a.652.652,0,0,1-.652-.652v-.529a.652.652,0,0,1,.652-.652ZM36.846,71.81H35.673V70.785h1.172Zm3.245,3.981a1.035,1.035,0,1,1-2.071,0V66.8a1.035,1.035,0,0,1,2.071,0Z" transform="translate(0 -57.48)" fill="#21418e"/></g></g></g></svg>