<svg xmlns="http://www.w3.org/2000/svg" width="21.677" height="32" viewBox="0 0 21.677 32"><path d="M15.442,23.742H18.58a3.1,3.1,0,0,0,3.1-3.1V15.484a3.1,3.1,0,0,0-3.1-3.1h-3.1v-.516a.516.516,0,0,0-.516-.516H13.419V1.548a.516.516,0,0,0-.516-.516H7.742a.516.516,0,0,0-.516.516v9.806H6.193V5.677a.524.524,0,0,0-.037-.192L4.092.324a.517.517,0,0,0-.959,0L1.068,5.485a.524.524,0,0,0-.037.192v5.677H.516A.516.516,0,0,0,0,11.871V23.226a3.611,3.611,0,0,0,1.577,2.982A3.095,3.095,0,0,0,3.1,32H21.161a.516.516,0,0,0,.516-.516V26.323a.516.516,0,0,0-.516-.516H14.394a3.6,3.6,0,0,0,1.048-2.065Zm.041-8.258h2.581A.517.517,0,0,1,18.58,16v4.129a.517.517,0,0,1-.516.516H15.483Zm3.1-2.065a2.067,2.067,0,0,1,2.065,2.065v5.161A2.067,2.067,0,0,1,18.58,22.71h-3.1V21.677h2.581a1.55,1.55,0,0,0,1.548-1.548V16a1.55,1.55,0,0,0-1.548-1.548H15.483V13.419Zm-10.323-3.1h2.065V9.29H8.258V8.258h3.1V7.226h-3.1V6.194h2.065V5.161H8.258V4.129h3.1V3.1h-3.1V2.065h4.129v9.29H8.258ZM4.129,11.355V6.194H5.161v5.161ZM3.613,1.905l1.3,3.256H2.31ZM2.064,6.194H3.1v5.161H2.064Zm5.677,6.194h6.71v1.032H1.032V12.387ZM4.129,26.839H5.161v4.129H4.129ZM1.032,28.9A2.067,2.067,0,0,1,3.1,26.839v4.129A2.067,2.067,0,0,1,1.032,28.9Zm19.613-2.065v4.129H6.193V26.839ZM3.613,25.806a2.584,2.584,0,0,1-2.581-2.581V14.452H14.451v8.774a2.584,2.584,0,0,1-2.581,2.581Zm0,0" transform="translate(0)" fill="#21418e"/></svg>