<svg xmlns="http://www.w3.org/2000/svg" width="24.375" height="32" viewBox="0 0 24.375 32"><g transform="translate(-61)"><path d="M84.438,13.125a.938.938,0,0,0,.938-.937V6.563A6.57,6.57,0,0,0,78.813,0H67.563A6.57,6.57,0,0,0,61,6.563v5.625a.938.938,0,0,0,.938.938H64.75v4.532a18.8,18.8,0,0,0-1.875,8.161v5.245a.938.938,0,0,0,.938.938h7.5a.937.937,0,0,0,.839-.518l1.036-2.073,1.036,2.073a.937.937,0,0,0,.839.518h7.5a.938.938,0,0,0,.938-.937V25.818a18.8,18.8,0,0,0-1.875-8.161V13.125Zm-8.6-11.25a2.813,2.813,0,0,1-5.3,0Zm5.786,28.25H75.642l-1.616-3.232a.937.937,0,0,0-1.677,0l-1.616,3.232H64.75V25.818a16.924,16.924,0,0,1,1.529-7.006h5.961a2.439,2.439,0,0,1-1.346,1.975.937.937,0,0,0,.839,1.677,4.337,4.337,0,0,0,1.456-1.177,4.337,4.337,0,0,0,1.456,1.177.937.937,0,0,0,.839-1.677,2.439,2.439,0,0,1-1.346-1.974H80.1a16.918,16.918,0,0,1,1.529,7.005Zm-.937-24.5a.938.938,0,0,0-.937.938V16.938H66.625V6.563a.938.938,0,0,0-1.875,0V11.25H62.875V6.563a4.693,4.693,0,0,1,4.688-4.687h1.032a4.688,4.688,0,0,0,9.186,0h1.032A4.693,4.693,0,0,1,83.5,6.563V11.25H81.625V6.563A.938.938,0,0,0,80.688,5.625Z" fill="#21418e"/><path d="M273.813,120h-1.875a.938.938,0,0,0,0,1.875h1.875a.938.938,0,0,0,0-1.875Z" transform="translate(-196.875 -112.5)" fill="#21418e"/></g></svg>