<svg xmlns="http://www.w3.org/2000/svg" width="32.221" height="32.221" viewBox="0 0 32.221 32.221"><path d="M46.425,25.005a3.489,3.489,0,0,1,1.025.752.59.59,0,0,0,1.021-.4V21.294a.591.591,0,0,0-.351-.54,8.055,8.055,0,0,0-4.6-.565V16.84a.59.59,0,0,0-.59-.59H39.319a.591.591,0,0,0-.59.59v5.178a22.617,22.617,0,0,1-3.97,1.671V16.84a.59.59,0,0,0-.59-.59H30.554a.59.59,0,0,0-.589.59V23.69A22.563,22.563,0,0,1,26,22.018V16.84a.591.591,0,0,0-.59-.59H21.789a.59.59,0,0,0-.59.59v3.349a8.053,8.053,0,0,0-4.6.565.591.591,0,0,0-.351.54V25.35a.59.59,0,0,0,1.016.41,3.576,3.576,0,0,1,1.033-.754,4.037,4.037,0,0,1,2.9-.119V28.2a8.085,8.085,0,0,0-4.6.56.59.59,0,0,0-.351.54v4.059a.591.591,0,0,0,1.018.407,3.516,3.516,0,0,1,1.029-.756,4.055,4.055,0,0,1,2.9-.124V36.2a8.053,8.053,0,0,0-4.6.565.591.591,0,0,0-.351.54v4.059a.59.59,0,0,0,1.016.41,3.644,3.644,0,0,1,1.032-.758,4.043,4.043,0,0,1,2.9-.118v6.989a.59.59,0,0,0,.59.59H25.4a.591.591,0,0,0,.59-.59V43.1a18.751,18.751,0,0,0,3.972,1.3v3.487a.59.59,0,0,0,.59.59h3.614a.59.59,0,0,0,.59-.59V44.394a18.75,18.75,0,0,0,3.97-1.3v4.784a.591.591,0,0,0,.59.59h3.612a.59.59,0,0,0,.59-.59V40.892a4.04,4.04,0,0,1,2.9.117,3.62,3.62,0,0,1,1.031.756.59.59,0,0,0,1.018-.407V37.3a.591.591,0,0,0-.351-.54,8.052,8.052,0,0,0-4.6-.564V32.883a4.049,4.049,0,0,1,2.9.124,3.628,3.628,0,0,1,1.031.756.59.59,0,0,0,1.018-.407V29.3a.59.59,0,0,0-.351-.54,8.082,8.082,0,0,0-4.6-.561V24.885a4.038,4.038,0,0,1,2.9.121Zm-4.084-7.575v3.02a13.307,13.307,0,0,0-2.433.964V17.431ZM40.276,22.55a11.845,11.845,0,0,1,2.761-1.06c.017,0,.034-.008.051-.013a7.153,7.153,0,0,1,4.2.214v2.438c-.111-.067-.229-.13-.354-.189-1.565-.755-3.46-.563-5.632.574a26.446,26.446,0,0,1-6.546,2.669V24.908A26.459,26.459,0,0,0,40.276,22.55ZM29.965,39.7a22.943,22.943,0,0,1-3.972-1.673V35.1a18.41,18.41,0,0,0,3.972,1.3Zm0-11.314V31.7A22.78,22.78,0,0,1,26,30.022V27.086A18.79,18.79,0,0,0,29.965,28.384ZM25.993,33.8V31.346a19.169,19.169,0,0,0,4.4,1.669.592.592,0,0,0,.074.017,8.838,8.838,0,0,0,3.792,0,.593.593,0,0,0,.074-.017,19.168,19.168,0,0,0,4.4-1.669V33.8a14.879,14.879,0,0,1-6.367,1.657A14.873,14.873,0,0,1,25.993,33.8Zm8.765,2.6a18.452,18.452,0,0,0,3.97-1.3v2.928a22.527,22.527,0,0,1-3.97,1.673Zm3.97-6.377a22.78,22.78,0,0,1-3.97,1.675V28.384a18.749,18.749,0,0,0,3.97-1.3ZM33.577,17.431V31.953a7.193,7.193,0,0,1-2.433,0V17.431Zm-11.2,0h2.433v3.981a13.333,13.333,0,0,0-2.433-.962ZM17.787,23.94c-.121.058-.24.121-.356.19V21.69a7.153,7.153,0,0,1,4.2-.213c.017,0,.034.009.05.012a11.855,11.855,0,0,1,2.762,1.06,26.416,26.416,0,0,0,5.518,2.358v2.274a26.55,26.55,0,0,1-6.546-2.669C21.245,23.377,19.35,23.184,17.787,23.94Zm0,8q-.182.087-.356.19v-2.44a7.052,7.052,0,0,1,3.768-.3v2.271a5.056,5.056,0,0,0-3.412.275Zm4.592-6.619c.162.074.324.148.49.236.649.337,1.3.67,1.943.984V37.42a13.334,13.334,0,0,0-2.433-.964Zm2.433,21.967H22.379V41.333c.162.075.324.148.49.236.649.339,1.3.67,1.943.984Zm-1.4-6.768c-2.167-1.136-4.062-1.33-5.635-.574q-.18.088-.353.191V37.7a7.156,7.156,0,0,1,4.2-.213l.049.012a11.861,11.861,0,0,1,2.762,1.06,26.785,26.785,0,0,0,5.519,2.362v2.274A26.59,26.59,0,0,1,23.417,40.522Zm7.726,6.768V36.572q.605.062,1.215.064c.414,0,.819-.024,1.216-.064V47.291Zm11.2,0H39.909V42.553c.648-.314,1.295-.645,1.944-.985.166-.087.328-.161.489-.236ZM47.291,37.7v2.442c-.112-.067-.23-.131-.355-.192-1.57-.754-3.464-.561-5.631.576a26.435,26.435,0,0,1-6.546,2.669V40.917a26.738,26.738,0,0,0,5.518-2.362,11.837,11.837,0,0,1,2.762-1.06.456.456,0,0,0,.048-.012,7.158,7.158,0,0,1,4.2.214Zm0-8v2.442q-.167-.1-.355-.192a5.055,5.055,0,0,0-3.413-.276V29.4a7.052,7.052,0,0,1,3.768.3Zm-4.949,6.763a13.331,13.331,0,0,0-2.433.964V26.544c.647-.314,1.294-.645,1.943-.985.167-.087.329-.161.49-.236Z" transform="translate(-16.25 -16.25)" fill="#21418e"/></svg>