<svg xmlns="http://www.w3.org/2000/svg" width="33.88" height="33.876" viewBox="0 0 33.88 33.876"><g transform="translate(-10.12 -10)"><path d="M35.56,63.146H21.745a.423.423,0,1,0,0,.847H35.56a.423.423,0,1,0,0-.847Z" transform="translate(-6.459 -30.641)" fill="#21418e"/><path d="M35.56,69.343H21.745a.423.423,0,1,0,0,.847H35.56a.423.423,0,1,0,0-.847Z" transform="translate(-6.459 -34.214)" fill="#21418e"/><path d="M35.56,75.539H21.745a.423.423,0,1,0,0,.847H35.56a.423.423,0,1,0,0-.847Z" transform="translate(-6.459 -37.787)" fill="#21418e"/><path d="M28.812,36.429A7.214,7.214,0,1,0,21.6,29.214,7.222,7.222,0,0,0,28.812,36.429Zm0-13.582a6.367,6.367,0,1,1-6.367,6.367A6.375,6.375,0,0,1,28.812,22.847Z" transform="translate(-6.618 -6.919)" fill="#21418e"/><path d="M31.482,38.808a.423.423,0,0,0,.6,0l4.98-4.98a.423.423,0,0,0-.6-.6L31.781,37.91l-1.891-1.89a.423.423,0,0,0-.6.6Z" transform="translate(-10.982 -13.321)" fill="#21418e"/><path d="M43.577,22.615H34.229V10.423A.423.423,0,0,0,33.806,10H10.543a.423.423,0,0,0-.423.423V39.6a4.3,4.3,0,0,0,4.308,4.281H39.692A4.3,4.3,0,0,0,44,39.6V23.039A.423.423,0,0,0,43.577,22.615ZM14.428,43.029A3.451,3.451,0,0,1,10.967,39.6V10.847H33.382V39.162a.38.38,0,0,0,0,.05,4.639,4.639,0,0,0,2.012,3.818H14.428ZM43.153,39.6a3.451,3.451,0,0,1-3.461,3.434H38.173a.429.429,0,0,0-.117-.017,3.821,3.821,0,0,1-3.83-3.739.394.394,0,0,0,0-.045V23.462h8.924Z" transform="translate(0)" fill="#21418e"/></g></svg>