<svg xmlns="http://www.w3.org/2000/svg" xmlns:xlink="http://www.w3.org/1999/xlink" width="334" height="261.334" viewBox="0 0 334 261.334"><defs><linearGradient id="a" x1="0.305" y1="0.308" x2="1.305" y2="0.308" gradientUnits="objectBoundingBox"><stop offset="0" stop-color="gray" stop-opacity="0.251"/><stop offset="0.54" stop-color="gray" stop-opacity="0.122"/><stop offset="1" stop-color="gray" stop-opacity="0.102"/></linearGradient></defs><g transform="translate(0 0.009)"><ellipse cx="58.261" cy="11.05" rx="58.261" ry="11.05" transform="translate(58.89 234.196)" fill="#dc3545" opacity="0.1"/><path d="M194.071,36.85c-21.405-.728-41.818-7.642-61.272-15.219S94.025,5.685,73.116,1.682C59.684-.9,44.3-1.263,33.481,5.949,23.06,12.9,19.685,24.84,17.866,35.957c-1.356,8.37-2.15,17.171,1.555,24.978C22,66.361,26.6,70.927,29.809,76.154c11.083,18.1,3.242,40.429-8.734,58.1-5.624,8.3-12.175,16.211-16.509,25.012C.2,168.094-1.786,178.218,2.018,187.25c3.772,8.933,12.737,15.616,22.464,20.347,19.751,9.594,43.009,12.307,65.7,13.862,50.222,3.441,100.741,1.952,151.095.463,18.626-.562,37.352-1.092,55.681-4,10.19-1.588,20.711-4.135,28.088-10.289,9.4-7.775,11.712-20.975,5.426-30.735-10.554-16.377-39.7-20.446-47.079-38.014-4.069-9.661.1-20.446,6.021-29.412,12.638-19.255,33.845-36.128,34.97-58.129.761-15.119-9.429-30.239-25.177-37.385C282.7,6.446,259.776,7.405,247.6,19.812,235.03,32.582,212.962,37.512,194.071,36.85Z" transform="translate(0 0)" fill="#dc3545" opacity="0.1"/><path d="M326.074,183.875l-10.124-6.815h0l5.128-7.609-26.765-2.15-9.627,7.444-12.043-6.749-10.058,1.191-.132-2.647a76.328,76.328,0,0,0-.827-8.238c.033-.827.066-1.787.066-2.812,0-4.334-.6-10.124-3.176-13.961l.6-5.36-4.83-5.724a33.737,33.737,0,0,1,2.647-4.466l.5-.695a12,12,0,0,0,11.215-11.91,7.2,7.2,0,0,0-.033-.86c0-.132-.033-.232-.033-.364.629.331,1.224.662,1.853.993.132.165.265.331.4.529h0l.033.033.2.232.066.066c.066.066.132.165.2.232l.033.066c.165.2.364.4.562.6l.066.066.265.232.066.066a5.156,5.156,0,0,0,.662.529l.066.066.3.2.1.066c.1.066.232.132.331.2l.033.033.4.2.066.033c.1.033.232.1.331.132l.1.033c.132.033.232.066.331.1l.066.033c.132.033.3.066.43.1h0a1.885,1.885,0,0,0,.43.033h.562a1.953,1.953,0,0,0,.463-.066,5.289,5.289,0,0,0,2.084-.761,1.619,1.619,0,0,0,.43-.4,1.568,1.568,0,0,0-.066-1.82h0c-.265-.629-1.919-1.059-1.919-1.059s-5.293-2.217-5.293-3.97S270.89,98.055,257.226,95.97c0,0-8.9-.5-11.381,4.268l-.066.562c-.728.463-1.356,1.39-2.084,1.654a2.912,2.912,0,0,0-.893.331v-.066h0a.515.515,0,0,0-.2.265,2.121,2.121,0,0,0-.265.993,3.664,3.664,0,0,1-.43,1.191l-.2.3h0l-.066.1a2.2,2.2,0,0,0,1.125-.2,5.966,5.966,0,0,1-.331,1.323,1.168,1.168,0,0,0,1.026-.6v-.033l.033-.066a1.4,1.4,0,0,0,.2-.463l-.033.033c.066-.2.132-.43.2-.629a1.035,1.035,0,0,1,.165-.331.854.854,0,0,1,.695-.232l-.132,2.878h.066a2.506,2.506,0,0,1-.3.6c-.463.761-1.323,1.29-1.654,2.117a3.216,3.216,0,0,0-.165,1.257c0,.265.033.5.033.761v-.033a2.818,2.818,0,0,1-.3,1.82c-.232.364-.629.629-.761,1.059a.657.657,0,0,0-.033.364,3.781,3.781,0,0,0,.232,1.059v-.033a2.158,2.158,0,0,1,.066.794c-.165.662-.959,1.224-.926,1.853a.491.491,0,0,0,.033.232,1.5,1.5,0,0,0,.761.662,2.707,2.707,0,0,0,1.687.364,2,2,0,0,0,.629-.2c-.232.529-.463,1.059-.695,1.555a.829.829,0,0,1-.132.232s-2.051-1.356-3.209,1.423a6.36,6.36,0,0,0-.728,1.853,3.548,3.548,0,0,1-2.448,2.746c-2.382,1.092-11.943,13-12.109,16.112a21.772,21.772,0,0,1-.6,3.573,20.764,20.764,0,0,0-.562,8.436,14.318,14.318,0,0,0,.6,2.68,58.265,58.265,0,0,1,1.687,8.833l1.092,9.991a34.576,34.576,0,0,0,.165,4.135c-1.125,1.29-5.624,6.617-3.9,8.073,1.323,1.158,3.639.959,4.93.728-1.092,2.713-2.812,7.411-3.044,10.653-.331,4.8.562,11.116,1.985,13.564s6.154,8.668,6.154,8.668-.232,8.569,1.456,11.679,2.382,9.561,2.382,9.561,1.588,5.459.794,7.444c-.794,2.018,1.456,3.672-.893,5s-5.393,31.4-5.393,31.4-1.224,19.685,0,20.711c.066.033.132.1.2.132v6.617s-.86,1.39,2.614,1.654c2.349.2,9.032.629,13,.86l3.077.2s7.279,1.456,10.488,0S269.8,317,268.938,313.2a8.083,8.083,0,0,0-.463-1.522c-.926-2.382-2.514-2.647-5.426-3.308l-.5-.1c-3.077-.529-4.069.893-5.79-.959-1.489-1.588-6.253-3.408-7.874-3.97.033-.132.1-.232.132-.364a2.371,2.371,0,0,1-1.224-.6l4.4.265,2.614.165s6.187,1.224,8.933,0,7.576-1.191,6.848-4.466c-.1-.43-.232-.893-.364-1.29-.794-2.018-2.15-2.25-4.6-2.812l-.4-.1c-2.614-.463-3.474.761-4.93-.827-1.257-1.356-5.194-2.845-6.617-3.375,0-.728-.993-1.787-1.621-2.812-.728-1.224.629-5.525.629-5.525l.761-17.766a2.978,2.978,0,0,1,.926-.265s3.507-3.341,2.713-6.915a26.765,26.765,0,0,1-.265-3.242,15.988,15.988,0,0,0,3.176-3.606c.728-1.588,0-9.264,0-9.264V211.169l5.856.6,5.327.529,1.621.165,5.327.529,12.208,1.224,11.017-2.084,4.764-.893,9.793-1.853V185.43Zm-80.593-79.369-.695-.066C245.018,104.44,245.25,104.506,245.481,104.506Z" transform="translate(-149.041 -64.215)" fill="url(#a)"/><path d="M411.306,384.51c-3.308,4.731-15.219,2.217-15.219,2.217l-9.23-8.635-1.257-1.158,2.084-4.433s.662.165,1.787.5C395.492,374.75,414.118,380.506,411.306,384.51Z" transform="translate(-258.028 -249.268)" fill="#efb7b9"/><path d="M389.6,373a18.83,18.83,0,0,1-2.647,5.095l-1.257-1.158,2.084-4.433C387.817,372.5,388.479,372.7,389.6,373Z" transform="translate(-258.094 -249.268)" opacity="0.1"/><path d="M285.541,223.121s-8.5,3.772-8.073,13.035a153.275,153.275,0,0,0,1.952,17.8s-1.753,13.928,5.492,17.5,13.928,6.551,13.928,6.551,11.315,1.224,12.737,1.72,5.79-7.179,5-8.37-11.182-3.705-12.506-5.724-4.4-3.242-4.4-3.242-3.143-1.919-3.375-3.639.629-3.011.827-3.772.761-8.073.761-8.073S301.421,220.872,285.541,223.121Z" transform="translate(-185.659 -149.217)" fill="#dce6f2"/><path d="M297.466,315.4s-11.646,1.952-10.521,6.021A24.179,24.179,0,0,1,297.466,315.4Z" transform="translate(-191.961 -211.059)" opacity="0.1"/><path d="M308.331,320.4s-6.418,5.227-5.161,5.492S308.331,320.4,308.331,320.4Z" transform="translate(-202.759 -214.404)" opacity="0.1"/><path d="M326.365,325.9s-1.72,3.507-.662,3.275S326.365,325.9,326.365,325.9Z" transform="translate(-217.717 -218.085)" opacity="0.1"/><path d="M318.536,274.012l-.695-.2a2.081,2.081,0,0,0,.1-1.456c-.827-1.191-11.182-3.705-12.506-5.724s-4.4-3.242-4.4-3.242-3.143-1.919-3.375-3.639.629-3.011.827-3.772.761-8.073.761-8.073,3.573-26.037-12.307-23.787c0,0-8.5,3.772-8.073,13.035a153.275,153.275,0,0,0,1.952,17.8s-1.753,13.928,5.492,17.5,13.928,6.551,13.928,6.551,11.315,1.224,12.737,1.72c.529.2,1.489-.794,2.448-2.15l.529.5,9.23,8.635s11.91,2.514,15.219-2.217C343.117,281.489,324.491,275.732,318.536,274.012Z" transform="translate(-186.596 -149.886)" opacity="0.1"/><path d="M283.018,114.554a3.18,3.18,0,0,0-.926.364c-.331.265-.331.761-.43,1.158a3.963,3.963,0,0,1-.662,1.588,2.077,2.077,0,0,0,1.092-.2,5.964,5.964,0,0,1-.331,1.323,1.116,1.116,0,0,0,.993-.6,11.973,11.973,0,0,0,.43-1.158,1.034,1.034,0,0,1,.165-.331c.3-.364.86-.2,1.323-.165a2.232,2.232,0,0,0,2.018-.959c.5-.761.529-2.68-.662-2.911C284.8,112.469,284.044,114.19,283.018,114.554Z" transform="translate(-188.033 -75.388)" fill="#965d7b"/><g transform="translate(93.066 39.431)" opacity="0.1"><path d="M283.229,119.7a2.638,2.638,0,0,1,.1-.5h0c-.331.265-.331.728-.43,1.158a2.747,2.747,0,0,1-.2.695A3.751,3.751,0,0,0,283.229,119.7Z" transform="translate(-282.237 -119.2)"/><path d="M282.392,126.323a5.966,5.966,0,0,0,.331-1.323,2.866,2.866,0,0,1-1.059.2,4.239,4.239,0,0,1-.364.662,2.443,2.443,0,0,0,1.092-.165,5.966,5.966,0,0,1-.331,1.323,1.116,1.116,0,0,0,.992-.6,2.786,2.786,0,0,0,.2-.463A1.147,1.147,0,0,1,282.392,126.323Z" transform="translate(-281.3 -123.081)"/><path d="M290.188,120.594c-.463-.033-1.026-.2-1.356.165a1.035,1.035,0,0,0-.165.331.778.778,0,0,0-.066.265c.331-.265.827-.132,1.257-.066a2.232,2.232,0,0,0,2.018-.959,2.563,2.563,0,0,0,.232-.529A2.37,2.37,0,0,1,290.188,120.594Z" transform="translate(-286.185 -119.601)"/></g><path d="M313.787,201l5.062,6.054-.662,6.154-6.087-9.561Z" transform="translate(-208.844 -134.507)" fill="#dce6f2"/><path d="M318.849,207.054l-.629,5.79-.033.364-5.492-8.635-.6-.926.165-.265L313.787,201l.364.4Z" transform="translate(-208.844 -134.507)" opacity="0.1"/><path d="M298.122,158.2c-1.72.5-3.342,2.184-4.764,4.2a39.212,39.212,0,0,0-2.581,4.4c-.463.926-.86,1.82-1.224,2.614l-.232.562c-.562,1.356-.893,2.283-.893,2.283s-13.068-9.826-10.984-10.488c.695-.232,1.621-1.72,2.514-3.573l.1-.232c.562-1.191,1.125-2.547,1.621-3.8,1.026-2.614,1.787-4.863,1.787-4.863S303.316,156.711,298.122,158.2Z" transform="translate(-185.504 -99.911)" fill="#efb7b9"/><path d="M364,147.6s3.011,5.459,7.08,4.731,2.382-2.944,2.382-2.944Z" transform="translate(-243.574 -98.774)" fill="#444053"/><path d="M297.2,692.6c-2.68,1.224-8.734,0-8.734,0l-2.547-.165c-3.308-.2-8.833-.562-10.818-.728-2.845-.232-2.15-1.423-2.15-1.423v-7.08l13.862-3.507s5.492,1.886,6.981,3.507c1.423,1.555,2.25.364,4.8.794l.4.1c2.415.563,3.738.761,4.5,2.779a9.417,9.417,0,0,1,.364,1.29C304.61,691.412,299.846,691.379,297.2,692.6Z" transform="translate(-182.596 -454.833)" fill="#a36468"/><path d="M303.518,695.678a13.751,13.751,0,0,1-1.555.794c-1.82.827-3.54,1.853-5.393,2.614a12.692,12.692,0,0,1-5.823,1.191,8.937,8.937,0,0,0-3.11-.033,6.743,6.743,0,0,0-1.72.96c-3.308-.2-8.833-.562-10.818-.728-2.845-.232-2.15-1.423-2.15-1.423v-.827c.1,0,.232-.033.364-.033a6.929,6.929,0,0,1,2.018.3c1.423.4,2.878.761,4.3,1.158a3.416,3.416,0,0,1,1.654-2.117,5.059,5.059,0,0,1,2.68-.6c2.217.033,4.334,1.092,6.551,1.191a3.423,3.423,0,0,0,1.82-.3c.3-.165.562-.364.86-.529a6.064,6.064,0,0,1,1.489-.5,34.237,34.237,0,0,0,4.3-1.39c.4-.165.86-.43.794-.86-.066-.562-.959-.629-1.191-1.158a.636.636,0,0,1,.033-.6l.4.1C301.434,693.462,302.724,693.66,303.518,695.678Z" transform="translate(-182.596 -463.599)" opacity="0.1"/><path d="M280,734.852c-3.143,1.423-10.256,0-10.256,0l-2.978-.165c-3.871-.265-10.422-.662-12.7-.86-3.375-.265-2.547-1.654-2.547-1.654v-8.337l16.31-4.135s6.451,2.217,8.2,4.135c1.687,1.82,2.647.43,5.657.959.165.033.3.066.463.1,2.845.662,4.4.926,5.293,3.275a8,8,0,0,1,.43,1.522C288.705,733.463,283.147,733.43,280,734.852Z" transform="translate(-168.246 -481.6)" fill="#a36468"/><path d="M287.448,738.375a10.471,10.471,0,0,1-1.82.926c-2.15.993-4.169,2.184-6.352,3.077a15.439,15.439,0,0,1-6.848,1.423,9.628,9.628,0,0,0-3.639-.033,8.554,8.554,0,0,0-2.018,1.125c-3.871-.265-10.421-.662-12.7-.86-3.375-.265-2.547-1.654-2.547-1.654v-.959a1.748,1.748,0,0,1,.43-.033,7.31,7.31,0,0,1,2.382.364l5.062,1.356a4.079,4.079,0,0,1,1.952-2.481,6.113,6.113,0,0,1,3.143-.728c2.614.033,5.095,1.29,7.709,1.39a4.23,4.23,0,0,0,2.117-.364c.364-.165.662-.43,1.026-.629a8.435,8.435,0,0,1,1.753-.6,38.7,38.7,0,0,0,5.029-1.621c.463-.2,1.026-.529.959-1.026-.1-.662-1.125-.728-1.39-1.356a.85.85,0,0,1,.033-.695c.165.033.3.066.463.1C285,735.761,286.555,736.026,287.448,738.375Z" transform="translate(-168.246 -491.838)" opacity="0.1"/><path d="M294.352,592.5l-.893,20.777s-1.323,4.235-.6,5.459,1.919,2.415,1.489,3.143-5.724,8.5-7.444,5.525-3.408-15.88-3.408-15.88l1.588-15.947Z" transform="translate(-189.706 -396.483)" fill="#444053"/><path d="M317.8,436l2.448,3.275v28.552s.728,7.609,0,9.2-4.367,4.731-4.367,4.731L312.8,466.04l.662-16.641Z" transform="translate(-209.313 -291.759)" fill="#444053"/><path d="M294.352,592.5l-.893,20.777s-1.323,4.235-.6,5.459,1.919,2.415,1.489,3.143-5.724,8.5-7.444,5.525-3.408-15.88-3.408-15.88l1.588-15.947Z" transform="translate(-189.706 -396.483)" opacity="0.1"/><path d="M317.8,436l2.448,3.275v28.552s.728,7.609,0,9.2-4.367,4.731-4.367,4.731L312.8,466.04l.662-16.641Z" transform="translate(-209.313 -291.759)" opacity="0.1"/><path d="M266.1,383.14v15.45l-2.746,12.01s-.893,29.015-.1,32.522-2.647,6.848-2.647,6.848-1.985.232-1.985,1.753-3.308,5.955-3.308,5.955l.1,8.6s1.423,16.112-.761,19.189c-2.217,3.077.761,3.54.761,3.54-2.746,9.032-15.98,6.948-17.171,5.955s0-20.512,0-20.512,2.944-29.776,5.26-31.1.1-2.978.893-4.963-.761-7.378-.761-7.378-.662-6.385-2.316-9.5c-1.654-3.077-1.423-11.579-1.423-11.579s-4.632-6.187-6.021-8.6-2.25-8.7-1.919-13.465c.232-3.209,1.919-7.874,2.978-10.554.5-1.29.893-2.117.893-2.117l.331.1,18.064,4.731Z" transform="translate(-155.168 -251.074)" fill="#444053"/><path d="M307.21,158.133c-1.72.5-3.341,2.184-4.764,4.2h-.364a11.824,11.824,0,0,1-10.256-5.922,11.258,11.258,0,0,1-1.026-2.349c1.026-2.614,1.787-4.863,1.787-4.863S312.4,156.644,307.21,158.133Z" transform="translate(-194.591 -99.844)" opacity="0.1"/><path d="M312.755,127.248a11.828,11.828,0,1,1-22.133-5.79,11.156,11.156,0,0,1,1.257-1.82,12.42,12.42,0,0,1,2.713-2.382A11.788,11.788,0,0,1,310.9,120.9a11.65,11.65,0,0,1,1.82,5.492A7.2,7.2,0,0,1,312.755,127.248Z" transform="translate(-193.454 -77.23)" fill="#efb7b9"/><path d="M294.881,195.781l-.033.364-5.492-8.6c-.562,1.356-.893,2.283-.893,2.283s-13.1-9.859-11.017-10.521c.695-.232,1.621-1.72,2.514-3.573l.1-.232c.959,2.845,6.551,8.569,8.867,10.852.265.265.5.5.662.629l.364.331.2.2C290.977,188.37,294.517,192.207,294.881,195.781Z" transform="translate(-185.505 -117.443)" opacity="0.1"/><path d="M264.228,224.742l-.6,19.387-.1,3.441s-7.146-.662-13.8-1.39c-5.36-.6-10.421-1.224-11.182-1.588a21.275,21.275,0,0,0-4.8-1.059c-1.29-.165-2.316-.265-2.316-.265s-.364.1-.959.232c-1.29.232-3.507.43-4.83-.728-1.654-1.456,2.713-6.716,3.8-8.006l.232-.265-.43-3.8-1.092-9.925A60.052,60.052,0,0,0,226.512,212a14.5,14.5,0,0,1-.562-2.647,21.7,21.7,0,0,1,.562-8.37,16.168,16.168,0,0,0,.6-3.54c.165-3.077,9.528-14.888,11.844-15.98a5.124,5.124,0,0,0,2.382-2.349,3.794,3.794,0,0,0,.364-1.026c.993-4.3,3.507-2.581,3.507-2.581.6,3.375,9.991,12.274,9.991,12.274l.2.2c.926.959,5.062,5.426,4.764,9.23a11.108,11.108,0,0,0,.629,4.169,70.517,70.517,0,0,1,3.275,18.527Z" transform="translate(-150.749 -117.224)" fill="#dce6f2"/><path d="M294.071,255.4s-2.316,5.624-4.069,6.551S294.9,263.87,294.071,255.4Z" transform="translate(-193.859 -170.909)" opacity="0.1"/><path d="M297.393,287.2s-5.293.662-5.293,1.654S297.393,287.2,297.393,287.2Z" transform="translate(-195.461 -192.188)" opacity="0.1"/><path d="M304.438,306.7s-7.709,16.377-9.859,16.873S304.438,306.7,304.438,306.7Z" transform="translate(-196.947 -205.237)" opacity="0.1"/><path d="M286.828,189.852l-6.352,2.779L272.8,181.019a3.794,3.794,0,0,0,.364-1.026c.993-4.3,3.507-2.581,3.507-2.581.6,3.375,9.991,12.274,9.991,12.274Z" transform="translate(-182.546 -118.496)" opacity="0.1"/><path d="M287.828,187.852l-6.352,2.779L273.8,179.019a3.794,3.794,0,0,0,.364-1.026c.993-4.3,3.507-2.581,3.507-2.581.6,3.375,9.991,12.274,9.991,12.274Z" transform="translate(-183.215 -117.157)" fill="#dce6f2"/><path d="M270.5,288.827s-7.146-.662-13.8-1.39l11.943,3.143v3.639c-.529.463-.993.728-1.257.6-1.39-.6-12.605-2.415-12.605-2.415s-6.518-3.308-13.564-7.279l-.5-.3a7.808,7.808,0,0,1-2.084-2.084,14.836,14.836,0,0,1-2.217-6.683,28.178,28.178,0,0,1-.165-4.1,30.913,30.913,0,0,1,.43-4.632,146.614,146.614,0,0,1-.993-17.865c.1-9.264,8.767-12.572,8.767-12.572,15.98-1.423,11.017,24.416,11.017,24.416s-.926,7.279-1.158,8.039-1.158,1.985-1.026,3.738,3.176,3.8,3.176,3.8a11.006,11.006,0,0,1,4.2,3.474c.893,1.522,6.683,3.606,9.958,5.062Z" transform="translate(-157.716 -158.482)" opacity="0.1"/><path d="M311.628,116.821a3.8,3.8,0,0,1-.331,1.588,10,10,0,0,1-.6,1.191,5.1,5.1,0,0,1-1.456,1.787,7.869,7.869,0,0,1-2.647.926,3.783,3.783,0,0,0-2.382,1.356,4.731,4.731,0,0,0-.562,1.621,3.825,3.825,0,0,1-.662,1.555,1.269,1.269,0,0,1-1.555.364,1.661,1.661,0,0,1-.6-.761,12.45,12.45,0,0,1-.629-2.713,6.048,6.048,0,0,0-.926-2.614,2.27,2.27,0,0,0-2.448-.926,2.309,2.309,0,0,0-1.323,1.29,8.717,8.717,0,0,0-.5,1.82c-.4,2.25-.893,4.466-1.456,6.683-.033.1-.066.165-.1.265a.425.425,0,0,1-.331.132c-.728.1-1.456-.43-2.184-.364-.066,0-.165.033-.232.033a11.843,11.843,0,0,1,1.191-13.5l.066-.033a3.449,3.449,0,0,0,1.323-.827,14.541,14.541,0,0,0,1.323-1.522l.265-.331a13.9,13.9,0,0,1,2.581-2.448,2.868,2.868,0,0,1,.893-.463,2.322,2.322,0,0,1,.827-.033,23.941,23.941,0,0,0,3.441.132,19.878,19.878,0,0,1,2.415-.232c2.084.066,3.871,1.522,5.194,3.176A4.936,4.936,0,0,1,311.628,116.821Z" transform="translate(-193.484 -74.149)" opacity="0.1"/><path d="M282.2,117.938c-.463.761-1.29,1.257-1.588,2.084-.463,1.191.331,2.68-.4,3.772-.232.364-.629.629-.761,1.026-.232.695.4,1.456.232,2.15s-1.092,1.323-.86,2.018a1.307,1.307,0,0,0,.728.662,2.656,2.656,0,0,0,1.654.364c.893-.132,1.588-1.026,2.481-1.092.761-.066,1.456.463,2.184.364a.588.588,0,0,0,.331-.132.376.376,0,0,0,.1-.265c.562-2.217,1.026-4.433,1.456-6.683a8.2,8.2,0,0,1,.5-1.82,2.409,2.409,0,0,1,1.323-1.29,2.323,2.323,0,0,1,2.448.926,5.522,5.522,0,0,1,.926,2.614,10.789,10.789,0,0,0,.629,2.713,1.383,1.383,0,0,0,.6.761,1.3,1.3,0,0,0,1.555-.364,3.4,3.4,0,0,0,.662-1.588,4.729,4.729,0,0,1,.562-1.621,3.87,3.87,0,0,1,2.382-1.356,7.43,7.43,0,0,0,2.647-.926,5.863,5.863,0,0,0,1.456-1.787,5.039,5.039,0,0,0,.893-2.779,4.881,4.881,0,0,0-1.356-2.845c-1.323-1.621-3.11-3.11-5.194-3.143a19.881,19.881,0,0,0-2.415.232,19.835,19.835,0,0,1-3.441-.132,2.321,2.321,0,0,0-.827.033,2.389,2.389,0,0,0-.86.463,15.08,15.08,0,0,0-2.581,2.448,21.3,21.3,0,0,1-1.588,1.853,3.449,3.449,0,0,1-1.323.827c-.331.1-.662.033-.993.132C282.8,115.92,282.663,117.177,282.2,117.938Z" transform="translate(-186.554 -73.412)" fill="#965d7b"/><path d="M371.08,152.3c-2.647.5-4.83-1.654-6.054-3.209A11.85,11.85,0,0,1,364,147.6l9.1,1.72.364.066C373.462,149.353,375.116,151.57,371.08,152.3Z" transform="translate(-243.574 -98.774)" opacity="0.1"/><g transform="translate(92.24 42.011)" opacity="0.1"><path d="M280.933,156.557a2.721,2.721,0,0,0-.2-1.257c0,.033-.033.066-.033.1a2.452,2.452,0,0,0,.165,1.356C280.9,156.69,280.9,156.623,280.933,156.557Z" transform="translate(-280.041 -145.937)"/><path d="M283.856,142.8a6.153,6.153,0,0,0,.033,1.356A9.172,9.172,0,0,0,283.856,142.8Z" transform="translate(-282.17 -137.573)"/><path d="M303.45,129.117a5.1,5.1,0,0,1-1.456,1.787,7.869,7.869,0,0,1-2.647.926,3.783,3.783,0,0,0-2.382,1.356,4.731,4.731,0,0,0-.562,1.621,3.545,3.545,0,0,1-.662,1.588,1.289,1.289,0,0,1-1.555.364,1.661,1.661,0,0,1-.6-.761,12.445,12.445,0,0,1-.629-2.713,6.049,6.049,0,0,0-.926-2.614,2.27,2.27,0,0,0-2.448-.926,2.409,2.409,0,0,0-1.323,1.29,8.723,8.723,0,0,0-.5,1.82c-.4,2.25-.893,4.466-1.456,6.683,0,.1-.066.165-.1.265a.425.425,0,0,1-.331.132c-.728.1-1.456-.43-2.184-.364-.926.066-1.588.959-2.481,1.092a2.656,2.656,0,0,1-1.654-.364,1.531,1.531,0,0,1-.6-.43.894.894,0,0,0-.132.761,1.307,1.307,0,0,0,.728.662,2.656,2.656,0,0,0,1.654.364c.893-.132,1.588-1.026,2.481-1.092.761-.066,1.456.463,2.184.364a.588.588,0,0,0,.331-.132.376.376,0,0,0,.1-.265c.562-2.217,1.026-4.433,1.456-6.683a8.2,8.2,0,0,1,.5-1.82,2.409,2.409,0,0,1,1.323-1.29,2.323,2.323,0,0,1,2.448.926,5.522,5.522,0,0,1,.926,2.614,10.79,10.79,0,0,0,.629,2.713,1.383,1.383,0,0,0,.6.761,1.3,1.3,0,0,0,1.555-.364,3.4,3.4,0,0,0,.662-1.588,4.73,4.73,0,0,1,.562-1.621,3.87,3.87,0,0,1,2.382-1.356,7.43,7.43,0,0,0,2.647-.926,5.862,5.862,0,0,0,1.456-1.787,5.018,5.018,0,0,0,.893-2.746c0-.132-.033-.265-.033-.364A5.617,5.617,0,0,1,303.45,129.117Z" transform="translate(-278.803 -127)"/></g><path d="M314.411,121.474a11.717,11.717,0,0,1,1.489,4.93c-2.944-1.654-5.724-3.474-7.113-4.1-2.448-1.092-11.546-.926-14.987-.827a11.156,11.156,0,0,1,1.257-1.82,11.9,11.9,0,0,1,19.09,1.257,4.306,4.306,0,0,0,.265.562Z" transform="translate(-196.599 -77.247)" opacity="0.1"/><path d="M371.907,150.908c-1.588.5-4.2-.463-6.881-1.82A11.85,11.85,0,0,1,364,147.6l9.1,1.72C373.694,149.717,373.859,150.28,371.907,150.908Z" transform="translate(-243.574 -98.774)" opacity="0.1"/><path d="M302.107,99.07s-8.7-.5-11.116,4.235l-.4,4.169-.662-.066-.132,2.845s13.267-.6,16.31.794,12.406,8.238,16.178,7.08-.331-2.25-.331-2.25-5.161-2.184-5.161-3.9S315.473,101.121,302.107,99.07Z" transform="translate(-193.922 -66.289)" fill="#444053"/><path d="M276.4,567.3s5.558,5.393,7.94,4.963C284.34,572.263,277.558,571.667,276.4,567.3Z" transform="translate(-184.955 -379.62)" opacity="0.1"/><path d="M272.9,574.8s.5,2.779,1.82,2.481C276.043,577.017,272.9,574.8,272.9,574.8Z" transform="translate(-182.613 -384.638)" opacity="0.1"/><path d="M285.547,714.5s-7.874,6.121-6.551,6.286S285.547,714.5,285.547,714.5Z" transform="translate(-186.593 -478.12)" opacity="0.1"/><path d="M331,338.935l25.475-4.135v24.118l-24.218-1.257Z" transform="translate(-221.491 -224.04)" fill="#dc3545"/><path d="M331,338.935l25.475-4.135v24.118l-24.218-1.257Z" transform="translate(-221.491 -224.04)" opacity="0.05"/><path d="M408,334.8l30.537,2.283-1.687,20.975-28.849.86Z" transform="translate(-273.017 -224.04)" fill="#dc3545"/><path d="M408,334.8l30.537,2.283-1.687,20.975-28.849.86Z" transform="translate(-273.017 -224.04)" opacity="0.1"/><path d="M417.4,312.5l-9.4,7.378,30.537,2.283,5-7.543Z" transform="translate(-273.017 -209.118)" fill="#dc3545"/><path d="M303.1,317.379l22.927-2.779,11.778,6.683-25.475,4.135Z" transform="translate(-202.822 -210.523)" fill="#dc3545"/><path d="M362.033,349.417V382.4l-11.91-1.224-5.194-.529-1.588-.165-5.194-.529L331,379.226V347.3l25.475,1.753Z" transform="translate(-221.491 -232.405)" fill="#dc3545"/><path d="M449.778,341.7v32.158l-9.561,1.853-4.665.893L424.8,378.655V345.67Z" transform="translate(-284.259 -228.657)" fill="#dc3545"/><path d="M449.778,341.7v32.158l-9.561,1.853-4.665.893L424.8,378.655V345.67Z" transform="translate(-284.259 -228.657)" opacity="0.05"/><path d="M303.1,354.248l9.23-6.948,31.033,2.117-4.566,7.709Z" transform="translate(-202.822 -232.405)" fill="#dc3545"/><path d="M303.1,354.248l9.23-6.948,31.033,2.117-4.566,7.709Z" transform="translate(-202.822 -232.405)" fill="#fff" opacity="0.1"/><path d="M449.778,341.7,424.8,345.67l8.139,7.279,26.732-4.466Z" transform="translate(-284.259 -228.657)" fill="#dc3545"/><path d="M449.778,341.7,424.8,345.67l8.139,7.279,26.732-4.466Z" transform="translate(-284.259 -228.657)" fill="#fff" opacity="0.1"/><path d="M461.965,430.18l-4.665.893v-6.882l4.367-1.092Z" transform="translate(-306.006 -283.127)" fill="#fff" opacity="0.1"/><path d="M378.294,436v4.533L373.1,440v-4Z" transform="translate(-249.663 -291.759)" fill="#fff" opacity="0.1"/><path d="M357.794,440.3v2.415l-5.194-.529V440.3Z" transform="translate(-235.945 -294.637)" fill="#fff" opacity="0.1"/><path d="M364.343,402c-3.573,4.566-15.318,1.423-15.318,1.423l-8.734-9.1L339.1,393.1l2.316-4.3s.662.232,1.753.6C349.058,391.414,367.321,398.163,364.343,402Z" transform="translate(-226.912 -260.175)" opacity="0.1"/><path d="M363.343,400c-3.573,4.566-15.318,1.423-15.318,1.423l-8.734-9.1L338.1,391.1l2.316-4.3s.662.232,1.753.6C348.058,389.414,366.321,396.163,363.343,400Z" transform="translate(-226.242 -258.836)" fill="#efb7b9"/><path d="M342.2,387.3a19.985,19.985,0,0,1-2.911,4.93L338.1,391l2.316-4.3S341.111,386.9,342.2,387.3Z" transform="translate(-226.242 -258.77)" opacity="0.1"/><path d="M245.363,232.885s-8.7,3.308-8.767,12.572a146.616,146.616,0,0,0,.993,17.865s-2.481,13.829,4.566,17.8,13.564,7.278,13.564,7.278,11.249,1.82,12.605,2.415,6.187-6.882,5.426-8.106-10.984-4.3-12.175-6.385-4.2-3.474-4.2-3.474-3.044-2.084-3.176-3.8.794-2.978,1.026-3.738,1.191-8.039,1.191-8.039S261.342,231.463,245.363,232.885Z" transform="translate(-158.318 -155.805)" fill="#dce6f2"/><path d="M253.053,325.7s-11.745,1.323-10.852,5.459A25.272,25.272,0,0,1,253.053,325.7Z" transform="translate(-162.039 -217.951)" opacity="0.1"/><path d="M263.77,330.7s-6.65,4.9-5.459,5.227S263.77,330.7,263.77,330.7Z" transform="translate(-172.755 -221.297)" opacity="0.1"/><path d="M281.748,336.7s-1.919,3.408-.827,3.242S281.748,336.7,281.748,336.7Z" transform="translate(-187.756 -225.312)" opacity="0.1"/><path d="M631.079,112.367s-12.572-.761-11.116,8.073a2.172,2.172,0,0,0,1.125,2.283s.033-.662,1.29-.43a6.319,6.319,0,0,0,1.356.066,2.941,2.941,0,0,0,1.687-.695h0s3.54-1.456,4.9-7.245c0,0,1.026-1.257.993-1.588l-2.117.926a3.836,3.836,0,0,1,.165,2.812s-.066-2.746-.463-2.68a11.3,11.3,0,0,0-1.092.529s1.257,2.68.3,4.6c0,0,.364-3.275-.695-4.433l-1.489.86s1.456,2.746.463,5c0,0,.265-3.441-.794-4.8l-1.356,1.059s1.39,2.713.529,4.6c0,0-.1-4-.827-4.334a7.9,7.9,0,0,0-1.356,1.489s.926,1.985.364,3.011c0,0-.364-2.68-.662-2.68a8.632,8.632,0,0,0-1.29,2.978,6.223,6.223,0,0,1,1.026-3.143,3.682,3.682,0,0,0-1.82.926s.165-1.257,2.084-1.356a8.834,8.834,0,0,1,1.224-1.423,7.591,7.591,0,0,0-3.077.364s1.026-1.191,3.408-.662l1.323-1.092a11.5,11.5,0,0,0-3.573.033s1.224-1.059,3.937-.3l1.456-.86a13.235,13.235,0,0,0-3.408-.3,5.21,5.21,0,0,1,3.838.066l1.059-.463s-1.555-.3-2.018-.364-.5-.165-.5-.165a5.274,5.274,0,0,1,2.945.331C628.9,113.293,631.112,112.5,631.079,112.367Z" transform="translate(-414.775 -75.186)" fill="#dc3545"/><path d="M746.479,245.667s-12.572-.761-11.116,8.073a2.172,2.172,0,0,0,1.125,2.283s.033-.662,1.29-.43a6.319,6.319,0,0,0,1.356.066,2.846,2.846,0,0,0,1.654-.695h0s3.54-1.456,4.93-7.245c0,0,1.026-1.257.993-1.588l-2.117.893a3.836,3.836,0,0,1,.165,2.812s-.066-2.746-.463-2.68a11.314,11.314,0,0,0-1.092.529s1.257,2.68.3,4.6c0,0,.364-3.275-.695-4.433l-1.489.86s1.456,2.746.463,5c0,0,.265-3.441-.794-4.8l-1.356,1.059s1.356,2.713.529,4.6c0,0-.1-4-.827-4.334a7.9,7.9,0,0,0-1.356,1.489s.926,1.985.364,3.011c0,0-.364-2.68-.662-2.68a8.631,8.631,0,0,0-1.29,2.978,6.221,6.221,0,0,1,1.026-3.143,3.682,3.682,0,0,0-1.82.926s.2-1.257,2.084-1.356a8.835,8.835,0,0,1,1.224-1.423,7.591,7.591,0,0,0-3.077.364s1.026-1.191,3.408-.662l1.323-1.092a11.5,11.5,0,0,0-3.573.033s1.224-1.059,3.937-.3l1.456-.86a13.235,13.235,0,0,0-3.408-.3,5.21,5.21,0,0,1,3.838.066l1.059-.463s-1.555-.3-2.018-.364-.5-.165-.5-.165a5.274,5.274,0,0,1,2.945.331A12.863,12.863,0,0,0,746.479,245.667Z" transform="translate(-491.996 -164.385)" fill="#dc3545" opacity="0.1"/><path d="M521.035,196.961s2.911-12.274-6.054-12.307a2.119,2.119,0,0,0-2.415.728s.629.132.2,1.356a4.522,4.522,0,0,0-.3,1.323,2.71,2.71,0,0,0,.4,1.753h0s.827,3.738,6.286,6.087c0,0,1.059,1.224,1.39,1.224l-.529-2.25a3.714,3.714,0,0,1-2.779-.331s2.713.4,2.713,0c0-.1-.331-1.191-.331-1.191s-2.845.761-4.6-.5c0,0,3.176.926,4.466.066l-.6-1.621s-2.978.959-5.029-.4c0,0,3.375.827,4.863.033l-.827-1.522s-2.911.893-4.6-.265c0,0,3.97.562,4.4-.066a7.582,7.582,0,0,0-1.224-1.588s-2.117.6-3.044-.165c0,0,2.713.1,2.746-.2a9.146,9.146,0,0,0-2.713-1.787A6.677,6.677,0,0,1,516.4,186.9a3.509,3.509,0,0,0-.629-1.952s1.191.4.993,2.316a8.265,8.265,0,0,1,1.191,1.456,7.391,7.391,0,0,0,.165-3.077s.993,1.191.066,3.474l.86,1.522a10.985,10.985,0,0,0,.562-3.54s.827,1.39-.4,3.937l.6,1.588a12.359,12.359,0,0,0,.86-3.308,5.131,5.131,0,0,1-.728,3.772l.3,1.092s.562-1.489.695-1.952.265-.463.265-.463a5.47,5.47,0,0,1-.827,2.845C520.44,194.645,520.9,196.961,521.035,196.961Z" transform="translate(-342.91 -123.486)" fill="#dc3545" opacity="0.1"/><path d="M426.309,228.281s-10.091-7.543-13.7.629a2.172,2.172,0,0,0-.3,2.514s.364-.529,1.323.364a5.119,5.119,0,0,0,1.092.794,2.771,2.771,0,0,0,1.786.331h0s3.772.728,8.073-3.341c0,0,1.555-.5,1.687-.794l-2.283-.4a3.706,3.706,0,0,1-1.423,2.415s1.456-2.349,1.092-2.514c-.066-.033-1.224-.165-1.224-.165s-.43,2.911-2.283,4c0,0,2.117-2.547,1.853-4.069l-1.72-.1s-.3,3.11-2.349,4.433c0,0,2.117-2.746,1.985-4.433l-1.72.132s-.331,3.011-2.084,4.135c0,0,2.117-3.408,1.687-4.069a8.313,8.313,0,0,0-1.952.5s-.3,2.15-1.356,2.713c0,0,1.158-2.448.926-2.614a9,9,0,0,0-2.746,1.787,6.618,6.618,0,0,1,2.581-2.084,3.516,3.516,0,0,0-2.018-.2s.827-.959,2.514,0a7.142,7.142,0,0,1,1.82-.5,7.467,7.467,0,0,0-2.746-1.39s1.489-.43,3.209,1.323l1.72-.165a11.177,11.177,0,0,0-3.011-1.919s1.588-.2,3.441,1.919l1.687.066a13.047,13.047,0,0,0-2.68-2.117,5.241,5.241,0,0,1,3.176,2.15l1.125.165s-1.158-1.125-1.489-1.423-.3-.43-.3-.43a5.293,5.293,0,0,1,2.283,1.886A8.72,8.72,0,0,0,426.309,228.281Z" transform="translate(-275.71 -150.638)" fill="#dc3545" opacity="0.1"/><path d="M527.909,16.181s-10.091-7.543-13.7.629a2.152,2.152,0,0,0-.3,2.514s.364-.529,1.323.364a5.119,5.119,0,0,0,1.092.794,2.771,2.771,0,0,0,1.787.331h0s3.772.728,8.073-3.341c0,0,1.555-.5,1.687-.794l-2.283-.4a3.706,3.706,0,0,1-1.423,2.415s1.456-2.349,1.092-2.514c-.066-.033-1.224-.165-1.224-.165s-.43,2.911-2.283,4.036c0,0,2.117-2.547,1.853-4.069l-1.72-.1s-.3,3.11-2.349,4.433c0,0,2.117-2.746,1.985-4.433l-1.72.132s-.364,3.011-2.084,4.136c0,0,2.117-3.408,1.687-4.069a9.791,9.791,0,0,0-1.952.463s-.3,2.15-1.356,2.713c0,0,1.158-2.415.926-2.614a9,9,0,0,0-2.746,1.787,6.617,6.617,0,0,1,2.581-2.084,3.516,3.516,0,0,0-2.018-.2s.827-.959,2.514.033a8.659,8.659,0,0,1,1.82-.529,7.467,7.467,0,0,0-2.746-1.39s1.489-.43,3.209,1.323l1.72-.165a11.177,11.177,0,0,0-3.011-1.919s1.588-.2,3.441,1.919l1.687.066a13.047,13.047,0,0,0-2.68-2.117,5.241,5.241,0,0,1,3.176,2.15l1.125.2s-1.158-1.092-1.489-1.39-.3-.4-.3-.4a5.293,5.293,0,0,1,2.283,1.886A12.557,12.557,0,0,0,527.909,16.181Z" transform="translate(-343.697 -8.709)" fill="#dc3545" opacity="0.1"/><path d="M646.433,34.631s-4.036-11.943-11.646-7.245a2.191,2.191,0,0,0-1.687,1.886s.6-.232.893,1.026a5.426,5.426,0,0,0,.463,1.29,2.96,2.96,0,0,0,1.257,1.29h0s2.68,2.746,8.569,1.82c0,0,1.555.463,1.82.3l-1.654-1.621a3.777,3.777,0,0,1-2.548,1.191s2.514-1.092,2.316-1.456c-.033-.066-.893-.827-.893-.827s-2.018,2.15-4.169,2.018c0,0,3.176-.893,3.838-2.316l-1.356-1.059s-2.018,2.382-4.466,2.316c0,0,3.308-1.059,4.135-2.547l-1.489-.86s-1.985,2.283-4.036,2.217c0,0,3.672-1.621,3.705-2.382a9.775,9.775,0,0,0-1.886-.728s-1.489,1.621-2.647,1.456c0,0,2.349-1.356,2.25-1.621a8.985,8.985,0,0,0-3.242-.1,6.624,6.624,0,0,1,3.308-.265,3.361,3.361,0,0,0-1.555-1.323s1.224-.3,2.051,1.423a8.651,8.651,0,0,1,1.787.6,7.694,7.694,0,0,0-1.489-2.713s1.489.5,1.886,2.911l1.522.827a11.121,11.121,0,0,0-1.389-3.308s1.423.728,1.753,3.54l1.356,1.026a12.337,12.337,0,0,0-1.026-3.275,5.111,5.111,0,0,1,1.39,3.573l.827.794s-.3-1.555-.43-2.018-.033-.463-.033-.463a5.435,5.435,0,0,1,.794,2.845A7.4,7.4,0,0,0,646.433,34.631Z" transform="translate(-423.644 -17.599)" fill="#dc3545" opacity="0.1"/><path d="M570.393,53.141s-12.539-1.39-11.513,7.51a2.161,2.161,0,0,0,.993,2.316s.066-.662,1.323-.364a6.286,6.286,0,0,0,1.356.132,2.926,2.926,0,0,0,1.72-.6h0s3.606-1.29,5.294-6.981c0,0,1.092-1.224,1.059-1.522l-2.151.794a3.69,3.69,0,0,1,0,2.812s.066-2.746-.331-2.713c-.1,0-1.125.463-1.125.463s1.125,2.746.066,4.632c0,0,.529-3.275-.463-4.433l-1.555.794s1.323,2.845.232,5.029c0,0,.43-3.441-.529-4.83l-1.423.993s1.224,2.779.3,4.6c0,0,.1-4-.6-4.367a8.873,8.873,0,0,0-1.423,1.39s.827,2.018.2,3.044c0,0-.232-2.68-.5-2.713a9.319,9.319,0,0,0-1.456,2.911,6.312,6.312,0,0,1,1.191-3.11,3.783,3.783,0,0,0-1.853.827s.232-1.257,2.151-1.257a8.314,8.314,0,0,1,1.323-1.356,7.583,7.583,0,0,0-3.077.2s1.092-1.125,3.441-.463l1.39-1.026a10.781,10.781,0,0,0-3.573-.165s1.29-.993,3.937-.1l1.489-.794a13.444,13.444,0,0,0-3.408-.463,5.2,5.2,0,0,1,3.838.265l1.059-.43s-1.555-.4-2.018-.463-.463-.2-.463-.2a5.823,5.823,0,0,1,2.911.463A12.729,12.729,0,0,0,570.393,53.141Z" transform="translate(-373.939 -35.513)" fill="#dc3545" opacity="0.1"/><path d="M901.993,347.34s-12.539-1.39-11.513,7.477a2.161,2.161,0,0,0,.993,2.316s.066-.662,1.323-.364a6.287,6.287,0,0,0,1.356.132,2.926,2.926,0,0,0,1.72-.6h0s3.606-1.29,5.293-6.981c0,0,1.092-1.224,1.059-1.522l-2.151.794a3.69,3.69,0,0,1,0,2.812s.066-2.746-.331-2.713c-.1,0-1.125.463-1.125.463s1.125,2.746.066,4.632c0,0,.529-3.275-.463-4.433l-1.555.794s1.323,2.812.232,5.029c0,0,.43-3.441-.529-4.83l-1.423.993s1.224,2.779.3,4.6c0,0,.1-4-.6-4.367a8.876,8.876,0,0,0-1.423,1.39s.827,2.018.2,3.011c0,0-.232-2.68-.5-2.713a9.319,9.319,0,0,0-1.456,2.911,6.311,6.311,0,0,1,1.191-3.11,3.782,3.782,0,0,0-1.853.827s.232-1.257,2.15-1.257a8.318,8.318,0,0,1,1.323-1.356,7.583,7.583,0,0,0-3.077.2s1.092-1.125,3.441-.463l1.39-1.026a10.975,10.975,0,0,0-3.573-.132s1.29-.992,3.937-.1l1.489-.794a13.445,13.445,0,0,0-3.408-.463,5.2,5.2,0,0,1,3.838.265l1.059-.43s-1.555-.4-2.018-.463-.463-.2-.463-.2a5.18,5.18,0,0,1,2.911.463A9.677,9.677,0,0,0,901.993,347.34Z" transform="translate(-595.832 -232.378)" fill="#dc3545" opacity="0.1"/><path d="M959.893,382.74s-12.539-1.39-11.513,7.477a2.161,2.161,0,0,0,.993,2.316s.066-.662,1.323-.364a6.086,6.086,0,0,0,1.356.132,2.754,2.754,0,0,0,1.687-.6h0s3.606-1.29,5.26-6.981c0,0,1.092-1.191,1.059-1.522l-2.184.794a3.69,3.69,0,0,1,0,2.812s.066-2.746-.331-2.713c-.1,0-1.125.463-1.125.463s1.125,2.746.066,4.632c0,0,.529-3.275-.463-4.433l-1.555.794s1.323,2.812.232,5.029c0,0,.43-3.441-.529-4.83l-1.423.992s1.224,2.779.3,4.6c0,0,.1-4-.6-4.367a8.877,8.877,0,0,0-1.423,1.39s.827,2.018.2,3.011c0,0-.232-2.68-.529-2.713a9.32,9.32,0,0,0-1.456,2.911,6.312,6.312,0,0,1,1.191-3.11,3.782,3.782,0,0,0-1.853.827s.265-1.257,2.184-1.257a8.314,8.314,0,0,1,1.323-1.356,7.583,7.583,0,0,0-3.077.2s1.092-1.125,3.441-.463l1.39-1.026a10.975,10.975,0,0,0-3.573-.132s1.29-.993,3.937-.1l1.489-.794a13.443,13.443,0,0,0-3.408-.463,5.2,5.2,0,0,1,3.838.265l1.059-.43s-1.555-.4-2.018-.463-.463-.2-.463-.2a5.823,5.823,0,0,1,2.911.463A8.891,8.891,0,0,0,959.893,382.74Z" transform="translate(-634.577 -256.067)" fill="#dc3545" opacity="0.1"/><path d="M825.809,78.381s-10.091-7.543-13.7.629a2.152,2.152,0,0,0-.3,2.514s.364-.529,1.323.364a5.117,5.117,0,0,0,1.092.794,2.77,2.77,0,0,0,1.787.331h0s3.772.728,8.106-3.341c0,0,1.555-.5,1.687-.794l-2.283-.4A3.706,3.706,0,0,1,822.1,80.9s1.456-2.349,1.092-2.514c-.066-.033-1.224-.165-1.224-.165s-.43,2.911-2.283,4c0,0,2.117-2.547,1.853-4.069l-1.72-.1s-.3,3.11-2.349,4.433c0,0,2.117-2.746,1.985-4.433l-1.72.132s-.331,3.011-2.084,4.1c0,0,2.117-3.408,1.687-4.069a9.792,9.792,0,0,0-1.952.463s-.3,2.15-1.356,2.713c0,0,1.158-2.448.926-2.614a9,9,0,0,0-2.746,1.787,6.618,6.618,0,0,1,2.581-2.084,3.516,3.516,0,0,0-2.018-.2s.827-.959,2.514.033a8.66,8.66,0,0,1,1.82-.529,7.466,7.466,0,0,0-2.746-1.39s1.489-.43,3.209,1.323l1.72-.165a11.177,11.177,0,0,0-3.011-1.919s1.588-.2,3.441,1.919l1.687.066a13.047,13.047,0,0,0-2.68-2.117,5.241,5.241,0,0,1,3.176,2.15l1.125.2s-1.158-1.125-1.489-1.423-.3-.4-.3-.4a5.294,5.294,0,0,1,2.283,1.886A6.687,6.687,0,0,0,825.809,78.381Z" transform="translate(-543.039 -50.331)" fill="#dc3545" opacity="0.1"/><path d="M851.868,232.08s-3.474-12.109-11.315-7.775a2.133,2.133,0,0,0-1.753,1.82s.629-.2.827,1.059a4.7,4.7,0,0,0,.4,1.323,2.711,2.711,0,0,0,1.224,1.356h0s2.547,2.845,8.469,2.217a5.968,5.968,0,0,0,1.82.4l-1.555-1.687a3.826,3.826,0,0,1-2.581,1.092s2.581-.993,2.382-1.356c-.033-.066-.86-.86-.86-.86s-2.084,2.084-4.235,1.82c0,0,3.209-.761,3.937-2.117l-1.323-1.125s-2.117,2.283-4.566,2.117c0,0,3.341-.926,4.268-2.349l-1.456-.926s-2.084,2.184-4.135,2.018c0,0,3.738-1.456,3.8-2.217a8.7,8.7,0,0,0-1.853-.794s-1.555,1.555-2.713,1.356c0,0,2.415-1.224,2.316-1.522a8.638,8.638,0,0,0-3.242-.232,6.246,6.246,0,0,1,3.308-.1,3.546,3.546,0,0,0-1.489-1.39s1.257-.265,1.985,1.522a7.642,7.642,0,0,1,1.753.695,8.028,8.028,0,0,0-1.356-2.779s1.456.562,1.753,3.011l1.489.893a11.338,11.338,0,0,0-1.224-3.342s1.39.794,1.588,3.606l1.323,1.092A12.364,12.364,0,0,0,848,225.6a5.275,5.275,0,0,1,1.224,3.639l.794.827s-.232-1.588-.331-2.018,0-.5,0-.5a5.2,5.2,0,0,1,.662,2.878A9.888,9.888,0,0,0,851.868,232.08Z" transform="translate(-561.291 -149.475)" fill="#dc3545" opacity="0.1"/><path d="M615.075,319.444s-6.749-10.653-13.035-4.268a2.18,2.18,0,0,0-1.191,2.25s.563-.364,1.092.794a6.343,6.343,0,0,0,.761,1.158,2.835,2.835,0,0,0,1.555.959h0s3.242,2.018,8.767-.265c0,0,1.621.1,1.853-.132l-1.985-1.191a3.909,3.909,0,0,1-2.184,1.787s2.184-1.654,1.886-1.952c-.066-.066-1.092-.6-1.092-.6s-1.423,2.581-3.573,2.944c0,0,2.878-1.654,3.176-3.143l-1.588-.695s-1.39,2.812-3.772,3.308c0,0,2.945-1.82,3.408-3.441L607.5,316.5s-1.39,2.713-3.408,3.11c0,0,3.176-2.448,3.011-3.209a8.78,8.78,0,0,0-1.985-.232s-1.059,1.919-2.25,2.051c0,0,1.952-1.853,1.787-2.117a9.276,9.276,0,0,0-3.176.695,6.674,6.674,0,0,1,3.143-1.026,3.682,3.682,0,0,0-1.82-.926s1.125-.6,2.316.893A8.213,8.213,0,0,1,607,315.9a7.707,7.707,0,0,0-2.084-2.283s1.555.132,2.514,2.382l1.654.43a10.907,10.907,0,0,0-2.117-2.878s1.555.364,2.547,3.011l1.555.662a14.62,14.62,0,0,0-1.753-2.944,5.205,5.205,0,0,1,2.217,3.143l.992.562s-.662-1.456-.893-1.853-.132-.5-.132-.5a5.167,5.167,0,0,1,1.456,2.581A13.529,13.529,0,0,0,615.075,319.444Z" transform="translate(-402.046 -209.545)" fill="#dc3545" opacity="0.1"/><path d="M749.422,154.509s-6.418-10.852-12.9-4.665a2.153,2.153,0,0,0-1.257,2.184s.562-.364,1.092.827a4.582,4.582,0,0,0,.728,1.158,2.8,2.8,0,0,0,1.522.993h0s3.209,2.117,8.767,0a6.006,6.006,0,0,0,1.853-.066l-1.952-1.257a3.764,3.764,0,0,1-2.25,1.687s2.25-1.588,1.952-1.886c-.066-.066-1.059-.629-1.059-.629s-1.522,2.514-3.639,2.845c0,0,2.911-1.555,3.275-3.044L744,151.929s-1.456,2.746-3.871,3.209c0,0,3.011-1.72,3.54-3.341l-1.621-.529s-1.489,2.647-3.507,3.011c0,0,3.275-2.349,3.11-3.11a7.862,7.862,0,0,0-1.985-.3s-1.092,1.886-2.283,1.985c0,0,2.018-1.787,1.853-2.051a9.381,9.381,0,0,0-3.209.6,6.333,6.333,0,0,1,3.176-.926,3.511,3.511,0,0,0-1.786-.959s1.158-.562,2.316.959a8.789,8.789,0,0,1,1.886.232,7.834,7.834,0,0,0-2.018-2.349s1.555.165,2.448,2.448l1.654.5a10.755,10.755,0,0,0-2.051-2.944s1.555.43,2.448,3.11l1.555.728A13.978,13.978,0,0,0,744,149.216a5.215,5.215,0,0,1,2.117,3.209l.959.6s-.629-1.456-.827-1.886-.132-.5-.132-.5a5.578,5.578,0,0,1,1.389,2.614A11.3,11.3,0,0,0,749.422,154.509Z" transform="translate(-491.995 -99)" fill="#dc3545"/><path d="M633.653,214.468s.331-12.605-8.436-10.818A2.159,2.159,0,0,0,623,204.84s.662,0,.463,1.29a6.252,6.252,0,0,0-.033,1.356,2.84,2.84,0,0,0,.761,1.654h0s1.588,3.474,7.411,4.665c0,0,1.29.993,1.621.926l-.993-2.084a3.957,3.957,0,0,1-2.812.265s2.746-.165,2.68-.562a11.037,11.037,0,0,0-.562-1.092s-2.614,1.323-4.6.463c0,0,3.308.265,4.4-.827l-.926-1.456s-2.713,1.555-5,.629c0,0,3.474.132,4.764-.959l-1.092-1.323s-2.68,1.456-4.566.695c0,0,4-.232,4.3-.959A8.421,8.421,0,0,0,627.3,206.2s-1.952.993-3.011.463c0,0,2.647-.43,2.647-.728a8.684,8.684,0,0,0-3.044-1.191,6.553,6.553,0,0,1,3.209.926,3.837,3.837,0,0,0-.993-1.787s1.257.132,1.423,2.051c0,0,1.39.926,1.456,1.191a7.559,7.559,0,0,0-.463-3.044s1.224.993.761,3.375l1.125,1.29a10.71,10.71,0,0,0-.165-3.573s1.092,1.191.43,3.937l.926,1.423a12.345,12.345,0,0,0,.165-3.408,5.286,5.286,0,0,1,.066,3.838l.5,1.026s.265-1.588.3-2.051.165-.5.165-.5a5.245,5.245,0,0,1-.232,2.944C632.627,212.35,633.521,214.534,633.653,214.468Z" transform="translate(-416.886 -136.163)" fill="#dc3545"/><ellipse cx="8.9" cy="1.489" rx="8.9" ry="1.489" transform="translate(222.358 235.487)" fill="#dc3545" opacity="0.1"/><ellipse cx="8.9" cy="1.489" rx="8.9" ry="1.489" transform="translate(189.87 258.348)" fill="#dc3545" opacity="0.1"/><ellipse cx="8.9" cy="1.489" rx="8.9" ry="1.489" transform="translate(21.902 246.636)" fill="#dc3545" opacity="0.1"/><ellipse cx="8.9" cy="1.489" rx="8.9" ry="1.489" transform="translate(257.461 256.826)" fill="#dc3545" opacity="0.1"/><ellipse cx="13.3" cy="2.25" rx="13.3" ry="2.25" transform="translate(262.324 236.975)" fill="#dc3545"/><path d="M824.78,699.581a3.766,3.766,0,0,0,1.257-1.919,1.716,1.716,0,0,0-.893-1.952,2.545,2.545,0,0,0-2.349.827c-.662.562-1.423,1.224-2.283,1.092a3.423,3.423,0,0,0,1.059-3.242,1.331,1.331,0,0,0-.3-.662c-.463-.5-1.257-.265-1.82.1-1.72,1.224-2.217,3.54-2.217,5.657a10.847,10.847,0,0,1-.033-2.316,2.359,2.359,0,0,0-.893-2.051,2.622,2.622,0,0,0-1.323-.331,2.71,2.71,0,0,0-2.15.629,2.1,2.1,0,0,0,.1,2.647,8.014,8.014,0,0,0,2.25,1.787,4.987,4.987,0,0,1,1.588,1.522c.033.1.1.165.1.265h4.863A14.025,14.025,0,0,0,824.78,699.581Z" transform="translate(-543.631 -464.028)" fill="#dc3545"/><path d="M75.1,723.243s5.095-.165,6.617-1.257,7.808-2.382,8.2-.629c.364,1.753,7.642,8.7,1.886,8.734s-13.333-.893-14.855-1.82C75.4,727.345,75.1,723.243,75.1,723.243Z" transform="translate(-50.254 -482.132)" fill="#a8a8a8"/><path d="M91.907,735.053c-5.724.033-13.333-.893-14.855-1.82-1.158-.695-1.621-3.242-1.787-4.433H75.1s.331,4.1,1.853,5.029,9.131,1.886,14.855,1.82c1.654,0,2.217-.6,2.184-1.489C93.759,734.722,93.131,735.053,91.907,735.053Z" transform="translate(-50.254 -487.689)" opacity="0.2"/></g></svg>