<svg xmlns="http://www.w3.org/2000/svg" width="169.968" height="180.156" viewBox="0 0 169.968 180.156"><g transform="translate(-0.02 0.03)"><path d="M85.488,180.123a32.15,32.15,0,0,1-8.255-1.065l-.533-.133-.488-.266a137.185,137.185,0,0,1-44.78-35.149,132.479,132.479,0,0,1-22.59-40.164A152.432,152.432,0,0,1,.056,48.935v-.888c0-9.009,5.015-16.909,12.737-20.149C18.7,25.413,72.44,3.356,76.345,1.759c7.323-3.684,15.134-.621,16.376-.089,2.8,1.154,52.5,21.48,63.242,26.584,11.051,5.281,14.024,14.734,14.024,19.483,0,21.569-3.728,41.717-11.1,59.913a137.912,137.912,0,0,1-24.942,40.164c-20.326,22.9-40.7,31.022-40.874,31.066A21.278,21.278,0,0,1,85.488,180.123Zm-4.793-11.85c1.775.4,5.814.976,8.477.044,3.373-1.243,20.415-10.074,36.3-27.96,22.013-24.764,33.152-55.875,33.152-92.489-.044-.754-.577-6.036-7.589-9.364-10.518-5.015-62.177-26.14-62.709-26.362l-.133-.044c-1.065-.444-4.527-1.42-6.923-.178l-.488.222c-.577.222-57.65,23.655-63.73,26.229-4.261,1.775-5.769,6.169-5.769,9.675v1.11C10.84,74.187,16.654,135.831,80.694,168.273Z" transform="translate(0 0)" fill="#3f3d56"/><path d="M85.74,14.018S28.179,37.673,22.01,40.247s-9.275,8.743-9.275,14.912-4.616,86.675,73.006,125.6c0,0,7.056,1.953,12.382,0s73.183-34.839,73.183-125.862c0,0,0-9.275-10.784-14.379s-62.976-26.5-62.976-26.5S91.155,11.178,85.74,14.018Z" transform="translate(-7.043 -7.111)" fill="#21418e"/><path d="M119.057,57.3V183.473S60.963,155.514,61.5,82.02Z" transform="translate(-34.19 -31.887)" opacity="0.1"/><path d="M149.707,195.247,131.2,171.459l10.784-8.388,8.743,11.273,29.6-31.244,9.9,9.364Z" transform="translate(-72.962 -79.608)" fill="#fff"/></g></svg>