<svg xmlns="http://www.w3.org/2000/svg" xmlns:xlink="http://www.w3.org/1999/xlink" width="307.904" height="99.496" viewBox="0 0 307.904 99.496">
  <defs>
    <linearGradient id="linear-gradient" x1="-48.378" y1="44.667" x2="-48.499" y2="44.893" gradientUnits="objectBoundingBox">
      <stop offset="0" stop-opacity="0"/>
      <stop offset="0.99"/>
    </linearGradient>
    <linearGradient id="linear-gradient-2" x1="-67.888" y1="50.171" x2="-68.008" y2="50.397" xlink:href="#linear-gradient"/>
    <linearGradient id="linear-gradient-3" x1="-43.873" y1="47.103" x2="-43.854" y2="47.65" xlink:href="#linear-gradient"/>
    <linearGradient id="linear-gradient-4" x1="-129.152" y1="75.131" x2="-128.619" y2="75.163" xlink:href="#linear-gradient"/>
    <linearGradient id="linear-gradient-5" x1="-224.259" y1="69.936" x2="-223.726" y2="69.968" xlink:href="#linear-gradient"/>
    <linearGradient id="linear-gradient-6" x1="-19.91" y1="15.443" x2="-19.944" y2="15.542" xlink:href="#linear-gradient"/>
  </defs>
  <g id="User_Profile_Monochromatic" data-name="User Profile_Monochromatic" transform="translate(0.004 -0.004)">
    <path id="Path_11394" data-name="Path 11394" d="M96.1,48.1A48.055,48.055,0,0,1,48,96.2a48.74,48.74,0,0,1-24.2-6.5l2,1.8-23.6,8,8-21.8A48.089,48.089,0,1,1,96.1,48.1Z" fill="#2673d1" opacity="0.18"/>
    <path id="Path_11395" data-name="Path 11395" d="M39.9,64.3S26.7,64.6,20,75.6c0,0-3.5,15.7-3.1,19l8.7-3.9c.3.7,13,5.7,24.1,5.2C70.1,95,79.4,84.6,79.4,84.6S77.2,69.9,65.1,66.5,39.9,64.3,39.9,64.3Z" fill="#21418e"/>
    <path id="Path_11396" data-name="Path 11396" d="M39.8,63.6s-2.9.4-2.8,2.5.4,8.3,3.6,6.8,5.9-6,5.9-6Z" fill="#fff"/>
    <path id="Path_11397" data-name="Path 11397" d="M54.7,63.6s2.9.4,2.8,2.5-.4,8.3-3.6,6.8-5.9-6-5.9-6Z" fill="#fff"/>
    <path id="Path_11398" data-name="Path 11398" d="M29,33.8S25.7,54.4,33.9,57a7.877,7.877,0,0,0,6,.8v6.5s8.3,6.2,15-.4V47.1s-.8-10.2-2.8-9.1c-.5.3-4.6-.2-5.3-7.7,0,0-9.5-4.2-13.9-1.3S29,33.8,29,33.8Z" fill="#f7af87"/>
    <path id="Path_11399" data-name="Path 11399" d="M27,33.1a7.58,7.58,0,0,0,4.7,3.7A4.847,4.847,0,0,0,37,34.6a5.78,5.78,0,0,0,7.5,1.7,5.469,5.469,0,0,0,5,1.8,9.537,9.537,0,0,0,6.4-2.7A7.673,7.673,0,0,0,58.2,29c-.4-2.8-2.5-5-4.7-6.6a24.345,24.345,0,0,0-12.1-4.9c-4-.4-10.3,0-13.3,3S24.8,29.4,27,33.1Z" fill="#dd6034"/>
    <path id="Path_11400" data-name="Path 11400" d="M39.9,57.8s5-1.3,6.9-3.6c0,0-2.6,10-6.9,10.1Z" fill="url(#linear-gradient)"/>
    <path id="Path_11401" data-name="Path 11401" d="M50.1,35.2l.4,7.1,1.4-1.9a1.149,1.149,0,0,1,.9-.6c.4,0,.4.3.6.6a6.423,6.423,0,0,1-1,7,2.757,2.757,0,0,0-.7.9,3.083,3.083,0,0,0-.1,1c.1,2.1,3.2,4.5,3.7,3s.6-3.1,1.1-4.7a20.829,20.829,0,0,1,3.2-5.4,16.631,16.631,0,0,0,3.1-5.5,5.889,5.889,0,0,0-1.5-5.8,3.044,3.044,0,0,1-.8-.8,1.949,1.949,0,0,1-.1-.8,10.871,10.871,0,0,0-3-6.8,8.915,8.915,0,0,0-6.8-2.8,2.375,2.375,0,0,0-1.2.3A3.168,3.168,0,0,0,48,22.1c-.8,3.8,1,7.7,1.6,11.6" fill="#dd6034"/>
    <path id="Path_11402" data-name="Path 11402" d="M202.5,48.1a48.007,48.007,0,0,1-72.3,41.5l2,1.8-23.6,8.1,8-21.8a48.1,48.1,0,0,1,75.9-59.1,49.492,49.492,0,0,1,10,29.5Z" fill="#2673d1" opacity="0.18"/>
    <path id="Path_11403" data-name="Path 11403" d="M146,64.3s-13.2.3-19.9,11.3c0,0-4.6,15.8-4.1,19.2l10.2-3.3c5.1,2.8,12.7,5,23.6,4.5,20.5-.9,29.7-11.3,29.7-11.3S183.3,70,171.2,66.6,146,64.3,146,64.3Z" fill="#21418e"/>
    <path id="Path_11404" data-name="Path 11404" d="M174.7,46.7c1.7-8.5,3.2-21.6-2.7-24.3l-3.8-.2s-2.8-6.5-14.1-5.5-22.6,10.6-17.5,26c2.7,8-2.1,19.6-2.1,19.6l16.6-.1,25.6-.8h0a22.609,22.609,0,0,1-2-14.7Z" fill="#404040"/>
    <path id="Path_11405" data-name="Path 11405" d="M172.2,33.6s3.3,20.6-4.9,23.2a7.457,7.457,0,0,1-6,.8v6.5s-8.3,6.2-15-.4V46.9s.8-10.2,2.8-9.1c.5.3,4.6-.2,5.3-7.7,0,0,9.5-4.2,13.9-1.3S172.2,33.6,172.2,33.6Z" fill="#f7af87"/>
    <path id="Path_11406" data-name="Path 11406" d="M161.3,57.6s-5-1.3-6.9-3.6c0,0,2.5,10,6.9,10.1Z" fill="url(#linear-gradient-2)"/>
    <path id="Path_11407" data-name="Path 11407" d="M165.4,27.6c-2.5,0-5.3.4-7.1,2.2-2.2,2.2-2.2,5.7-3.1,8.7a10.455,10.455,0,0,1-4.1,5.6,8.965,8.965,0,0,1-6.7,1.5,1.855,1.855,0,0,1-1.2-.7,1.978,1.978,0,0,1-.2-1.1c.2-4.2.7-8.6,2.9-12.2a14.36,14.36,0,0,1,4.9-4.9,10.944,10.944,0,0,1,3.8-1.4c2.7-.3,5.3.9,7.7,2.1" fill="#404040"/>
    <path id="Path_11408" data-name="Path 11408" d="M145.9,63.6s-2.9.4-2.8,2.5.4,8.3,3.6,6.8,5.9-6,5.9-6Z" fill="#fff"/>
    <path id="Path_11409" data-name="Path 11409" d="M160.8,63.6s2.9.4,2.8,2.5-.4,8.3-3.6,6.8-5.9-6-5.9-6Z" fill="#fff"/>
    <circle id="Ellipse_2" data-name="Ellipse 2" cx="1.6" cy="1.6" r="1.6" transform="translate(151.6 73.5)" fill="#fff"/>
    <circle id="Ellipse_3" data-name="Ellipse 3" cx="1.6" cy="1.6" r="1.6" transform="translate(151.6 79.1)" fill="#fff"/>
    <circle id="Ellipse_4" data-name="Ellipse 4" cx="1.6" cy="1.6" r="1.6" transform="translate(151.6 84.7)" fill="#fff"/>
    <path id="Path_11410" data-name="Path 11410" d="M307.9,48.1a48.007,48.007,0,0,1-72.3,41.5l2,1.8L214,99.5l8-21.8a48.1,48.1,0,1,1,85.9-29.6Z" fill="#2673d1" opacity="0.18"/>
    <path id="Path_11411" data-name="Path 11411" d="M251.5,64.3s-13.2.3-20,11.3c0,0-4.6,15.8-4.1,19.2l10.2-3.3c5.1,2.8,12.7,5,23.6,4.5,20.5-.9,29.7-11.3,29.7-11.3S288.7,70,276.6,66.6,251.5,64.3,251.5,64.3Z" fill="#21418e"/>
    <path id="Path_11412" data-name="Path 11412" d="M252.4,53s-.2,9.3-1,11.3,6.5,7.7,14,2.4l.5-2.3a41.533,41.533,0,0,1-.5-12.2C266.3,46.5,252.4,53,252.4,53Z" fill="#f7af87"/>
    <path id="Path_11413" data-name="Path 11413" d="M252.3,54.2s1.3,6.3,6.9,6.7,6-1.4,6-1.4l.1-8.1Z" fill="url(#linear-gradient-3)"/>
    <path id="Path_11414" data-name="Path 11414" d="M244,34a2.491,2.491,0,0,0-2.2-.4,1.555,1.555,0,0,0-.8.6c-1.2,1.2-1.1,3.2-.8,4.8a27.584,27.584,0,0,0,.8,2.7,3.88,3.88,0,0,0,.6,1.1,4,4,0,0,0,3.6,1,1.761,1.761,0,0,0,2.1-1.5V42C247.7,38.7,246.9,35.8,244,34Z" fill="#f7af87"/>
    <path id="Path_11415" data-name="Path 11415" d="M275.7,35.4a3.41,3.41,0,0,1,3.2-.7,2.909,2.909,0,0,1,1.5,2.2,5.025,5.025,0,0,1-.5,2.7,8.957,8.957,0,0,1-1.7,3,4.36,4.36,0,0,1-3,1.5,3.071,3.071,0,0,1-2.9-1.5,5.223,5.223,0,0,1-.4-2.1,3.333,3.333,0,0,1,.2-1.7C272.6,37.7,274.7,36.1,275.7,35.4Z" fill="#f7af87"/>
    <path id="Path_11416" data-name="Path 11416" d="M274.7,38.5c-1.2,10-6.8,18.3-15.1,18.3s-15.1-8.2-15.1-18.3S249.9,17,258.2,17,277.2,18.1,274.7,38.5Z" fill="#f7af87"/>
    <path id="Path_11417" data-name="Path 11417" d="M244.5,33.9l.1,2.2c0,.4.1.8.5.9s.7-.5.7-1c0-1.8-.6-3.9.6-5.4.3-.3.5-.6.8-.9.5-1-.2-2.2.2-3.2a8.064,8.064,0,0,1,1.2-1.4,6.591,6.591,0,0,0,1.1-2.4,1.794,1.794,0,0,1,.5-.7,1.854,1.854,0,0,1,.7-.2c.9-.2,1.5-1.2,2.3-1.7a3.967,3.967,0,0,1,2.4-.4c3.2.1,6.5,1.2,9.5,0a8.346,8.346,0,0,0,5.1,3.3c.2,0,.3.1.5.2l.3.6a4.629,4.629,0,0,0,1.3,1.8c1.8,2.3,1.8,5.5,1.7,8.4l-.2,4.7,1.6-2.7a5.5,5.5,0,0,1,.7-.9c.3-.3.7-.4.9-.8a1.268,1.268,0,0,0,.1-.6l.4-4a5.45,5.45,0,0,0-.1-2.2c-.1-.4-.4-.9-.5-1.3a7.017,7.017,0,0,1-.1-2.5,3.166,3.166,0,0,0-.7-2.3,10.448,10.448,0,0,0,.6-5.5c-.4-1.8-2.1-3.5-4-3.2a2.769,2.769,0,0,1-.9.1,2.507,2.507,0,0,1-.7-.4,8.314,8.314,0,0,0-4.5-1.7,56.1,56.1,0,0,0-5.8,0c-4.3.4-8.9-.5-12.9,1a9.186,9.186,0,0,0-2.7,1.6,10.518,10.518,0,0,0-2,2.7,5.225,5.225,0,0,0-.7,1.5,4.845,4.845,0,0,0,0,1.7c0,1.9-1,3.8-.7,5.7.1.7.4,1.3.5,2a6.054,6.054,0,0,1,0,1.9,10.851,10.851,0,0,0,.8,4.7,1.024,1.024,0,0,0,.5.6C243.8,34.2,244.3,33.6,244.5,33.9Z" fill="#404040"/>
    <path id="Path_11418" data-name="Path 11418" d="M246.7,50.8a9.868,9.868,0,0,0,1,2.7,9.237,9.237,0,0,0,4.8,3.9,18.9,18.9,0,0,0,6.3,1,47.947,47.947,0,0,0,8.5-.5c1-.1.9-.4,1.7-1a8.277,8.277,0,0,0,3.1-4.3c.8-4.8,2.2-11.5,2-16.4-1.3,2.4-1.3,7.6-3.2,9.5a6.579,6.579,0,0,1-4,1.7,39.28,39.28,0,0,1-14.1-.2,7.584,7.584,0,0,1-3.8-1.6c-1.7-1.6-1.5-4.3-1.9-6.6-.1-1-.5-2.5-1.6-2.9a33.459,33.459,0,0,0,.2,6.3A30.175,30.175,0,0,0,246.7,50.8Z" fill="#404040"/>
    <path id="Path_11419" data-name="Path 11419" d="M243,37.2a1.7,1.7,0,0,0-.1-.7.512.512,0,0,0-1,0,3.645,3.645,0,0,0-.1,2.9,3.643,3.643,0,0,0,1.7,2.3,1.41,1.41,0,0,0,1.4.1c.8-.5.5-2.1-.2-2.5-.4-.3-.8-.2-1.1-.7A1.678,1.678,0,0,1,243,37.2Z" fill="url(#linear-gradient-4)"/>
    <path id="Path_11420" data-name="Path 11420" d="M277.1,37.2a1.7,1.7,0,0,1,.1-.7.512.512,0,0,1,1,0,3.645,3.645,0,0,1,.1,2.9,3.643,3.643,0,0,1-1.7,2.3,1.41,1.41,0,0,1-1.4.1c-.8-.5-.5-2.1.2-2.5.4-.3.8-.2,1.1-.7A1.678,1.678,0,0,0,277.1,37.2Z" fill="url(#linear-gradient-5)"/>
    <path id="Path_11421" data-name="Path 11421" d="M268.5,60.4A5.278,5.278,0,0,0,266,60c-5.2.1-10.5,1.2-15.4-.5a7.89,7.89,0,0,0-1.8,2.9c-.5,2.4,1.5,4.5,3.6,5.6,3.6,1.8,7.9,1.8,11.9,1.5a7.675,7.675,0,0,0,4.5-1.3C270.8,66.6,270.9,61.8,268.5,60.4Z" fill="#2673d1"/>
    <path id="Path_11422" data-name="Path 11422" d="M248.8,64.2s-1.7,4,6.7,4.2c0,0-8.3.2-10.7,2s-8.2,4.7-8.5,8.3S234,92.2,234,92.2l-6.6,2.5,4.1-19.2A25.754,25.754,0,0,1,248.8,64.2Z" fill="url(#linear-gradient-6)"/>
  </g>
</svg>
