<svg xmlns="http://www.w3.org/2000/svg" width="29.972" height="32" viewBox="0 0 29.972 32"><g transform="translate(-39.634 -24.997)"><path d="M41.023,307.371a.472.472,0,0,0,.481.412h6.234a.465.465,0,0,0,.464-.6l-.8-2.612L49.889,303a1.439,1.439,0,0,1,1.046-.133l.03.007,5.188.956a6.813,6.813,0,0,0,4.209-.594.473.473,0,0,0,.059-.035l8.973-6.161a.485.485,0,0,0,.141-.65,2.561,2.561,0,0,0-3.415-.934l-.084.045a2.2,2.2,0,0,0-2.571-.591l-.011.006-.3.163a2.84,2.84,0,0,0-3.2-.251l-1.921,1.045H55.47a3.639,3.639,0,0,1-1.575-.362l-.356-.172a6.2,6.2,0,0,0-6.456.63l-.031.025-.859.765a2.885,2.885,0,0,1-.995.578l-.46-1.522a.5.5,0,0,0-.464-.358H40.119a.5.5,0,0,0-.363.178.484.484,0,0,0-.118.38Zm22.888-11.6a1.182,1.182,0,0,1,1.229.213l-3.278,1.768-.1.054a3.047,3.047,0,0,0-.372-.676Zm-3.488-.1.011-.006a1.869,1.869,0,0,1,1.746-.066l-1.517.817a3.04,3.04,0,0,0-.848-.415ZM46.837,297.48l.844-.751a5.238,5.238,0,0,1,5.436-.521l.356.173a4.614,4.614,0,0,0,2,.458h3.451a2.084,2.084,0,0,1,2.018,1.571l-2.374-.108a15.047,15.047,0,0,0-2.74.126.485.485,0,1,0,.133.96,14.1,14.1,0,0,1,2.563-.118l2.944.133h.022a.485.485,0,0,0,.485-.485c0-.043,0-.086,0-.129l.349-.184,4.265-2.3a1.592,1.592,0,0,1,1.834.226L59.9,302.377a5.836,5.836,0,0,1-3.575.495l-5.173-.953a2.4,2.4,0,0,0-1.75.238l-.022.013-2.272,1.436-1.63-5.346a3.855,3.855,0,0,0,1.357-.782Zm-2.922-1.057,3.168,10.389h-5.15l-1.267-10.389Z" transform="translate(0 -250.786)" fill="#21418e"/><path d="M89.234,435.353a1.316,1.316,0,1,0-1.316-1.316A1.316,1.316,0,0,0,89.234,435.353Zm0-1.662a.346.346,0,1,1-.346.346A.346.346,0,0,1,89.234,433.691Z" transform="translate(-44.94 -379.484)" fill="#21418e"/><path d="M139.438,34.683l1.316.127a6.514,6.514,0,0,0,.651,1.547l-.836,1.009a.485.485,0,0,0,.031.652l1.578,1.578a.485.485,0,0,0,.652.031l1.011-.838a6.634,6.634,0,0,0,1.545.653l.127,1.32A.489.489,0,0,0,146,41.2h2.237a.489.489,0,0,0,.483-.443l.127-1.318a6.518,6.518,0,0,0,1.547-.652l1.009.835a.485.485,0,0,0,.652-.031l1.577-1.578a.485.485,0,0,0,.031-.652l-.838-1.012a6.634,6.634,0,0,0,.653-1.545l1.3-.127a.485.485,0,0,0,.438-.483V31.964a.485.485,0,0,0-.438-.483l-1.316-.127a6.514,6.514,0,0,0-.651-1.547l.836-1.009a.485.485,0,0,0-.028-.65l-1.557-1.578a.485.485,0,0,0-.654-.033l-1.011.838a6.634,6.634,0,0,0-1.545-.653l-.127-1.3a.473.473,0,0,0-.483-.424H146a.473.473,0,0,0-.483.424l-.127,1.308a6.5,6.5,0,0,0-1.547.647l-1.009-.837a.485.485,0,0,0-.652.03L140.6,28.147a.485.485,0,0,0-.031.652l.838,1.011a6.633,6.633,0,0,0-.653,1.545l-1.316.127a.485.485,0,0,0-.439.483V34.2a.485.485,0,0,0,.438.483Zm.531-2.279,1.219-.118a.485.485,0,0,0,.427-.38,5.676,5.676,0,0,1,.793-1.876.485.485,0,0,0-.034-.572l-.777-.938.953-.953.938.777a.485.485,0,0,0,.578.03,5.5,5.5,0,0,1,1.871-.788.469.469,0,0,0,.38-.413l.118-1.205h1.356l.118,1.205a.477.477,0,0,0,.38.42,5.667,5.667,0,0,1,1.877.789.485.485,0,0,0,.572-.036l.936-.776.937.949-.78.94a.485.485,0,0,0-.03.578,5.5,5.5,0,0,1,.788,1.871.485.485,0,0,0,.427.38l1.219.118v1.357l-1.2.117a.485.485,0,0,0-.427.38,5.674,5.674,0,0,1-.792,1.877.485.485,0,0,0,.034.572l.777.938-.953.953-.938-.777a.485.485,0,0,0-.578-.03,5.5,5.5,0,0,1-1.871.789.49.49,0,0,0-.38.432l-.117,1.224h-1.356l-.118-1.224a.487.487,0,0,0-.38-.429,5.679,5.679,0,0,1-1.877-.793.485.485,0,0,0-.572.033l-.938.777-.953-.954.777-.938a.485.485,0,0,0,.03-.578,5.5,5.5,0,0,1-.788-1.871.485.485,0,0,0-.427-.38l-1.219-.118Z" transform="translate(-92.484 0)" fill="#21418e"/><path d="M191.11,81.529a4.84,4.84,0,1,0-4.84-4.84A4.84,4.84,0,0,0,191.11,81.529Zm0-8.71a3.87,3.87,0,1,1-3.87,3.87,3.87,3.87,0,0,1,3.87-3.87Z" transform="translate(-136.48 -43.608)" fill="#21418e"/><path d="M224.382,121.47a.485.485,0,0,0,.677,0l2.321-2.266a.485.485,0,1,0-.677-.694l-1.982,1.935-.95-.927a.485.485,0,0,0-.677.694Z" transform="translate(-170.617 -86.907)" fill="#21418e"/></g></svg>