<svg xmlns="http://www.w3.org/2000/svg" width="38.504" height="31.659" viewBox="0 0 38.504 31.659"><g transform="translate(0 -45.517)"><g transform="translate(0 45.517)"><path d="M26.387,52.94a11.986,11.986,0,0,0-7.135,2.323,11.969,11.969,0,0,0-4.271-1.985l3.256-3.731,0,0a.562.562,0,0,0,.052-.072l.007-.012a.564.564,0,0,0,.038-.078l0-.013a.559.559,0,0,0,.024-.084v-.008a.572.572,0,0,0,.009-.083s0-.007,0-.011,0,0,0-.006a.572.572,0,0,0-.006-.079l0-.015A.549.549,0,0,0,18.347,49l0-.011a.564.564,0,0,0-.037-.083l0,0a.559.559,0,0,0-.054-.079l0,0,0,0-2.518-3.091a.565.565,0,0,0-.438-.208H8.944a.565.565,0,0,0-.438.208L5.988,48.816l0,0,0,0a.566.566,0,0,0-.054.079l0,0a.571.571,0,0,0-.037.083l0,.011a.572.572,0,0,0-.021.084l0,.015a.563.563,0,0,0-.006.079s0,0,0,.006,0,.007,0,.011a.559.559,0,0,0,.009.083v.008a.554.554,0,0,0,.024.084l0,.013a.565.565,0,0,0,.038.078l.007.012A.571.571,0,0,0,6,49.542l0,0,3.259,3.735a12.118,12.118,0,0,0,2.86,23.894,11.987,11.987,0,0,0,7.135-2.323,11.987,11.987,0,0,0,7.135,2.323,12.118,12.118,0,0,0,0-24.235ZM15.022,46.647l1.6,1.963H14.782l-.633-1.963Zm-.249,3.094h1.794l-2.879,3.3-.052-.007Zm-3.5-3.094h1.688l.633,1.963H10.641Zm2.3,3.094-1.107,3.205c-.117,0-.235-.006-.353-.006l-.222,0-.131,0-1.107-3.205ZM9.213,46.647h.873L9.453,48.61H7.614ZM7.668,49.741H9.462L10.6,53.035l-.051.007Zm4.45,26.3a10.987,10.987,0,0,1-1.7-21.843q.2-.031.395-.054l.05-.006c.177-.02.356-.035.534-.047h.008c.131-.008.252-.015.365-.019s.231-.007.347-.007c.231,0,.461.015.711.031h.036l.027,0c.3.023.609.058.928.108a.566.566,0,0,0,.087.007h0a10.856,10.856,0,0,1,4.993,2.2q.228.179.447.371t.416.384q.11.107.217.216.3.312.584.648h0a10.987,10.987,0,0,1,.34,13.617l-.009-.007q-.117-.1-.231-.2l-.043-.04c-.061-.055-.121-.111-.18-.168l-.077-.076c-.047-.046-.094-.093-.14-.141l-.083-.087q-.064-.068-.127-.138l-.038-.043A9.682,9.682,0,0,0,21.717,66.5a.565.565,0,0,0-1.118-.166,8.544,8.544,0,0,1-1.347,3.484,8.58,8.58,0,0,1,0-9.513,8.519,8.519,0,0,1,1.4,3.871.565.565,0,0,0,1.125-.116,9.659,9.659,0,0,0-2.079-5.065,9.757,9.757,0,0,0-1.6-1.581q-.127-.1-.257-.194a9.706,9.706,0,0,0-12.074.505.565.565,0,1,0,.74.854,8.574,8.574,0,0,1,10.18-.776,12.114,12.114,0,0,0,0,14.515A8.575,8.575,0,0,1,5.07,60.171a.565.565,0,1,0-.928-.645A9.706,9.706,0,0,0,17.408,73.195l.042.045.113.121.109.115.116.118.112.112.119.115.115.109.122.112.081.074A10.861,10.861,0,0,1,12.117,76.045Zm14.269,0A10.875,10.875,0,0,1,19.6,73.7a10.988,10.988,0,0,1-2-15.236l.009.007q.118.1.232.2l.045.041c.06.055.12.11.179.167l.078.077c.047.046.093.092.139.139l.084.088c.042.045.084.09.126.136l.039.044A9.707,9.707,0,0,0,20.667,72.9a9.705,9.705,0,0,0,12.479-.877.565.565,0,1,0-.787-.811,8.574,8.574,0,0,1-10.538,1.1,12.114,12.114,0,0,0,0-14.515,8.576,8.576,0,0,1,11.871,11.75.565.565,0,1,0,.962.593A9.707,9.707,0,0,0,21.1,56.921l-.041-.044-.116-.124-.106-.112-.12-.122-.108-.108-.123-.119-.111-.105-.127-.116L20.166,56a10.865,10.865,0,0,1,6.221-1.929,10.987,10.987,0,1,1,0,21.974Z" transform="translate(0 -45.517)" fill="#21418e"/></g></g></svg>