<svg xmlns="http://www.w3.org/2000/svg" width="33.306" height="31.529" viewBox="0 0 33.306 31.529"><g transform="translate(1)"><g transform="translate(-1)"><path d="M33.306,0V16.988H28.155V28.379a3.157,3.157,0,0,1-3.15,3.15H8.3a3.158,3.158,0,0,1-3.15-3.15V16.988H0V0H33.306ZM14.217,17.16V13.33h-2.1v3.83H10.237l2.93,3.6,2.931-3.6H14.217Zm6.971,0V13.33h-2.1v3.83H17.208l2.93,3.6,2.931-3.6H21.187Zm-8.736,5.807H14v7.163h11a1.758,1.758,0,0,0,1.752-1.752V9.012H10.384v4.451H8.834V9.012H6.55V28.379A1.758,1.758,0,0,0,8.3,30.131h.534V19.594h1.55V30.131h2.066V22.967ZM3.662,7.614H29.644v1.4H28.155V15.59h3.752V1.4H1.4V15.59H5.151V9.012H3.662v-1.4Z" fill="#21418e"/></g></g></svg>