<svg xmlns="http://www.w3.org/2000/svg" width="32.416" height="32.416" viewBox="0 0 32.416 32.416"><g transform="translate(0 0)"><path d="M4.862,0A4.862,4.862,0,1,0,9.725,4.862,4.868,4.868,0,0,0,4.862,0Zm0,8.644A3.782,3.782,0,1,1,8.644,4.862,3.786,3.786,0,0,1,4.862,8.644Z" transform="translate(0 0)" fill="#21418e"/></g><g transform="translate(0 5.403)"><path d="M8.644,85.333v18.909a3.782,3.782,0,1,1-7.564,0H0a4.862,4.862,0,0,0,9.725,0V85.333Z" transform="translate(0 -85.333)" fill="#21418e"/></g><g transform="translate(0 4.862)"><rect width="1.081" height="19.449" fill="#21418e"/></g><g transform="translate(2.701 2.701)"><path d="M44.828,42.667a2.161,2.161,0,1,0,2.161,2.161A2.163,2.163,0,0,0,44.828,42.667Zm0,3.242a1.081,1.081,0,1,1,1.081-1.081A1.082,1.082,0,0,1,44.828,45.909Z" transform="translate(-42.667 -42.667)" fill="#21418e"/></g><g transform="translate(9.184 23.772)"><rect width="6.483" height="1.081" fill="#21418e"/></g><g transform="translate(4.862 0)"><path d="M104.2,5.561l-5.4-5.4A.538.538,0,0,0,98.41,0H76.8V1.081H98.187l5.086,5.086V23.772h-3.242v1.081h3.782a.54.54,0,0,0,.54-.54V5.943A.539.539,0,0,0,104.2,5.561Z" transform="translate(-76.8)" fill="#21418e"/></g><g transform="translate(14.587 21.611)"><path d="M243.907,341.333H230.94a.54.54,0,0,0-.54.54V351.6a.54.54,0,0,0,.54.54h12.966a.54.54,0,0,0,.54-.54v-9.725A.54.54,0,0,0,243.907,341.333Zm-.54,9.725H231.481v-8.644h11.886Z" transform="translate(-230.4 -341.333)" fill="#21418e"/></g><g transform="translate(12.966 18.369)"><path d="M221.548,290.133H205.34a.54.54,0,0,0-.54.54v3.242a.54.54,0,0,0,.54.54h16.208a.54.54,0,0,0,.54-.54v-3.242A.54.54,0,0,0,221.548,290.133Zm-.54,3.242H205.881v-2.161h15.127Z" transform="translate(-204.8 -290.133)" fill="#21418e"/></g><g transform="translate(14.587 14.587)"><path d="M237.8,234.34l-3.245-3.245a2.447,2.447,0,0,0-1.7-.695h-.033a2.431,2.431,0,1,0,0,4.862h4.592a.54.54,0,0,0,.383-.922Zm-4.975-.158a1.351,1.351,0,1,1,.028-2.7,1.337,1.337,0,0,1,.941.382l2.319,2.319H232.83Z" transform="translate(-230.399 -230.4)" fill="#21418e"/></g><g transform="translate(17.288 18.563)"><path d="M276.973,293.2l-2.7,3.242a.544.544,0,0,0-.125.346v5.943a1.082,1.082,0,0,1-1.081,1.081v1.081a2.163,2.163,0,0,0,2.161-2.161v-5.747l2.576-3.091Z" transform="translate(-273.066 -293.197)" fill="#21418e"/></g><g transform="translate(21.07 14.587)"><path d="M337.938,230.4a2.469,2.469,0,0,0-1.74.7l-3.242,3.242a.54.54,0,0,0,.382.922h4.592a2.431,2.431,0,0,0,.008-4.862Zm-.008,3.782h-3.288l2.316-2.316a1.307,1.307,0,0,1,.972-.386,1.351,1.351,0,0,1,0,2.7Z" transform="translate(-332.798 -230.399)" fill="#21418e"/></g><g transform="translate(25.933 0.54)"><path d="M410.681,13.4V8.533H409.6v5.4a.54.54,0,0,0,.54.54h5.4V13.4Z" transform="translate(-409.6 -8.533)" fill="#21418e"/></g><g transform="translate(21.07 18.909)"><rect width="1.081" height="12.966" fill="#21418e"/></g><g transform="translate(21.195 18.563)"><path d="M339.508,303.807a1.082,1.082,0,0,1-1.081-1.081v-5.943a.541.541,0,0,0-.125-.346l-2.7-3.242-.83.692,2.576,3.091v5.747a2.163,2.163,0,0,0,2.161,2.161h.54v-1.08Z" transform="translate(-334.77 -293.196)" fill="#21418e"/></g></svg>