<svg xmlns="http://www.w3.org/2000/svg" width="22.684" height="32" viewBox="0 0 22.684 32"><g transform="translate(-0.5 0)"><path d="M64.309,6.71h-.692a7.241,7.241,0,0,0-.935-2.289l.443-.443a.515.515,0,0,0,0-.73L61.576,1.7a.515.515,0,0,0-.73,0l-.443.443a7.238,7.238,0,0,0-2.289-.935V.516A.516.516,0,0,0,57.6,0H55.535a.516.516,0,0,0-.516.516v.692a7.235,7.235,0,0,0-2.289.935L52.287,1.7a.515.515,0,0,0-.73,0L50.008,3.248a.515.515,0,0,0,0,.73l.443.443a7.238,7.238,0,0,0-.935,2.289h-.692a.516.516,0,0,0-.516.516V9.29a.516.516,0,0,0,.516.516h.692a7.235,7.235,0,0,0,.935,2.289l-.443.443a.515.515,0,0,0,0,.73l1.548,1.548a.515.515,0,0,0,.73,0l.443-.443a7.238,7.238,0,0,0,2.289.935V16a.516.516,0,0,0,.516.516H57.6A.516.516,0,0,0,58.115,16v-.692a7.235,7.235,0,0,0,2.289-.935l.443.443a.515.515,0,0,0,.73,0l1.548-1.548a.515.515,0,0,0,0-.73l-.443-.443a7.244,7.244,0,0,0,.935-2.289h.692a.516.516,0,0,0,.516-.516V7.226A.516.516,0,0,0,64.309,6.71Zm-.516,2.065h-.6a.516.516,0,0,0-.51.438A6.182,6.182,0,0,1,61.6,11.86a.516.516,0,0,0,.054.666l.378.378-.819.819-.378-.378a.514.514,0,0,0-.666-.054,6.182,6.182,0,0,1-2.648,1.081.515.515,0,0,0-.438.51v.6H56.051v-.6a.516.516,0,0,0-.438-.51,6.181,6.181,0,0,1-2.648-1.081.515.515,0,0,0-.666.054l-.378.378L51.1,12.9l.378-.378a.515.515,0,0,0,.054-.666,6.186,6.186,0,0,1-1.081-2.648.514.514,0,0,0-.509-.438h-.6V7.742h.6a.515.515,0,0,0,.51-.438,6.186,6.186,0,0,1,1.081-2.648.516.516,0,0,0-.054-.666L51.1,3.613l.819-.819.378.378a.516.516,0,0,0,.666.054,6.181,6.181,0,0,1,2.648-1.081.515.515,0,0,0,.438-.51v-.6h1.032v.6a.516.516,0,0,0,.438.51,6.182,6.182,0,0,1,2.648,1.081.517.517,0,0,0,.666-.054l.378-.378.819.819-.378.378a.515.515,0,0,0-.054.666A6.182,6.182,0,0,1,62.679,7.3a.515.515,0,0,0,.51.438h.6Zm0,0" transform="translate(-44.724)" fill="#21418e"/><path d="M101.47,48a5.161,5.161,0,1,0,5.161,5.161A5.167,5.167,0,0,0,101.47,48Zm0,9.29a4.129,4.129,0,1,1,4.129-4.129A4.134,4.134,0,0,1,101.47,57.29Zm0,0" transform="translate(-89.628 -44.903)" fill="#21418e"/><path d="M61.577,248.147a.516.516,0,0,0-.881.365V253.4l-4.129,2.753L52.438,253.4v-4.885a.516.516,0,0,0-.881-.365l-3.1,3.1a.514.514,0,0,0-.151.365v4.645a.516.516,0,0,0,.206.413l3.923,2.942V264H53.47V259.35a.516.516,0,0,0-.206-.413L49.341,256v-4.173l2.065-2.065v3.915a.517.517,0,0,0,.23.429l4.645,3.1a.513.513,0,0,0,.572,0l4.645-3.1a.516.516,0,0,0,.23-.429v-3.915l2.065,2.065V256l-3.923,2.942a.516.516,0,0,0-.206.413V264H60.7v-4.387l3.923-2.942a.515.515,0,0,0,.206-.413v-4.645a.514.514,0,0,0-.151-.365Zm0,0" transform="translate(-44.724 -231.995)" fill="#21418e"/><path d="M146.374,96a2.065,2.065,0,1,0,2.065,2.065A2.067,2.067,0,0,0,146.374,96Zm0,3.1a1.032,1.032,0,1,1,1.032-1.032A1.033,1.033,0,0,1,146.374,99.1Zm0,0" transform="translate(-134.531 -89.807)" fill="#21418e"/><path d="M194.58,377.6l-2.065,1.548a.516.516,0,0,0-.206.413v5.677h1.032v-5.419l1.858-1.394Zm0,0" transform="translate(-179.434 -353.241)" fill="#21418e"/><path d="M312.668,309.594l.88.54a11.555,11.555,0,0,0,.583-1.074l-.933-.443A10.271,10.271,0,0,1,312.668,309.594Zm0,0" transform="translate(-292.028 -288.707)" fill="#21418e"/><path d="M327.234,278.818l.974.343a11.32,11.32,0,0,0,.325-1.093l-1-.244C327.448,278.157,327.349,278.492,327.234,278.818Zm0,0" transform="translate(-305.654 -259.9)" fill="#21418e"/><path d="M334.814,247.625c-.015.326-.046.651-.091.968l1.022.145c.05-.349.083-.706.1-1.064Zm0,0" transform="translate(-312.66 -231.649)" fill="#21418e"/><path d="M334.783,215.96l1.031-.053c-.018-.35-.052-.7-.1-1.045l-1.022.146c.044.313.075.633.091.951Zm0,0" transform="translate(-312.63 -201.001)" fill="#21418e"/><path d="M327.467,182.564l1-.245c-.089-.364-.2-.73-.325-1.088l-.973.344C327.287,181.9,327.386,182.234,327.467,182.564Zm0,0" transform="translate(-305.596 -169.539)" fill="#21418e"/><path d="M314.091,148.88a11.481,11.481,0,0,0-.583-1.071l-.879.541a10.268,10.268,0,0,1,.53.975Zm0,0" transform="translate(-291.992 -138.273)" fill="#21418e"/><path d="M17.242,148.882l.933.443a10.417,10.417,0,0,1,.535-.983l-.879-.541a11.511,11.511,0,0,0-.588,1.082Zm0,0" transform="translate(-15.662 -138.265)" fill="#21418e"/><path d="M6.62,181.673l-.973-.345a11.21,11.21,0,0,0-.323,1.082l1,.245a10.2,10.2,0,0,1,.293-.983Zm0,0" transform="translate(-4.513 -169.63)" fill="#21418e"/><path d="M1.632,215.011.61,214.864c-.051.356-.086.72-.1,1.082l1.031.047c.015-.33.046-.66.093-.983Zm0,0" transform="translate(-0.007 -201.002)" fill="#21418e"/><path d="M1.531,247.633.5,247.68c.017.362.052.726.1,1.082l1.022-.147c-.047-.324-.078-.653-.093-.983Zm0,0" transform="translate(0 -231.657)" fill="#21418e"/><path d="M6.327,278.1l-1,.245c.088.36.2.725.323,1.082l.974-.344c-.115-.325-.214-.656-.294-.983Zm0,0" transform="translate(-4.513 -260.163)" fill="#21418e"/><path d="M17.242,309.017a11.508,11.508,0,0,0,.588,1.082l.879-.541a10.3,10.3,0,0,1-.535-.983Zm0,0" transform="translate(-15.662 -288.667)" fill="#21418e"/></g></svg>