<svg xmlns="http://www.w3.org/2000/svg" width="32" height="25.507" viewBox="0 0 32 25.507"><g transform="translate(0 -75.944)"><path d="M31.977,86.672a1.2,1.2,0,0,0-.879-1l-2.431-.575,2.845-2.231a1.349,1.349,0,0,0,.466-1.311,1.2,1.2,0,0,0-.879-1L26.271,79.41a.473.473,0,0,0-.555.412.534.534,0,0,0,.363.628l4.826,1.141a.2.2,0,0,1,.152.173.227.227,0,0,1-.081.227l-4.342,3.4-5.406-3.664a1.02,1.02,0,0,0-1.148-.01l-9.359,6.12L1.095,85.566a.2.2,0,0,1-.152-.173.227.227,0,0,1,.081-.227l10.356-8.121a.179.179,0,0,1,.151-.035L23.77,79.9a.473.473,0,0,0,.555-.412.534.534,0,0,0-.363-.628L11.722,75.971a1.031,1.031,0,0,0-.876.2L.49,84.293A1.349,1.349,0,0,0,.024,85.6a1.2,1.2,0,0,0,.879,1l2.431.575L.49,89.412a1.349,1.349,0,0,0-.466,1.311,1.2,1.2,0,0,0,.879,1l2.431.575L.49,94.531a1.349,1.349,0,0,0-.466,1.311,1.2,1.2,0,0,0,.879,1l19.376,4.579a1,1,0,0,0,.23.027,1.048,1.048,0,0,0,.647-.228l5.939-4.657a.577.577,0,0,0,.119-.739.435.435,0,0,0-.652-.135l-5.938,4.657a.178.178,0,0,1-.152.035L1.095,95.805a.2.2,0,0,1-.152-.173.227.227,0,0,1,.081-.227L4.6,92.6l6.08,1.437a.416.416,0,0,0,.1.011.487.487,0,0,0,.458-.423A.534.534,0,0,0,10.872,93L1.095,90.686a.2.2,0,0,1-.152-.173.227.227,0,0,1,.081-.227L4.6,87.48l6.1,1.443a.414.414,0,0,0,.157.007l6.315-.947a.5.5,0,0,0,.468.515h.006a.5.5,0,0,0,.462-.538V87.9c0-.02,0-.04,0-.06l7-1.049a.606.606,0,0,0-.005.082v.057a.5.5,0,0,0,.469.524h.006a.5.5,0,0,0,.463-.538v-.057a.59.59,0,0,0-.038-.2l.714-.107a.437.437,0,0,0,.205-.09l.682-.534,3.3.781a.2.2,0,0,1,.152.173.227.227,0,0,1-.081.227L20.622,95.23a.179.179,0,0,1-.151.035l-7.3-1.726a.473.473,0,0,0-.555.412.534.534,0,0,0,.363.628l7.3,1.726a1,1,0,0,0,.23.027,1.048,1.048,0,0,0,.647-.228L27.6,91.048l3.3.781a.2.2,0,0,1,.152.173.227.227,0,0,1-.081.227l-2.533,1.987a.577.577,0,0,0-.119.739.455.455,0,0,0,.386.229.429.429,0,0,0,.266-.094L31.511,93.1a1.349,1.349,0,0,0,.466-1.311,1.2,1.2,0,0,0-.879-1l-2.431-.575,2.845-2.231A1.349,1.349,0,0,0,31.977,86.672ZM20.55,82.642a.176.176,0,0,1,.2,0L25.259,85.7,13.081,87.526Z" transform="translate(0 0)" fill="#21418e"/><path d="M292.1,290.243h-.006a.5.5,0,0,0-.462.538v.057a.5.5,0,0,0,.469.524h.006a.5.5,0,0,0,.462-.538v-.057A.5.5,0,0,0,292.1,290.243Z" transform="translate(-273.403 -199.121)" fill="#21418e"/><path d="M292.03,316.718h.006a.5.5,0,0,0,.463-.538v-.057a.5.5,0,0,0-.475-.524.5.5,0,0,0-.463.538v.057A.5.5,0,0,0,292.03,316.718Z" transform="translate(-273.338 -222.68)" fill="#21418e"/><path d="M304.375,304.416h.05a.535.535,0,0,0-.012-1.062h-.05a.536.536,0,0,0,.006,1.062Z" transform="translate(-284.907 -211.302)" fill="#21418e"/><path d="M279.011,303.283h-.05a.536.536,0,0,0,.006,1.062h.056a.535.535,0,0,0-.013-1.062Z" transform="translate(-261.093 -211.238)" fill="#21418e"/><path d="M348.6,256.468a.5.5,0,0,0-.463.538v.057a.5.5,0,0,0,.469.524h.006a.5.5,0,0,0,.463-.538v-.057A.5.5,0,0,0,348.6,256.468Z" transform="translate(-326.377 -167.738)" fill="#21418e"/><path d="M348.527,281.826a.5.5,0,0,0-.463.538v.057a.5.5,0,0,0,.469.524h.006a.5.5,0,0,0,.463-.538v-.057A.5.5,0,0,0,348.527,281.826Z" transform="translate(-326.311 -191.3)" fill="#21418e"/><path d="M360.881,270.642h.05a.535.535,0,0,0-.013-1.062h-.05a.536.536,0,0,0,.006,1.062Z" transform="translate(-337.881 -179.92)" fill="#21418e"/><path d="M335.467,269.512a.536.536,0,0,0,.006,1.062h.056a.5.5,0,0,0,.463-.538.5.5,0,0,0-.475-.524Z" transform="translate(-314.067 -179.857)" fill="#21418e"/><path d="M401.57,248.59v.057a.5.5,0,0,0,.469.524h.006a.5.5,0,0,0,.463-.538v-.057a.472.472,0,1,0-.937.014Z" transform="translate(-376.473 -159.918)" fill="#21418e"/><path d="M414.38,236.869h.056a.535.535,0,0,0-.012-1.062h-.05a.536.536,0,0,0,.006,1.062Z" transform="translate(-388.043 -148.539)" fill="#21418e"/><path d="M389.022,235.736h-.05a.536.536,0,0,0,.006,1.062h.056a.535.535,0,0,0-.012-1.062Z" transform="translate(-364.228 -148.474)" fill="#21418e"/><path d="M218.79,271.164h-.006a.5.5,0,0,0-.462.538v.057a.5.5,0,0,0,.469.524h.006a.5.5,0,0,0,.462-.538v-.057A.5.5,0,0,0,218.79,271.164Z" transform="translate(-204.676 -181.393)" fill="#21418e"/><path d="M218.715,296.52a.5.5,0,0,0-.463.538v.057a.5.5,0,0,0,.469.524h.006a.5.5,0,0,0,.463-.538v-.057A.5.5,0,0,0,218.715,296.52Z" transform="translate(-204.612 -204.953)" fill="#21418e"/><path d="M231.069,285.335h.05a.535.535,0,0,0-.013-1.062h-.05a.536.536,0,0,0,.006,1.062Z" transform="translate(-216.182 -193.572)" fill="#21418e"/><path d="M205.654,284.206a.536.536,0,0,0,.006,1.062h.056a.535.535,0,0,0-.012-1.062Z" transform="translate(-192.367 -193.511)" fill="#21418e"/><path d="M274.757,263.284v.057a.5.5,0,0,0,.469.524h.006a.5.5,0,0,0,.463-.538v-.057a.472.472,0,1,0-.937.014Z" transform="translate(-257.585 -173.572)" fill="#21418e"/><path d="M287.612,250.5h-.05a.536.536,0,0,0,.006,1.062h.056a.535.535,0,0,0-.012-1.062Z" transform="translate(-269.156 -162.192)" fill="#21418e"/><path d="M262.21,250.429h-.05a.536.536,0,0,0,.006,1.062h.056a.535.535,0,0,0-.013-1.062Z" transform="translate(-245.342 -162.127)" fill="#21418e"/><path d="M151.483,259.2h.006a.5.5,0,0,0,.462-.538v-.057a.5.5,0,0,0-.475-.524.5.5,0,0,0-.462.538v.057A.5.5,0,0,0,151.483,259.2Z" transform="translate(-141.575 -169.239)" fill="#21418e"/><path d="M151.415,284.559h.006a.5.5,0,0,0,.463-.538v-.057a.5.5,0,0,0-.469-.524h-.006a.5.5,0,0,0-.463.538v.057A.5.5,0,0,0,151.415,284.559Z" transform="translate(-141.511 -192.8)" fill="#21418e"/><path d="M163.761,272.255h.05a.535.535,0,0,0-.012-1.062h-.05a.536.536,0,0,0,.006,1.062Z" transform="translate(-153.081 -181.419)" fill="#21418e"/><path d="M138.346,271.124a.536.536,0,0,0,.006,1.062h.056a.535.535,0,0,0-.013-1.062Z" transform="translate(-129.266 -181.356)" fill="#21418e"/><path d="M81.176,249.123h.006a.5.5,0,0,0,.462-.538v-.057a.5.5,0,0,0-.475-.524.5.5,0,0,0-.462.538v.057A.5.5,0,0,0,81.176,249.123Z" transform="translate(-75.662 -159.873)" fill="#21418e"/><path d="M81.107,274.479h.006a.5.5,0,0,0,.462-.538v-.057a.5.5,0,0,0-.475-.524.5.5,0,0,0-.462.538v.057A.5.5,0,0,0,81.107,274.479Z" transform="translate(-75.597 -183.434)" fill="#21418e"/><path d="M93.454,262.175h.05a.5.5,0,0,0,.462-.538.5.5,0,0,0-.475-.524h-.05a.536.536,0,0,0,.006,1.062Z" transform="translate(-87.168 -172.053)" fill="#21418e"/><path d="M68.04,261.046a.536.536,0,0,0,.006,1.062H68.1a.535.535,0,0,0-.012-1.062Z" transform="translate(-63.354 -171.991)" fill="#21418e"/></g></svg>