<svg xmlns="http://www.w3.org/2000/svg" width="32.416" height="32.416" viewBox="0 0 32.416 32.416"><g transform="translate(0 0)"><path d="M30.259,0a2.156,2.156,0,0,0-1.119.313L24.375,3.205a12.014,12.014,0,0,0-19.759,12L1.592,17.038A3.329,3.329,0,0,0,0,19.868a1.568,1.568,0,0,0,3.137,0v-.215l2.722-1.507a11.989,11.989,0,0,0,11.8,5.814,2.6,2.6,0,0,0,.645.09h6.8a1.568,1.568,0,0,1,0,3.137H10.456a2.614,2.614,0,1,0,0,5.228H25.618V31.37H10.456a1.568,1.568,0,1,1,0-3.137H25.1A2.614,2.614,0,0,0,25.1,23H21.1A12.013,12.013,0,0,0,26.887,6.5L31.3,4.061A2.167,2.167,0,0,0,30.259,0ZM26.664,12.629l.478.276a10.986,10.986,0,0,1-.263,1.659L25.1,13.535Zm-2.614,1.51,2.528,1.46a10.889,10.889,0,0,1-.62,1.453l-3.477-2.008Zm-4.705,8.4V1.5a10.964,10.964,0,0,1,1.568.61V21.931a11.005,11.005,0,0,1-1.568.612Zm2.614-1.764V18.968l1.779,1.027a11.054,11.054,0,0,1-1.3,1.061Zm0-3.019V15.949l3.475,2.006a11,11,0,0,1-.95,1.262Zm0-14.489L22.436,3a11.034,11.034,0,0,1,1,.78l-1.477.9ZM5.751,11.421l-.478-.276a10.986,10.986,0,0,1,.263-1.659l1.783,1.029Zm2.614-1.51L5.837,8.452A10.889,10.889,0,0,1,6.457,7L9.933,9.007Zm2.091-6.641V5.083L8.678,4.056a11.055,11.055,0,0,1,1.3-1.061Zm0,3.019V8.1L6.982,6.1a11,11,0,0,1,.95-1.262Zm0,14.489-.478.276A11.059,11.059,0,0,1,8.671,20l1.785-1.031ZM5.264,12.91l5.192-3v1.744L5.545,14.638a11,11,0,0,1-.281-1.728ZM2.091,19.037v.831a.523.523,0,1,1-1.046,0,2.277,2.277,0,0,1,1.089-1.936l8.322-5.053v1.526ZM10.456,15.6v2.159L7.922,19.224a10.945,10.945,0,0,1-1.147-1.585Zm3.66,7.2V3.66H13.07V22.538a11.031,11.031,0,0,1-1.568-.6V2.12a10.947,10.947,0,0,1,1.568-.612V2.614h1.046V1.251a11.011,11.011,0,0,1,1.568-.179v18.8H16.73V1.07a11.036,11.036,0,0,1,1.568.175V22.8c-.192.037-.389.063-.585.089a1.568,1.568,0,0,1-.983-1.452v-.523H15.685v.523A2.59,2.59,0,0,0,16.22,23h-.013a10.874,10.874,0,0,1-2.091-.2ZM26.588,8.447,25.56,9.04l.523.906.8-.462a10.985,10.985,0,0,1,.263,1.658l-5.188,3V12.327l3.3-1.905-.523-.906-2.777,1.6V9.234l4.014-2.222a10.921,10.921,0,0,1,.615,1.435Zm4.209-5.3L21.959,8.039V5.9l7.723-4.689A1.118,1.118,0,1,1,30.8,3.146Zm0,0" transform="translate(0 0)" fill="#21418e"/><path d="M408,480h1.046v1.046H408Zm0,0" transform="translate(-381.336 -448.63)" fill="#21418e"/></g></svg>